<svg xmlns="http://www.w3.org/2000/svg" viewBox="0 0 64 80" x="0px" y="0px"><title>palace-king-estate-castle-building</title><g><path d="M26,22.236a2.6,2.6,0,0,0-1-2.059,2.6,2.6,0,0,0-1,2.059V24h2Z"/><path d="M4,28H5V26.236a4.6,4.6,0,0,1,2.553-4.131,1,1,0,0,1,.894,0A4.6,4.6,0,0,1,11,26.236V28h1V20H4Z"/><path d="M4,56h8V30H4ZM5,37.236A4.6,4.6,0,0,1,7.553,33.1a1,1,0,0,1,.894,0A4.6,4.6,0,0,1,11,37.236V40a1,1,0,0,1-1,1H6a1,1,0,0,1-1-1Zm0,12a4.6,4.6,0,0,1,2.553-4.131,1,1,0,0,1,.894,0A4.6,4.6,0,0,1,11,49.236V52a1,1,0,0,1-1,1H6a1,1,0,0,1-1-1Z"/><path d="M8,24.177a2.6,2.6,0,0,0-1,2.059V28H9V26.236A2.6,2.6,0,0,0,8,24.177Z"/><path d="M14,56H24V26H14Zm2-21.172a7.772,7.772,0,0,1,2.293-5.535,1,1,0,0,1,1.414,0A7.772,7.772,0,0,1,22,34.828V38a1,1,0,0,1-1,1H17a1,1,0,0,1-1-1Zm0,15a7.772,7.772,0,0,1,2.293-5.535,1,1,0,0,1,1.414,0A7.772,7.772,0,0,1,22,49.828V53a1,1,0,0,1-1,1H17a1,1,0,0,1-1-1Z"/><path d="M20,34.828a5.789,5.789,0,0,0-1-3.267,5.789,5.789,0,0,0-1,3.267V37h2Z"/><path d="M20,49.828a5.789,5.789,0,0,0-1-3.267,5.789,5.789,0,0,0-1,3.267V52h2Z"/><path d="M5.707,16.293a1,1,0,0,1,0,1.414L5.414,18h5.172l-.293-.293a1,1,0,0,1,0-1.414l.265-.265a1.511,1.511,0,0,0-.7-2.534A3.763,3.763,0,0,1,8,12.4a3.759,3.759,0,0,1-1.856,1.1,1.511,1.511,0,0,0-.7,2.534Z"/><path d="M27.869,14h8.262l-.963-1.445a1,1,0,0,1,.125-1.262A2.3,2.3,0,0,0,36,9.657a2.248,2.248,0,0,0-1.8-2.2A3.972,3.972,0,0,1,32,6.191a3.971,3.971,0,0,1-2.2,1.268,2.242,2.242,0,0,0-1.146,3.783,1.081,1.081,0,0,1,.176,1.313Z"/><path d="M22.707,12.293a1,1,0,0,1,0,1.414L22.414,14h3.051l1.291-1.938A4.247,4.247,0,0,1,26,9.657a4.237,4.237,0,0,1,.042-.48A3.762,3.762,0,0,1,25,8.4a3.759,3.759,0,0,1-1.856,1.1,1.511,1.511,0,0,0-.7,2.534Z"/><path d="M38.535,14h3.051l-.293-.293a1,1,0,0,1,0-1.414l.265-.265a1.511,1.511,0,0,0-.7-2.534A3.763,3.763,0,0,1,39,8.4a3.762,3.762,0,0,1-1.042.781,4.237,4.237,0,0,1,.042.48,4.275,4.275,0,0,1-.753,2.411Z"/><path d="M53.707,16.293a1,1,0,0,1,0,1.414L53.414,18h5.172l-.293-.293a1,1,0,0,1,0-1.414l.265-.265a1.511,1.511,0,0,0-.7-2.534A3.763,3.763,0,0,1,56,12.4a3.759,3.759,0,0,1-1.856,1.1,1.511,1.511,0,0,0-.7,2.534Z"/><path d="M32,20.177a2.6,2.6,0,0,0-1,2.059V24h2V22.236A2.6,2.6,0,0,0,32,20.177Z"/><path d="M22,22.236a4.6,4.6,0,0,1,2.553-4.131,1,1,0,0,1,.894,0A4.6,4.6,0,0,1,28,22.236V24h1V22.236a4.6,4.6,0,0,1,2.553-4.131,1,1,0,0,1,.894,0A4.6,4.6,0,0,1,35,22.236V24h1V22.236a4.6,4.6,0,0,1,2.553-4.131,1,1,0,0,1,.894,0A4.6,4.6,0,0,1,42,22.236V24h1V16H21v8h1Z"/><path d="M32,46.252a5.724,5.724,0,0,0-2,4.353V56h4v-5.4A5.724,5.724,0,0,0,32,46.252Z"/><path d="M9,37.236a2.6,2.6,0,0,0-1-2.059,2.6,2.6,0,0,0-1,2.059V39H9Z"/><path d="M9,49.236a2.6,2.6,0,0,0-1-2.059,2.6,2.6,0,0,0-1,2.059V51H9Z"/><path d="M57,37.236a2.6,2.6,0,0,0-1-2.059,2.6,2.6,0,0,0-1,2.059V39h2Z"/><path d="M57,49.236a2.6,2.6,0,0,0-1-2.059,2.6,2.6,0,0,0-1,2.059V51h2Z"/><path d="M40,56H50V26H40Zm2-21.172a7.772,7.772,0,0,1,2.293-5.535,1,1,0,0,1,1.414,0A7.772,7.772,0,0,1,48,34.828V38a1,1,0,0,1-1,1H43a1,1,0,0,1-1-1Zm0,15a7.772,7.772,0,0,1,2.293-5.535,1,1,0,0,1,1.414,0A7.772,7.772,0,0,1,48,49.828V53a1,1,0,0,1-1,1H43a1,1,0,0,1-1-1Z"/><path d="M46,49.828a5.789,5.789,0,0,0-1-3.267,5.789,5.789,0,0,0-1,3.267V52h2Z"/><path d="M52,20v8h1V26.236a4.6,4.6,0,0,1,2.553-4.131,1,1,0,0,1,.894,0A4.6,4.6,0,0,1,59,26.236V28h1V20Z"/><path d="M52,56h8V30H52Zm1-18.764A4.6,4.6,0,0,1,55.553,33.1a1,1,0,0,1,.894,0A4.6,4.6,0,0,1,59,37.236V40a1,1,0,0,1-1,1H54a1,1,0,0,1-1-1Zm0,12a4.6,4.6,0,0,1,2.553-4.131,1,1,0,0,1,.894,0A4.6,4.6,0,0,1,59,49.236V52a1,1,0,0,1-1,1H54a1,1,0,0,1-1-1Z"/><path d="M56,24.177a2.6,2.6,0,0,0-1,2.059V28h2V26.236A2.6,2.6,0,0,0,56,24.177Z"/><rect x="26" y="38" width="12" height="2"/><path d="M26,36h2V34.6a7.72,7.72,0,0,1,3.445-6.437,1,1,0,0,1,1.11,0A7.72,7.72,0,0,1,36,34.6V36h2V26H26Z"/><path d="M40,22.236a2.6,2.6,0,0,0-1-2.059,2.6,2.6,0,0,0-1,2.059V24h2Z"/><path d="M26,56h2v-5.4a7.72,7.72,0,0,1,3.445-6.437,1,1,0,0,1,1.11,0A7.72,7.72,0,0,1,36,50.605V56h2V42H26Z"/><path d="M46,34.828a5.789,5.789,0,0,0-1-3.267,5.789,5.789,0,0,0-1,3.267V37h2Z"/><path d="M32,30.252A5.724,5.724,0,0,0,30,34.6V36h4V34.6A5.724,5.724,0,0,0,32,30.252Z"/></g><text x="0" y="79" fill="#000000" font-size="5px" font-weight="bold" font-family="'Helvetica Neue', Helvetica, Arial-Unicode, Arial, Sans-serif">Created by mynamepong</text><text x="0" y="84" fill="#000000" font-size="5px" font-weight="bold" font-family="'Helvetica Neue', Helvetica, Arial-Unicode, Arial, Sans-serif">from the Noun Project</text></svg>