<svg xmlns:x="http://ns.adobe.com/Extensibility/1.0/" xmlns:i="http://ns.adobe.com/AdobeIllustrator/10.0/" xmlns:graph="http://ns.adobe.com/Graphs/1.0/" xmlns="http://www.w3.org/2000/svg" xmlns:xlink="http://www.w3.org/1999/xlink" xmlns:a="http://ns.adobe.com/AdobeSVGViewerExtensions/3.0/" version="1.1" x="0px" y="0px" viewBox="0 0 100 125" enable-background="new 0 0 100 100" xml:space="preserve"><metadata><?xpacket begin="&#65279;" id="W5M0MpCehiHzreSzNTczkc9d"?><x:xmpmeta xmlns:x="adobe:ns:meta/" x:xmptk="Adobe XMP Core 5.5-c014 79.151739, 2013/04/03-12:12:15        "/><?xpacket end="w"?></metadata><path d="M45.2415771,66.5H41.25c-0.5527344,0-1,0.4477539-1,1v5c0,0.5522461,0.4472656,1,1,1h4v4v5v5c0,0.5522461,0.4472656,1,1,1h5  h5c0.5527344,0,1-0.4477539,1-1v-5v-5v-4h4c0.5527344,0,1-0.4477539,1-1v-5c0-0.5522461-0.4472656-1-1-1h-3.7307129  c1.5870972-6.9954834,8.3494873-40.7957153-5.5622559-54.7070313c-0.2695313-0.2700195-0.6728516-0.3637695-1.03125-0.2387695  c-0.3613281,0.1240234-0.6210938,0.4428711-0.6679688,0.8217773C50.2333984,12.5673828,47.7626953,31.5,38.75,31.5  c-0.4023438,0-0.7626953,0.2431641-0.9189453,0.6137695c-0.15625,0.3701172-0.0732422,0.8007813,0.2070313,1.0888672  C38.109436,33.2754517,45.0631104,40.7341919,45.2415771,66.5z M50.25,86.5h-3v-3h3V86.5z M50.25,81.5h-3v-3h3V81.5z M50.25,76.5h-3  v-3h3V76.5z M55.25,86.5h-3v-3h3V86.5z M55.25,81.5h-3v-3h3V81.5z M55.25,76.5h-3v-3h3V76.5z M60.25,68.5v3h-4h-5h-5h-4v-3h4  h10.0068359H60.25z M51.9052734,14.7285156C63.3457031,28.9667969,56.6777344,61.1489258,55.4638672,66.5h-8.2167969  c-0.1376953-20.6640625-4.5126953-29.9150391-6.6484375-33.2075195  C48.0458984,31.5761719,50.9941406,19.6625977,51.9052734,14.7285156z"/><text x="0" y="115" fill="#000000" font-size="5px" font-weight="bold" font-family="'Helvetica Neue', Helvetica, Arial-Unicode, Arial, Sans-serif">Created by twist.glyph</text><text x="0" y="120" fill="#000000" font-size="5px" font-weight="bold" font-family="'Helvetica Neue', Helvetica, Arial-Unicode, Arial, Sans-serif">from the Noun Project</text></svg>