<svg xmlns="http://www.w3.org/2000/svg" xmlns:xlink="http://www.w3.org/1999/xlink" version="1.1" x="0px" y="0px" viewBox="0 0 48 60" enable-background="new 0 0 48 48" xml:space="preserve"><g><path d="M37.8,25.1C43.9,24.3,48,16.4,48,4.9c0-0.4-0.3-0.8-0.6-0.9c-0.4-0.1-0.8,0-1.1,0.3c-0.8,0.9-1.6,1.6-2.3,2.1   c-1.2-3.5-6.2-6-6.8-6.3c-0.3-0.1-0.6-0.1-0.9,0c-0.6,0.3-5.6,2.7-6.8,6.2c-0.7-0.5-1.5-1.1-2.3-2c0,0,0,0,0,0   c-1.3-1-1.7,0.5-1.7,0.7c0,0,0,0,0,0c0,11.5,4.1,19.4,10.3,20.2c0.1,1.8-0.2,3.3-0.7,4.6c-0.3-1.3-0.9-2.5-1.8-3.5   c-1.7-1.8-4.1-2.7-6.9-2.4c-0.5,0-0.8,0.4-0.9,0.9c-0.3,2.4,0.4,4.7,1.9,6.4c1.2,1.4,2.9,2.2,4.8,2.4c-0.7,0.7-1.5,1.3-2.4,2   c-2.2,1.8-4.6,3.7-5.9,6.7c-1.3-3-3.7-5-5.9-6.7c-0.8-0.7-1.6-1.3-2.4-2c1.9-0.2,3.6-1.1,4.8-2.4c1.5-1.7,2.2-3.9,1.9-6.4   c0-0.5-0.4-0.8-0.9-0.9c-2.8-0.3-5.2,0.6-6.9,2.4c-0.9,1-1.5,2.2-1.8,3.5c-0.5-1.3-0.8-2.7-0.7-4.6c6.2-0.7,10.3-8.6,10.3-20.2   c0,0,0,0,0,0c-0.2-1.5-1.6-0.9-1.7-0.7c0,0,0,0,0,0c-0.8,0.9-1.6,1.5-2.3,2c-1.2-3.5-6.2-5.9-6.8-6.2c-0.3-0.1-0.6-0.1-0.9,0   C10.2,0.4,5.2,2.9,4,6.4C3.3,5.8,2.5,5.2,1.7,4.3C1.5,4,1,3.9,0.6,4C0.3,4.2,0,4.5,0,4.9c0,11.5,4.1,19.3,10.2,20.2   c-0.2,4.8,1.7,7.6,4.2,9.8c-1.8,0.3-3.4,1.1-4.5,2.4c-1.5,1.7-2.2,3.9-1.9,6.4c0,0.5,0.4,0.8,0.9,0.9c0.3,0,0.7,0.1,1,0.1   c2.3,0,4.4-0.9,5.9-2.5c1.1-1.2,1.8-2.8,1.9-4.5c2.8,2.3,5.3,4.6,5.4,9.4c0,0.5,0.4,0.9,0.9,1c0,0,0,0,0.1,0c0,0,0,0,0,0   c0,0,0,0,0,0c0,0,0,0,0,0c0,0,0,0,0.1,0c0.5,0,0.9-0.4,0.9-1c0.1-4.8,2.6-7.1,5.4-9.4c0.2,1.7,0.8,3.3,1.9,4.5   c1.5,1.6,3.5,2.5,5.9,2.5c0,0,0,0,0,0c0.3,0,0.7,0,1-0.1c0.5,0,0.8-0.4,0.9-0.9c0.3-2.4-0.4-4.7-1.9-6.4c-1.2-1.3-2.7-2.1-4.5-2.4   C36.1,32.7,38,29.9,37.8,25.1z M36.7,2.1c1.8,0.9,5.2,3.1,5.5,5.4C41,8.1,40,8.4,39,8.6c-0.9,0.2-1.8,0.5-2.5,0.9   c-1.1-1.1-2.3-1.5-3.5-1.8c-0.5-0.1-1.1-0.3-1.6-0.5C31.8,5.1,35,3,36.7,2.1z M27.5,7.3c1.9,1.5,3.5,2,4.9,2.3c1,0.3,1.7,0.5,2.4,1   c-1.5,1.5-2.6,4.1-3.6,9.3C29.2,17.2,27.8,12.8,27.5,7.3z M32.9,21.8c1.7-10,3.6-10.4,6.6-11.2c1.8-0.5,3.9-1,6.4-3.2   c-0.5,9.4-4.2,15.8-9.2,15.8C35.3,23.2,34,22.7,32.9,21.8z M20.5,7.3c-0.3,5.4-1.6,9.9-3.7,12.6c-1-5.2-2.2-7.8-3.6-9.3   c0.6-0.6,1.4-0.8,2.4-1C16.9,9.3,18.6,8.9,20.5,7.3z M11.3,2.1c1.7,0.9,4.9,3,5.4,5.1c-0.6,0.2-1.1,0.4-1.6,0.5   c-1.2,0.3-2.4,0.6-3.5,1.8C10.8,9.1,9.9,8.9,9,8.6C8,8.4,7,8.1,5.8,7.5C6.1,5.3,9.5,3,11.3,2.1z M2.1,7.4c2.5,2.2,4.7,2.7,6.4,3.2   c3,0.8,4.9,1.3,6.6,11.2c-1.1,0.9-2.4,1.4-3.8,1.4C6.2,23.2,2.6,16.8,2.1,7.4z M16.1,27.5c1.1-1.2,2.6-1.8,4.4-1.8   c0,1.5-0.5,2.9-1.4,4c-1.1,1.2-2.6,1.8-4.4,1.8C14.7,30,15.2,28.6,16.1,27.5z M14.2,40.8c-1.1,1.2-2.6,1.8-4.4,1.8   c0-1.5,0.5-2.9,1.4-4c1.1-1.2,2.6-1.8,4.4-1.8C15.7,38.4,15.2,39.8,14.2,40.8z M29,29.7c-0.9-1-1.4-2.4-1.4-4   c1.8,0,3.3,0.7,4.4,1.8c0.9,1,1.4,2.4,1.4,4C31.6,31.5,30,30.8,29,29.7z M36.7,38.7c0.9,1,1.4,2.4,1.4,4c-1.8,0-3.3-0.7-4.4-1.8   c-0.9-1-1.4-2.4-1.4-4C34.1,36.8,35.6,37.5,36.7,38.7z"/></g><text x="0" y="63" fill="#000000" font-size="5px" font-weight="bold" font-family="'Helvetica Neue', Helvetica, Arial-Unicode, Arial, Sans-serif">Created by Vectors Market</text><text x="0" y="68" fill="#000000" font-size="5px" font-weight="bold" font-family="'Helvetica Neue', Helvetica, Arial-Unicode, Arial, Sans-serif">from the Noun Project</text></svg>