<svg xmlns="http://www.w3.org/2000/svg" xmlns:xlink="http://www.w3.org/1999/xlink" version="1.1" x="0px" y="0px" viewBox="0 0 113.387 141.7325" enable-background="new 0 0 113.387 113.386" xml:space="preserve"><path d="M96.859,51.533c-0.745-0.5-1.569-0.643-2.446-0.534c-0.664,0.082-1.289,0.296-1.879,0.61  c-1.008,0.538-1.854,1.273-2.572,2.158c-0.066,0.083-0.136,0.13-0.249,0.137c-0.378,0.02-0.754,0.072-1.125,0.158  c-0.039,0.009-0.08,0.011-0.125,0.016c0.002-0.028,0-0.044,0.004-0.057c0.019-0.06,0.035-0.12,0.055-0.179  c0.536-1.689,1.168-3.342,1.93-4.943c0.297-0.624,0.623-1.233,0.934-1.85c0.046-0.09,0.108-0.154,0.2-0.198  c0.107-0.049,0.211-0.112,0.318-0.167c0.729-0.373,1.479-0.682,2.296-0.814c0.283-0.045,0.569-0.09,0.858-0.06  c0.232,0.025,0.464,0.072,0.694,0.109c0.028,0.004,0.058,0.008,0.104,0.013c-0.023-0.021-0.028-0.029-0.036-0.034  c-0.035-0.016-0.069-0.034-0.104-0.048c-0.505-0.221-1.031-0.293-1.575-0.21c-0.9,0.138-1.768,0.394-2.597,0.772  c-1.363,0.621-2.553,1.485-3.555,2.596c-0.427,0.475-0.817,0.98-1.219,1.474c-0.612,0.754-1.09,1.592-1.483,2.476  c-0.51,1.147-0.871,2.343-1.162,3.564c-0.016,0.065-0.031,0.125-0.082,0.178c-0.449,0.464-0.842,0.971-1.191,1.512  c-0.015,0.021-0.034,0.035-0.052,0.054c-0.004-0.065,0.01-0.12,0.024-0.175c0.179-0.598,0.353-1.195,0.536-1.792  c0.528-1.708,1.188-3.363,2.005-4.955c0.505-0.984,1.068-1.932,1.678-2.852c0.026-0.039,0.064-0.074,0.068-0.159  c-1.136,1.036-2.165,2.124-3.068,3.329c-0.904,1.203-1.681,2.489-2.367,3.831c0.24-1.041,0.538-2.062,0.894-3.066  c0.354-1.002,0.756-1.985,1.173-2.964c-1.294,2.077-2.371,4.259-3.179,6.572c-0.013-0.021-0.012-0.039-0.008-0.056  c0.099-0.824,0.24-1.643,0.401-2.457c0.186-0.926,0.417-1.842,0.69-2.747c0.096-0.317,0.199-0.631,0.3-0.947  c0.015-0.047,0.025-0.102,0.105-0.089c-0.062-0.086-0.023-0.156,0.002-0.229c0.476-1.376,1.05-2.709,1.718-4.004  c0.021-0.042,0.042-0.084,0.062-0.128c-0.008-0.002-0.017-0.008-0.025-0.012c-0.447,0.557-0.855,1.142-1.232,1.75  c-0.379,0.611-0.715,1.242-1.029,1.889c-0.025-0.016-0.037-0.019-0.043-0.026c-0.197-0.214-0.396-0.43-0.599-0.642  c-0.056-0.058-0.057-0.113-0.038-0.183c0.183-0.681,0.366-1.362,0.545-2.043c0.029-0.107,0.089-0.168,0.188-0.217  c0.956-0.461,1.942-0.845,2.956-1.164c1.36-0.426,2.751-0.734,4.16-0.952c0.103-0.017,0.205-0.037,0.321-0.058  c-0.191,0-0.368-0.002-0.544,0.001c-0.85,0.013-1.696,0.08-2.539,0.185c-1.351,0.171-2.676,0.456-3.962,0.907  c-0.032,0.012-0.067,0.016-0.12,0.026c0.021-0.06,0.031-0.102,0.05-0.139c0.189-0.399,0.38-0.797,0.57-1.195  c0.171-0.355,0.414-0.655,0.682-0.939c1-1.067,2.193-1.84,3.567-2.335c1.177-0.425,2.396-0.599,3.644-0.58  c0.729,0.012,1.443,0.101,2.148,0.281c1.285,0.329,2.426,0.921,3.381,1.851c0.017,0.015,0.034,0.026,0.051,0.039  c-0.022-0.068-0.061-0.121-0.102-0.172c-0.405-0.511-0.875-0.955-1.415-1.321c-1.483-1.007-3.125-1.427-4.909-1.299  c-0.685,0.049-1.351,0.188-1.984,0.444c-0.526,0.21-1.045,0.439-1.559,0.675c-1.188,0.546-2.163,1.364-2.956,2.396  c-0.551,0.717-1.036,1.477-1.401,2.306c-0.031,0.071-0.073,0.116-0.146,0.146c-0.37,0.158-0.739,0.321-1.108,0.48  c-0.028,0.012-0.061,0.018-0.111,0.033c0.141-0.729,0.308-1.431,0.502-2.128c0.193-0.692,0.407-1.379,0.613-2.076  c-0.016,0.013-0.023,0.018-0.027,0.026c-0.034,0.073-0.069,0.147-0.103,0.222c-0.598,1.338-1.095,2.713-1.498,4.122  c-0.027,0.099-0.074,0.163-0.168,0.214c-0.283,0.159-0.565,0.326-0.842,0.501c-0.101,0.062-0.179,0.068-0.287,0.017  c-0.82-0.388-1.688-0.596-2.596-0.631c-0.109-0.004-0.172-0.041-0.23-0.132c-0.25-0.392-0.511-0.778-0.767-1.167  c-0.027-0.039-0.059-0.078-0.087-0.116c0.165,0.47,0.357,0.922,0.522,1.417c-0.646,0.041-1.252,0.166-1.84,0.393  c-0.049-0.073-0.09-0.137-0.132-0.201c-0.005,0.004-0.012,0.008-0.017,0.01c0.022,0.07,0.045,0.141,0.063,0.205  c-0.358,0.194-0.708,0.381-1.062,0.572c-0.278-0.55-0.554-1.096-0.831-1.646c0.021-0.015,0.031-0.023,0.043-0.031  c0.03-0.016,0.06-0.032,0.09-0.047c1.2-0.589,2.452-1.041,3.751-1.368c1.624-0.411,3.275-0.627,4.95-0.665  c0.049-0.001,0.101,0.015,0.162-0.032c-0.95-0.354-1.914-0.558-2.904-0.617c-2.405-0.145-4.644,0.407-6.698,1.66  c-0.024-0.021-0.04-0.027-0.048-0.039c-0.022-0.035-0.045-0.072-0.067-0.11c-0.603-0.999-1.253-1.965-1.969-2.888  c-0.02-0.026-0.046-0.047-0.068-0.07c0.02,0.094,0.057,0.172,0.095,0.249c0.506,1.024,0.973,2.065,1.407,3.122  c0.059,0.141,0.059,0.141-0.065,0.234c-0.357,0.274-0.694,0.574-1.015,0.893c-0.399,0.396-0.749,0.836-1.101,1.274  c-0.03,0.041-0.065,0.077-0.112,0.129c-0.663-0.869-1.448-1.579-2.356-2.171c0.232-0.524,0.484-1.024,0.729-1.529  c-0.182,0.216-0.351,0.436-0.516,0.66c-0.165,0.227-0.323,0.459-0.482,0.684c-0.295-0.135-0.569-0.271-0.854-0.389  c-0.288-0.12-0.588-0.206-0.898-0.244c-0.303-0.037-0.604-0.054-0.919-0.08c0.149-0.806,0.325-1.603,0.543-2.387  c0.217-0.781,0.454-1.556,0.685-2.344c-0.023,0.052-0.047,0.094-0.065,0.138c-0.361,0.795-0.696,1.601-0.978,2.429  c-0.234,0.69-0.448,1.388-0.66,2.085c-0.039,0.128-0.097,0.185-0.228,0.21c-0.206,0.042-0.408,0.108-0.61,0.166  c-0.032,0.009-0.062,0.027-0.094,0.042c0.271-0.016,0.537-0.068,0.812-0.041c-0.128,0.538-0.256,1.053-0.37,1.572  c-0.114,0.517-0.214,1.036-0.319,1.554c-0.075-0.322-0.131-0.643-0.188-0.964c-0.122-0.719-0.32-1.42-0.505-2.126  c-0.28-1.068-0.588-2.124-1.084-3.12c-0.508-1.021-1.103-1.977-1.915-2.786c-0.166-0.165-0.333-0.331-0.488-0.507  c-0.333-0.378-0.729-0.662-1.203-0.837c-0.583-0.217-1.186-0.267-1.799-0.175c-1.066,0.161-1.893,0.7-2.474,1.611  c-0.021,0.032-0.034,0.068-0.058,0.114c0.023-0.008,0.029-0.008,0.032-0.01c0.027-0.027,0.057-0.053,0.083-0.08  c0.351-0.346,0.755-0.606,1.213-0.784c0.653-0.253,1.329-0.317,2.021-0.23c0.843,0.106,1.604,0.416,2.271,0.944  c0.545,0.435,1.037,0.925,1.447,1.494c0.165,0.229,0.331,0.46,0.462,0.71c0.476,0.917,0.793,1.891,1.039,2.89  c0.223,0.905,0.384,1.821,0.514,2.743c0.077,0.545,0.129,1.095,0.183,1.644c0.035,0.354,0.057,0.707,0.076,1.062  c0.014,0.262,0.031,0.528,0.018,0.789c-0.017,0.365-0.06,0.727-0.092,1.091c-0.007,0.071-0.015,0.143-0.021,0.216  c-0.012,0-0.021,0-0.03,0.001c-0.017-0.064-0.032-0.127-0.048-0.19c-0.399-1.643-0.857-3.266-1.439-4.853  c-0.466-1.267-1.019-2.496-1.688-3.67c-0.036-0.064-0.072-0.127-0.11-0.191c0.027,0.21,0.074,0.41,0.121,0.61  c0.295,1.242,0.548,2.492,0.741,3.753c0.111,0.726,0.207,1.454,0.308,2.179c0.026,0.201,0.042,0.402,0.065,0.602  c0.008,0.074-0.021,0.115-0.093,0.14c-0.172,0.057-0.343,0.124-0.514,0.185c-0.031,0.01-0.062,0.013-0.1,0.021  c-0.017-0.042-0.031-0.077-0.041-0.114c-0.249-0.882-0.535-1.752-0.872-2.605c-0.036-0.089-0.025-0.149,0.047-0.212  c0.192-0.168,0.378-0.342,0.564-0.513c0.038-0.034,0.073-0.071,0.11-0.104c-0.008-0.011-0.013-0.02-0.018-0.029  c-0.286,0.142-0.57,0.284-0.872,0.433c-0.363-0.873-0.758-1.722-1.229-2.532c0.326,0.895,0.645,1.791,0.916,2.712  c-0.28,0.175-0.551,0.344-0.827,0.517c-0.023-0.044-0.042-0.073-0.056-0.102c-0.238-0.54-0.477-1.08-0.717-1.619  c-0.546-1.224-1.156-2.414-1.845-3.564c-0.602-1.005-1.252-1.977-1.969-2.905c-0.029-0.04-0.062-0.078-0.095-0.117  c-0.008,0.053,0.006,0.092,0.023,0.129c0.455,0.889,0.851,1.805,1.247,2.721c0.603,1.392,1.121,2.815,1.566,4.266  c0.201,0.655,0.393,1.314,0.591,1.971c0.031,0.102,0.004,0.162-0.073,0.232c-0.348,0.311-0.687,0.629-1.027,0.944  c-0.038,0.034-0.075,0.07-0.133,0.123c-0.469-1.333-1.064-2.578-1.812-3.765c0.205-0.186,0.399-0.36,0.594-0.536  c-0.123,0.055-0.229,0.129-0.336,0.202c-0.104,0.076-0.207,0.15-0.323,0.235c-1.553-2.366-3.647-4.086-6.123-5.372  c0.029,0.043,0.068,0.077,0.106,0.111c1.314,1.208,2.603,2.444,3.785,3.784c0.53,0.602,1.037,1.223,1.513,1.868  c0.027,0.037,0.051,0.076,0.075,0.116c-0.333,0.304-0.653,0.596-0.981,0.896c-0.341-0.229-0.684-0.446-1.056-0.613  c0.297,0.25,0.596,0.503,0.901,0.762c-0.115,0.144-0.229,0.261-0.364,0.378c-0.033-0.063-0.058-0.109-0.081-0.157  c-0.229-0.463-0.473-0.919-0.749-1.356c-0.408-0.645-0.882-1.233-1.459-1.735c-0.5-0.436-1.049-0.791-1.68-1.009  c-0.482-0.167-0.976-0.242-1.486-0.158c-0.111,0.019-0.222,0.047-0.325,0.068c-0.396-0.67-0.787-1.328-1.185-1.998  c0.664-0.342,1.346-0.61,2.054-0.853c-0.026-0.018-0.033-0.027-0.042-0.027c-0.048-0.003-0.096-0.006-0.144-0.006  c-0.728-0.011-1.446,0.061-2.156,0.222c-0.153,0.035-0.152,0.033-0.245-0.096c-0.199-0.276-0.397-0.552-0.599-0.828  c-0.021-0.027-0.045-0.051-0.068-0.076c-0.003,0.004-0.007,0.007-0.011,0.011c0.187,0.35,0.373,0.7,0.566,1.063  c-0.063,0.023-0.107,0.04-0.152,0.054c-0.119,0.038-0.239,0.072-0.357,0.111c-1.383,0.458-2.605,1.185-3.65,2.205  c-0.451,0.441-0.847,0.929-1.197,1.453c-0.028,0.041-0.06,0.08-0.096,0.128c-0.027-0.034-0.043-0.052-0.057-0.072  c-0.219-0.333-0.436-0.667-0.656-0.998c-0.626-0.938-1.425-1.693-2.417-2.234c-0.676-0.367-1.389-0.602-2.166-0.609  c-0.52-0.004-1.011,0.097-1.478,0.32c-0.053,0.025-0.104,0.055-0.158,0.083c0.047,0.014,0.083,0.005,0.118-0.005  c0.255-0.074,0.516-0.111,0.781-0.111c0.319,0,0.63,0.052,0.937,0.132c0.623,0.164,1.196,0.441,1.75,0.763  c1.265,0.736,2.303,1.703,3.031,2.984c0.059,0.102,0.069,0.18,0.007,0.287c-0.236,0.412-0.432,0.845-0.597,1.292  c-0.161,0.437-0.303,0.881-0.383,1.341c-0.087,0.496-0.159,0.994-0.238,1.49c-0.005,0.034-0.021,0.066-0.039,0.115  c-0.048-0.055-0.082-0.094-0.116-0.134c-0.247-0.281-0.489-0.566-0.74-0.844c-0.083-0.091-0.142-0.188-0.182-0.304  c-0.453-1.313-1.003-2.584-1.67-3.803c-0.023-0.045-0.052-0.09-0.078-0.134c0.119,0.375,0.258,0.741,0.388,1.11  c0.132,0.375,0.259,0.752,0.381,1.132c0.119,0.368,0.239,0.736,0.315,1.119c-0.049-0.023-0.084-0.055-0.12-0.084  c-0.421-0.356-0.841-0.714-1.265-1.067c-0.072-0.06-0.127-0.124-0.167-0.21c-0.428-0.943-0.864-1.884-1.359-2.793  c-0.797-1.466-1.689-2.868-2.712-4.187c-0.018-0.023-0.041-0.043-0.061-0.065c0.004,0.054,0.021,0.098,0.043,0.139  c0.463,0.938,0.896,1.89,1.306,2.853c0.698,1.639,1.268,3.323,1.797,5.023c0.331,1.058,0.6,2.133,0.803,3.224  c0.146,0.792,0.279,1.586,0.39,2.385c0.093,0.678,0.148,1.362,0.214,2.045c0.029,0.305,0.044,0.611,0.065,0.917  c0.002,0.025-0.003,0.048-0.005,0.072c-0.029-0.02-0.039-0.039-0.045-0.061c-0.169-0.572-0.375-1.128-0.602-1.679  c-0.283-0.694-0.604-1.368-0.969-2.023c-0.052-0.092-0.102-0.181-0.124-0.287c-0.209-0.988-0.496-1.953-0.867-2.891  c-0.554-1.402-1.273-2.707-2.255-3.86c-0.909-1.065-1.984-1.915-3.262-2.502c-0.869-0.399-1.774-0.569-2.729-0.48  c-0.722,0.068-1.399,0.272-2.035,0.622c-0.041,0.023-0.079,0.049-0.147,0.092c0.066-0.003,0.099-0.003,0.13-0.006  c0.168-0.015,0.334-0.036,0.502-0.043c0.673-0.029,1.343,0.012,2.004,0.146c2.312,0.467,4.205,1.622,5.66,3.479  c0.245,0.313,0.44,0.663,0.671,0.987c0.72,1.02,1.245,2.137,1.665,3.307c0.015,0.042,0.023,0.086,0.036,0.13  c-0.008,0.002-0.019,0.008-0.026,0.01c-0.03-0.041-0.062-0.081-0.09-0.124c-0.564-0.827-1.195-1.598-1.917-2.292  c-0.729-0.703-1.53-1.31-2.417-1.801c-0.041-0.022-0.084-0.043-0.126-0.064c0.024,0.055,0.06,0.086,0.097,0.115  c0.446,0.351,0.869,0.727,1.269,1.13c1.204,1.213,2.156,2.604,2.916,4.133c0.342,0.688,0.618,1.405,0.896,2.12  c0.018,0.043,0.024,0.093,0.03,0.14c0.057,0.453,0.112,0.905,0.167,1.357c0.014,0.125,0.021,0.251,0.032,0.378  c-0.012,0.003-0.022,0.007-0.034,0.011c-0.024-0.044-0.05-0.086-0.073-0.13c-0.674-1.323-1.515-2.523-2.583-3.56  c-0.049-0.048-0.086-0.116-0.109-0.182c-0.205-0.553-0.432-1.099-0.695-1.627c-0.249-0.498-0.511-0.989-0.863-1.424  c-0.411-0.507-0.907-0.894-1.539-1.089c-0.309-0.097-0.623-0.105-0.938-0.06c-0.401,0.059-0.764,0.222-1.102,0.44  c-0.127,0.082-0.102,0.105-0.261-0.005c-0.6-0.419-1.23-0.784-1.893-1.092c-0.035-0.016-0.07-0.029-0.127-0.052  c0.354,0.224,0.689,0.428,1.017,0.647c0.521,0.351,0.854,0.626,0.926,0.746c-0.015,0.016-0.03,0.034-0.048,0.05  c-0.313,0.282-0.564,0.613-0.776,0.976c-0.053,0.091-0.087,0.209-0.167,0.264c-0.078,0.053-0.201,0.044-0.305,0.06  c-1.183,0.195-2.266,0.642-3.258,1.31c-0.028,0.021-0.054,0.044-0.082,0.068c1.078-0.258,2.161-0.316,3.274-0.222  c-0.024,0.24-0.05,0.466-0.073,0.697c-0.525-0.086-1.037-0.17-1.548-0.253c0.03,0.037,0.066,0.05,0.103,0.06  c0.438,0.141,0.877,0.279,1.315,0.42c0.137,0.044,0.132,0.05,0.142,0.193c0.014,0.197,0.034,0.393,0.051,0.59  c0.019-0.23-0.032-0.457,0.013-0.708c0.908,0.333,1.773,0.72,2.623,1.213c-0.938,0.501-1.611,1.223-2.075,2.157  c-0.058-0.031-0.102-0.058-0.146-0.083c-0.24-0.13-0.475-0.274-0.722-0.389c-0.777-0.361-1.587-0.565-2.454-0.484  c-0.505,0.047-0.975,0.198-1.41,0.46c-0.068,0.042-0.134,0.087-0.202,0.132c0.045,0.008,0.078-0.006,0.111-0.021  c0.249-0.107,0.508-0.172,0.777-0.203c0.453-0.054,0.899-0.001,1.341,0.102c0.849,0.198,1.632,0.554,2.389,0.977  c0.029,0.016,0.053,0.038,0.082,0.059c-0.045,0.205-0.095,0.404-0.134,0.604c-0.038,0.204-0.069,0.407-0.032,0.617  c0.183-0.33,0.38-0.643,0.633-0.934c0.114,0.088,0.209,0.168,0.311,0.241c0.751,0.542,1.363,1.218,1.9,1.969  c0.081,0.112,0.169,0.226,0.224,0.351c0.126,0.291,0.24,0.586,0.346,0.886c0.275,0.78,0.44,1.589,0.606,2.397  c0.246,1.198,0.398,2.41,0.494,3.631c0.008,0.095,0.021,0.188,0.034,0.287c0.043,0.006,0.075,0.014,0.108,0.014  c0.048,0,0.095,0,0.142,0c-2.63,1.355-4.127,3.013-4.127,4.975H91.76c0-1.979-1.52-3.646-4.193-5.01  c-0.001-0.044-0.002-0.082-0.002-0.096c0.005-0.182,0.008-0.362,0.013-0.545c0.015-0.428,0.012-0.855,0.046-1.28  c0.062-0.761,0.136-1.519,0.218-2.275c0.113-1.036,0.297-2.06,0.534-3.073c0.18-0.762,0.36-1.522,0.648-2.251  c0.034-0.09,0.064-0.183,0.115-0.264c0.315-0.51,0.66-1,1.049-1.461c0.101-0.12,0.295-0.162,0.441-0.098  c0.113,0.049,0.228,0.103,0.344,0.147c1.229,0.462,2.104,1.31,2.669,2.484c0.307,0.637,0.488,1.312,0.605,2.004  c0.012,0.076,0.031,0.148,0.053,0.244c0.052-0.047,0.091-0.074,0.116-0.111c0.104-0.148,0.224-0.292,0.304-0.454  c0.25-0.506,0.343-1.043,0.297-1.607c-0.062-0.789-0.434-1.422-1.011-1.941c-0.408-0.368-0.898-0.598-1.427-0.749  c-0.562-0.163-1.142-0.197-1.725-0.169c-0.128,0.005-0.256,0-0.406-0.039c0.047-0.056,0.079-0.097,0.112-0.133  c0.271-0.286,0.566-0.545,0.886-0.779c1.036-0.759,2.173-1.295,3.434-1.554c0.475-0.098,0.953-0.119,1.43-0.012  c0.222,0.051,0.436,0.132,0.655,0.2C96.931,51.586,96.897,51.558,96.859,51.533z M85.027,55.385  c0.141-0.587,0.278-1.175,0.429-1.761c0.259-1.002,0.733-1.899,1.317-2.748c0.912-1.323,2.081-2.364,3.43-3.217  c0.275-0.174,0.56-0.337,0.839-0.504c0.033-0.02,0.066-0.035,0.113-0.06c-0.004,0.071-0.045,0.104-0.074,0.146  c-0.843,1.163-1.616,2.369-2.312,3.625c-0.646,1.158-1.221,2.349-1.72,3.577c-0.04,0.102-0.098,0.164-0.195,0.208  c-0.633,0.286-1.215,0.658-1.759,1.085c-0.04,0.033-0.082,0.064-0.123,0.097c-0.013-0.005-0.021-0.011-0.032-0.016  C84.968,55.675,84.993,55.528,85.027,55.385z M84.566,60.384c0.323-1.059,0.75-2.072,1.337-3.016  c0.045-0.068,0.09-0.137,0.136-0.205c0.004-0.007,0.017-0.009,0.049-0.026c-0.354,1.162-0.645,2.32-0.886,3.49  c-0.24,1.17-0.439,2.346-0.563,3.533c-0.011,0-0.021,0.002-0.031,0.004c-0.015-0.287-0.033-0.572-0.041-0.858  c-0.022-0.819-0.034-1.642-0.065-2.461C84.493,60.683,84.52,60.535,84.566,60.384z M81.006,48.602  c-0.006-0.033-0.012-0.054-0.021-0.097c0.03,0.026,0.051,0.039,0.068,0.057c0.126,0.137,0.248,0.279,0.379,0.413  c0.068,0.07,0.069,0.13,0.029,0.216c-0.322,0.691-0.607,1.4-0.85,2.124c-0.129,0.386-0.245,0.777-0.366,1.166  c-0.019,0.059-0.038,0.118-0.056,0.176c-0.012-0.001-0.024-0.004-0.036-0.005c0.054-0.471,0.101-0.943,0.162-1.413  c0.062-0.467,0.132-0.934,0.206-1.401c0.074-0.467,0.166-0.933,0.278-1.401C80.902,48.455,80.923,48.552,81.006,48.602z   M80.017,46.843c0.008-0.055,0.026-0.099,0.078-0.128c0.323-0.183,0.648-0.365,0.975-0.548c0.012-0.006,0.027-0.005,0.062-0.013  c-0.184,0.599-0.403,1.172-0.603,1.765c-0.038-0.03-0.064-0.048-0.086-0.072c-0.145-0.139-0.283-0.284-0.431-0.42  c-0.062-0.055-0.081-0.107-0.062-0.188C79.981,47.109,79.998,46.976,80.017,46.843z M79.902,47.579  c0.196,0.162,0.368,0.304,0.54,0.446c0.05,0.042,0.034,0.094,0.02,0.146c-0.07,0.264-0.146,0.527-0.211,0.791  c-0.096,0.391-0.188,0.783-0.273,1.177c-0.021,0.09-0.058,0.146-0.148,0.167c-0.074,0.018-0.145,0.047-0.246,0.081  C79.656,49.439,79.758,48.523,79.902,47.579z M79.471,52.246c0.025-0.484,0.057-0.966,0.079-1.449  c0.005-0.082,0.032-0.134,0.104-0.173c0.07-0.037,0.137-0.081,0.205-0.123c0.009,0.005,0.019,0.01,0.027,0.017  c-0.133,0.624-0.265,1.249-0.396,1.872c-0.006,0-0.013-0.001-0.02-0.002C79.471,52.34,79.468,52.293,79.471,52.246z M79.342,47.224  c-0.009,0.058-0.017,0.107-0.026,0.157c-0.248,1.059-0.45,2.127-0.599,3.207c-0.019,0.133-0.065,0.214-0.194,0.264  c-0.13,0.049-0.248,0.125-0.372,0.188c-0.042,0.021-0.085,0.042-0.146,0.069c-0.135-0.408-0.262-0.81-0.397-1.206  c-0.137-0.393-0.284-0.783-0.427-1.171C77.401,48.482,79.139,47.268,79.342,47.224z M78.604,51.359  c-0.053,0.481-0.103,0.935-0.151,1.389c-0.006,0.001-0.012,0.002-0.019,0.004c-0.013-0.029-0.024-0.058-0.032-0.089  c-0.07-0.283-0.136-0.567-0.213-0.849c-0.025-0.095-0.004-0.153,0.073-0.206C78.371,51.533,78.468,51.44,78.604,51.359z   M78.25,46.697c-0.48,0.391-0.952,0.777-1.432,1.166c-0.273-0.542-0.549-1.09-0.836-1.658C76.778,46.245,77.523,46.412,78.25,46.697  z M69.635,52.671c0.057,0.079,0.067,0.144,0.024,0.236c-0.133,0.282-0.256,0.567-0.381,0.854c-0.026,0.059-0.051,0.104-0.13,0.109  c-0.287,0.013-0.574,0.034-0.861,0.054c-0.019,0.001-0.037,0-0.055,0c-0.017-0.172,0.494-1.938,0.66-2.274  c0.036,0.043,0.064,0.073,0.09,0.107C69.2,52.063,69.415,52.369,69.635,52.671z M69.097,51.069c0.033-0.079,0.078-0.183,0.135-0.315  c0.162,0.295,0.306,0.563,0.393,0.843C69.457,51.43,69.283,51.257,69.097,51.069z M69.841,56.461  c0.166-0.679,0.348-1.353,0.579-2.021c0.012,0.023,0.024,0.046,0.028,0.07c0.116,0.626,0.224,1.255,0.243,1.896  c0.003,0.084-0.02,0.158-0.054,0.235c-0.425,0.912-0.852,1.824-1.2,2.771c-0.074,0.201-0.132,0.41-0.197,0.614  c-0.006,0.022-0.018,0.043-0.025,0.065C69.306,58.856,69.553,57.656,69.841,56.461z M68.502,51.328  c-0.438,0.884-0.796,1.805-1.127,2.737c-0.021,0.062-0.046,0.117-0.118,0.146c-0.597,0.244-1.069,0.651-1.479,1.138  c-0.322,0.383-0.591,0.804-0.818,1.25c-0.027,0.055-0.061,0.108-0.092,0.162c-0.004,0.008-0.015,0.011-0.037,0.021  c-0.002-0.029-0.01-0.055-0.008-0.078c0.224-1.552,0.471-3.098,0.878-4.616c0.241-0.9,0.535-1.78,0.904-2.636  c0.019-0.044,0.039-0.087,0.062-0.129c0.006-0.013,0.021-0.021,0.036-0.036c0.03,0.023,0.062,0.044,0.089,0.067  c0.6,0.556,1.162,1.143,1.688,1.771C68.536,51.192,68.543,51.246,68.502,51.328z M67.141,61.238  c0.006-0.102,0.013-0.205,0.021-0.307c0.035-0.459,0.063-0.918,0.108-1.376c0.044-0.458,0.093-0.916,0.158-1.371  c0.095-0.659,0.211-1.315,0.309-1.974c0.017-0.111,0.054-0.2,0.115-0.287c0.193-0.28,0.416-0.539,0.681-0.755  c0.055-0.044,0.113-0.085,0.171-0.126c0.009,0.005,0.02,0.012,0.027,0.017c-0.016,0.046-0.027,0.093-0.043,0.139  c-0.184,0.521-0.38,1.036-0.545,1.562c-0.367,1.162-0.65,2.347-0.826,3.555c-0.044,0.31-0.082,0.62-0.121,0.931  C67.177,61.242,67.158,61.24,67.141,61.238z M70.788,54.767c0.009-0.002,0.021-0.005,0.028-0.009  c0.065,0.147,0.136,0.293,0.199,0.441c0.05,0.114,0.131,0.231,0.128,0.346c-0.002,0.115-0.09,0.227-0.145,0.339  c-0.044,0.094-0.092,0.185-0.14,0.279c-0.009-0.002-0.019-0.005-0.028-0.006C70.817,55.693,70.802,55.229,70.788,54.767z   M71.607,58.692c0.067-0.333,0.14-0.667,0.208-1.001c0.012,0,0.021,0,0.034,0c0.015,0.053,0.029,0.105,0.042,0.159  c0.027,0.136,0.056,0.272,0.086,0.407c0.021,0.109,0.001,0.197-0.098,0.264c-0.085,0.061-0.16,0.13-0.241,0.193  C71.628,58.708,71.617,58.701,71.607,58.692z M74.624,50.436c-0.133,0.209-0.31,0.376-0.476,0.555  c-0.014,0.013-0.03,0.022-0.059,0.04c-0.021-0.055-0.044-0.1-0.06-0.148c-0.273-0.793-0.577-1.575-0.913-2.343  c-0.041-0.091-0.045-0.164,0.017-0.25c0.191-0.269,0.378-0.542,0.564-0.814c0.026-0.038,0.059-0.07,0.103-0.121  c0.024,0.057,0.044,0.095,0.057,0.133c0.304,0.889,0.57,1.789,0.811,2.697C74.692,50.279,74.68,50.352,74.624,50.436z   M74.799,50.719c0.054,0.214,0.104,0.403,0.145,0.595c0.118,0.544,0.229,1.089,0.349,1.632c0.027,0.123,0.016,0.217-0.09,0.303  c-0.12,0.099-0.228,0.215-0.349,0.333c-0.017-0.042-0.031-0.08-0.043-0.119c-0.189-0.649-0.376-1.298-0.568-1.946  c-0.026-0.09-0.015-0.159,0.027-0.243C74.385,51.042,74.579,50.891,74.799,50.719z M73.115,55.034  c-0.011,0.006-0.02,0.012-0.03,0.018c-0.069-0.059-0.141-0.117-0.213-0.175c-0.072-0.06-0.147-0.119-0.233-0.187  c0.097-0.25,0.19-0.499,0.286-0.746c0.017,0.001,0.031,0.001,0.047,0.001C73.019,54.309,73.066,54.671,73.115,55.034z   M75.471,56.518c-0.08-0.419-0.157-0.838-0.241-1.255c-0.017-0.081-0.009-0.148,0.035-0.218c0.075-0.116,0.146-0.237,0.218-0.356  c0.021-0.029,0.045-0.055,0.088-0.107c0.104,0.66,0.191,1.292,0.265,1.942c-0.111,0.033-0.215,0.064-0.325,0.095  C75.492,56.577,75.477,56.549,75.471,56.518z M75.24,50.329c0.353-0.297,0.711-0.603,1.087-0.921  c0.021,0.059,0.036,0.091,0.041,0.127c0.126,0.693,0.254,1.386,0.37,2.08c0.056,0.334,0.079,0.239-0.193,0.454  c-0.182,0.141-0.358,0.287-0.539,0.431c-0.035,0.028-0.073,0.057-0.117,0.091C75.671,51.833,75.458,51.089,75.24,50.329z   M76.214,53.655c0.188-0.217,0.373-0.438,0.562-0.655c0.025-0.032,0.06-0.058,0.094-0.087c0.092,0.202,0.255,2.961,0.195,3.332  c-0.146,0.027-0.296,0.058-0.465,0.09c-0.021-0.122-0.038-0.229-0.059-0.335c-0.125-0.707-0.251-1.414-0.38-2.12  C76.146,53.792,76.153,53.723,76.214,53.655z M77.069,56.629c0.004,0.067,0.011,0.111,0.011,0.157  c-0.01,0.756-0.017,1.514-0.027,2.272c-0.005,0.292-0.017,0.584-0.024,0.877c-0.001,0.037-0.005,0.074-0.008,0.111  c-0.003,0-0.004,0-0.007,0c-0.113-1.094-0.228-2.188-0.344-3.3C76.795,56.71,76.921,56.674,77.069,56.629z M74.033,46.396  c0.424-0.109,0.854-0.177,1.29-0.19c0.131-0.005,0.132-0.002,0.174,0.12c0.239,0.705,0.445,1.418,0.628,2.14  c0.019,0.07,0.008,0.124-0.043,0.183c-0.32,0.368-0.64,0.74-0.958,1.111c-0.015,0.019-0.021,0.042-0.046,0.086  c-0.033-0.07-0.053-0.102-0.065-0.136c-0.292-0.827-0.623-1.64-1.004-2.432c-0.046-0.094-0.047-0.167,0.027-0.245  c0.055-0.056,0.102-0.123,0.15-0.185c-0.007-0.007-0.016-0.015-0.022-0.022c-0.08,0.069-0.16,0.14-0.24,0.208  c-0.077-0.083-0.229-0.375-0.27-0.524C73.78,46.471,73.905,46.431,74.033,46.396z M73.527,46.567  c0.021,0.058,0.048,0.116,0.07,0.179c0.045,0.12,0.085,0.243,0.131,0.365c0.021,0.056,0.012,0.1-0.031,0.141  c-0.249,0.247-0.497,0.493-0.745,0.741c-0.009,0.008-0.025,0.013-0.053,0.026c-0.168-0.312-0.3-0.637-0.449-0.96  C72.645,46.916,73.272,46.63,73.527,46.567z M72.155,50.008c0.025,0.076,0.045,0.116,0.055,0.159  c0.139,0.593,0.276,1.187,0.409,1.78c0.051,0.225,0.089,0.452,0.135,0.677c0.016,0.073,0.014,0.137-0.029,0.206  c-0.287,0.464-0.568,0.933-0.854,1.401c-0.012,0.018-0.027,0.038-0.043,0.06c-0.105,0-0.167-0.04-0.222-0.123  c-0.223-0.335-0.452-0.665-0.688-0.993c-0.059-0.081-0.065-0.145-0.033-0.236c0.327-0.929,0.704-1.835,1.15-2.714  C72.067,50.164,72.103,50.103,72.155,50.008z M71.457,47.707c0.018,0.031,0.038,0.057,0.047,0.086c0.134,0.42,0.265,0.84,0.396,1.26  c0.022,0.07,0.016,0.125-0.032,0.185c-0.585,0.72-1.091,1.493-1.534,2.308c-0.016,0.027-0.037,0.052-0.063,0.09  c-0.021-0.043-0.035-0.072-0.045-0.102c-0.178-0.506-0.351-1.015-0.528-1.521c-0.027-0.077-0.034-0.14,0.01-0.215  c0.443-0.771,0.994-1.455,1.673-2.033C71.401,47.747,71.425,47.73,71.457,47.707z M70.708,45.524c0.029,0.062,0.05,0.101,0.064,0.14  c0.195,0.56,0.391,1.122,0.591,1.68c0.032,0.09,0.016,0.146-0.054,0.211c-0.618,0.595-1.229,1.199-1.721,1.907  c-0.018,0.026-0.043,0.048-0.08,0.089c-0.353-0.809-0.755-1.574-1.253-2.303C69.021,46.591,69.83,46.026,70.708,45.524z   M67.543,47.923c0.029,0.033,0.059,0.062,0.081,0.097c0.496,0.713,0.933,1.462,1.348,2.226c0.037,0.07,0.043,0.128-0.001,0.198  c-0.069,0.109-0.131,0.223-0.189,0.33c-0.015,0.002-0.02,0.004-0.023,0.004c-0.006,0-0.011,0-0.015-0.002  c-0.016-0.011-0.032-0.019-0.047-0.032c-0.62-0.558-1.271-1.075-1.963-1.555c0.021-0.055,0.035-0.101,0.055-0.142  c0.078-0.165,0.167-0.325,0.234-0.493c0.098-0.246,0.278-0.419,0.465-0.594C67.499,47.948,67.518,47.94,67.543,47.923z   M67.343,47.623c-0.029,0.047-0.051,0.083-0.073,0.12c-0.186,0.292-0.368,0.584-0.555,0.876c-0.066,0.104-0.142,0.205-0.21,0.309  c-0.031,0.05-0.068,0.062-0.129,0.038c0.077,0.068,0.021,0.117-0.011,0.169c-0.176,0.291-0.36,0.578-0.528,0.874  c-0.562,0.998-1.015,2.045-1.395,3.125c-0.248,0.706-0.475,1.419-0.708,2.129c-0.017,0.046-0.03,0.09-0.059,0.132  c0.498-2.843,1.364-5.57,2.553-8.2c-0.652,1.042-1.249,2.113-1.789,3.217s-0.993,2.244-1.415,3.423  c-0.026-0.403,0.466-3.012,0.812-4.318c0.373-1.414,0.844-2.795,1.43-4.166C66.064,46.035,66.74,46.793,67.343,47.623z   M62.577,44.072c0.07,0.003,0.13,0,0.19,0.008c0.697,0.104,1.319,0.388,1.892,0.793c0.086,0.06,0.168,0.125,0.266,0.201  c-1.595,2.667-2.482,5.571-2.97,8.61C61.809,50.459,61.995,47.26,62.577,44.072z M58.84,49.392c0.165,1.646,0.207,3.259,0.25,4.873  c-0.026-0.171-0.058-0.342-0.083-0.513c-0.192-1.31-0.465-2.604-0.799-3.884c-0.013-0.046-0.021-0.093-0.034-0.155  C58.388,49.611,58.597,49.509,58.84,49.392z M57.699,50.457c0.243,1.242,0.441,2.492,0.587,3.749  c0.109,0.92,0.196,1.841,0.261,2.765c0.077,1.11,0.131,2.221,0.137,3.333c0,0.102-0.009,0.193-0.117,0.259  c-0.009-0.036-0.021-0.063-0.021-0.095c-0.03-0.616-0.05-1.234-0.095-1.852c-0.041-0.607-0.095-1.214-0.168-1.82  c-0.093-0.766-0.197-1.53-0.318-2.293c-0.21-1.331-0.513-2.643-0.875-3.942c-0.071-0.257-0.098-0.206,0.147-0.35  c0.11-0.065,0.226-0.123,0.366-0.201C57.64,50.177,57.672,50.317,57.699,50.457z M56.22,47.524c0.17-0.163,0.328-0.337,0.493-0.503  c0.033-0.034,0.069-0.063,0.118-0.104c0.021,0.062,0.039,0.107,0.051,0.151c0.209,0.827,0.417,1.655,0.625,2.484  c0.035,0.139,0.029,0.141-0.104,0.203c-0.116,0.056-0.232,0.112-0.35,0.167c-0.038,0.017-0.078,0.032-0.131,0.051  c-0.021-0.058-0.039-0.106-0.056-0.155c-0.23-0.68-0.461-1.362-0.699-2.041C56.134,47.672,56.137,47.602,56.22,47.524z   M55.761,55.27c-0.02-0.056-0.034-0.094-0.047-0.133c-0.308-0.95-0.673-1.876-1.113-2.771c-0.058-0.117-0.061-0.121,0.032-0.208  c0.209-0.198,0.422-0.392,0.634-0.587c0.029-0.027,0.065-0.049,0.103-0.076C55.488,51.745,55.823,54.943,55.761,55.27z   M54.012,50.23c0.273-0.337,0.524-0.695,0.785-1.045c0.033-0.044,0.072-0.086,0.108-0.127c0.013,0.004,0.025,0.008,0.038,0.012  c0.039,0.187,0.082,0.373,0.118,0.561c0.075,0.385,0.146,0.772,0.224,1.157c0.023,0.118-0.004,0.189-0.104,0.264  c-0.265,0.19-0.517,0.399-0.771,0.6c-0.037,0.029-0.074,0.056-0.123,0.094c-0.038-0.065-0.063-0.12-0.1-0.169  c-0.158-0.229-0.224-0.491-0.296-0.755C53.828,50.589,53.862,50.416,54.012,50.23z M53.858,53.041  c0.074,0.215,0.164,0.39,0.19,0.574c0.079,0.531,0.138,1.064,0.196,1.598c0.015,0.123,0.003,0.248,0.003,0.368  c-0.035-0.117-0.076-0.25-0.111-0.383c-0.146-0.543-0.329-1.072-0.56-1.586c-0.041-0.091-0.035-0.158,0.027-0.233  C53.688,53.279,53.76,53.174,53.858,53.041z M52.246,54.079c-0.025-0.041-0.051-0.064-0.058-0.093  c-0.037-0.134-0.071-0.269-0.101-0.404c-0.009-0.039-0.006-0.089,0.013-0.124c0.137-0.274,0.278-0.545,0.421-0.818  c0.007-0.01,0.019-0.02,0.05-0.053c0.118,0.179,0.229,0.346,0.339,0.513c0.034,0.051,0.002,0.088-0.027,0.128  c-0.088,0.115-0.177,0.227-0.262,0.342c-0.091,0.124-0.179,0.25-0.269,0.374C52.322,53.985,52.289,54.024,52.246,54.079z   M52.303,59.878c-0.013,0-0.021,0.002-0.032,0.004c-0.022-0.147-0.045-0.295-0.066-0.442c-0.089-0.616-0.225-1.224-0.428-1.813  c-0.022-0.064-0.029-0.127-0.01-0.194c0.089-0.299,0.173-0.598,0.26-0.897c0.007-0.023,0.021-0.047,0.034-0.071  C52.218,57.6,52.303,58.736,52.303,59.878z M53.292,53.833c0.146,0.12,0.688,1.33,0.752,1.674c-0.137-0.134-0.251-0.249-0.37-0.361  c-0.122-0.114-0.247-0.226-0.375-0.334c-0.126-0.107-0.259-0.208-0.4-0.321C53.032,54.266,53.161,54.049,53.292,53.833z   M53.21,51.517c0.122,0.275,0.245,0.549,0.364,0.826c0.011,0.026,0.007,0.073-0.011,0.093c-0.111,0.129-0.229,0.254-0.355,0.393  c-0.034-0.056-0.06-0.094-0.083-0.134c-0.092-0.151-0.185-0.301-0.271-0.457c-0.021-0.038-0.045-0.099-0.029-0.129  c0.108-0.201,0.228-0.396,0.343-0.592C53.181,51.516,53.195,51.516,53.21,51.517z M51.011,45.909  c0.023,0.026,0.052,0.052,0.072,0.083c0.73,1.037,1.395,2.112,1.888,3.285c0.009,0.022,0.019,0.043,0.026,0.066  c0.05,0.124,0.049,0.124-0.089,0.232c-0.395-0.523-0.811-1.018-1.265-1.479c-0.451-0.459-0.935-0.88-1.447-1.263  C50.273,46.676,50.866,46.005,51.011,45.909z M49.639,47.511c0.122-0.154,0.237-0.311,0.372-0.485  c0.09,0.089,0.161,0.158,0.232,0.229c0.812,0.827,1.519,1.738,2.124,2.727c0.019,0.029,0.042,0.055,0.05,0.086  c0.008,0.034,0.016,0.081-0.003,0.104c-0.19,0.246-0.387,0.485-0.588,0.736c-0.251-0.229-0.493-0.45-0.739-0.676  c-0.04,0.016-0.073,0.03-0.114,0.047c-0.018-0.026-0.037-0.052-0.052-0.081c-0.144-0.282-0.274-0.569-0.431-0.846  c-0.139-0.25-0.305-0.486-0.455-0.73c-0.055-0.09-0.107-0.181-0.148-0.276c-0.094-0.217-0.177-0.436-0.27-0.652  C49.588,47.624,49.59,47.571,49.639,47.511z M51.552,55.155c-0.014,0.105-0.197,0.483-0.296,0.611  c-0.074-0.232-0.001-0.432,0.107-0.639C51.426,55.136,51.489,55.146,51.552,55.155z M50.602,50.655  c-0.113-0.415-0.228-0.83-0.34-1.246c0.007-0.004,0.014-0.006,0.02-0.01c0.018,0.027,0.039,0.052,0.053,0.081  c0.137,0.29,0.273,0.578,0.405,0.87c0.064,0.142,0.06,0.145-0.056,0.258c-0.015,0.013-0.027,0.026-0.043,0.037  C50.634,50.649,50.623,50.649,50.602,50.655z M50.629,52.524c0.011,0.043,0.017,0.101-0.005,0.137  c-0.132,0.232-0.271,0.459-0.414,0.697c-0.263-0.03-0.521-0.06-0.802-0.094c0.278-0.61,0.581-1.187,0.909-1.752  c0.014,0.001,0.027,0.001,0.041,0.004c0.053,0.188,0.104,0.376,0.156,0.563C50.555,52.227,50.595,52.374,50.629,52.524z   M50.977,51.118c0.027,0.012,0.053,0.055,0.062,0.089c0.051,0.165,0.101,0.33,0.146,0.497c0.009,0.034,0.01,0.081-0.007,0.108  c-0.08,0.129-0.169,0.254-0.281,0.379c-0.069-0.375-0.139-0.753-0.214-1.169C50.8,51.059,50.891,51.083,50.977,51.118z   M49.149,48.387c0.411,0.847,0.761,1.718,1.049,2.615c0.021,0.065,0.02,0.115-0.029,0.169c-0.403,0.457-0.772,0.939-1.117,1.443  c-0.014,0.018-0.03,0.034-0.062,0.068c-0.399-0.687-0.85-1.32-1.368-1.913c0.446-0.851,0.923-1.67,1.462-2.47  C49.112,48.338,49.136,48.361,49.149,48.387z M47.5,53.626c-0.051,0.013-0.102,0.027-0.166,0.044  c-0.093-0.157-0.177-0.303-0.263-0.446c-0.066-0.109-0.133-0.222-0.206-0.329c-0.048-0.068-0.073-0.14-0.086-0.223  c-0.014-0.095-0.003-0.177,0.038-0.264c0.136-0.28,0.266-0.563,0.397-0.845c0.02-0.038,0.043-0.072,0.072-0.123  c0.038,0.039,0.07,0.066,0.096,0.098c0.422,0.518,0.804,1.063,1.146,1.636c0.099,0.167,0.082,0.19-0.108,0.232  C48.112,53.475,47.807,53.553,47.5,53.626z M47.693,59.626c-0.115,0.455-0.217,0.912-0.323,1.367  c-0.004,0.014-0.008,0.027-0.011,0.041c-0.009-0.002-0.018-0.002-0.024-0.002c0.116-0.6,0.233-1.197,0.352-1.796  C47.726,59.369,47.727,59.494,47.693,59.626z M46.997,56.196c0-0.191,0-0.365,0-0.548C47.148,55.823,47.148,56.009,46.997,56.196z   M43.446,54.315c-0.029,0.076-0.07,0.128-0.145,0.167c-0.665,0.36-1.234,0.837-1.732,1.406c-0.034,0.038-0.069,0.076-0.104,0.115  c-0.01-0.008-0.019-0.013-0.027-0.02c0.612-2.193,1.319-4.352,2.35-6.411c0.037,0.035,0.066,0.059,0.088,0.087  c0.222,0.295,0.44,0.592,0.661,0.887c0.045,0.061,0.061,0.123,0.055,0.201c-0.018,0.282-0.027,0.563-0.034,0.847  c-0.002,0.093-0.016,0.177-0.057,0.262C44.116,52.663,43.763,53.48,43.446,54.315z M44.002,56.504  c-0.18,0.742-0.359,1.482-0.54,2.223c-0.004,0-0.008,0-0.013,0c0.035-0.228,0.068-0.453,0.106-0.679  c0.078-0.457,0.16-0.916,0.241-1.372C43.821,56.541,43.84,56.524,44.002,56.504z M43.431,59.021  c-0.005,0.02-0.009,0.039-0.013,0.059c-0.006-0.002-0.011-0.002-0.017-0.004c0.002-0.02,0.005-0.039,0.007-0.059  C43.417,59.019,43.424,59.02,43.431,59.021z M42.104,48.021c0.478,0.044,0.922,0.211,1.382,0.414  c-0.088,0.107-0.163,0.197-0.249,0.3c-0.124-0.103-0.239-0.201-0.355-0.297c-0.006,0.006-0.013,0.013-0.02,0.018  c0.099,0.116,0.199,0.232,0.309,0.36c-1.067,1.324-1.971,2.75-2.745,4.279C40.397,52.692,41.781,48.521,42.104,48.021z   M39.991,51.82c-0.279,0.649-0.521,1.315-0.798,1.97c0.021-0.155,0.039-0.312,0.061-0.467c0.24-1.702,0.604-3.378,1.115-5.022  c0.009-0.027,0.021-0.053,0.025-0.082c0.015-0.07,0.06-0.102,0.127-0.12c0.431-0.117,0.87-0.136,1.312-0.109  c0.019,0,0.034,0.012,0.06,0.021c-0.338,0.631-0.687,1.249-1.003,1.881C40.572,50.524,40.271,51.169,39.991,51.82z M46.103,51.583  c0.014,0.052,0.047,0.11-0.021,0.168c-0.021-0.02-0.049-0.035-0.067-0.059c-0.191-0.235-0.381-0.47-0.571-0.705  c-0.035-0.042-0.065-0.081-0.038-0.141c0.09-0.195,0.177-0.393,0.268-0.588c0.005-0.012,0.021-0.017,0.04-0.03  c0.016,0.034,0.031,0.062,0.04,0.094C45.87,50.743,45.988,51.164,46.103,51.583z M45.907,48.457  c-0.019-0.065,0.03-0.095,0.071-0.128c0.344-0.271,0.728-0.46,1.16-0.546c0.056-0.011,0.11-0.016,0.164-0.023  c0.006,0.014,0.009,0.018,0.01,0.023c0,0.004,0,0.008-0.001,0.013s-0.003,0.011-0.006,0.013c-0.439,0.372-0.839,0.784-1.197,1.237  c-0.013-0.004-0.026-0.006-0.038-0.009C46.016,48.843,45.961,48.649,45.907,48.457z M45.127,50.58  c-0.002,0.004-0.009,0.004-0.028,0.009c-0.096-0.103-0.196-0.211-0.292-0.321c-0.017-0.018-0.024-0.056-0.019-0.081  c0.075-0.271,0.159-0.541,0.317-0.78c0.002-0.003,0.008-0.004,0.039-0.019c0.129,0.101,0.262,0.202,0.393,0.305  c0.042,0.034,0.058,0.077,0.028,0.128C45.419,50.076,45.273,50.329,45.127,50.58z M44.872,51.053  c0.007,0.013,0.002,0.039-0.006,0.055c-0.073,0.15-0.148,0.299-0.222,0.447c-0.014-0.002-0.026-0.008-0.039-0.01  c-0.014-0.253,0.018-0.502,0.059-0.77C44.771,50.853,44.815,50.958,44.872,51.053z M44.461,48.278  c0.13-0.227,0.257-0.45,0.386-0.673c0.012,0.001,0.022,0.003,0.034,0.003c0.137,0.354,0.246,0.715,0.364,1.08  C45.149,48.681,44.681,48.435,44.461,48.278z M44.912,49.228c0.053,0.034,0.084,0.069,0.058,0.141  c-0.089,0.238-0.171,0.478-0.256,0.716c-0.003,0.009-0.012,0.015-0.023,0.027c-0.258-0.261-0.514-0.517-0.781-0.788  c0.086-0.167,0.181-0.347,0.281-0.54c0.092,0.051,0.167,0.088,0.24,0.134C44.59,49.02,44.75,49.125,44.912,49.228z M45.15,51.511  c0.033,0.039,0.055,0.057,0.066,0.079c0.149,0.257,0.297,0.516,0.446,0.772c0.039,0.065,0.037,0.12,0.003,0.187  c-0.218,0.438-0.432,0.879-0.646,1.318c-0.023,0.048-0.044,0.096-0.106,0.105c-0.165,0.025-0.33,0.051-0.525,0.082  C44.611,53.187,44.859,52.353,45.15,51.511z M45.244,57.738c0.121-0.589,0.246-1.179,0.366-1.771  c0.019-0.094,0.062-0.148,0.159-0.177c0.257-0.076,0.512-0.157,0.769-0.235c0.039-0.013,0.081-0.016,0.119-0.023  c0.049,0.083,0.011,0.138-0.031,0.193c-0.129,0.172-0.261,0.343-0.384,0.519c-0.354,0.508-0.672,1.037-0.931,1.599  c-0.02,0.039-0.039,0.078-0.061,0.115c-0.003,0.006-0.015,0.01-0.039,0.023C45.223,57.893,45.229,57.814,45.244,57.738z   M46.21,53.963c0.031-0.088,0.057-0.159,0.081-0.228c0.01-0.001,0.021-0.004,0.032-0.005c0.037,0.077,0.073,0.155,0.115,0.241  C46.357,54,46.297,53.976,46.21,53.963z M46.664,56.397c0.005,0.023,0.012,0.048,0.017,0.073c0.002,0.013,0,0.029,0,0.043  c0.021,0.283-0.043,0.541-0.167,0.801c-0.263,0.555-0.494,1.123-0.739,1.688c-0.018,0.039-0.036,0.076-0.054,0.115  C45.917,58.166,46.235,57.266,46.664,56.397z M46.53,51c-0.055-0.172-0.083-0.312-0.097-0.454c0.01-0.006,0.02-0.012,0.029-0.017  c0.072,0.071,0.144,0.143,0.225,0.222C46.637,50.832,46.593,50.901,46.53,51z M46.166,49.368c0.019-0.038,0.032-0.073,0.051-0.104  c0.326-0.522,0.702-1.004,1.143-1.438c0.059-0.058,0.118-0.095,0.201-0.094c0.354,0.004,0.693,0.069,1.021,0.206  c0.018,0.008,0.03,0.022,0.06,0.044c-0.567,0.691-1.091,1.412-1.579,2.173C46.755,49.888,46.463,49.629,46.166,49.368z   M48.444,55.873c0.071-0.219,0.136-0.44,0.198-0.66c0.021-0.08,0.062-0.119,0.148-0.123c0.133-0.008,0.267-0.032,0.398-0.044  c0.037-0.005,0.075-0.001,0.105-0.001c0.009,0.013,0.012,0.017,0.014,0.021c0.001,0.004,0.003,0.009,0.003,0.014  c-0.002,0.008-0.003,0.019-0.007,0.027c-0.222,0.52-0.442,1.037-0.664,1.557c-0.004,0.009-0.013,0.016-0.026,0.03  c-0.016-0.035-0.031-0.062-0.041-0.093c-0.041-0.123-0.072-0.248-0.122-0.368C48.401,56.11,48.404,55.996,48.444,55.873z   M44.078,43.049c0.774,0.117,1.429,0.482,2.008,0.993c0.519,0.455,0.942,0.995,1.357,1.541c0.417,0.547,0.787,1.125,1.129,1.719  c0.021,0.037,0.038,0.076,0.071,0.14c-0.062-0.016-0.089-0.02-0.114-0.03c-0.583-0.232-1.155-0.177-1.722,0.057  c-0.317,0.132-0.602,0.318-0.859,0.544c-0.029,0.024-0.058,0.051-0.087,0.074c-0.007,0.005-0.019,0.006-0.042,0.014  c-0.015-0.03-0.035-0.059-0.046-0.092c-0.127-0.377-0.25-0.755-0.378-1.132c-0.026-0.076-0.018-0.136,0.026-0.201  c0.125-0.188,0.248-0.377,0.356-0.582c-0.159,0.144-0.317,0.287-0.497,0.448c-0.124-0.313-0.237-0.606-0.356-0.896  c-0.123-0.296-0.248-0.593-0.379-0.886c-0.129-0.288-0.264-0.575-0.4-0.859c-0.138-0.283-0.28-0.564-0.425-0.854  C43.853,43.011,43.966,43.031,44.078,43.049z M37.038,45.674c0.366-0.634,0.799-1.221,1.275-1.774  c1.004-1.167,2.217-2.073,3.553-2.823c0.082-0.046,0.167-0.088,0.26-0.137c0.029,0.049,0.054,0.083,0.071,0.121  c0.289,0.617,0.578,1.233,0.864,1.852c0.018,0.04,0.018,0.089,0.026,0.134c0.002,0.012-0.001,0.033,0.005,0.036  c0.107,0.049,0.113,0.163,0.151,0.25c0.513,1.178,0.979,2.376,1.407,3.589c0.011,0.031,0.021,0.064,0.033,0.094  c0.023,0.061,0.013,0.109-0.033,0.158c-0.249,0.26-0.497,0.521-0.742,0.784c-0.055,0.059-0.108,0.042-0.169,0.021  c-0.322-0.113-0.65-0.203-0.987-0.258c-0.107-0.019-0.218-0.03-0.327-0.046c-0.056-0.009-0.111-0.02-0.185-0.033  c0.049-0.13,0.095-0.248,0.14-0.365c-0.008-0.004-0.016-0.008-0.023-0.013c-0.059,0.095-0.12,0.188-0.174,0.286  c-0.04,0.071-0.093,0.1-0.175,0.096c-0.482-0.022-0.958,0.027-1.42,0.173c-0.013,0.005-0.027,0.001-0.042,0.001  c0.002-0.181,0.404-1.292,0.864-2.386c0.327-0.779,0.689-1.542,1.062-2.307c-0.037,0.044-0.074,0.086-0.109,0.132  c-0.644,0.82-1.211,1.692-1.706,2.61c-0.413,0.766-0.773,1.555-1.086,2.367c-0.052,0.133-0.096,0.271-0.222,0.368  c0.021,0.027,0.048,0.045,0.051,0.066c0.002,0.027-0.014,0.055-0.023,0.083c-0.102,0.305-0.208,0.607-0.305,0.914  c-0.393,1.246-0.684,2.517-0.89,3.806c-0.029,0.185-0.057,0.37-0.086,0.556c-0.008,0.041-0.021,0.081-0.03,0.12  c-0.006-0.001-0.013-0.003-0.02-0.005c-0.013-0.287-0.019-0.575-0.039-0.861c-0.054-0.762-0.107-1.521-0.171-2.28  c-0.044-0.535-0.096-1.07-0.154-1.605c-0.094-0.848-0.235-1.689-0.439-2.519c-0.078-0.317-0.157-0.633-0.243-0.948  C36.975,45.833,36.989,45.757,37.038,45.674z M35.353,49.509c0.352-1.121,0.812-2.194,1.356-3.232  c0.021-0.041,0.047-0.079,0.085-0.141c0.022,0.064,0.038,0.098,0.045,0.133c0.119,0.52,0.202,1.046,0.257,1.576  c0.043,0.424,0.085,0.848,0.126,1.273c0.017,0.181,0.029,0.362,0.041,0.545c0.057,1.036,0.043,2.072,0.025,3.107  c0,0.072-0.012,0.143-0.018,0.214c-0.01,0.003-0.021,0.004-0.03,0.007c-0.015-0.029-0.031-0.056-0.044-0.086  c-0.489-1.1-1.101-2.13-1.801-3.106C35.328,49.702,35.316,49.622,35.353,49.509z M35.072,51.612  c0.025,0.042,0.051,0.083,0.074,0.128c0.493,0.95,0.858,1.945,1.076,2.994c0.173,0.84,0.34,1.682,0.505,2.523  c0.019,0.095,0.013,0.201-0.003,0.299c-0.029,0.174-0.076,0.346-0.116,0.518c-0.008,0.037-0.023,0.072-0.035,0.106  c-0.011,0-0.023,0.001-0.034,0.001c-0.034-0.109-0.068-0.219-0.099-0.327c-0.31-1.173-0.625-2.343-0.923-3.519  c-0.215-0.852-0.369-1.716-0.47-2.587C35.044,51.706,35.048,51.665,35.072,51.612z M32.251,47.346  c0.438,0.613,0.877,1.224,1.313,1.839c0.043,0.06,0.077,0.133,0.093,0.207c0.27,1.203,0.5,2.413,0.658,3.636  c0.127,0.983,0.229,1.971,0.329,2.958c0.124,1.232,0.193,2.469,0.209,3.705c0.006,0.514,0.001,1.025-0.005,1.539  c-0.006,0.378-0.021,0.758-0.031,1.137c-0.001,0.049-0.01,0.098-0.016,0.146c-0.015-0.002-0.028-0.006-0.044-0.008  c0-0.243,0.007-0.487-0.001-0.731c-0.027-0.925-0.046-1.853-0.093-2.774c-0.052-1.012-0.145-2.02-0.283-3.021  c-0.338-2.467-0.864-4.891-1.68-7.249c-0.152-0.438-0.319-0.873-0.479-1.31c-0.018-0.044-0.032-0.087-0.032-0.141  C32.21,47.302,32.233,47.322,32.251,47.346z M29.046,54.373c0.312,0.332,0.622,0.663,0.934,0.996  c0.02,0.021,0.039,0.043,0.051,0.069c0.142,0.318,0.282,0.637,0.423,0.957c-0.01,0.006-0.02,0.013-0.029,0.02  c-0.428-0.722-0.942-1.382-1.449-2.082C29.012,54.352,29.033,54.359,29.046,54.373z M28.618,54.59  c0.188,0.157,0.375,0.314,0.561,0.474c0.117,0.102,0.201,0.23,0.273,0.365c0.232,0.444,0.365,0.916,0.438,1.406  c0.105,0.708,0.175,1.417,0.186,2.133c0.001,0.037,0,0.074,0,0.111c-0.01,0.002-0.021,0.004-0.031,0.006  c-0.02-0.055-0.041-0.105-0.06-0.158c-0.229-0.631-0.502-1.244-0.842-1.823c-0.096-0.162-0.149-0.326-0.188-0.506  c-0.13-0.613-0.27-1.225-0.406-1.837c-0.015-0.07-0.027-0.138-0.048-0.237C28.557,54.555,28.591,54.568,28.618,54.59z   M27.374,53.928c0.164,0.066,0.326,0.136,0.491,0.202c0.054,0.021,0.085,0.058,0.095,0.115c0.068,0.435,0.138,0.869,0.204,1.303  c0.002,0.012-0.007,0.025-0.015,0.052c-0.028-0.027-0.052-0.049-0.074-0.072c-0.224-0.234-0.389-0.503-0.488-0.816  c-0.071-0.227-0.178-0.443-0.268-0.666c-0.016-0.039-0.03-0.078-0.051-0.133C27.313,53.919,27.346,53.916,27.374,53.928z   M22.807,47.942c0.631-0.27,1.265-0.271,1.903-0.027c0.429,0.163,0.797,0.417,1.127,0.73c0.163,0.154,0.313,0.324,0.466,0.491  c0.045,0.048,0.08,0.107,0.113,0.165c0.32,0.55,0.562,1.133,0.755,1.737c0.011,0.031,0.014,0.063,0.021,0.094  c-0.008,0.005-0.018,0.01-0.025,0.014c-0.026-0.018-0.055-0.035-0.081-0.056c-0.286-0.216-0.565-0.443-0.858-0.652  c-0.317-0.224-0.667-0.396-1.025-0.548c-0.232-0.099-0.475-0.18-0.711-0.274c-0.06-0.023-0.123-0.057-0.167-0.103  c-0.495-0.51-1.019-0.987-1.582-1.42c-0.021-0.019-0.042-0.039-0.079-0.073C22.719,47.988,22.762,47.962,22.807,47.942z   M27.045,58.828c0.003,0.045,0,0.092,0,0.168c-0.188-0.481-0.354-0.939-0.542-1.388c-0.19-0.457-0.434-0.887-0.698-1.305  c-0.264-0.414-0.559-0.803-0.882-1.171c-0.323-0.367-0.679-0.699-1.066-1.022c0.05-0.023,0.082-0.043,0.116-0.054  c0.307-0.09,0.614-0.18,0.923-0.27c0.081-0.023,0.146,0,0.212,0.052c0.499,0.407,0.967,0.847,1.391,1.331  c0.052,0.059,0.091,0.138,0.109,0.214c0.15,0.645,0.269,1.294,0.328,1.955C26.98,57.832,27.01,58.332,27.045,58.828z M22.422,48.164  c0.415,0.367,0.8,0.756,1.144,1.194c-0.72-0.108-1.438-0.165-2.161-0.096C21.428,49.008,22.065,48.325,22.422,48.164z   M20.936,51.239c-0.041-0.011-0.081-0.026-0.129-0.042c0.002-0.24,0.037-0.468,0.093-0.709c0.122,0.013,0.23,0.021,0.338,0.037  c0.699,0.103,1.383,0.269,2.057,0.48c0.601,0.187,1.196,0.382,1.771,0.637c0.103,0.045,0.178,0.104,0.224,0.208  c0.049,0.109,0.107,0.215,0.16,0.322c0.006,0.012,0.004,0.028,0.007,0.06c-0.044,0.004-0.076,0.011-0.107,0.011  c-0.362-0.007-0.72,0.036-1.068,0.132c-0.076,0.02-0.137,0.012-0.206-0.022C23.073,51.855,22.024,51.49,20.936,51.239z   M24.917,59.833c-0.228-0.559-0.445-1.121-0.69-1.674c-0.473-1.062-1.19-1.94-2.064-2.697c-0.061-0.054-0.123-0.106-0.195-0.168  c0.05-0.048,0.087-0.09,0.13-0.126c0.41-0.343,0.852-0.639,1.332-0.874c0.138-0.068,0.125-0.102,0.256,0.061  c0.623,0.771,1.111,1.619,1.486,2.535c0.409,0.999,0.67,2.036,0.813,3.106c0.097,0.721,0.145,1.441,0.127,2.166  c-0.011,0.469-0.052,0.938-0.08,1.407c-0.003,0.04-0.017,0.081-0.026,0.121c-0.008,0-0.016,0-0.022,0  c-0.042-0.206-0.083-0.411-0.125-0.616C25.632,61.968,25.343,60.882,24.917,59.833z M76.064,62.207  c-0.027-0.687-0.067-1.373-0.132-2.06c-0.08-0.862-0.192-1.724-0.292-2.584c-0.013-0.104-0.028-0.208-0.049-0.313  c-0.012-0.061,0.005-0.102,0.062-0.125c0.07-0.028,0.141-0.057,0.21-0.086c0.16,0.402,0.303,3.035,0.333,5.188  C76.154,62.22,76.109,62.212,76.064,62.207z M89.525,54.387c-0.438,0.69-0.753,1.434-1.028,2.198  c-0.156,0.434-0.313,0.866-0.447,1.308c-0.251,0.829-0.438,1.678-0.628,2.524c-0.221,0.992-0.435,1.985-0.59,2.99  c-0.069,0.455-0.128,0.912-0.189,1.367c-0.002,0.018-0.009,0.036-0.023,0.053c0-0.226-0.009-0.449,0.002-0.674  c0.032-0.621,0.057-1.246,0.113-1.865c0.059-0.621,0.138-1.238,0.233-1.854c0.281-1.792,0.679-3.56,1.167-5.307  c0.025-0.094,0.067-0.159,0.152-0.211c0.354-0.222,0.723-0.417,1.112-0.568c0.045-0.017,0.089-0.03,0.135-0.045  c0.007,0.008,0.013,0.016,0.021,0.022C89.545,54.345,89.537,54.367,89.525,54.387z"/><text x="0" y="128.386" fill="#000000" font-size="5px" font-weight="bold" font-family="'Helvetica Neue', Helvetica, Arial-Unicode, Arial, Sans-serif">Created by Ángel Santos Freyta</text><text x="0" y="133.386" fill="#000000" font-size="5px" font-weight="bold" font-family="'Helvetica Neue', Helvetica, Arial-Unicode, Arial, Sans-serif">from the Noun Project</text></svg>