<svg xmlns:dc="http://purl.org/dc/elements/1.1/" xmlns:cc="http://creativecommons.org/ns#" xmlns:rdf="http://www.w3.org/1999/02/22-rdf-syntax-ns#" xmlns:svg="http://www.w3.org/2000/svg" xmlns="http://www.w3.org/2000/svg" xmlns:sodipodi="http://sodipodi.sourceforge.net/DTD/sodipodi-0.dtd" xmlns:inkscape="http://www.inkscape.org/namespaces/inkscape" viewBox="0 0 100 125" version="1.1" x="0px" y="0px"><g transform="translate(0,-952.36216)"><path style="opacity:1;fill:#000000;fill-opacity:1;stroke:none;stroke-width:14.5;stroke-linecap:round;stroke-linejoin:bevel;stroke-miterlimit:4;stroke-dasharray:none;stroke-dashoffset:288.50640869;stroke-opacity:1" d="m 50.000179,957.36216 c -1.164882,0 -2.109208,0.9443 -2.109226,2.1092 0.0018,0.8883 0.558428,1.6807 1.394043,1.9818 -0.673534,2.1742 -1.789654,4.8892 -3.216758,5.0885 -1.125574,0.1571 -2.056484,-0.7728 -2.731566,-1.804 0.568159,-0.3935 0.907561,-1.0402 0.908482,-1.7313 -1.8e-5,-1.1649 -0.944344,-2.1092 -2.109226,-2.1093 -1.164882,10e-5 -2.109208,0.9444 -2.109227,2.1093 0.0018,0.8882 0.558428,1.6806 1.394025,1.9818 -0.673516,2.1741 -1.789653,4.8891 -3.21674,5.0884 -1.125555,0.1572 -2.056135,-0.7728 -2.731215,-1.804 0.56792,-0.3934 0.90717,-1.04 0.90813,-1.7309 -2e-5,-1.1649 -0.94434,-2.1092 -2.10922,-2.1093 -1.16489,10e-5 -2.10921,0.9444 -2.10925,2.1093 4e-5,1.1648 0.94436,2.1092 2.10925,2.1092 l 0,8.1468 0,19.6216 0,19.82604 31.457019,0 0,-39.44764 0,-8.1468 c 1.164882,0 2.109208,-0.9444 2.109226,-2.1092 -1.8e-5,-1.1649 -0.944344,-2.1092 -2.109226,-2.1093 -1.164882,10e-5 -2.109208,0.9444 -2.109227,2.1093 0,0.6914 0.339218,1.3387 0.907395,1.7327 -0.674916,1.0304 -1.605274,1.9592 -2.730128,1.8022 -1.426994,-0.1992 -2.543095,-2.914 -3.216739,-5.0881 0.835596,-0.3013 1.392826,-1.0939 1.393674,-1.9821 -1.8e-5,-1.1649 -0.944345,-2.1093 -2.109244,-2.1093 -1.164882,10e-5 -2.109209,0.9444 -2.109227,2.1093 0,0.6914 0.339237,1.3387 0.907414,1.7327 -0.674917,1.0305 -1.605201,1.9596 -2.730129,1.8026 -1.427012,-0.1992 -2.542745,-2.914 -3.216389,-5.0881 0.835449,-0.3015 1.392532,-1.094 1.393306,-1.9822 -1.9e-5,-1.1649 -0.944345,-2.1092 -2.109227,-2.1092 z m -7.864251,16.0665 c 1.164882,0 2.109208,0.9443 2.109226,2.1092 -1.8e-5,1.1649 -0.944344,2.1092 -2.109226,2.1092 -1.164882,0 -2.109208,-0.9443 -2.109227,-2.1092 1.9e-5,-1.1649 0.944345,-2.1092 2.109227,-2.1092 z m 7.864251,0 c 1.164882,0 2.109208,0.9443 2.109227,2.1092 -1.9e-5,1.1649 -0.944345,2.1092 -2.109227,2.1092 -1.164882,0 -2.109208,-0.9443 -2.109226,-2.1092 1.8e-5,-1.1649 0.944344,-2.1092 2.109226,-2.1092 z m 7.864252,0 c 1.164899,0 2.109226,0.9443 2.109244,2.1092 -1.8e-5,1.1649 -0.944345,2.1092 -2.109244,2.1092 -1.164882,0 -2.109209,-0.9443 -2.109227,-2.1092 1.8e-5,-1.1649 0.944345,-2.1092 2.109227,-2.1092 z m -32.95327,34.33944 a 6.7309073,6.7309073 0 0 0 -4.7105,1.9714 6.7309073,6.7309073 0 0 0 -1.45883,7.3351 6.7309073,6.7309073 0 0 0 5.20937,4.0723 l 0,4.9121 0,9.7431 0,11.5601 7.74008,0 0,-11.5601 0,-9.7431 0,-11.5601 a 6.7309073,6.7309073 0 0 0 -4.15511,-6.2186 6.7309073,6.7309073 0 0 0 -2.62501,-0.5122 z m 50.177689,0 a 6.7309073,6.7309073 0 0 0 -2.62501,0.5122 6.7309073,6.7309073 0 0 0 -4.155114,6.2186 l 0,11.5601 0,9.7431 0,11.5601 7.740078,0 0,-11.5601 0,-9.7431 0,-4.9121 a 6.7309073,6.7309073 0 0 0 5.209368,-4.0723 6.7309073,6.7309073 0 0 0 -1.458839,-7.3351 6.7309073,6.7309073 0 0 0 -4.710483,-1.9714 z m -37.131789,11.0572 c -2.85867,0 -3.68575,2.3014 -3.68575,5.1601 l 31.45702,0 c 0,-2.8587 -1.195676,-5.1601 -4.054327,-5.1601 l -23.716943,0 z m -3.68575,7.7401 0,20.7968 31.45702,0 0,-20.7968 -31.45702,0 z"/></g><text x="0" y="115" fill="#000000" font-size="5px" font-weight="bold" font-family="'Helvetica Neue', Helvetica, Arial-Unicode, Arial, Sans-serif">Created by Andrew Doane</text><text x="0" y="120" fill="#000000" font-size="5px" font-weight="bold" font-family="'Helvetica Neue', Helvetica, Arial-Unicode, Arial, Sans-serif">from the Noun Project</text></svg>