<svg xmlns="http://www.w3.org/2000/svg" xmlns:xlink="http://www.w3.org/1999/xlink" version="1.1" x="0px" y="0px" viewBox="0 0 100 125" style="enable-background:new 0 0 100 100;" xml:space="preserve"><style type="text/css">
	.st0{fill:none;}
</style><rect class="st0" width="100" height="100"/><path d="M72.1,34.8H27.9l-4.6,53.2h13.9V69.5c0-7.1,5.8-12.9,12.9-12.9h0c7.1,0,12.9,5.8,12.9,12.9v18.4h13.9L72.1,34.8z"/><g><path d="M76.9,32.1l2-20h-7.3v2.5c0,2.4-1.9,4.3-4.3,4.3c-2.4,0-4.3-1.9-4.3-4.3v-2.5h-8.7v2.5c0,2.4-1.9,4.3-4.3,4.3h0   c-2.4,0-4.3-1.9-4.3-4.3v-2.5H37v2.5c0,2.4-1.9,4.3-4.3,4.3h0c-2.4,0-4.3-1.9-4.3-4.3v-2.5h-7.3l2,20H76.9z"/></g><text x="0" y="115" fill="#000000" font-size="5px" font-weight="bold" font-family="'Helvetica Neue', Helvetica, Arial-Unicode, Arial, Sans-serif">Created by NeMaria</text><text x="0" y="120" fill="#000000" font-size="5px" font-weight="bold" font-family="'Helvetica Neue', Helvetica, Arial-Unicode, Arial, Sans-serif">from the Noun Project</text></svg>