<svg xmlns="http://www.w3.org/2000/svg" xmlns:xlink="http://www.w3.org/1999/xlink" version="1.1" x="0px" y="0px" viewBox="0 0 100 125" enable-background="new 0 0 100 100" xml:space="preserve"><path d="M20.22,62.969c0.828-2.975,2.808-6.934,4.052-9.117c3.117-5.468,6.779-15.661,23.845-16.83c0,0,13.266,0.233,17.416-2.279  c0,0,1.636-0.818,2.629-2.104c0,0-1.109,0.409-2.746,0c0,0,2.221-0.467,4.324-1.986c0,0-1.52,0.292-2.805,0  c0,0,2.396-0.644,4.676-2.046c0,0,1.168-0.643,1.636-1.694c0,0-3.565,1.694-6.546-0.409c0,0,2.864-2.338,6.955-3.975  c0,0,0.672-2.805,1.725-4.675c1.051-1.87,2.775-1.52,3.564-2.163c0.789-0.643,4.042-3.175,5.64-6.058  c1.598-2.884,3.351,0.312,3.624,2.025c0.272,1.715,0.156,4.364-0.74,7.442c0,0,0.896,0.584,2.143-2.222  c1.246-2.805,1.598,3.546-0.545,6c-2.144,2.455-3.078,11.649-2.923,19.286s1.071,9.467,1.071,9.467s-2.221-1.227-2.805-3.038  c0,0-0.877,5.786-0.117,8.649c0,0-1.754-1.229-2.046-2.514c0,0-0.526,4.559-2.806,6.662c0,0-1.752,1.871-1.461,3.625  c0,0-1.636-1.813-1.051-3.508c0,0-2.241,2.553-2.787,8.553c-0.545,6-1.402,10.986-0.311,14.025c1.091,3.039,1.83,3.975,2.221,4.402  c0,0,2.883-0.662,2.883,2.572h-7.676c0,0-3.447-4.539-2.454-11.494s-2.688-8.707-2.104-14.26c0,0-6.721,2.572-20.571-3.156  c0,0,3.391,11.104-10.091,16.17c0,0-2.183,1.09,2.415,8.416c0,0,0.867,1.422,1.978,1.859c1.11,0.439,4.237-0.303,2.718,2.465h-6.545  c0,0-9.001-12.078-5.436-14.416c0,0,2.396-4.383,1.11-8.648c-1.286-4.268-1.694-4.793-3.272-3.215s-4.151,5.08-4.578,7.188  c0,0-0.623,5.65-0.391,8.223c0,0-0.896,0.037-1.52-1.793c0,0-1.52,5.766-0.974,9.078c0,0-1.246-0.703-1.324-2.145  c0,0-4.987,5.807-9.117,6.195c0,0-1.714-5.025,0.507-10.441c0,0-1.364,0.273-2.221-0.35c0,0,3.467-3.078,5.571-6.391  c0,0-1.676,0.195-2.884-0.35c0,0,5.475-3.664,6.644-6.877C19.889,63.904,19.619,65.129,20.22,62.969z"/><text x="0" y="115" fill="#000000" font-size="5px" font-weight="bold" font-family="'Helvetica Neue', Helvetica, Arial-Unicode, Arial, Sans-serif">Created by Bakunetsu Kaito</text><text x="0" y="120" fill="#000000" font-size="5px" font-weight="bold" font-family="'Helvetica Neue', Helvetica, Arial-Unicode, Arial, Sans-serif">from the Noun Project</text></svg>