<svg xmlns="http://www.w3.org/2000/svg" viewBox="0 0 727.7 727.7"><defs><style>.cls-1{fill:#262626;}.cls-2{fill:#ab1d22;}</style></defs><title>Targaryen</title><g id="Layer_2" data-name="Layer 2"><g id="Targaryen"><rect class="cls-1" x="106.57" y="106.57" width="514.56" height="514.56" transform="translate(363.85 -150.71) rotate(45)"/><path class="cls-2" d="M587.11,362.54A247.43,247.43,0,0,0,580.38,305c-.84-3.52-5.38,5.91-6.37,2.46-1.2-4.2,1.12-21.27-.3-25.37-.43-1.27-.89-2.52-1.36-3.77-1.6-4.21-3.74,14.32-5.72,10.33-3.38-6.77-6.94-35.83-11.31-42-3.76-5.29-5.79,5.87-10.19,1-5.42-6-13.36-27.91-19.58-33.29q-3.42-3-7-5.8c-4-3.17.51,7.12-3.66,4.16-11.12-7.87-31.5-28.37-43.66-34.93-2.51-1.35,2.63,7.32,0,6.05-18.17-8.75-46.65-25.56-63.81-31.57-5.94-2.08,2.79-10.53-3.36-12.09-9.1-2.31-17.87,2.08-25.53,2-6.51-.06-11.82-4.71-20.15-4.71-2.92,0-5.67,0-8.28-.06-7.12-.09-13,5.39-18.58,5.44-3.34,0-7.41-4.31-11.49-2.59-.81.33-1.61.69-2.42,1.05-5.36,2.4-10.74,5.16-15,6.24-2.26.58-2.25,4.54-4.7,5.37-3.73,1.28-.28-1.33-4.7.67-.66.31,1.39,3.26,6.05,11.42.58,1,14.34,3.23,14.77,4l4.7,8.06-1.34,6,14.11,2V178.5l18.13,4.7,18.81-6,12.09-6.71,1.34,11.42,4,3.35-2.68,6,.67,6.72-12.09,6.71-2,6.05-10.07.67-4.7,6-8.74,2-10.07,3.36L320.12,239l-6.05-11.42,8.06-9.4-9.4-10.75,4.91-4.35-1.16-7.89-17.18-20c-2.11-1.49-10.39-4.55-13.44-7.39-2.25-2.1-10.53,0-12.76-2-2.49-2.28,8.16-9.48,6.29-10.82s-3.08-1.9-3.74-1.53a243,243,0,0,0-26.73,17.06c-5.35,3.89-14.89,5.82-20.15,10.07s-9.17,6.6-14.06,11c-9.4,8.34-15,20.71-22.21,28.68-3.09,3.43-1.55.17-4,3.36-1.3,1.67,2.16,5.57,2,8.06-.17,2.83-3.83,4.35-3.41,7.6.07.58,2.21,1.06,5.65,1.48s21.29-14.8,26.65-14.45c2.66.17-4.19,8.57-1.35,8.73,8,.45,2.89,4.87,9.41,5.37,5.79.45,4.15-2.79,8.06-1.34l2-2.69-3.36-7.39,16.76-9.25-9.37-2.17,15.86-5.89,2.28-2.84L248.25,206l18.81-4.71,5.37-3.35,12.76,11.41,9.4,6.05-5.37,8.06,4,9.4-5.37,9.41,2.68,6-4.7,13.44,1.35,8.73-4.86,7.39.15,4.7-2.69-2.23-8.72-5.83L257,271.19l8-3.11-7.68-6.34-14.39,2.06,8.74-5.37-13.44-.67-10.74,2.68,4.7-8.06c-3.37,1.12-13,6.34-20.15,6.72-1,0,1.2-4.53.23-4.48-4.42.2-9,3-13,3.14-2.83.1-6,5.22-8.06,5.37-3.1.21-.41-9.85-.68-9.41s-18.27,21.38-20.82,19.48c-.49-.36,6.05-14.77,5.37-17.46-.52-2.09,1.86-5,1-7.54-1.66-5-2.66-10-3-9.25-4.21,8.8-10.28,24.54-13.43,31.57-3.48,7.75-2,3.36-7.39,12.09-9.67,15.7-9.73,38.78-11.53,57.59-.1,1,.79,5.37,4.09,6.05,4.08.84,10.44-.48,11.47.84s-6,6.07-6,6.72c-.1,1.56-10-5.05-10.11-3.48-.2,4,3.4,4.08,3.4,8.18,0,.79-3.69,5.62-3.68,6.42l14.42-3.06,10.08-15.45,5.37,2,4.7-1.34,4,1.34,12.09-2.68L188.76,341l-6.34,1.38,2.69-4L179.74,333l8.06-11.42-1-3.35-5.71-1.35,2.81-7.36-1.18-3.35L175,308.8l10.48-7.13,6.32-2.94,3.36-7.39,8.06-3.36,5.37-7.39,8.73,2,5.37,1.34,8.06-2,5.38,6,10.74,2.69v10.74l10.75,1.35.67,8.06,8.06,6v7.39l4.71,4,1.94,5.85,3.41,10.2,3.38,2.76.67,9.4,9.4,6.05.67,8.73L302,376l4,9.4,11.42,1.35-.67,14.1,4,15.45-25.52-11.42L273.1,385.37l-9.4-22.83-7.48-38.29H239.63l5.26,4.7-6.72,1.35-10.07-4.71L220,329l-2.81,4.38,12.21,3-20.82,8.06-4,10.75h4l6-2.69,4,.67,2,4,7.39,3.36,10.74,8.06,8.74,25.53-7.39,5.37,7.39,6.72L240.12,411l.07,3.91,18.13,2,5.38-21.49,4.7,9.4,9.4,7.39,3.36,8.06,4.7,2.69,17.47,10.07,14.1,8.74,11.42,4.7-11.42,9.4,5.22,2.29,8.89-1.62,6-7.39,7.39-8.73,6.72-14.77,12.09-12.77,1.34,37.62,6.72,10.07,5.37,4.7-6,7.39-10.19,3-14.67,4.36H324.15l-13.1-2-10.41-6.72-8.73-11.42-6.32-10.53-4.43-4.25-8.06-4-10.75,6.72,12.77,6.05-19.48,2-6,11.42,12.76.67-1.16,3.57-10.93,7.85-1.34,10.08,3.36,2,6.72-4c3-9.54-1.8,2,8.73,2,8.93,0,21.06,6,25,13.31a23.54,23.54,0,0,1-1.71,25.09l8.24,1.9,12-5.45,4.15-8-1.35-9.74-2-3.69,4-8.06,8.06,2.69,14,1.89,12.84-.55,20.82.67,12.09-2,14.1-3.36-.67,13.43,10.06-5.45,0-14,2.91-8.63-1.57-12.19,4.7-12.09,7.39-7.39,4,6.05-3.84,14.17,1.83,8.66-4.71,14.78c-.21,1.25-3.78,9.92-4.59,10.9l-8.17,9.92-12,9.77-5.45,7-10.75,5.38-5.7-.61-15.12,7.32-21.49,2.69-28.89,2-22.83-4.71-10.51-3.7h-.58a23.5,23.5,0,0,1-19.89-11l.08.57-31.57-18.81-42.32-51.05,18.81-3.35-.67,5.37,18.81-6.72,4.7-8.73-.67,8.73,7.22-3.31,7.55-12.14,1.35-6.71v-8.06l.67-8.06-6.72-6.05,1.12-3.36,6.27-1.34-10.75-12.09-8.73-2.69,8.06-4.7-2.69-1.34-5.37-.67-6.72-2.69L199.89,382l2.28-5.75-15.92-2.55-7.86,11,2.15-11.9-8.86,7.87-5.11,2.19-5,22.67-4-18.81-3.36-18.14-14.1.67c1,51.41,30.39,101.34,57.76,139,2.21,3-8.49,2.34-6.15,5.26,6.25,7.8,37.26,22.05,44.44,29,1.23,1.19-21.79-4.49-20.53-3.32a90.21,90.21,0,0,0,9.52,7.67c3.82,2.68,31.67,6.19,35.86,8.41,5.32,2.82-12.91,4.22-7.18,6.48,15.23,6,31.53,10.37,46.91,15l61.69-10.06,32.24-12.09,16.13-10.08,9.64-3.18,1.21,3.42,14-19,8.9-3.67,28-42.68-.67-22.17-6.09-12.09,1.73-5.58,8.39,8.94L480,429l-3-19.84,10.41,3.72,2,18.81-4.7,22.17,9.4,4.7,1.35,12.09-4,11.42-10.08,10.74-14.78,12.09,6,7.39-1.34,12.76-7.39,9.41-24.18,8.06-17.08,5,1,2.78.66,7.71-15.75,10.17-20.22,7.11-17.77,2.2-61.49,4a6.58,6.58,0,0,0,7.09,5.39c20.74-3.18,34.93,3.36,53.06,3.36,32.39,0,72.12-21.19,105-41.69l27.37-34.21,6.72-12.09,9.4-20.15,4.54-15.49L527,438.44,524.41,408l-2.12-10.58,1.68-7.81-2.56-3.54-10.3-14.19-11.65-24.16-18.87-17.94-16.06-15.64-9.41-5.72-3.35,9.75-5.38,10.07-10.74,9.41-14.78,4.7,1.34-8.06L411.47,331H392.66l5.37-3.36-.87-.44-4.5-2.25,15.45-6.71,7.39,2.68-4-18.8,4-5.38,10.74-2,14.11,9.4,5.15-2.68-1.12-6.72,4.7-8.06,6.05,1.34,7.38,2,10.75,9.4,18.14,18.81,2.68-8.74,6.05-2,7.39,4,9.4,12.76L523,344.4l.67,22.17h12.09l11.42,12.76,2,16.12-1.5,9.87-9.85,26.79,9.34,5,2,8.06V460.6l-10.38,17.47-11.24,19.48L521,508.82l-12.17,10.89-13,21.47c-.87,5.72-3.88,14.14,1.19,10.17,40.39-31.72,64.77-88.21,77.62-141.12.2-.84-1-25.25-.68-25.53l-11.41-47-21.86-38.8L525,282.61l-11.42-8.73-11.48-6-13.51-10.83-16-6-17.46-3.36-19.92-3.13-35.83,1.79-34.93,11.42-8.73,9.4c.5,0,.83,4,1.34,4,13,0,18.14,10.52,18.14,23.51a23.51,23.51,0,0,1-47,0,22.52,22.52,0,0,1,.18-2.86l-.18.17.36-1.4a22.25,22.25,0,0,1,.92-3.57l4.09-15.85L362.43,245l12.77-6.71,30.08-25.36,9.55-29-4-13.43,12.76,5.37,20.15,7.39-16,4.16-11.57,22,4,4,2,16.12,14.33,12.12,28.48,4,20.33-15.4L488,217.45l6,7.23,7.24,5.8,6.2,15.18,27.54,16.13L525,263.13l4,6,11.45,8.56-3.39,4.21,17.47,15.44-6.72.68L568,334.33l14.1,51c2,.26,4,13.91,4.71,10.08C589.12,381.79,587.11,376.91,587.11,362.54ZM171.34,418.62a22.84,22.84,0,1,1,22.84,22.84A22.84,22.84,0,0,1,171.34,418.62ZM451.77,221.15a11.76,11.76,0,1,1,11.75-11.76A11.76,11.76,0,0,1,451.77,221.15Z"/></g></g></svg>