<svg xmlns="http://www.w3.org/2000/svg" xmlns:xlink="http://www.w3.org/1999/xlink" viewBox="0 0 804.77 804.77"><defs><style>.cls-1{fill:#393939;}.cls-2{opacity:0.05;fill:url(#linear-gradient);}.cls-3{fill:#cdcdcd;}</style><linearGradient id="linear-gradient" x1="171.38" y1="508.88" x2="769.38" y2="508.88" gradientUnits="userSpaceOnUse"><stop offset="0"/><stop offset="0.1" stop-color="#121212"/><stop offset="0.31" stop-color="#414141"/><stop offset="0.6" stop-color="#8d8d8d"/><stop offset="0.96" stop-color="#f4f4f4"/><stop offset="1" stop-color="#fff"/></linearGradient></defs><title>Stark_1</title><g id="Layer_2" data-name="Layer 2"><g id="Layer_1-2" data-name="Layer 1"><rect class="cls-1" x="117.86" y="117.86" width="569.06" height="569.06" transform="translate(-166.67 402.38) rotate(-45)"/><path class="cls-2" d="M633.38,297.38l-136,32-69,58-40,59-217-75c19.31,21.94,20.59,35.45,36,57,5.51,7.71,22.1,23.16,29,31,8.75,9.94,19.26,19.07,28,29,11,12.5,20.28,15,34,28,15.89,15,36.28,40.55,49,55l141,149,281-283Z"/><path class="cls-3" d="M609.87,294.62l-24.94-8.89-29.23-4.11-13.84-18.46L466.48,244.7l-21,7.7-25.64-1-23.59-6.67-14.87-11.28L396.74,258l-28.2,3.59-18-5.13-10.77-4.1,1,6.66,15.38,13.85-36.4,4.1L308,275.47l-10.77-1,17.95,15.38L279.83,300.6l-22.05-2.05,26.15,13.33L267,319.06l-38.46,1.54,19,14.87-23.07,9.23-29.23.51,22.05,14.36L186,372.39l-14.36-1L184.17,383l24.9,10.94-3.59,8.72,12.3-4.62L207,428.28l36.92-5.13-8.2,36.41,33.84-6.16-5.64,35.39,39-6.67L298.29,517l32.82-4.62V537L348,571.34l4.61-19,13.85-26.15,11.28,15.9,15.9-44.62L407.51,516l2.05-31.79,11.28-21,11.28,22.05V469.81l4.11-21,7.69-9.74,10.77,15.38L458.28,436l3.07-11.43,13.85-17.8,20-10.25L509,398.54l9.23,11.28-5.64,14.87,19.49-4.1v8.71l2,11.29,15.38-16.93,12.82-22.05,12.31-12.82,2.56-14.35-3.59-2.57-8.2,5.13-6.67,6.67-3.08-5.13-6.15-4.62-6.15,6.16-.52-7.18-2.56-4.62-2.56-1.53-7.7,6.15h-4.61l-1-9.74L519.3,357l-2.57-.51-3.07,5.13-3.59.51.51-8.2-1-2.57-3.07-.51-3.59,2.56-6.67-.51-4.1-5.13-1-4.61,3.08-4.1,3.59-3.08,1.54,5.64,5.13,6.15,4.61,1,4.84-6.8,2.85-.89,3.08,6.66,7.69,6.67,9.74-10.26,2.57,1,1,4.1,3.08,8.21,6.15-3.59,3.59-5.13h4.1l2.57,11.79,8.2-.51,10.26-7.69.37,3.75-7.55,11.12,3.59,1.54L589,366.75l10.26-17.95,14.87-13.33,8.72-10.26.51-5.64,7.69-11.79,2-11.29Zm-144.74-4.78c-.6.57-3.43-.39-4-1L446.49,273l-7.61-6.08a1.48,1.48,0,0,1-.54-.93l-.63-3.78-1.17.84-.9,4.05a1.49,1.49,0,0,1-1.63,1.16l-4.61-.51a1.37,1.37,0,0,1-.35-.08l-5.26-1.91-7.71,1.45-13.26,4.07-.14,0L395,272.84a2.19,2.19,0,0,1-.36,0l1.46,1.5a1.5,1.5,0,0,1-.47,2.42l-6,2.62a1.53,1.53,0,0,1-.6.12H372l-5.36,2.89,1.18,5.9,15.78,8.39a1.49,1.49,0,0,1,.38.28l14.28,14.79,18.88,14.41,18.33-3,12.77-2.56a1.54,1.54,0,0,1,.9.1L462,326.4a1.5,1.5,0,0,1-.61,2.87,1.57,1.57,0,0,1-.6-.12l-12.39-5.45L436,326.17l-19,3.08a1.48,1.48,0,0,1-1.15-.28L396.35,314.1l-.17-.15L382,299.25l-16.19-8.61a1.5,1.5,0,0,1-.77-1l-1.54-7.69a1.51,1.51,0,0,1,.76-1.62l6.67-3.59a1.56,1.56,0,0,1,.71-.18h17.12l3.69-1.62L389,271.39a1.5,1.5,0,0,1,1.4-2.51l4.31,1,7.3-1.47,13.26-4.08.17,0,8.2-1.53a1.51,1.51,0,0,1,.79.06l5.47,2,3.1.34.74-3.3a1.48,1.48,0,0,1,.59-.89l3.59-2.57a1.51,1.51,0,0,1,2.35,1l.93,5.58,7.24,5.8a1.14,1.14,0,0,1,.16.15l16.53,17A1.35,1.35,0,0,1,465.13,289.84Zm63.4,6.14-15.9-7.18.51-1.54,17.44.52.51,4.61Z"/></g></g></svg>