<svg xmlns="http://www.w3.org/2000/svg" xmlns:xlink="http://www.w3.org/1999/xlink" viewBox="0 0 639.2 639.2"><defs><style>.cls-1{fill:#f7c905;}.cls-2{opacity:0.1;fill:url(#linear-gradient);}</style><linearGradient id="linear-gradient" x1="186.13" y1="349.33" x2="628.62" y2="349.33" gradientUnits="userSpaceOnUse"><stop offset="0"/><stop offset="1" stop-color="#fff"/></linearGradient></defs><title>Baratheon</title><g id="Layer_2" data-name="Layer 2"><g id="Baratheon"><rect class="cls-1" x="95.64" y="91.57" width="447.91" height="456.05" transform="translate(319.6 -132.38) rotate(45)"/><polygon class="cls-2" points="396.95 559.55 273.19 441.56 285.13 436.45 186.13 337.45 226.79 302.33 253.05 325.72 291.9 293.34 259.52 253.05 300.53 229.3 335.07 207.72 384.71 210.6 398.39 158.79 384.46 139.12 431.48 186.13 448.75 175.34 442.27 142.97 628.62 327.16 396.95 559.55"/><path d="M450.53,156.26c-3.58-8.5-9.33-16.84-17-25-1.32-.26-2.2-.06-2,1.21,8.8,10.39,14,20,9.29,27.47l-2.42,1.61c-6.18-.14-10.39-3.86-14.54-7.67-1.83-.15-2.76.14-2,1.21,11.6,9.32,19.45,18,17.37,25-5.75,5.66-10.43,5.17-14.14-.81,0,0-4.85-7.27-6.06-6.86s-1.61,2-1.61,2c7.64,9.64,8.55,19.19,3.63,28.68-3.82,3.88-8,5.32-12.52,4.44-2.85-7.05.41-15.72,7.67-25.45.21-1.34-.24-2-1.61-1.61a37.52,37.52,0,0,0-7.68,8.88c-2.9,7.58-5.89,17.26-8.48,18.18a6.35,6.35,0,0,1-4.44.81c9.37-11.74,12.57-25.78,10.9-41.61-4.94-13.57-11.78-22.89-20.19-28.68-1.61,0-2.63.41-2.43,1.62a47.3,47.3,0,0,1,8.89,10.91c4.48,7.31,4.82,12.47,0,14.94-9-1.83-12.71-4.18-14.94-7.67-1.37.16-2.38.51-2,1.61,8.41,7.86,17.38,15.85,14.54,21-.8,4.61-9.4,2-18.18-.81-1.56.17-2.19.92-1.62,2.42,10.68,3,16.42,8.32,17.78,15.75a11.24,11.24,0,0,1-2.83,8.49L373,205.14a62.39,62.39,0,0,1,2-19c-2.74.4-5.29,6.45-7.67,17l-8.08-.41c.82-16.09-5.78-35.4-16.16-40,11,18.94,13.5,32.56,4.85,39.18l-6.87-.4c-4.37-12.72-10.55-20.43-18.58-23,5.27,3.47,9,12.26,12.12,23.42a50.91,50.91,0,0,0-19.39,7.27c-12.63-6.38-19.47-15.88-21.81-27.46-3,6.92.11,17.6,13.33,31.1-16.14-4.85-26.78-12.2-31.51-22.22l3.64,9.29c5.44,7.36,11.8,13.21,20.19,15.76,4.46.64,7.66,2,7.68,5.25l-9.29-1.21c-6.3-1.09-9.46-2.76-8.08-5.25l-2.83-.81-1.21,1.61c1.78,4.77,3.62,9.43,6.46,12.53l-14.54,9.29-18.58,6.06.41,10.09L270,252l-3.63,6.87A60.58,60.58,0,0,1,293,252.8a46.33,46.33,0,0,0,14.54-3.23c-.84,2.63-6.65,4.45-16.16,5.65l-12.93,11.72-15.34,14.13a42.54,42.54,0,0,0-12.53,7.28c3.54-.78,7.4-1.81,6.87.8-4.69,2.46-7.69,5.13-8.48,8.08,1.92-1.76,3.42-2.62,4-1.61-3.88,4.21-6.91,8.17-8.49,11.71l3.64-.4-4,5.65c-4.37-2.75-7.54-7-10.1-12.12-1.89-3.15-5.7-3-10.9-.4-9.83,10.95-18.9,19.95-25.05,21.41L186,338.84a38.64,38.64,0,0,1,15.35-1.22c-.75-5.17.36-8.11,5.26-6.46l1.61-3.23c.05-2.83,1.74-5.09,4.85-6.87,7-6.94,13.9-13.69,16.16-10.9-.38,2.16,1.79,3.91,3.63,6.06-3.75-1.55-7.07-.72-10.1,1.61l-.81,2.43c1.87,14.95,2.51,28.94.41,40.79a21.75,21.75,0,0,1,3.23,16.56l10.1-12.52-4-4.44,2-2c-2.54-11.8-3.79-22.57-1.21-30.3l18.17,9.7,2,14.54,2.43.81.4-4.45,1.21-.4,8.08,10.91.81-3.64,12.12,11.31L276,360.65l3.64,3.63,32.71,18.18c-6.79-.37-6.22,31.61,6.06,42.41,5.66,5-10.89,8.23-33.52,8.08L273.61,441l13.33,5.25,3.23-5.25,4,2c4.18-4.14,13.69-5,26.66-3.64l11.31-2.82c1.13-1.5,1.3-2.91,0-4.2-4.33-3.66-4.54-10-2.43-17.77l-1.59-8.33.81-10.1,1.21,3.24.81,12.92.8,5.25,4,11.72L354,455.57l.4,19-3.63,22.21-4.45,1.62-3.63,8.08.4,1.61,11.31-1.21L356,500l4,.41,2-2.43-.39-9.29a108.06,108.06,0,0,1,6.87-36.35l-6.87-6.87c-5.48-5.25-4.73-27.45.81-32.71l6.46-10.51,4.45-2.42L375,412l1.62-4.85,4,4,6.87-.4,1.61-2.83-6.06-.81a26.34,26.34,0,0,1-1.31-4.23l-1.52-9.1c4.59-5.88-29.47-47.34-46-52.51-14.93-9.6-29.44-23-31.11-34.74.51-7.52,4.65-16.27,12.69-24,5.17-4.95,5.87-13.12,9.13-20.87l2.42-19.39c-.57-1.9,3.39-4,7.67-6.06h7.68l.4-1.62-8.48-.4c-2.14-2.48-5.94-4.9-10.91-7.27l-.4-2.43-3.63-2.42c9.13-3.16,18-3.2,26.65-1.61,15.94,2,28.66,1.25,36.36-3.64L385.9,214c16.1,2.43,28.83,1,38.78-3.63,12.76-6.45,20.74-14.15,24.23-23C453.62,176.57,455,166.12,450.53,156.26Z"/></g></g></svg>