<svg xmlns="http://www.w3.org/2000/svg" height="250" width="250" viewBox="0 0 393.29 393.29">
  <defs/>
  <defs>
    <linearGradient id="a" x1="114.52" x2="386.78" y1="214.94" y2="214.94" gradientUnits="userSpaceOnUse">
      <stop offset="0"/>
      <stop offset="1" stop-color="#fff"/>
    </linearGradient>
  </defs>
  <g data-name="Layer 2">
    <g data-name="Layer 1">
      <path fill="#f7c905" d="M198.415.002l194.871 194.871-198.414 198.414L.001 198.416z"/>
      <path fill="url(#a)" d="M244.23 344.28l-76.14-72.6 7.35-3.14-60.92-60.91 25.02-21.61 16.15 14.39 23.91-19.92-19.92-24.8 25.23-14.6 21.25-13.28 30.55 1.77 8.41-31.88-8.57-12.11 28.93 28.94 10.63-6.65-3.99-19.92 114.66 113.33-142.55 142.99z" opacity=".1"/>
      <path d="M277.2 96.14a53.48 53.48 0 00-10.44-15.41c-.81-.15-1.35 0-1.24.75 5.41 6.4 8.63 12.32 5.72 16.9l-1.5 1c-3.8-.09-6.39-2.37-8.94-4.72-1.13-.09-1.7.09-1.24.75 7.13 5.73 12 11.08 10.68 15.41-3.54 3.48-6.41 3.17-8.7-.5 0 0-3-4.47-3.72-4.23s-1 1.25-1 1.25c4.7 5.93 5.27 11.81 2.24 17.64-2.35 2.39-4.92 3.28-7.71 2.74-1.75-4.34.25-9.67 4.73-15.66.12-.82-.16-1.22-1-1a22.89 22.89 0 00-4.72 5.46c-1.78 4.67-3.63 10.62-5.22 11.19a3.85 3.85 0 01-2.73.49c5.76-7.22 7.73-15.85 6.71-25.59-3-8.36-7.25-14.09-12.43-17.65-1 0-1.62.25-1.49 1a29.3 29.3 0 015.47 6.71c2.75 4.5 3 7.68 0 9.2-5.55-1.12-7.82-2.57-9.2-4.72-.84.1-1.46.31-1.24 1 5.18 4.84 10.7 9.75 9 12.93-.49 2.83-5.79 1.21-11.19-.5-1 .1-1.35.57-1 1.49 6.57 1.83 10.1 5.12 10.93 9.69a6.84 6.84 0 01-1.74 5.22l-6.71-.74a38.4 38.4 0 011.25-11.69c-1.7.25-3.26 4-4.73 10.44l-5-.25c.5-9.9-3.55-21.78-9.94-24.6 6.76 11.65 8.3 20 3 24.11l-4.22-.25c-2.69-7.83-6.49-12.57-11.43-14.17 3.24 2.14 5.55 7.55 7.45 14.42a31.25 31.25 0 00-11.93 4.47c-7.77-3.93-12-9.77-13.42-16.9-1.83 4.26.07 10.83 8.2 19.14-9.93-3-16.47-7.51-19.38-13.67l2.24 5.71c3.34 4.53 7.26 8.13 12.42 9.7 2.74.39 4.72 1.24 4.72 3.23l-5.71-.75c-3.87-.67-5.82-1.69-5-3.23l-1.74-.5-.75 1c1.1 2.93 2.23 5.8 4 7.7l-8.95 5.72-11.43 3.73.25 6.21 6.71-.74-2.24 4.22a37.34 37.34 0 0116.4-3.73 28.43 28.43 0 008.95-2c-.52 1.62-4.09 2.74-9.94 3.48l-7.95 7.21-9.45 8.7a26.3 26.3 0 00-7.7 4.47c2.18-.47 4.55-1.11 4.22.5-2.88 1.51-4.73 3.16-5.22 5 1.19-1.08 2.11-1.61 2.49-1a29.34 29.34 0 00-5.22 7.2l2.24-.25-2.49 3.48a18 18 0 01-6.21-7.45c-1.17-1.94-3.51-1.84-6.71-.25-6.05 6.74-11.63 12.27-15.41 13.17l-7.46 10.69a23.92 23.92 0 019.45-.75c-.46-3.18.22-5 3.23-4l1-2c0-1.74 1.07-3.13 3-4.23 4.3-4.27 8.55-8.42 9.94-6.71-.23 1.33 1.1 2.41 2.23 3.73a5.88 5.88 0 00-6.21 1l-.5 1.49c1.15 9.2 1.55 17.81.25 25.1a13.34 13.34 0 012 10.19l6.21-7.71-2.48-2.73 1.24-1.24c-1.56-7.26-2.33-13.89-.75-18.64l11.19 6 1.24 9 1.49.5.25-2.74.75-.25 5 6.71.49-2.23 7.46 7-1-4 2.23 2.24 20.13 11.18c-4.18-.23-3.83 19.45 3.73 26.1 3.48 3.09-6.7 5.06-20.63 5l-7 5 8.21 3.23 2-3.23 2.42 1.08c2.57-2.55 8.42-3.05 16.4-2.24l7-1.74a1.75 1.75 0 000-2.58c-2.66-2.25-2.79-6.13-1.49-10.93l-1-5.13.49-6.21.75 2 .5 8 .49 3.23 2.49 7.21 11.17 16.09.25 11.68-2.24 13.67-2.73 1-2.24 5 .25 1 7-.74 1-4.23 2.49.25 1.23-1.49-.24-5.72a66.73 66.73 0 014.23-22.36l-4.23-4.23c-3.37-3.23-2.91-16.89.5-20.13l4-6.46 2.73-1.49 1 7.45 1-3 2.49 2.49 4.22-.25 1-1.74-3.72-.5a15.1 15.1 0 01-.81-2.6l-.93-5.6c2.82-3.62-18.14-29.13-28.34-32.31-9.18-5.9-18.11-14.14-19.13-21.37.31-4.63 2.86-10 7.8-14.75 3.18-3 3.61-8.07 5.62-12.84l1.49-11.93c-.35-1.16 2.09-2.44 4.72-3.73h4.72l.25-1-5.22-.25a21 21 0 00-6.71-4.47l-.25-1.49-2.23-1.5a31.58 31.58 0 0116.4-1c9.81 1.21 17.63.77 22.37-2.24l2-1.74c9.9 1.49 17.73.61 23.85-2.23 7.85-4 12.77-8.71 14.92-14.17 2.79-6.64 3.63-13.07.89-19.14z"/>
    </g>
  </g>
</svg>