<svg xmlns="http://www.w3.org/2000/svg" viewBox="0 0 663.7 663.7"><defs><style>.cls-1{fill:#171717;}.cls-2{fill:#f5cd2c;}</style></defs><title>Greyjoy</title><g id="Layer_2" data-name="Layer 2"><g id="Greyjoy"><rect class="cls-1" x="97.2" y="97.2" width="469.31" height="469.31" transform="translate(331.85 -137.46) rotate(45)"/><path class="cls-2" d="M169.91,464.63l26.89,8.22,2.24,3c28.76-8.33,40.36-10,47.44-9.34-2-3.92-6.9-7-16.81-8.59l-25.4-1.49c-17.56,13.22-28.42,7.18-34.74-12,.82-19,8.37-27.57,28-17.55,14.64,11.89,29.23,21.87,43.7,25.77,16.29.74,26.2-5.68,33.24-15.31,6.77-8.64,10.25-20.88,11.2-35.86,7.67-3.1,15.4-8.37,23.16-14.57-4.56,9.08-8.53,20.79-11.58,36.61-3.37,16.93-11.28,28.31-22,36.23,6.82,2.47,14.34-1.63,22.41-10.83,4.85-8.7,8.19-19.62,10.46-32.13,1-9.1,4.4-16.75,8.59-23.9-3.67,17.23-2.89,31.77.37,44.82,3.5,13.74,3.3,25.51-3,34l2.25.7c8.52-1.81,10.92-11.81,9-27.64-2.41-22.79-2.88-43.88,2.61-59.76l6.72-3c3.89,14.45,4.89,32.66,3.37,54.16-4.13,24.69.82,32.85,10.45,34.36-5.3-10.78-5.89-22.56-1.3-38.91a148.49,148.49,0,0,0-.94-41,467.94,467.94,0,0,0,17.18,52.66c9.74,17.16,17.93,19.82,25.4,15.69a54,54,0,0,1-19-22l-14.56-49.3c6.78,6.87,14.21,11.51,22.41,13.45-.23,11.56,1.84,21.31,6.35,29.13,6.13,11.58,14.41,19.47,26.89,20.17,10.93.91,21.77-2.05,32.49-9.34,16.79-14.78,31.33-23.26,41.46-19.42,11.2,6.84,11.66,16.26,7.1,26.89C483.76,460,475,465.19,465.35,461.65c-1.77-4-4.19-7-8.14-8a194.22,194.22,0,0,0-29.58,4.3l-11.21,8.22L462.36,474l3.74-2.61c13.29-1.68,25-8.35,35.11-19.8,4-20.45-1.66-33.7-17.18-39.59-11.63-.36-22.69,4.22-33.24,13.07-15.14,13.28-29.85,22.51-43,16.06-16.35-6.27-21.41-18.72-21.29-34,10.42,3.36,16.76,15.72,22.79,28.76,1.21,1.06,2,.61,2.61-.74-2.23-19.43-11.92-35.78-25.4-39.6l3.36-14.94c2.82-6,17.86-6,37.35-3.73-2.72-7.16-11.45-11.46-32.86-9.71,11.15-22.18,19.78-42.41,14.56-74.7-2.31-9.76-11-19.64-28-19.8-16.13,3.16-22.18,12.17-23.53,23.91.75,17.16,4.93,31.5,13.07,42.57,1.89,9.7.65,16.64-4.48,20.17-16.57,6.73-22.76-1-24.28-15.31,13.07,6.36,22.11,8,22-1.12-6.31,3.85-11.35,3-14.2-6,2-29.22,3.12-55.68-.37-66.11l7.47-11.95c-17.58-7.16-10-13.55,2.62-19.79-3.94-6.28-1.42-12.5,4.48-18.68-12.36-2.57-14.73-7.15-6.73-13.82-12.16,4-20.64-2.2-25.39-18.68-2.1,12.81-7.81,21.88-25.4,18.68,6.62,7.35,3.11,11.46-8.22,13.07,10.12,5.27,12.29,11.94,5.6,20.17,14.57,6.54,18.11,13.32,1.5,20.54l9,8.6c-5,10.89-2.92,29.49,0,39.21,9.39,31.26-10.52,42.74-16.06,35.86,3.39,4.53,7,8.63,13.82,6l11.58-4.49c2.31,15.18-23.5,21.18-29.13,9.72-3.57-9.45-2-19.52,3.69-30.08,9.78-24.71,7.82-39.59-3.69-46.49-13.9-6.16-26.18-6-35.11,7.47-12.17,24.23-5.1,52.5,9.33,82.17q-26.32-.57-30.25,9.34c9,3.4,17.84-5.33,34,2.24l4.11,15.68c-14.87,7.45-23.67,19.84-23.91,39.22,9.16-16.09,17.07-24.95,23.91-27.64-.74,20.78-6.49,35-22.79,35.49-5.09,8.32-26.91-7-44.82-17.56-9.43-5.55-11.4-8.16-15.68-10.08C160.67,402.88,153.15,458.16,169.91,464.63ZM376.83,362.29c5.05-6.05,3.8-17,3.74-17.18-1.5-4.85-6.52-26.11-9-28.76-2.59-2.8-3.36-12.32-3.36-16.43a15.68,15.68,0,0,1,15.69-15.69c8.66,0,16.43,8.59,16.43,17.18,0,3.49.29,9.1,0,12.33-.26,2.89-5.09,25-8.22,33.24-6.46,17.14-7.22,26.14-10.45,26.14-.21,0-20.25,3.21-20.55-.37C360.83,369,372,368.1,376.83,362.29ZM262.91,321.21c-2-3.23-.69-15.4.75-19.8,2.73-8.37,6-16.29,15.69-15.69,8.64.54,15.68,7,15.68,15.69,0,5.22-6.09,18.06-8.21,22.41-2.57,5.26-3.7,17.63-4.76,28.45-1.44,14.8,21.57,18.91,21.19,19.36-2.91,3.43-21.31,2.1-23.53-.37C276.41,367.58,265.63,325.52,262.91,321.21Z"/></g></g></svg>