<svg xmlns="http://www.w3.org/2000/svg" xmlns:xlink="http://www.w3.org/1999/xlink" viewBox="0 0 905.1 905.1"><defs><style>.cls-1{fill:#b40304;}.cls-2{opacity:0.1;fill:url(#linear-gradient);}.cls-3{fill:#ffc914;}</style><linearGradient id="linear-gradient" x1="233.55" y1="526.05" x2="897.05" y2="526.05" gradientUnits="userSpaceOnUse"><stop offset="0"/><stop offset="1" stop-color="#fff"/></linearGradient></defs><title>Lannister</title><g id="Layer_2" data-name="Layer 2"><g id="Layer_2-2" data-name="Layer 2"><rect class="cls-1" x="132.55" y="132.55" width="640" height="640" transform="translate(-187.45 452.55) rotate(-45)"/><polygon class="cls-2" points="897.05 462.05 547.05 822.05 299.05 617.05 361.05 583.05 346.05 568.05 353.05 559.05 323.05 528.05 333.05 509.05 233.55 408.55 239.55 389.55 340.55 394.55 518.05 230.05 567.05 266.05 593.05 255.04 641.05 265.05 648.55 231.55 675.62 258.17 686.05 254.05 897.05 462.05"/><path class="cls-3" d="M685.24,253.73,676.81,257,672,273.57,656.73,268,656,243.8l-2.08-9L648.42,232l-4.84,1.39,1.38,6.92-3.46,3.46L630.42,248l-11.08,4.84-18-9-12.19-2.49-26.58,10.11-20.77,18-6.46,16.72L530,299.88l-.69,8.31.69,11.08L531.41,331q.71,3.81,1.39,7.62,1.74,7.32,3.47,14.64l3.84,16.16c.79,3.35,7.82,12.93,8.61,16.28-2.59,1.58-8.48-1.84-10.38-.7-3.19,1.91-6.49.85-8,1.83-3.62,2.29-4,5.83-7.2,7.87-2.21,1.4-6.27,11.18-6,15.05a51.06,51.06,0,0,0,1.87,8.49c-.32.18,5.08,6.21,3.46,9.69-.25.54,3-4.69,3.47-8.31.56-4.7,3.93-7.51,4.84-6.92.34.21,5.21,3.33,5.54,5.54.49,3.28-2.55,11-2.08,11.77,1.13,1.87,4.21,8.9,5.54,9.69s2.25-.54,3.07-1.71c.66-1,7.25.8,7.32,1.71.19,2.4,3.46,5.85,6.11,6.59s5-4.11,5-7.11c-.05-4.07.06-9,1.36-9.17,2.28-.32,10.09,3.22,12.46,2.77,3.09-.6,8.44,17,8.31,17.31-.06.13-6.16-.95-8,1.45-1.39,1.84-3.12,4.09-4.9,6.36-1.64,2.09-3.41,17.37-3.74,17.8-2.07,2.77-14.75,2.89-16.61.69-.48-.56-3.52-2.05-3.46-4.15.06-2.4,3.33-12.5,2.77-13.15-2.12-2.44-2.24-3.59-3.47-3.47-4.62.48-5.82,4.64-6.23,5.54-.69,1.55-5.75,13.22-4.84,21.47.82,7.48,3.59,3.86,4.84,12.46.26,1.76,14.43,4.28,16.62,5.54,2.91,1.67,23.14,3,26.31,4.15,4.91,1.82-2.3,13.8-2.08,15.23.7,4.55-30.4,10.35-30.46,10.39s-18.29-5.23-20.77-9.69c-1-1.71-2.3-9-3.46-11.08-3.26-5.89-.64-10.22-4.33-17.06-6.37-11.78-12-22.63-12.29-24.48-.82-5.65-12.06-27.12-13.16-34.62-.43-3-2.39-14-2.77-16.62s-2.5-7.88-2.76-9.69c-.38-2.56,4.15-5.53,4.15-5.54s4.14-8.23,4.15-8.31c.1-.49-1.1-9-.69-11.08.12-.59-1-3.36-2-5.67-.76-1.75-1.44-3.24-1.42-3.33.18-.88,1.46-1.44,3.22-1.84,4.39-1,11.74-.95,12-2.31.47-2.33,5.76-1.69,6.27-4.3.35-1.79.77-3.95,1.32-6.8.71-3.76,1.07-5.64,1.15-6.13,0-.28-2.85-2.55-2.51-4.23.4-1.91-15.63-17-15.23-18,.33-.81,19.81,14.39,20.07,13.71a10.63,10.63,0,0,0,.7-3.33l5-12.29-2.9-3.63-6.92,7.61-.7-6.23V312.35l6.23-2.08,3.47-8.31,2.77-22.15L519,268.73V257.65l13.85-5.54-20.08-13.85,12.46-2.76L510.64,223l-2.48-8.58L506.49,205l-7.62,8.31-4.15-14.54-7.38,9.75L482.26,194,472.56,205l-31.84-1.38-11.08,11.07-20.77,2.08L401.25,221l6.23,26.31,4.85-3.47,4.85,2.77,4.84-6.92,4.16,1.38,2.07,4.85L423.41,257l-5.54-4.16L413,256.27l-2.08-4.16L404,259l-3.46,6.23,1.23,6.69,5.69,4.38,16.62-2.77-3.46,7.62-27.7-1.38L379.79,286l-4.85,2.07-43.62-51.92V221l2.08-27.7-6.23-14.54.69-9-10.38-6.92-4.85,10.38-6.23-8.3L295.32,167l3.46,11.77L287,173.88l-9,9.69L288.4,187v13.16l9.69,11.07-16.62,7.62,2.08,16.62L296,251.42l-11.07-.69-6.23,9.69,13.15-.69,7.62,9v16.61l18.69-3.46,10.38,24.93-9.69,18,20.08,4.85-9.47,15.74,12.93,9.87-33.23,11.08L307.78,374l-32.54-5.54-12.59-9.06-17.55-1.26-10.71-.76-14.53,6.92L233,366.35l-11.08,8.31,2.77,11.77h9.69l-9.69,9.69L233,408.58l3.46-9.69,10.39-2.08,11.77,15.93,21.46-4.16,8.31,4.85,33.23.69,43.62-3.46L386,400.28l19.39,25.61,26.31,26.31,27,41.54-21.47-12.46-26.31-6.92-25.61-2.08-47.08,28.39-14.54,27,23.54,10.38-1.71,30.34L359,567.13l-2.08,12.47-25.62,4.15L307.78,597.6l-9,19.38,17.31,9,13.16,12.47,22.84-22.85-2.07,18,18.69-8.31,19.39-25.62,20.08-.69,6.92-13.15-9.69-14.54,4.15-24.24L440,533.9l-13.11,49,2,43.76,18.69-9,20.77,22.16L476,657.14l-11.77,18.69-18,11.08L426.57,704l1,17.5L447,734.68l9.69,7.62,8.31-9,13.85-15.93,12.46,4.85,13.15-2.08,4.85-15.92L521,697.3l25.62-31.85,12.46-18-18.69-20.77L521,603.83l5.54-15.93-20.08-8.3,15.23-40.85,32.54,12.46,31.85-9,17.31-22.16L629,513.82l7.61-28.38-13.84-22.85-18-13.16L593,416.2l3.47-15.92,18-13.16-1.39-17.31-6.92-8.31-11.77-4.84-18-.69-15.23,13.84L557,357.35l-4.84-48.47L565.34,275l27-11.08L584,285.34,579.19,275,573,290.19l9.69,8.31,11.77-.69-4.16,10.38,14.54,21.47,2.77,21.46,29.77,11.77-13.15-13.16v-8.3l10.39,2.07,9.69-1.38,11.08-6.93,6.92-10.38,8.31-2.77,9.26-1.34,1.12-8.35.7-13.85-5.54-11.77,9-11.08Zm-246.6-34.85L440,214l3.47-.69,6.23,5.54Z"/></g></g></svg>