<svg xmlns="http://www.w3.org/2000/svg" viewBox="0 0 302.63 302.63"><defs><style>.cls-1{fill:#171717;}.cls-1,.cls-2{stroke:#fff;stroke-miterlimit:10;}.cls-2{fill:#f5cd2c;}</style></defs><title>Greyjoy small</title><g id="Layer_2" data-name="Layer 2"><g id="Greyjoi_mobile" data-name="Greyjoi mobile"><circle class="cls-1" cx="151.31" cy="151.31" r="150.81"/><path class="cls-2" d="M250.32,213.9c1,9.94-8.38,16.58-23.23,21.5l-27-5.76,7.24-9.35-23.82,5.81-6.71,2.34c-5.52-3.62-10.76-18.93-15.94-36l-.58,41.24-5-3.69c.14-21.37.1-39-3.09-48-6.78,2.76-7.78,21.94-6.07,48.78l-5.54,3.5,1.16-46.47c-4.82,18.61-10.65,34.12-19.54,40.28l-4.28-1.36-25-5.81,8.22,9.56-27.39,6.13c-13.33-.09-21.92-6.52-21.49-25,2.17-4.85,4.74-8.68,8.13-10.46,5.29-3.71,24.86,3.84,44.73,11.62-.37-6.88,2.36-15.72,12.2-29-2.72-6.42-10.85-6.09-20.33-4.07.42-4.37,4.88-6.85,16.85-5.81-9.87-17.48-10.56-34.24-5.23-50.54l26.72-12.19q10.17-5.82-.58-11.62,5.33-7.18-3.49-11.62c6.36-2.76,8.93-5.32,5.23-7.55,8.82,1.84,13.16-3.6,14.32-14.23,1.05,8.2,6.27,12.66,14.72,14.23-3.69,3.86-3.25,6.62,4.07,7.55-3.46,3.37-5.32,6.94-2.9,11-8.65,4.63-10.47,8.64-1.17,11.62l27.31,12.19c6.7,10.64,7.54,25.39-2.33,47.64,10.25,2.6,15,5.54,16.27,8.71-9.31-3.09-17.37-2.33-23.24,5.23,9.31,9.95,15.06,19.4,13.94,27.88,23.74-9.67,43.15-16.43,45.31-11.62C247.25,203.47,250.22,207.58,250.32,213.9Z"/></g></g></svg>