<svg xmlns="http://www.w3.org/2000/svg" height="250" width="250" viewBox="0 0 393.29 393.29">
  <defs/>
  <defs>
    <linearGradient id="a" x1="78.2" x2="377.76" y1="232.52" y2="232.52" gradientUnits="userSpaceOnUse">
      <stop offset="0"/>
      <stop offset="1" stop-color="#fff"/>
    </linearGradient>
  </defs>
  <g data-name="Layer 2">
    <g data-name="Layer 1">
      <path fill="#262626" d="M196.5-.002l196.498 196.498L196.5 392.994.002 196.496z"/>
      <path fill="url(#a)" d="M377.76 214.32l-83.05-83a120.07 120.07 0 10-168 168l83 83.05z" opacity=".05"/>
      <path fill="#ab1d22" d="M317.07 195.79a133.87 133.87 0 00-3.63-31.07c-.45-1.9-2.91 3.19-3.44 1.33-.65-2.27.6-11.49-.16-13.7-.24-.69-.48-1.37-.74-2-.86-2.27-2 7.73-3.09 5.58-1.82-3.66-3.75-19.35-6.11-22.67-2-2.86-3.12 3.17-5.5.54-2.92-3.24-7.21-15.07-10.57-18-1.23-1.06-2.49-2.11-3.77-3.13-2.14-1.71.28 3.85-2 2.25-6-4.25-17-15.32-23.58-18.86-1.35-.73 1.42 3.95 0 3.26-9.81-4.72-25.19-13.8-34.46-17-3.21-1.12 1.51-5.69-1.81-6.53-4.92-1.24-9.66 1.12-13.79 1.09-3.52 0-6.38-2.54-10.88-2.54h-4.47c-3.85 0-7.05 2.91-10 2.93-1.8 0-4-2.32-6.21-1.4l-1.3.57a59.3 59.3 0 01-8.09 3.37c-1.22.31-1.22 2.45-2.54 2.9-2 .69-.15-.71-2.54.37-.36.16.75 1.75 3.27 6.16.31.56 7.74 1.75 8 2.18l2.54 4.35-.73 3.27 7.62 1.09V96.4l9.79 2.54L199 95.67l6.53-3.62.73 6.16 2.17 1.82-1.43 3.26.36 3.63-6.53 3.63-1.08 3.26-5.45.36-2.53 3.27-4.77 1.09-5.44 1.81-8.71 8.71-3.26-6.17 4.41-5.08-5.08-5.8 2.65-2.35-.62-4.27-9.28-10.8c-1.14-.8-5.61-2.45-7.26-4-1.21-1.13-5.69 0-6.89-1.08s4.4-5.12 3.4-5.85-1.66-1-2-.83a131.51 131.51 0 00-14.44 9.22c-2.89 2.1-8 3.14-10.88 5.44s-5 3.56-7.6 5.91c-5.07 4.5-8.11 11.18-12 15.49-1.67 1.85-.83.09-2.18 1.81-.7.91 1.17 3 1.09 4.36-.09 1.53-2.07 2.34-1.84 4.1 0 .31 1.19.57 3 .8s11.5-8 14.39-7.81c1.44.1-2.26 4.63-.73 4.72 4.33.25 1.56 2.63 5.08 2.9 3.13.24 2.25-1.5 4.36-.72l1.08-1.46-1.81-4 9-5-5.06-1.17 8.56-3.19 1.24-1.53-6.17-1.45 10.16-2.54 2.9-1.81 6.89 6.16 5.08 3.27-2.9 4.35 2.17 5.08-2.9 5.08 1.45 3.26-2.54 7.26.73 4.71-2.62 4 .08 2.53-1.46-1.2-4.71-3.15-7.62-1.81 4.3-1.68-4.14-3.43-7.77 1.12 4.71-2.9-7.25-.37-5.81 1.45 2.54-4.35c-1.81.61-7 3.42-10.88 3.63-.52 0 .65-2.45.12-2.42-2.38.11-4.87 1.61-7 1.69-1.53.06-3.23 2.83-4.36 2.9-1.67.12-.21-5.31-.36-5.07S93 148.57 91.63 147.55c-.27-.2 3.26-8 2.9-9.44-.28-1.12 1-2.7.55-4.07-.9-2.71-1.44-5.42-1.64-5-2.27 4.75-5.55 13.25-7.25 17-1.88 4.19-1.09 1.82-4 6.53-5.19 8.54-5.25 21-6.19 31.16 0 .56.42 2.9 2.21 3.27 2.2.45 5.64-.26 6.19.45s-3.24 3.28-3.26 3.63c-.06.84-5.42-2.73-5.47-1.88-.1 2.18 1.84 2.2 1.84 4.41 0 .44-2 3-2 3.47l7.79-1.65 5.45-8.34 2.9 1.08 2.54-.72 2.17.72 6.53-1.45-.93-2.55-3.42.74 1.45-2.18-2.9-2.9 4.35-6.17-.54-1.81-3.09-.73 1.52-4-.63-1.81-4.15 1.43 5.66-3.85 3.41-1.59 1.81-4 4.35-1.81 2.91-4 4.71 1.08 2.9.73 4.36-1.09 2.9 3.27 5.8 1.45v5.8l5.81.73.36 4.35 4.35 3.26v4l2.54 2.18 1 3.16 1.84 5.51 1.83 1.49.36 5.08 5.08 3.26.36 4.72 6.17 2.54 2.17 5.07 6.17.73-.36 7.62 2.18 8.34-13.79-6.17-12-10.52-5.08-12.33-4-20.68h-9l2.84 2.54-3.62.73-5.44-2.54-4.36 1.81-1.46 2.39 6.6 1.62-11.24 4.38-2.18 5.8h2.18l3.26-1.45 2.18.36 1.09 2.18 4 1.81 5.8 4.36 4.72 13.78-4 2.9 4 3.63-4 2.6v2.12l9.79 1.08 2.9-11.6 2.54 5.07 5.08 4 1.81 4.36 2.54 1.45 9.43 5.44 7.62 4.72 6.17 2.53-6.17 5.08 2.82 1.24 4.8-.87 3.26-4 4-4.72 3.63-8 6.53-6.89.73 20.31 3.62 5.44 2.91 2.54-3.27 4-5.5 1.64-7.96 2.36h-12l-7-1.09-5.63-3.62-4.71-6.17-3.42-5.69-2.39-2.29-4.35-2.18-5.8 3.63 6.89 3.26-10.52 1.09-3.27 6.17 6.9.36-.63 1.93-5.9 4.24-.73 5.44 1.81 1.09 3.63-2.18c1.62-5.15-1 1.09 4.72 1.09 4.82 0 11.37 3.23 13.52 7.19a12.71 12.71 0 01-.92 13.55l4.45 1 6.47-2.94 2.23-4.32-.72-5.26-1.09-2 2.18-4.36 4.35 1.45 7.58 1 6.93-.3 11.24.36 6.53-1.09 7.62-1.81-.36 7.25 5.39-2.87v-7.57l1.57-4.67-.84-6.58 2.53-6.53 4-4 2.18 3.26-2.07 7.66 1 4.68-2.54 8a38.46 38.46 0 01-2.47 5.88l-4.36 5.35-6.54 5.32-2.94 3.79-5.8 2.9-3.08-.32-8.17 3.95-11.61 1.45-15.6 1.09-12.33-2.54-5.67-2H147a12.7 12.7 0 01-10.75-5.93v.3l-17-10.15-22.91-27.6 10.16-1.82-.36 2.91 10.15-3.63 2.54-4.72-.36 4.72 3.9-1.79 4.08-6.55.73-3.63v-4.35l.36-4.36-3.63-3.26.61-1.82 3.38-.72-5.8-6.53-4.72-1.45 4.35-2.54-1.45-.73-2.9-.36-3.63-1.45-5.8 1.45 1.23-3.1-8.6-1.38-4.24 5.93 1.16-6.42-4.78 4.25-2.72 1.18L87.27 219l-2.17-10.15-1.82-9.79-7.61.36c.52 27.76 16.41 54.72 31.19 75.09 1.19 1.64-4.58 1.26-3.32 2.84 3.38 4.21 20.12 11.9 24 15.66.66.64-11.77-2.43-11.09-1.8a48.94 48.94 0 005.15 4.15c2.06 1.44 17.1 3.34 19.36 4.54 2.88 1.52-7 2.28-3.88 3.5 8.23 3.24 17 5.6 25.34 8.1l33.32-5.43 17.41-6.53 8.7-5.44 5.21-1.72.65 1.84 7.56-10.28 4.81-2 15.15-23-.37-12-3.28-6.53.93-3 4.53 4.82 2.18-10.52-1.64-10.71 5.63 2 1.08 10.15-2.53 12 5.07 2.54.73 6.53-2.18 6.17-5.44 5.8-8 6.53 3.27 4-.73 6.9-4 5.07-13.03 4.31-9.22 2.68.52 1.5.36 4.16-8.51 5.5-10.92 3.84-9.59 1.18-33.21 2.14a3.56 3.56 0 003.83 2.91c11.2-1.72 18.86 1.81 28.65 1.81 17.5 0 38.95-11.44 56.68-22.51l14.78-18.48 3.63-6.53 5.08-10.88L282 252l2.63-15.21-1.4-16.42-1.14-5.71.91-4.22-1.39-1.91-5.61-7.67-6.29-13.05-10.19-9.69-8.68-8.45-5.08-3.08-1.76 5.26-2.9 5.44-5.81 5.08-8 2.54.73-4.35-5.8-1.82h-10.16l2.9-1.81-.47-.24-2.43-1.21 8.34-3.63 4 1.45-2.17-10.16 2.17-2.9 5.81-1.09 7.61 5.08 2.79-1.45-.61-3.63 2.54-4.35 3.26.73 4 1.08 5.81 5.08 9.79 10.16 1.45-4.72 3.27-1.08 4 2.17 5.08 6.89 3.23 10.89.36 12h6.53l6.17 6.89 1.09 8.71-.81 5.33-5.32 14.47 5 2.69 1.09 4.35v8.34l-5.54 9.4-6.1 10.52-3.51 6.09-6.58 5.88-7 11.6c-.47 3.09-2.09 7.64.64 5.49 21.82-17.13 35-47.64 41.92-76.21.11-.45-.55-13.64-.36-13.79l-6.17-25.39-11.8-21-8.51-8.8-6.17-4.71-6.2-3.22-7.29-5.85-8.63-3.26-9.44-1.82-10.8-1.64-19.35 1-18.87 6.16-4.71 5.08c.27 0 .45 2.18.72 2.18 7 0 9.8 5.68 9.8 12.69a12.7 12.7 0 11-25.39 0 13.13 13.13 0 01.09-1.54l-.09.09.19-.75a12.14 12.14 0 01.5-1.93l2.21-8.56 15.6-14.15 6.89-3.63L218.87 115 224 99.3l-2.18-7.25 6.9 2.9 10.88 4-8.6 2.23-6.24 11.9 2.17 2.18L228 124l7.73 6.54 15.39 2.14 11-8.32 1.45-6.89 3.26 3.9 3.91 3.14 3.35 8.19 14.91 8.68-5.44.72 2.18 3.27 6.18 4.62-1.83 2.27 9.43 8.34-3.63.37 10.89 19.59 7.61 27.56c1.09.14 2.19 7.51 2.54 5.45 1.23-7.38.14-10.02.14-17.78zM92.53 226.08a12.34 12.34 0 1112.34 12.33 12.34 12.34 0 01-12.34-12.33zM244 119.43a6.35 6.35 0 116.35-6.35 6.35 6.35 0 01-6.35 6.35z"/>
    </g>
  </g>
</svg>