<svg xmlns="http://www.w3.org/2000/svg" viewBox="0 0 61 87"><defs><style>.cls-1{stroke:#000;stroke-linecap:round;stroke-linejoin:round;}</style></defs><title>male</title><g id="Layer_2" data-name="Layer 2"><g id="Layer_1-2" data-name="Layer 1"><path class="cls-1" d="M51.7,35.3A28.46,28.46,0,0,0,35.4,27V19.5H46.5V9.5h-11V.5h-10v9h-11v10H25.6V27A30.72,30.72,0,0,0,9.3,35.3,30.07,30.07,0,0,0,.5,56.5,29.39,29.39,0,0,0,9.3,77.7a29.16,29.16,0,0,0,21.2,8.8,29.39,29.39,0,0,0,21.2-8.8,30,30,0,0,0,8.8-21.2A29.39,29.39,0,0,0,51.7,35.3ZM44.65,70.5a19.33,19.33,0,0,1-14.1,5.8,19.8,19.8,0,0,1-20-19.8,20.06,20.06,0,0,1,20-20,19.81,19.81,0,0,1,14.1,5.8,20,20,0,0,1,0,28.2Z"/></g></g></svg>