<svg xmlns="http://www.w3.org/2000/svg" viewBox="0 0 511.93 913"><defs><style>.cls-1{fill:#d7cbab;stroke-linejoin:round;}.cls-1,.cls-14{stroke:#000;}.cls-11,.cls-12,.cls-2,.cls-3,.cls-4,.cls-6,.cls-8,.cls-9{isolation:isolate;}.cls-11,.cls-12,.cls-3,.cls-4,.cls-5,.cls-6,.cls-7,.cls-8,.cls-9{font-size:12px;font-family:MyriadPro-Semibold, Myriad Pro;font-weight:600;}.cls-3,.cls-5{letter-spacing:0.01em;}.cls-6{letter-spacing:-0.01em;}.cls-8{letter-spacing:-0.04em;}.cls-9{letter-spacing:-0.01em;}.cls-10{letter-spacing:0em;}.cls-11{letter-spacing:-0.02em;}.cls-12{letter-spacing:0.03em;}.cls-13{letter-spacing:-0.01em;}.cls-14,.cls-17{fill:none;}.cls-14{stroke-linecap:round;stroke-miterlimit:10;stroke-width:5px;}.cls-15{opacity:0.6;}.cls-16{fill:#9b8f8e;}</style></defs><title>westeros4</title><g id="Layer_2" data-name="Layer 2"><g id="Layer_1-2" data-name="Layer 1"><g id="Layer_2-2" data-name="Layer 2"><g id="Westeros"><polygon class="cls-1" points="500.43 862.5 497.43 870.5 481.43 880.5 472.43 887.5 454.43 886.5 450.43 891.5 449.43 896.5 441.43 897.5 434.43 902.5 434.43 907.5 422.43 907.5 413.43 910.5 405.43 909.5 396.43 905.5 388.43 908.5 374.43 910.5 375.43 903.5 367.43 902.5 356.43 904.5 348.11 906.2 339.43 904.5 330.43 896.5 320.43 897.5 310.43 900.5 303.43 909.5 288.43 912.5 277.43 905.5 264.43 903.5 262.43 906.5 250.43 908.5 237.43 909.5 223.43 910.5 215.43 908.5 211.43 902.5 186.43 910.5 173.43 910.5 164.43 910.5 148.43 911.5 134.43 903.5 137.43 886.5 131.43 871.5 112.43 877.5 74.43 890.5 58.43 872.5 45.43 867.5 37.43 854.5 62.43 830.5 54.43 828.5 32.43 841.5 20.43 836.5 21.43 823.5 11.43 815.5 16.43 804.5 28.43 783.5 47.43 782.5 48.43 773.5 66.43 755.5 89.43 765.5 75.43 753.5 73.43 745.5 95.43 745.5 99.43 742.5 94.43 736.5 84.43 732.5 86.43 726.5 74.43 725.5 63.43 721.5 62.43 716.5 47.43 715.5 39.43 700.5 30.43 693.5 36.43 683.5 31.43 675.5 34.43 658.5 45.43 650.5 47.43 641.5 42.43 634.5 54.93 619 57.43 610.5 60.43 602.5 39.43 606.5 20.43 614.5 10.43 608.5 24.43 595.5 45.43 585.5 73.43 573.5 78.43 559.5 83.43 544.5 92.43 535.5 86.43 523.5 90.43 512.5 98.43 510.5 112.75 511.88 119.43 515.5 131.43 514.5 149.43 512.5 171.43 512.5 181.43 501.5 204.43 498.5 209.43 476.5 201.43 469.5 172.43 476.5 159.43 476.5 151.43 471.5 153.43 463.5 178.43 452.5 150.43 427.5 130.43 416.5 112.43 412.5 63.43 421.5 33.43 422.5 16.43 416.5 9.43 407.5 10.43 400.5 24.43 388.5 30.85 375.55 39.43 372.5 46.22 372.06 59.43 381.5 71.43 386.5 71.43 374.5 81.43 371.5 96.43 358.5 115.43 357.5 135.43 360.5 181.43 348.5 156.43 348.5 127.43 352.5 111.43 346.5 96.55 351.81 83.43 356.5 72.74 356.39 56.43 348.5 43.43 336.5 35.43 316.5 35.43 303.5 23.43 309.5 6.43 315.5 4.43 300.5 1.43 285.5 0.5 275.64 17.43 244.5 58.43 224.5 58.43 212.5 76.43 201.5 80.43 185.5 74.43 175.5 57.43 171.5 62.78 168.2 74.43 157.5 90.43 165.5 107.43 174.5 114.43 188.5 144.43 177.5 139.43 162.5 141.43 156.5 158.43 170.5 184.43 167.5 206.43 157.5 202.43 148.5 207.43 136.5 198.43 120.5 234.43 102.5 236.43 93.5 204.43 91.5 189.43 85.5 189.43 77.5 219.43 65.5 195.43 61.5 181.43 62.5 158.43 81.5 137.56 99.61 128.43 105.5 100.43 91.5 69.43 78.5 66.43 68.5 42.43 71.5 33.43 64.5 14.43 54.5 16.43 42.5 14.43 30.5 29.43 23.5 23.43 14.5 20.26 1 93.59 1 290.43 0.5 303.44 4.38 322.43 12.5 339.43 15.5 355.43 27.5 358.43 37.5 373.43 37.5 378.43 28.5 382.94 28.08 388.43 35.5 394.43 31.5 392.43 19.5 403.43 21.5 408.43 32.5 407.43 51.5 396.43 54.5 396.43 62.5 379.43 70.5 385.43 89.5 392.43 95.5 400.43 105.5 405.43 131.5 415.43 131.5 437.43 135.5 450.43 142.5 463.43 138.5 488.43 135.5 500.43 164.5 485.43 191.5 489.43 208.5 483.43 214.5 473.43 192.5 461.43 190.5 458.43 212.5 439.43 220.5 442.43 226.5 431.43 232.5 418.43 227.5 412.43 237.5 427.43 244.5 427.43 259.5 418.43 259.5 417.43 263.5 439.43 279.5 445.43 291.5 439.43 297.5 462.43 309.5 471.43 311.5 472.43 318.5 462.43 317.5 448.43 314.5 435.43 312.5 420.43 308.5 405.43 305.5 395.43 326.5 394.62 341.42 384.43 356.5 369.43 360.5 359.43 363.5 354.43 359.5 343.43 355.5 335.51 361.41 323.43 365.5 324.43 354.5 315.43 353.5 309.43 335.5 305.43 330.5 303.43 357.5 294.43 369.5 276.43 388.5 279.43 397.5 277.43 404.5 268.43 403.5 264.43 411.5 271.43 418.5 291.43 420.5 321.43 412.5 337.43 411.5 343.43 407.5 369.43 408.5 383.43 399.5 403.43 397.5 402.43 406.5 429.43 404.5 453.43 389.5 462.43 393.5 436.43 410.5 460.43 402.5 450.43 417.5 476.43 413.5 459.43 423.5 480.33 418.53 494.43 417.5 471.43 427.5 431.43 440.5 424.43 449.5 467.43 441.5 497.43 431.5 502.43 440.5 481.43 453.5 490.17 454.88 500.43 456.5 510.43 470.5 500.89 477.25 487.43 483.5 475.43 488 447.43 498.5 490.02 491.19 508.43 488.5 509.35 497.1 510.34 506.4 511.43 516.5 499.6 518.03 469.43 521.5 455.43 512.5 450.43 519.5 456.43 525.5 461.43 536.5 449.43 541.5 439.76 549.46 432.43 555.5 421.08 557.54 396.43 557.5 393.43 562.5 410.43 567.5 440.43 561.5 461.43 554.5 487.43 537.5 493.43 537.5 482.43 559.5 484.43 567.5 473.43 578.5 457.43 580.5 438.43 588.5 413.43 589.5 407.43 610.5 394.43 633.5 370.43 643.5 348.43 645.5 354.43 653.5 396.43 645.5 411.43 640.5 420.43 648.5 450.43 630.5 453.43 615.5 460.43 614.5 473.43 629.5 450.43 659.5 443.43 665.5 443.43 672.5 454.43 669.5 473.43 676.5 465.43 687.5 468.43 694.5 458.43 698.5 444.43 705.5 443.43 723.5 437.43 730.5 403.43 733.5 407.43 743.5 424.43 746.5 430.43 753.5 442.43 754.5 438.43 749.5 444.43 744.5 450.43 749.5 467.43 756.5 489.43 750.5 497.43 754.5 459.43 776.5 455.43 788.5 460.43 794.5 449.43 800.5 438.43 800.5 432.43 795.5 423.43 791.5 413.43 787.5 398.1 790.34 386.91 788.84 377.7 787.61 369.43 786.5 371.43 778.5 364.43 770.5 357.43 782.5 345.61 787.48 325.43 785.5 281.43 828.5 307.43 830.5 346.43 834.5 375.43 846.5 408.43 845.5 441.43 851.5 476.43 838.5 491.43 837.5 486.43 851.5 500.43 847.5 508.43 848.5 507.43 853.5 500.43 862.5"/><g class="cls-2"><text class="cls-3" transform="translate(344.93 596.67)">K </text><text class="cls-4" transform="translate(351.55 596.67)">ings</text><text class="cls-5" transform="translate(373.37 596.67)"> </text><text class="cls-4" transform="translate(344.93 611.07)">Landing</text></g><g class="cls-2"><text class="cls-6" transform="translate(224.93 439.33)">T</text><text class="cls-7" transform="translate(231.11 439.33)"> </text><text class="cls-4" transform="translate(230.81 439.33)">he</text><text class="cls-7" transform="translate(243.87 439.33)"> </text><text class="cls-8" transform="translate(245.53 439.33)">T</text><text class="cls-7" transform="translate(251.35 439.33)"> </text><text class="cls-4" transform="translate(251.02 439.33)">wins</text></g><g class="cls-2"><text class="cls-6" transform="translate(366.93 491.33)">T</text><text class="cls-7" transform="translate(373.11 491.33)"> </text><text class="cls-4" transform="translate(372.81 491.33)">he</text><text class="cls-7" transform="translate(385.87 491.33)"> </text><text class="cls-6" transform="translate(388.03 491.33)">E</text><text class="cls-7" transform="translate(394.09 491.33)"> </text><text class="cls-4" transform="translate(393.85 491.33)">y</text><text class="cls-7" transform="translate(399.85 491.33)"> </text><text class="cls-4" transform="translate(399.5 491.33)">r</text><text class="cls-7" transform="translate(403.77 491.33)"> </text><text class="cls-4" transform="translate(403.47 491.33)">ie</text></g><g class="cls-2"><text class="cls-3" transform="translate(210.26 549.33)">R</text><text class="cls-7" transform="translate(217.21 549.33)"> </text><text class="cls-4" transform="translate(216.84 549.33)">i</text><text class="cls-7" transform="translate(219.91 549.33)"> </text><text class="cls-9" transform="translate(219.64 549.33)">v</text><text class="cls-7" transform="translate(225.62 549.33)"> </text><text class="cls-4" transform="translate(225.3 549.33)">e</text><text class="cls-7" transform="translate(231.49 549.33)"> </text><text class="cls-4" transform="translate(231.31 549.33)">r</text><text class="cls-7" transform="translate(235.58 549.33)"> </text><text class="cls-4" transform="translate(235.28 549.33)">run</text></g><g class="cls-2"><text class="cls-6" transform="translate(66.26 618)">C</text><text class="cls-7" transform="translate(73.2 618)"> </text><text class="cls-4" transform="translate(73.14 618)">as</text><text class="cls-7" transform="translate(84.24 618)"> </text><text class="cls-6" transform="translate(83.67 618)">t</text><text class="cls-7" transform="translate(87.76 618)"> </text><text class="cls-4" transform="translate(87.57 618)">e</text><text class="cls-7" transform="translate(93.76 618)"> </text><text class="cls-4" transform="translate(93.58 618)">r</text><text class="cls-7" transform="translate(97.85 618)"> </text><text class="cls-4" transform="translate(97.56 618)">l<tspan class="cls-10" x="3.08" y="0">e</tspan><tspan x="9.24" y="0">y</tspan></text><text class="cls-7" transform="translate(112.8 618)"> </text><text class="cls-4" transform="translate(66.26 632.4)">R</text><text class="cls-7" transform="translate(73.09 632.4)"> </text><text class="cls-4" transform="translate(72.76 632.4)">ock</text></g><g class="cls-2"><text class="cls-3" transform="translate(145.59 758)">H</text><text class="cls-7" transform="translate(153.77 758)"> </text><text class="cls-4" transform="translate(153.53 758)">ighga</text><text class="cls-7" transform="translate(183.31 758)"> </text><text class="cls-6" transform="translate(182.2 758)">r</text><text class="cls-7" transform="translate(186.35 758)"> </text><text class="cls-4" transform="translate(186.01 758)">den</text></g><g class="cls-2"><text class="cls-4" transform="translate(388.93 703.33)">S</text><text class="cls-7" transform="translate(395.16 703.33)"> </text><text class="cls-6" transform="translate(394.81 703.33)">t</text><text class="cls-7" transform="translate(398.9 703.33)"> </text><text class="cls-4" transform="translate(398.71 703.33)">o</text><text class="cls-7" transform="translate(405.48 703.33)"> </text><text class="cls-4" transform="translate(405.3 703.33)">r</text><text class="cls-7" transform="translate(409.57 703.33)"> </text><text class="cls-4" transform="translate(409.27 703.33)">ms</text><text class="cls-7" transform="translate(424.45 703.33)"> </text><text class="cls-4" transform="translate(388.93 717.73)">End</text></g><text class="cls-4" transform="translate(425.59 872.67)">Sunspear</text><g class="cls-2"><text class="cls-11" transform="translate(200.93 228)">W</text><text class="cls-7" transform="translate(211.12 228)"> </text><text class="cls-4" transform="translate(210.89 228)">i</text><text class="cls-7" transform="translate(213.96 228)"> </text><text class="cls-4" transform="translate(213.7 228)">n</text><text class="cls-7" transform="translate(220.56 228)"> </text><text class="cls-6" transform="translate(220.31 228)">t</text><text class="cls-7" transform="translate(224.4 228)"> </text><text class="cls-4" transform="translate(224.21 228)">e</text><text class="cls-7" transform="translate(230.4 228)"> </text><text class="cls-12" transform="translate(230.22 228)">r</text><text class="cls-7" transform="translate(234.85 228)"> </text><text class="cls-9" transform="translate(234.51 228)">f</text><text class="cls-7" transform="translate(238.22 228)"> </text><text class="cls-4" transform="translate(237.85 228)">ell</text></g><g class="cls-2"><text class="cls-6" transform="translate(298.93 93.33)">C</text><text class="cls-7" transform="translate(305.87 93.33)"> </text><text class="cls-4" transform="translate(305.81 93.33)">astle Black</text></g><g class="cls-2"><text class="cls-4" transform="translate(48.26 514)">P</text><text class="cls-7" transform="translate(54.97 514)"> </text><text class="cls-4" transform="translate(54.69 514)">y<tspan class="cls-13" x="6" y="0">k</tspan><tspan x="12.02" y="0">e</tspan></text></g><g class="cls-2"><text class="cls-4" transform="translate(441.93 606)">D </text><text class="cls-6" transform="translate(449.92 606)">r</text><text class="cls-7" transform="translate(454.07 606)"> </text><text class="cls-4" transform="translate(453.79 606)">agons</text><text class="cls-7" transform="translate(485.4 606)"> </text><text class="cls-6" transform="translate(484.28 606)">t</text><text class="cls-7" transform="translate(488.37 606)"> </text><text class="cls-4" transform="translate(488.18 606)">one</text></g><line class="cls-14" x1="224.93" y1="72" x2="378.93" y2="72"/></g></g><g id="points" class="cls-15"><circle class="cls-16" cx="197.24" cy="411.22" r="5.57"/><circle class="cls-16" cx="182.2" cy="368.45" r="5.57"/><circle class="cls-16" cx="187.77" cy="330.8" r="5.57"/><circle class="cls-16" cx="176.63" cy="293.54" r="5.57"/><circle class="cls-16" cx="231.49" cy="293.54" r="5.57"/><circle class="cls-16" cx="225.92" cy="245.78" r="5.57"/><circle class="cls-16" cx="280.03" cy="199.66" r="5.57"/><circle class="cls-16" cx="298.93" cy="152.03" r="5.57"/><circle class="cls-16" cx="334.72" cy="107.41" r="5.57"/><circle class="cls-16" cx="340.3" cy="77.57" r="5.57"/><circle class="cls-16" cx="334.72" cy="152.03" r="5.57"/><circle class="cls-16" cx="329.15" cy="228" r="5.57"/><circle class="cls-16" cx="293.36" cy="287.96" r="5.57"/><circle class="cls-16" cx="245.78" cy="341.95" r="5.57"/><circle class="cls-16" cx="245.78" cy="416.79" r="5.57"/><circle class="cls-16" cx="202.82" cy="491.33" r="5.57"/><circle class="cls-16" cx="210.89" cy="535.39" r="5.57"/><circle class="cls-16" cx="187.77" cy="632.4" r="5.57"/><circle class="cls-16" cx="193.35" cy="717.73" r="5.57"/><circle class="cls-16" cx="230.81" cy="682.5" r="5.57"/><circle class="cls-16" cx="311.44" cy="652.87" r="5.57"/><circle class="cls-16" cx="344.93" cy="618" r="5.57"/><circle class="cls-16" cx="198.92" cy="803.06" r="5.57"/><circle class="cls-16" cx="237.85" cy="856.03" r="5.57"/><circle class="cls-16" cx="293.36" cy="867.1" r="5.57"/><circle class="cls-16" cx="345.98" cy="861.52" r="5.57"/><circle class="cls-16" cx="425.59" cy="872.67" r="5.57"/></g><path d="M257,385.81a1.4,1.4,0,0,0-1-.21,2.47,2.47,0,0,0-.74.24,3.44,3.44,0,0,0-1,.85.13.13,0,0,1-.1.06,2.22,2.22,0,0,0-.44.06h0v0a.14.14,0,0,0,0-.07,17,17,0,0,1,.76-1.94c.12-.25.25-.49.37-.73a.16.16,0,0,1,.08-.08l.12-.06a3,3,0,0,1,.91-.32,1.27,1.27,0,0,1,.34,0l.27,0h0l0,0a1.11,1.11,0,0,0-.62-.09,4.08,4.08,0,0,0-1,.31,4.24,4.24,0,0,0-1.4,1l-.48.58a4.79,4.79,0,0,0-.58,1,8.93,8.93,0,0,0-.46,1.41.11.11,0,0,1,0,.07,3.8,3.8,0,0,0-.47.59l0,0s0,0,0-.07l.21-.7a12.64,12.64,0,0,1,.79-1.95,11.35,11.35,0,0,1,.66-1.12s0,0,0-.07a9.94,9.94,0,0,0-1.21,1.31,11.13,11.13,0,0,0-.93,1.51,9.73,9.73,0,0,1,.35-1.2c.14-.4.3-.79.46-1.17a13.15,13.15,0,0,0-1.25,2.59v0c0-.32.09-.64.16-1a9.47,9.47,0,0,1,.27-1.08l.12-.38s0,0,0,0,0-.06,0-.09a12.91,12.91,0,0,1,.67-1.58l0-.05h0a6.63,6.63,0,0,0-.49.69c-.14.24-.28.48-.4.74h0a2.73,2.73,0,0,0-.23-.25.07.07,0,0,1,0-.08c.07-.26.15-.53.22-.8a.13.13,0,0,1,.07-.09,8.18,8.18,0,0,1,1.16-.45,11.79,11.79,0,0,1,1.64-.38l.13,0h-.22a8.55,8.55,0,0,0-1,.07,7.67,7.67,0,0,0-1.56.36h0s0,0,0-.06.15-.31.22-.47a1.59,1.59,0,0,1,.27-.37,3.54,3.54,0,0,1,1.4-.91,4,4,0,0,1,1.44-.23,3.4,3.4,0,0,1,.84.11,2.81,2.81,0,0,1,1.33.73h0a.25.25,0,0,0,0-.07,2.71,2.71,0,0,0-.55-.52,3,3,0,0,0-1.94-.51,2.68,2.68,0,0,0-.78.18l-.61.26a3.06,3.06,0,0,0-1.16.95,4.18,4.18,0,0,0-.55.9s0,.05-.06.06l-.44.19h0a7.72,7.72,0,0,1,.2-.83c.07-.28.16-.55.24-.82h0a.36.36,0,0,0,0,.09,11.17,11.17,0,0,0-.59,1.62.11.11,0,0,1-.07.08l-.33.2a.11.11,0,0,1-.11,0,2.48,2.48,0,0,0-1-.25s-.06,0-.09-.05-.2-.31-.3-.46l0-.05c.06.19.14.36.2.56a2.5,2.5,0,0,0-.72.15.22.22,0,0,1-.05-.08h0l0,.08-.42.22-.33-.64,0,0h0a7.3,7.3,0,0,1,1.48-.54,8.55,8.55,0,0,1,1.95-.26.07.07,0,0,0,.06,0,3.74,3.74,0,0,0-1.14-.24,4.45,4.45,0,0,0-2.64.65h0l0,0a11.45,11.45,0,0,0-.78-1.14l0,0a.29.29,0,0,0,0,.1c.2.4.39.81.56,1.23,0,.05,0,.05,0,.09s-.27.23-.4.35-.29.33-.43.5,0,0-.05.05a3.71,3.71,0,0,0-.92-.85c.09-.21.19-.4.28-.6-.07.08-.13.17-.2.26l-.19.27-.34-.16a1.39,1.39,0,0,0-.35-.09l-.36,0c.06-.32.13-.64.21-.94l.27-.93a.14.14,0,0,0,0,.06c-.14.31-.28.63-.39.95s-.17.55-.26.82a.1.1,0,0,1-.09.09l-.24.06,0,0a1.67,1.67,0,0,1,.32,0l-.15.62c0,.21-.08.41-.13.61,0-.12,0-.25-.07-.38s-.13-.55-.2-.83a6.61,6.61,0,0,0-.42-1.23,4.16,4.16,0,0,0-.76-1.1l-.19-.2a1.18,1.18,0,0,0-.47-.33,1.43,1.43,0,0,0-.71-.06,1.34,1.34,0,0,0-1,.63.08.08,0,0,1,0,0h0l0,0a1.33,1.33,0,0,1,.47-.31,1.68,1.68,0,0,1,.8-.09,1.72,1.72,0,0,1,.89.37,2.89,2.89,0,0,1,.57.59,1.67,1.67,0,0,1,.18.28,4.57,4.57,0,0,1,.41,1.14c.09.35.15.71.21,1.08,0,.21,0,.43.07.64l0,.42c0,.1,0,.21,0,.31s0,.29,0,.43,0,.06,0,.08h0l0-.08a18.21,18.21,0,0,0-.57-1.91,9.37,9.37,0,0,0-.66-1.44s0-.05,0-.08,0,.16,0,.24c.12.49.22,1,.3,1.48l.12.86c0,.07,0,.15,0,.23a0,0,0,0,1,0,.06l-.21.07h0s0,0,0-.05a9.44,9.44,0,0,0-.35-1s0-.06,0-.08l.22-.21,0,0h0l-.34.17a7,7,0,0,0-.49-1c.13.35.26.7.36,1.06l-.32.21,0,0-.28-.64a14.29,14.29,0,0,0-.73-1.4,11.07,11.07,0,0,0-.78-1.15l0,0s0,0,0,.05c.17.35.33.71.49,1.07a16.85,16.85,0,0,1,.61,1.68l.24.77a.08.08,0,0,1,0,.09l-.41.38-.05,0a7.46,7.46,0,0,0-.71-1.48l.23-.21a.57.57,0,0,0-.13.08l-.13.09a6.22,6.22,0,0,0-2.41-2.11l0,0a19,19,0,0,1,1.49,1.49c.21.24.41.48.6.74l0,0-.39.36a3.45,3.45,0,0,0-.41-.25l.35.3a.67.67,0,0,1-.14.15.09.09,0,0,1,0-.06,5.54,5.54,0,0,0-.3-.53,3.18,3.18,0,0,0-.57-.69,2,2,0,0,0-.66-.39,1.08,1.08,0,0,0-.59-.06l-.13,0-.46-.78a5.77,5.77,0,0,1,.81-.34h-.08a3.5,3.5,0,0,0-.85.08c-.06,0-.06,0-.09,0l-.24-.33,0,0h0l.22.41-.06,0-.14,0a3.7,3.7,0,0,0-1.43.87,2.85,2.85,0,0,0-.47.57.1.1,0,0,0,0,.05l0,0-.26-.39a2.67,2.67,0,0,0-.95-.88,1.74,1.74,0,0,0-.86-.24,1.47,1.47,0,0,0-.58.12l-.06,0h0a1,1,0,0,1,.3,0,1.5,1.5,0,0,1,.37,0,3.27,3.27,0,0,1,.69.3A3.07,3.07,0,0,1,233,383a.09.09,0,0,1,0,.11,3,3,0,0,0-.24.51,3.21,3.21,0,0,0-.15.53l-.09.58,0,.05,0-.05-.3-.34a.35.35,0,0,1-.07-.12,10.34,10.34,0,0,0-.65-1.49l0-.05c0,.14.1.29.15.43l.15.45c0,.14.09.29.12.44l-.05,0-.49-.42a.19.19,0,0,1-.07-.08c-.17-.37-.34-.74-.53-1.1a12.83,12.83,0,0,0-1.07-1.64l0,0s0,0,0,.05c.18.37.35.75.52,1.13.27.64.49,1.3.7,2a11.24,11.24,0,0,1,.32,1.27c.06.31.11.63.15.94s.06.54.09.81c0,.12,0,.24,0,.36v0s0,0,0,0a5.75,5.75,0,0,0-.23-.66,8.43,8.43,0,0,0-.39-.8.21.21,0,0,1,0-.11,7.51,7.51,0,0,0-.35-1.14,5.39,5.39,0,0,0-.88-1.52,3.78,3.78,0,0,0-1.29-1,2,2,0,0,0-1.87.06l-.06,0h.05l.2,0a3.51,3.51,0,0,1,.79.06,3.68,3.68,0,0,1,2.23,1.37c.09.12.17.26.26.39a5.27,5.27,0,0,1,.65,1.3l0,.05h0l0,0a6,6,0,0,0-.75-.91,5.11,5.11,0,0,0-.95-.71l-.05,0,0,0c.17.14.34.29.5.45a6.21,6.21,0,0,1,1.14,1.63,8.67,8.67,0,0,1,.36.83s0,0,0,.06l.06.53c0,.05,0,.1,0,.15h0l0-.05a5.15,5.15,0,0,0-1-1.4l0-.07c-.08-.22-.17-.43-.27-.64a2.88,2.88,0,0,0-.34-.56,1.29,1.29,0,0,0-.6-.43.78.78,0,0,0-.37,0,1,1,0,0,0-.44.17c-.05,0,0,0-.1,0a4.59,4.59,0,0,0-.74-.43l0,0,.4.25a1.69,1.69,0,0,1,.36.3h0a1.85,1.85,0,0,0-.3.39s0,.08-.07.1a.42.42,0,0,1-.12,0,3.11,3.11,0,0,0-1.28.51l0,0a3.94,3.94,0,0,1,1.28-.09,2.64,2.64,0,0,0,0,.28l-.61-.1,0,0,.51.16c.06,0,.06,0,.06.08s0,.16,0,.23a2.72,2.72,0,0,1,0-.28,8.7,8.7,0,0,1,1,.48,1.87,1.87,0,0,0-.82.85l-.06,0-.28-.16a1.92,1.92,0,0,0-1-.19,1.21,1.21,0,0,0-.55.19l-.08.05h0a1.09,1.09,0,0,1,.31-.08,1.59,1.59,0,0,1,.53,0,4,4,0,0,1,.94.38l0,0c0,.08,0,.16-.05.23a.71.71,0,0,0,0,.25,2.4,2.4,0,0,1,.25-.37l.12.09a3.27,3.27,0,0,1,.75.78.67.67,0,0,1,.09.14,3.65,3.65,0,0,1,.14.35,9.23,9.23,0,0,1,.24.94,13.64,13.64,0,0,1,.19,1.43s0,.07,0,.11h.1c-1,.53-1.62,1.18-1.62,2H255c0-.78-.6-1.44-1.65-2V391c0-.17,0-.34,0-.5s.05-.6.09-.9a8.28,8.28,0,0,1,.21-1.21,6.36,6.36,0,0,1,.25-.88l0-.11a4.57,4.57,0,0,1,.41-.57.14.14,0,0,1,.17,0l.14.06a1.84,1.84,0,0,1,1.05,1,3.06,3.06,0,0,1,.24.78.44.44,0,0,0,0,.1l0,0a1.88,1.88,0,0,0,.12-.18,1.17,1.17,0,0,0,.12-.64,1.1,1.1,0,0,0-.4-.76,1.43,1.43,0,0,0-.56-.29,2,2,0,0,0-.68-.07.47.47,0,0,1-.16,0l0-.05a2.43,2.43,0,0,1,.34-.3,3.58,3.58,0,0,1,1.36-.62,1.51,1.51,0,0,1,.56,0l.26.08Zm-4.65,1.52c0-.23.11-.46.17-.69a3.27,3.27,0,0,1,.52-1.08,4.2,4.2,0,0,1,1.35-1.27l.33-.2,0,0a.06.06,0,0,1,0,.05,16.44,16.44,0,0,0-.91,1.43,15.21,15.21,0,0,0-.68,1.41.11.11,0,0,1-.07.08,3.07,3.07,0,0,0-.69.43.1.1,0,0,0-.05,0h0A1,1,0,0,0,252.3,387.33Zm-.18,2a4.68,4.68,0,0,1,.52-1.19l.06-.08h0a13.77,13.77,0,0,0-.35,1.37,11.15,11.15,0,0,0-.22,1.39h0c0-.11,0-.22,0-.33l0-1A.52.52,0,0,1,252.12,389.3Zm-1.4-4.64v0l0,0,.15.17a.06.06,0,0,1,0,.08,7.76,7.76,0,0,0-.34.84c-.05.15-.1.3-.14.46l0,.07h0l.06-.55.09-.55a4.86,4.86,0,0,1,.1-.55C250.68,384.6,250.68,384.64,250.72,384.66Zm-.39-.69a.05.05,0,0,1,0-.05l.38-.22h0l-.24.69,0,0-.16-.16a.06.06,0,0,1,0-.08Zm-.05.29.21.17a0,0,0,0,1,0,.06c0,.1-.06.21-.08.31s-.07.31-.11.47a.07.07,0,0,1-.06.06l-.09,0C250.19,385,250.23,384.63,250.28,384.26Zm-.17,1.83,0-.57a.09.09,0,0,1,0-.06l.08,0h0c-.06.25-.11.5-.16.74h0Zm-.05-2v.06a11.13,11.13,0,0,0-.23,1.26.13.13,0,0,1-.08.11l-.15.07-.05,0c-.06-.16-.11-.32-.16-.48s-.11-.31-.17-.46A6,6,0,0,1,250.06,384.12Zm-.29,1.63-.06.54h0s0,0,0,0-.05-.22-.08-.34a.07.07,0,0,1,0-.08Zm-.14-1.84-.56.46-.33-.65A2.67,2.67,0,0,1,249.63,383.91Zm-3.39,2.35a.08.08,0,0,1,0,.09l-.15.34s0,0,0,0l-.34,0h0a5,5,0,0,1,.26-.89l0,0Zm-.21-.63.05-.12a1.66,1.66,0,0,1,.16.33Zm.29,2.12c.07-.26.14-.53.23-.79a0,0,0,0,1,0,0,4.54,4.54,0,0,1,.1.74.29.29,0,0,1,0,.09c-.17.36-.34.72-.48,1.09a2.33,2.33,0,0,0-.07.25s0,0,0,0A8.72,8.72,0,0,1,246.32,387.75Zm-.52-2a8.48,8.48,0,0,0-.45,1.08s0,.05,0,.06a1.38,1.38,0,0,0-.59.45,2.76,2.76,0,0,0-.32.49l0,.06h0v0a16.19,16.19,0,0,1,.34-1.82,8,8,0,0,1,.36-1s0,0,0-.05h0l0,0a8.7,8.7,0,0,1,.67.69A.08.08,0,0,1,245.8,385.73Zm-.54,3.9s0-.08,0-.12,0-.36,0-.54l.06-.54c0-.26.09-.52.12-.78a.54.54,0,0,1,0-.11,1.53,1.53,0,0,1,.27-.3l.07-.05h0l0,.06c-.07.2-.15.4-.22.61a9.47,9.47,0,0,0-.32,1.4c0,.12,0,.24-.05.37Zm1.44-2.54h0l.07.18s.06.09.05.13a.39.39,0,0,1-.05.14l-.06.11h0C246.71,387.45,246.7,387.27,246.7,387.09Zm.32,1.54c0-.13,0-.26.08-.39h0l0,.06,0,.16a.08.08,0,0,1,0,.1l-.09.08Zm1.18-3.25a1.92,1.92,0,0,1-.18.22l0,0a.11.11,0,0,0,0-.06c-.11-.31-.23-.62-.36-.92,0,0,0-.07,0-.1l.22-.32,0-.05a.17.17,0,0,1,0,.05c.12.35.23.71.32,1.06A.09.09,0,0,1,248.2,385.38Zm.07.11c0,.09,0,.16.06.24s.09.43.14.64a.11.11,0,0,1,0,.12,1.59,1.59,0,0,0-.13.13s0,0,0-.05c-.08-.25-.15-.51-.23-.76a.12.12,0,0,1,0-.1A.69.69,0,0,1,248.27,385.49Zm-.66,1.7h0l-.08-.07-.1-.07.12-.3h0Zm.93.59c0-.17-.06-.33-.1-.5a.11.11,0,0,1,0-.08c0-.05,0-.1.08-.14l0-.05c0,.26.07.51.1.77l-.13,0S248.54,387.79,248.54,387.78Zm-.09-2.44.42-.36s0,0,0,0l.15.82c0,.13,0,.09-.08.17l-.21.17-.05,0C248.62,385.93,248.53,385.64,248.45,385.34Zm.38,1.31.22-.26,0,0a10.59,10.59,0,0,1,.08,1.31l-.19,0s0-.09,0-.13l-.15-.83A.1.1,0,0,1,248.83,386.65Zm.34,1.17v.06c0,.3,0,.6,0,.9,0,.11,0,.22,0,.34v0h0c-.05-.43-.09-.86-.14-1.29Zm-1.2-4a2.24,2.24,0,0,1,.51-.07c.05,0,.05,0,.07,0,.09.28.17.56.25.85a.1.1,0,0,1,0,.07c-.13.14-.25.29-.38.44l0,0,0,0a10.2,10.2,0,0,0-.4-1,.08.08,0,0,1,0-.1s0-.05.06-.07h0l-.09.08a.75.75,0,0,1-.11-.2Zm-.2.07,0,.07c0,.05,0,.1,0,.14s0,0,0,.06-.2.19-.29.29h0c-.07-.12-.12-.25-.18-.38A2,2,0,0,1,247.77,383.86Zm-.54,1.35a.25.25,0,0,1,0,.07c.06.23.11.46.17.7,0,.09,0,.17.05.26a.11.11,0,0,1,0,.08l-.34.56,0,0a.09.09,0,0,1-.08,0l-.27-.39a.08.08,0,0,1,0-.09,7.84,7.84,0,0,1,.46-1.07Zm-.27-.9,0,0,.15.5a.06.06,0,0,1,0,.07,5.51,5.51,0,0,0-.6.91l0,0,0,0c-.07-.19-.13-.4-.2-.59a.1.1,0,0,1,0-.09,3,3,0,0,1,.66-.8Zm-.3-.86s0,0,0,.05c.08.22.15.45.23.67a.07.07,0,0,1,0,.08,5.42,5.42,0,0,0-.68.75l0,0a6,6,0,0,0-.49-.9A6.41,6.41,0,0,1,246.66,383.45Zm-1.24.94,0,0a7.9,7.9,0,0,1,.53.88.06.06,0,0,1,0,.08.54.54,0,0,0-.07.13h0l0,0a7.64,7.64,0,0,0-.77-.61s0,0,0-.05a1.76,1.76,0,0,0,.09-.2.6.6,0,0,1,.19-.23S245.41,384.4,245.42,384.39Zm-.08-.11,0,0-.22.35-.08.12s0,0,0,0,0,.05,0,.07l-.2.34a8.41,8.41,0,0,0-.55,1.23c-.1.28-.19.56-.28.84,0,0,0,0,0,.05a12.94,12.94,0,0,1,1-3.22,13,13,0,0,0-.7,1.26,13.23,13.23,0,0,0-.56,1.35A11.77,11.77,0,0,1,244,385a12.2,12.2,0,0,1,.56-1.64A5,5,0,0,1,245.34,384.28Zm-1.88-1.4h.08a1.67,1.67,0,0,1,.74.31l.11.08a9.31,9.31,0,0,0-1.17,3.39A16.51,16.51,0,0,1,243.46,382.88ZM242,385c.07.65.08,1.28.1,1.92l0-.2a13,13,0,0,0-.32-1.53.13.13,0,0,0,0-.06Zm-.45.42c.1.49.18,1,.24,1.48s.07.72.1,1.08.05.88.05,1.32a.1.1,0,0,1,0,.1.08.08,0,0,1,0,0c0-.24,0-.49,0-.73s0-.48-.07-.72-.07-.6-.12-.9a12,12,0,0,0-.35-1.55c0-.1,0-.08.06-.14l.15-.08Zm-.58-1.15.2-.2a.08.08,0,0,1,0,0,.14.14,0,0,1,0,.06c.09.32.17.65.25,1,0,.06,0,.06,0,.08l-.14.07,0,0,0-.06c-.09-.27-.18-.54-.28-.8C240.93,384.29,240.93,384.27,241,384.24Zm-.18,3,0,0a8.51,8.51,0,0,0-.43-1.09s0-.05,0-.08l.25-.23,0,0A10.31,10.31,0,0,1,240.78,387.28Zm-.69-2c.11-.13.21-.27.31-.41l0-.05h0c0,.08,0,.15,0,.23s.05.3.08.45a.08.08,0,0,1,0,.1l-.3.24-.05,0a.16.16,0,0,0,0-.07.77.77,0,0,1-.11-.3A.21.21,0,0,1,240.09,385.3Zm-.06,1.11a1.19,1.19,0,0,1,.08.22c0,.21,0,.42.07.63a.76.76,0,0,1,0,.15c0-.05,0-.1-.05-.15a4.26,4.26,0,0,0-.22-.63.1.1,0,0,1,0-.09A1.47,1.47,0,0,0,240,386.41Zm-.63.41s0,0,0,0a.94.94,0,0,1,0-.16,0,0,0,0,1,0-.05c0-.11.11-.21.17-.32l0,0,.13.2a0,0,0,0,1,0,.05l-.1.14a1.71,1.71,0,0,0-.11.14Zm0,2.28h0l0-.17a3.44,3.44,0,0,0-.17-.72s0,0,0-.07.07-.24.1-.36l0,0A10.2,10.2,0,0,1,239.42,389.1Zm.39-2.38a2.71,2.71,0,0,1,.3.66l-.15-.14-.15-.14-.15-.12Zm0-.91.14.32s0,0,0,0l-.14.15,0-.05-.1-.18s0,0,0,0l.13-.23Zm-.87-2.21,0,0a6.42,6.42,0,0,1,.74,1.3s0,0,0,0,0,.05,0,.09a6.93,6.93,0,0,0-.5-.58,5.37,5.37,0,0,0-.57-.5A2.74,2.74,0,0,1,238.91,383.6Zm-.54.63.15-.19.09.09a6.19,6.19,0,0,1,.84,1.07l0,0a.06.06,0,0,1,0,0l-.23.29-.29-.27,0,0,0,0c-.06-.11-.11-.23-.17-.33l-.18-.29-.06-.11-.11-.26A.06.06,0,0,1,238.37,384.23Zm.76,3a1.07,1.07,0,0,1-.12.24.32.32,0,0,1,0-.25Zm-.38-1.77c0-.17-.09-.33-.13-.49h0l0,0,.16.34s0,.06,0,.1h0Zm0,.73a.06.06,0,0,1,0,.06l-.16.27-.32,0a7.3,7.3,0,0,1,.36-.68h0l.06.22C238.73,386.09,238.75,386.14,238.76,386.2Zm.14-.55a.05.05,0,0,1,0,0l.06.19v0l-.11.15c0-.14-.06-.29-.09-.46Zm-.72-1.07a7.49,7.49,0,0,1,.41,1,.06.06,0,0,1,0,.07,6.17,6.17,0,0,0-.44.57l0,0a5.81,5.81,0,0,0-.54-.76,10.67,10.67,0,0,1,.57-1Zm-.65,2.06h-.06l-.11-.17-.08-.13a.16.16,0,0,1,0-.09.16.16,0,0,1,0-.1c.06-.11.11-.22.16-.33l0-.05,0,0a5,5,0,0,1,.46.64c0,.07,0,.07-.05.09Zm.08,2.36c-.05.18-.09.36-.13.54h0c0-.23.09-.47.13-.7A.26.26,0,0,1,237.61,389Zm-.28-1.35v-.22A.16.16,0,0,1,237.33,387.65Zm-1.39-.74s0,0-.06.06a2.45,2.45,0,0,0-.68.56l0,0h0a13.6,13.6,0,0,1,.92-2.52l0,0c.09.11.18.23.26.35a.09.09,0,0,1,0,.07c0,.12,0,.23,0,.34a.18.18,0,0,1,0,.1C236.2,386.26,236.06,386.58,235.94,386.91Zm.21.86-.21.87h0c0-.08,0-.17,0-.26l.09-.54C236.08,387.78,236.09,387.78,236.15,387.77Zm-.22,1v0h0v0Zm-.52-4.33a1.76,1.76,0,0,1,.54.16.58.58,0,0,1-.1.12l-.14-.11h0a.75.75,0,0,0,.12.14,9.69,9.69,0,0,0-1.08,1.69A12.29,12.29,0,0,1,235.41,384.43Zm-.83,1.5c-.11.25-.21.51-.32.77l0-.18a12.27,12.27,0,0,1,.43-2,0,0,0,0,0,0,0,.08.08,0,0,1,.05-.05,1.83,1.83,0,0,1,.52,0h0c-.13.25-.27.49-.39.74S234.69,385.67,234.58,385.93Zm2.4-.1s0,.05,0,.07l0,0-.23-.28a.06.06,0,0,1,0-.06c0-.07.07-.15.1-.23h0s0,0,0,0S236.94,385.67,237,385.83Zm-.08-1.23s0,0,0-.05a1.13,1.13,0,0,1,.46-.21h.06a3.12,3.12,0,0,0-.47.49h0C237,384.76,236.93,384.68,236.9,384.6Zm-.3.84h0l-.12-.12a.06.06,0,0,1,0,0,1.14,1.14,0,0,1,.13-.3h0l.16.12a0,0,0,0,1,0,.05C236.71,385.24,236.65,385.34,236.6,385.44Zm-.1.18a0,0,0,0,1,0,0,1.3,1.3,0,0,1-.08.17h0c0-.1,0-.2,0-.3S236.47,385.59,236.5,385.62Zm-.17-1.09.16-.26h0c.05.14.1.28.14.42A1.53,1.53,0,0,1,236.33,384.53Zm.18.38s0,0,0,0-.07.19-.11.28h0c-.11-.1-.21-.2-.31-.31l.11-.21.09,0Zm.1.9,0,0,.18.3a.08.08,0,0,1,0,.07l-.26.52a0,0,0,0,1,0,0l-.2,0A8.25,8.25,0,0,1,236.61,385.81Zm0,2.45.15-.7a.07.07,0,0,1,.06-.07l.3-.09h0s0,.05,0,.07-.11.14-.15.21a4,4,0,0,0-.37.63l0,0h0S236.64,388.29,236.64,388.26Zm.38-1.49,0-.09h0l0,.09Zm.18,1v0h0a.6.6,0,0,1-.07.32l-.29.66,0,.05A4.37,4.37,0,0,1,237.2,387.73Zm0-2.13a1.36,1.36,0,0,1,0-.17h0l.09.09ZM237,385l0,0a3,3,0,0,1,.45-.57.09.09,0,0,1,.07,0,1.15,1.15,0,0,1,.41.08l0,0a8.81,8.81,0,0,0-.62.85Zm.89,2.56a2,2,0,0,0,.08-.26s0,0,.06-.05h.2c-.09.2-.17.41-.26.61h0l0,0a.88.88,0,0,0,0-.15A.33.33,0,0,1,237.9,387.52Zm-1.72-5a1.38,1.38,0,0,1,.79.39,3.86,3.86,0,0,1,.54.6,6.07,6.07,0,0,1,.44.68l0,.05h0a.89.89,0,0,0-.68,0,1.33,1.33,0,0,0-.34.22l0,0h0l0,0-.15-.45a.11.11,0,0,1,0-.08,1.76,1.76,0,0,0,.14-.23l-.19.18-.14-.35-.15-.35-.16-.34-.17-.34A.31.31,0,0,1,236.18,382.48Zm-2.77,1a5,5,0,0,1,1.9-1.81l.11-.05,0,0,.34.73a.11.11,0,0,1,0,.05v0s0,.06.06.1c.2.46.38.93.55,1.41,0,0,0,0,0,0a0,0,0,0,1,0,.06c-.1.1-.2.2-.29.31s-.05,0-.07,0a2.85,2.85,0,0,0-.39-.11h-.13l-.07,0,.06-.14h0a.75.75,0,0,0-.07.12s0,0-.07,0a1.76,1.76,0,0,0-.56.07h0a6.48,6.48,0,0,1,.34-.94c.13-.3.28-.6.42-.9l0,.05a6.9,6.9,0,0,0-.67,1,8.79,8.79,0,0,0-.43.94.31.31,0,0,1-.09.14l0,0a0,0,0,0,1,0,0l-.12.36a10.89,10.89,0,0,0-.35,1.5l0,.22v0h0c0-.11,0-.23,0-.34l-.06-.89-.06-.64a8.58,8.58,0,0,0-.18-1l-.09-.37A.11.11,0,0,1,233.41,383.51Zm-.66,1.51a7.91,7.91,0,0,1,.53-1.27l0-.06s0,0,0,.05c0,.21.07.41.1.62s0,.34.05.5,0,.15,0,.22c0,.41,0,.81,0,1.22a.19.19,0,0,1,0,.08h0s0,0,0,0a8.25,8.25,0,0,0-.71-1.22A.11.11,0,0,1,232.75,385Zm-.11.82,0,.06a4.42,4.42,0,0,1,.42,1.17c.07.33.14.67.2,1a.21.21,0,0,1,0,.11,1.6,1.6,0,0,1,0,.21.06.06,0,0,1,0,0h0a.65.65,0,0,1,0-.13c-.12-.46-.25-.92-.36-1.38a7.31,7.31,0,0,1-.19-1A.15.15,0,0,1,232.64,385.84Zm-1.11-1.67.52.72a.19.19,0,0,1,0,.08,13.82,13.82,0,0,1,.26,1.43c0,.39.09.78.13,1.17a14.09,14.09,0,0,1,.08,1.45c0,.21,0,.41,0,.61s0,.3,0,.45a.07.07,0,0,1,0,.05h0v-.29c0-.36,0-.73,0-1.09s-.06-.79-.11-1.19a15.51,15.51,0,0,0-.66-2.85l-.19-.51a.13.13,0,0,1,0-.06Zm-1.26,2.76.37.39,0,0c.05.13.11.25.16.38h0c-.17-.28-.37-.54-.57-.81Zm-.17.09.22.18a.42.42,0,0,1,.11.15,1.76,1.76,0,0,1,.17.55,6,6,0,0,1,.07.84v0h0a.64.64,0,0,0,0-.07,4.58,4.58,0,0,0-.33-.71.84.84,0,0,1-.08-.2c0-.24-.1-.49-.16-.73a.51.51,0,0,0,0-.09Zm-.49-.26.19.08a0,0,0,0,1,0,0c0,.17.06.34.08.51v0l0,0a.86.86,0,0,1-.2-.33c0-.08-.07-.17-.1-.26s0,0,0-.05Zm-1.8-2.36a.93.93,0,0,1,.75,0,1.2,1.2,0,0,1,.45.29l.18.19a.16.16,0,0,1,0,.07,3.19,3.19,0,0,1,.3.68s0,0,0,0h0l0,0-.34-.26a2.19,2.19,0,0,0-.4-.21l-.28-.11-.07,0a5.5,5.5,0,0,0-.62-.56l0,0Zm1.67,4.28v.07l-.21-.55a3.63,3.63,0,0,0-.28-.51,3.9,3.9,0,0,0-.34-.46,4,4,0,0,0-.42-.4l0,0,.37-.11a.08.08,0,0,1,.08,0,4.51,4.51,0,0,1,.55.52.36.36,0,0,1,0,.09,6.51,6.51,0,0,1,.13.77C229.46,388.29,229.47,388.49,229.48,388.68Zm-1.82-4.19a2.85,2.85,0,0,1,.45.47,3.44,3.44,0,0,0-.85,0A1,1,0,0,1,227.66,384.49Zm-.58,1.21-.05,0a1.41,1.41,0,0,1,0-.28l.14,0a4.75,4.75,0,0,1,.81.19,5.69,5.69,0,0,1,.69.25.14.14,0,0,1,.09.08l.06.13s0,0,0,0h-.05a1.52,1.52,0,0,0-.42.06h-.08A5.31,5.31,0,0,0,227.08,385.7Zm1.56,3.38c-.09-.22-.17-.44-.27-.66a3,3,0,0,0-.81-1.06l-.08-.07.05-.05a3,3,0,0,1,.53-.34c.05,0,.05,0,.1,0a4,4,0,0,1,.58,1,4.78,4.78,0,0,1,.32,1.22,5,5,0,0,1,.05.86c0,.18,0,.37,0,.55a.09.09,0,0,1,0,.05h0a2,2,0,0,0-.05-.24A7,7,0,0,0,228.64,389.08Zm20.13.93c0-.27,0-.54-.05-.81s-.08-.67-.12-1c0,0,0-.09,0-.13a0,0,0,0,1,0-.05l.08,0a12.6,12.6,0,0,1,.13,2Zm5.3-3.07a4.52,4.52,0,0,0-.41.86c-.06.17-.12.34-.17.52s-.17.66-.25,1-.17.78-.23,1.18c0,.18,0,.36-.08.53v0a2.43,2.43,0,0,1,0-.27c0-.24,0-.49,0-.73s.06-.49.09-.73a18.54,18.54,0,0,1,.46-2.09.12.12,0,0,1,.06-.08,2.64,2.64,0,0,1,.44-.23l0,0h0Z"/><polygon points="266.77 193.93 265.74 193.37 266.3 192.33 265.27 191.77 264.71 192.81 262.23 191.47 264.62 189.97 265.24 190.97 266.24 190.35 265.61 189.35 266.61 188.73 265.99 187.73 264.99 188.35 264.37 187.36 263.37 187.98 263.99 188.98 261.66 190.44 261.66 187.69 262.83 187.69 262.83 186.51 261.66 186.51 261.66 185.33 260.48 185.33 260.48 186.51 259.31 186.51 259.31 187.69 260.48 187.69 260.48 190.52 257.99 189.17 258.55 188.14 257.51 187.58 256.95 188.61 255.92 188.05 255.36 189.09 256.4 189.64 255.84 190.68 256.87 191.24 257.43 190.2 259.9 191.54 257.52 193.03 256.89 192.04 255.9 192.66 256.52 193.66 255.53 194.28 256.15 195.28 257.15 194.65 257.77 195.65 258.77 195.03 258.14 194.03 260.48 192.57 260.48 195.32 259.31 195.32 259.31 196.5 260.48 196.5 260.48 197.68 261.66 197.68 261.66 196.5 262.83 196.5 262.83 195.32 261.66 195.32 261.66 192.49 264.15 193.84 263.59 194.87 264.62 195.43 265.18 194.4 266.22 194.96 266.77 193.93"/><path d="M266.36,184.16l-.35,0a6.17,6.17,0,0,0-12,2c0,.11,0,.23,0,.34a3.52,3.52,0,0,0,.42,7,.58.58,0,0,0,.14-.76h0a.58.58,0,0,1,.19-.81l.46-.29-.48-.26a.58.58,0,0,1-.24-.79h0a.59.59,0,0,0-.23-.8.58.58,0,0,1-.24-.8l.28-.51.56-1,.28-.51a.57.57,0,0,1,.79-.24l.52.28.28-.52a.6.6,0,0,1,.8-.24l.51.28.06,0v-.65a.59.59,0,0,1,.59-.59.59.59,0,0,0,.59-.58.58.58,0,0,1,.58-.59h2.35a.58.58,0,0,1,.59.59.58.58,0,0,0,.59.58.6.6,0,0,1,.59.59v.28l.23-.15a.58.58,0,0,1,.81.19l.31.5.5-.32a.58.58,0,0,1,.81.19l.31.5.63,1,.31.5a.58.58,0,0,1-.19.81.58.58,0,0,0-.18.81h0a.59.59,0,0,1-.19.81l-.46.29.48.26a.58.58,0,0,1,.23.79h0a.6.6,0,0,0,.24.8,1.27,1.27,0,0,1,.12.1,4.7,4.7,0,0,0-1.61-9.11"/><polygon points="253.06 198.91 253.64 197.89 254.66 198.48 255.25 197.46 254.23 196.87 254.82 195.85 253.8 195.27 253.21 196.29 252.19 195.7 251.61 196.72 252.63 197.3 252.04 198.32 253.06 198.91"/><polygon points="252.47 203.61 253.06 202.59 254.07 203.18 254.66 202.16 253.64 201.57 254.23 200.56 253.21 199.97 252.63 200.99 251.61 200.4 251.02 201.42 252.04 202 251.45 203.02 252.47 203.61"/><polygon points="257.76 203.02 258.35 202 259.36 202.59 259.95 201.57 258.93 200.99 259.52 199.97 258.5 199.38 257.92 200.4 256.9 199.81 256.31 200.83 257.33 201.42 256.74 202.43 257.76 203.02"/><polygon points="263.05 201.85 263.63 200.83 264.65 201.42 265.24 200.4 264.22 199.81 264.81 198.79 263.79 198.21 263.2 199.22 262.19 198.64 261.6 199.65 262.62 200.24 262.03 201.26 263.05 201.85"/><polygon points="268.34 203.02 268.92 202 269.94 202.59 270.53 201.57 269.51 200.99 270.1 199.97 269.08 199.38 268.49 200.4 267.48 199.81 266.89 200.83 267.9 201.42 267.32 202.43 268.34 203.02"/><polygon points="268.92 198.32 269.51 197.3 270.53 197.89 271.12 196.87 270.1 196.29 270.69 195.27 269.67 194.68 269.08 195.7 268.06 195.11 267.48 196.13 268.49 196.72 267.9 197.73 268.92 198.32"/><circle class="cls-16" cx="297.41" cy="41.83" r="0.33"/><path d="M299.56,41.39l-.14-.07a10.61,10.61,0,0,0-3.38-1,1.47,1.47,0,0,0-.46.06c-.36.13-.51,0-.56-.07a.35.35,0,0,1,0-.35,3.16,3.16,0,0,1,2.38-1.2,2.09,2.09,0,0,1,.79.14c.71.26,1.3.5,1.76.69a.65.65,0,0,1,.35.84l0,0ZM296,39.89a10,10,0,0,1,3.41,1l.54-.68a.26.26,0,0,0-.15-.33c-.45-.19-1-.42-1.74-.69a2.08,2.08,0,0,0-.66-.11,3,3,0,0,0-1.95.87A1.77,1.77,0,0,1,296,39.89Z"/><path d="M299.17,40.9l-.37-.07a3.51,3.51,0,0,0-.46-1.53l.34-.18A3.77,3.77,0,0,1,299.17,40.9Z"/><path d="M297.9,40.37l-.37-.09a2.3,2.3,0,0,0-.33-1.23l.33-.18A2.63,2.63,0,0,1,297.9,40.37Z"/><path d="M297,40.18l-.38,0c0-.15-.28-.54-.57-.8l.25-.28C296.41,39.18,297,39.76,297,40.18Z"/><path d="M298.68,40.89a1.52,1.52,0,0,1,.35,1,1.55,1.55,0,1,1-2-1.49l-1-.32a2.29,2.29,0,0,0-.88,1.81,2.32,2.32,0,1,0,4.53-.65Z"/><path d="M300.3,41a.25.25,0,0,1-.12,0,.19.19,0,0,1,0-.27c.56-.73-.78-2.05-.8-2.06a.19.19,0,0,1,.27-.28c.06.07,1.62,1.57.83,2.57A.21.21,0,0,1,300.3,41Z"/><path d="M300.19,48.49h0c-.28,0-.48,0-.65,0a1,1,0,0,1-.9-.3,5,5,0,0,1-.73-1.48,8.61,8.61,0,0,0-.45-1c-.2-.35-.36-.38-.84-.46a6.24,6.24,0,0,1-.72-.15,2.23,2.23,0,0,1-1.47-1.49.19.19,0,0,1,.13-.24.19.19,0,0,1,.23.13,2,2,0,0,0,1.2,1.24l.69.13c.51.09.82.14,1.11.65a9.15,9.15,0,0,1,.48,1.09,5.17,5.17,0,0,0,.64,1.35c.2.2.29.2.62.19s.39,0,.69,0a.19.19,0,0,1,.17.21A.18.18,0,0,1,300.19,48.49Z"/><path d="M300.8,48.43h0a2.4,2.4,0,0,1-1.49-.7,3.11,3.11,0,0,1-.38-1.48c0-.34-.08-.68-.14-1a2.4,2.4,0,0,0-.88-1.43.19.19,0,1,1,.22-.32,2.86,2.86,0,0,1,1,1.68c.07.36.11.73.15,1.05a3.7,3.7,0,0,0,.28,1.28,2.11,2.11,0,0,0,1.25.57.2.2,0,0,1,.17.21A.19.19,0,0,1,300.8,48.43Z"/><path d="M300.83,52.71c-.62,0-2.54-.12-3.32-1.52a32.25,32.25,0,0,1-1.82-5.13.19.19,0,0,1,.13-.23.18.18,0,0,1,.23.13,31.84,31.84,0,0,0,1.8,5c.79,1.43,3.13,1.32,3.15,1.31a.2.2,0,0,1,.2.18.18.18,0,0,1-.18.2Z"/><path d="M291.52,45.51a.18.18,0,0,1-.18-.13c-1-2.81,1.32-5.06,2.34-5.9l.4-.32c1.3-1,1.95-1.57,1.76-3.55-.23-2.35.68-3.32.72-3.36a.19.19,0,0,1,.28.26h0a4,4,0,0,0-.62,3.06c.21,2.19-.58,2.83-1.9,3.89l-.39.31c-1,.79-3.12,2.9-2.23,5.48a.19.19,0,0,1-.12.24Z"/><path d="M294.91,46.66a2.2,2.2,0,0,1-.73-.15l-.08,0,0-.09a6.91,6.91,0,0,1-.26-.92c0-.11-.17-.79-.31-1.39s-.27-1.17-.3-1.34a4.5,4.5,0,0,1,.12-2,.39.39,0,0,1,.28-.2c.4-.06,1,.46,1.13.56a.2.2,0,0,1,0,.27.19.19,0,0,1-.27,0c-.34-.31-.73-.51-.82-.47a4.25,4.25,0,0,0-.07,1.78c0,.17.16.76.29,1.33.18.78.3,1.3.31,1.41a7.37,7.37,0,0,0,.22.77c.32.11.65.14.7,0a.18.18,0,0,1,.26-.06.19.19,0,0,1,.07.26A.56.56,0,0,1,294.91,46.66Z"/><path d="M291.17,49.92a.18.18,0,0,1-.18-.13l-.12-.26a4.35,4.35,0,0,1-.37-2.41c0-2.1,2.85-3.39,3-3.44a.19.19,0,0,1,.25.09.2.2,0,0,1-.09.26s-2.72,1.24-2.75,3.1a4.14,4.14,0,0,0,.33,2.23c.05.11.1.2.14.31a.19.19,0,0,1-.12.24Z"/><path d="M292.41,52.66a.2.2,0,0,1-.14-.06,5.86,5.86,0,0,1-1-1.48,3.29,3.29,0,0,1,.05-2.4,9.88,9.88,0,0,1,2.21-2.33L294,46a.19.19,0,0,1,.34.16c0,.07,0,.09-.51.51a11.13,11.13,0,0,0-2.09,2.16,2.86,2.86,0,0,0-.07,2.12,5.53,5.53,0,0,0,.91,1.37.2.2,0,0,1,0,.27A.19.19,0,0,1,292.41,52.66Z"/><path d="M294.19,55.2h-.07c-.07,0-.66-.29-1.41-1.71-1.1-1.92-.26-4,2.37-5.89l.09-.06a.2.2,0,0,1,.27,0,.19.19,0,0,1,0,.26l-.13.1c-1.42,1-3.6,3.06-2.25,5.39.68,1.3,1.2,1.54,1.21,1.54a.19.19,0,0,1-.07.37Z"/><path d="M292.36,41.21a.18.18,0,0,1-.19-.19,2.53,2.53,0,0,0-.06-.41,2.33,2.33,0,0,1,.53-2.24l.51-.6c.58-.69,1.23-1.48,1.31-1.64a.19.19,0,0,1,.19-.16.2.2,0,0,1,.19.19c0,.16-.18.41-1.4,1.85l-.51.61a2,2,0,0,0-.45,1.92,2.14,2.14,0,0,1,.07.48A.19.19,0,0,1,292.36,41.21Z"/><path d="M290.46,58.42a.19.19,0,0,1-.15-.08.18.18,0,0,1,0-.26c1.18-.93,6.08-5.28,6.13-5.32a.19.19,0,1,1,.25.28c-.05.05-5,4.4-6.14,5.33A.21.21,0,0,1,290.46,58.42Z"/><path d="M295.08,54.31a.19.19,0,0,1-.17-.1c-1.57-2.84-.28-4.19.34-4.83l.22-.24a23.7,23.7,0,0,0,1.31-2.32.2.2,0,0,1,.26-.09.19.19,0,0,1,.08.26,21.27,21.27,0,0,1-1.35,2.38c-.06.08-.15.17-.24.27-.6.63-1.72,1.79-.29,4.39a.2.2,0,0,1-.07.26Z"/><path d="M296.15,52a.19.19,0,0,1-.19-.15,1.74,1.74,0,0,1,.8-2.16,11.79,11.79,0,0,0,1.54-1.06.2.2,0,0,1,.22-.11.18.18,0,0,1,.14.23c0,.07-.06.27-1.7,1.26a1.39,1.39,0,0,0-.63,1.75.18.18,0,0,1-.14.23Z"/><path d="M298.48,54.44a.18.18,0,0,1-.17-.11,1.67,1.67,0,0,1,.4-2.34c.2-.14.73-.78,1.43-3.67a1.21,1.21,0,0,1,0-.14.18.18,0,0,1,.24-.12.19.19,0,0,1,.12.24s0,.05,0,.11c-.53,2.21-1.06,3.53-1.57,3.89a1.3,1.3,0,0,0-.29,1.86.19.19,0,0,1-.09.25A.11.11,0,0,1,298.48,54.44Z"/><path d="M301.15,55.39h0c-.16,0-3.9-.59-4.95-3-.79-1.83-1-5.39-1.1-6.56,0-.17,0-.28,0-.31a.17.17,0,0,1,.12-.23.21.21,0,0,1,.25.13,2.88,2.88,0,0,1,0,.39,22,22,0,0,0,1.07,6.43c.83,1.91,3.63,2.58,4.43,2.74l-.07-6.59c-.59-.23-.77-1.36-.83-1.76,0,0,0,0,0-.07a.18.18,0,0,1,.12-.23.21.21,0,0,1,.25.13s0,0,0,.12c.2,1.29.53,1.46.66,1.48a.18.18,0,0,1,.17.18l.08,7a.19.19,0,0,1-.07.14A.18.18,0,0,1,301.15,55.39Z"/><path d="M300.34,45.86l-.09,0a1.77,1.77,0,0,1-1-1.26c0-.5.56-.69.88-.72a.19.19,0,0,1,.21.17.19.19,0,0,1-.17.21s-.54.07-.54.33a1.42,1.42,0,0,0,.79.93.19.19,0,0,1,.07.26A.18.18,0,0,1,300.34,45.86Z"/><circle cx="304.94" cy="41.83" r="0.33"/><path d="M302.79,41.39l-.79-1a.66.66,0,0,1,.36-.84c.46-.19,1.05-.43,1.76-.69a2.05,2.05,0,0,1,.79-.14c1.22,0,2.45,1,2.45,1.42a.25.25,0,0,1-.1.21c-.1.08-.25.08-.49,0a1.51,1.51,0,0,0-.46-.06,10.61,10.61,0,0,0-3.38,1Zm-.43-1.16.54.68a10,10,0,0,1,3.41-1,1.77,1.77,0,0,1,.55.08,3,3,0,0,0-1.95-.87,1.84,1.84,0,0,0-.66.12c-.7.26-1.29.49-1.74.68A.26.26,0,0,0,302.36,40.23Z"/><path d="M303.18,40.9a3.77,3.77,0,0,1,.49-1.78l.34.18a3.51,3.51,0,0,0-.46,1.53Z"/><path d="M304.45,40.37a2.55,2.55,0,0,1,.37-1.5l.33.18a2.3,2.3,0,0,0-.33,1.23Z"/><path d="M305.37,40.18c0-.42.57-1,.69-1.11l.26.28c-.29.26-.59.65-.57.8Z"/><path d="M303.66,40.89a1.57,1.57,0,0,0-.34,1,1.55,1.55,0,1,0,2-1.49l1-.32a2.32,2.32,0,1,1-3.65,1.16Z"/><path d="M302.05,41a.21.21,0,0,1-.15-.08c-.79-1,.76-2.5.83-2.57a.2.2,0,0,1,.27,0,.19.19,0,0,1,0,.27s-1.35,1.33-.79,2.06a.19.19,0,0,1,0,.27A.25.25,0,0,1,302.05,41Z"/><path d="M302.16,48.49a.18.18,0,0,1-.19-.17.19.19,0,0,1,.17-.21c.3,0,.51,0,.68,0,.34,0,.43,0,.63-.19a5.17,5.17,0,0,0,.64-1.35,9.15,9.15,0,0,1,.48-1.09c.29-.51.6-.56,1.11-.65.19,0,.41-.07.69-.14a1.89,1.89,0,0,0,1.2-1.23.19.19,0,0,1,.23-.13.19.19,0,0,1,.13.24,2.23,2.23,0,0,1-1.47,1.49,6.24,6.24,0,0,1-.72.15c-.48.08-.64.11-.84.46a8.61,8.61,0,0,0-.45,1,5.3,5.3,0,0,1-.73,1.48,1,1,0,0,1-.91.3c-.16,0-.36,0-.64,0Z"/><path d="M301.55,48.43a.19.19,0,0,1,0-.38,2.11,2.11,0,0,0,1.25-.57,3.7,3.7,0,0,0,.28-1.28c0-.32.08-.69.15-1.05a2.8,2.8,0,0,1,1-1.68.18.18,0,0,1,.26.05.19.19,0,0,1,0,.27,2.45,2.45,0,0,0-.88,1.43c-.06.35-.1.69-.14,1a3.11,3.11,0,0,1-.38,1.48,2.4,2.4,0,0,1-1.49.7Z"/><path d="M297.08,53.55a.18.18,0,0,1-.18-.13.59.59,0,0,0,0-.08,1.66,1.66,0,0,1,.71-2.4c1.47-1,1.64-1.86,1.63-2.27a1.34,1.34,0,0,1-1.12.16,1.25,1.25,0,0,1-.71-.89,4.11,4.11,0,0,0-1.46-1.82,4.36,4.36,0,0,1-2.13-2.49,4.23,4.23,0,0,1,.63-2.47c0-.25,0-1.5.06-5.26.07-4.44,6.25-5.1,6.31-5.11h.77c.08,0,6.26.67,6.33,5.11.05,3.76.06,5,.06,5.26a4.23,4.23,0,0,1,.63,2.47,4.36,4.36,0,0,1-2.13,2.49A4.11,4.11,0,0,0,305,47.94a1.25,1.25,0,0,1-.71.89,1.34,1.34,0,0,1-1.12-.16c0,.41.16,1.28,1.62,2.27a1.66,1.66,0,0,1,.72,2.4l0,.08a.19.19,0,0,1-.36-.12l.06-.14c.18-.33.58-1.1-.59-1.9-2.24-1.53-1.75-2.9-1.72-3l.08-.22.2.13a1.23,1.23,0,0,0,1,.27,1,1,0,0,0,.47-.64,4.45,4.45,0,0,1,1.65-2.06,4,4,0,0,0,1.94-2.22,4.27,4.27,0,0,0-.61-2.25l0,0v-.06s0-1-.07-5.3c-.06-4.1-5.9-4.73-6-4.74h-.73s-5.89.64-5.95,4.74c-.06,4.27-.06,5.29-.06,5.3v.06l0,0a4.17,4.17,0,0,0-.61,2.25,4,4,0,0,0,1.93,2.22,4.36,4.36,0,0,1,1.66,2.06.92.92,0,0,0,.47.63,1.19,1.19,0,0,0,1-.26l.2-.13.08.22c0,.05.52,1.43-1.72,3-1.18.8-.77,1.57-.59,1.9l.06.13a.21.21,0,0,1-.12.25Z"/><path d="M301.52,52.71h-.19a.18.18,0,0,1-.18-.2.18.18,0,0,1,.2-.18s2.36.12,3.15-1.31a31.48,31.48,0,0,0,1.79-5,.2.2,0,0,1,.24-.13.19.19,0,0,1,.13.23,31.56,31.56,0,0,1-1.83,5.13C304.06,52.59,302.13,52.71,301.52,52.71Z"/><path d="M310.83,45.51l-.06,0a.19.19,0,0,1-.12-.24c.89-2.58-1.26-4.69-2.23-5.48l-.39-.31c-1.32-1.06-2.11-1.7-1.9-3.89a4,4,0,0,0-.62-3.06.19.19,0,0,1,.28-.26s.95,1,.72,3.36c-.19,2,.46,2.51,1.76,3.55l.4.32c1,.84,3.31,3.09,2.34,5.9A.18.18,0,0,1,310.83,45.51Z"/><path d="M307.44,46.66a.55.55,0,0,1-.52-.23.18.18,0,0,1,.06-.26.2.2,0,0,1,.27.06c.05.09.38.06.7,0a7.09,7.09,0,0,0,.21-.77c0-.11.14-.63.32-1.41.13-.57.26-1.16.29-1.33a4.2,4.2,0,0,0-.07-1.77c-.09-.06-.48.15-.82.46a.19.19,0,0,1-.26-.29c.12-.1.73-.62,1.12-.56a.4.4,0,0,1,.29.2,4.5,4.5,0,0,1,.12,2c0,.17-.16.74-.3,1.34s-.29,1.28-.31,1.39a8.86,8.86,0,0,1-.26.92l0,.09-.08,0A2.26,2.26,0,0,1,307.44,46.66Z"/><path d="M311.18,49.92h-.06a.19.19,0,0,1-.12-.24c0-.11.09-.2.14-.31a4.14,4.14,0,0,0,.33-2.23c0-1.86-2.72-3.09-2.75-3.1a.2.2,0,0,1-.1-.26.21.21,0,0,1,.26-.09c.12,0,2.94,1.34,3,3.44a4.45,4.45,0,0,1-.37,2.41l-.12.26A.18.18,0,0,1,311.18,49.92Z"/><path d="M309.94,52.66a.16.16,0,0,1-.13-.06.18.18,0,0,1,0-.27,5.53,5.53,0,0,0,.91-1.37,2.86,2.86,0,0,0-.07-2.12,11.13,11.13,0,0,0-2.09-2.16c-.47-.42-.49-.44-.52-.51a.19.19,0,0,1,.35-.16s.23.22.42.38a9.57,9.57,0,0,1,2.2,2.33,3.24,3.24,0,0,1,.06,2.4,5.86,5.86,0,0,1-1,1.48A.2.2,0,0,1,309.94,52.66Z"/><path d="M308.16,55.2a.19.19,0,0,1-.07-.37s.53-.24,1.21-1.53c1.34-2.34-.83-4.38-2.25-5.4a.71.71,0,0,1-.13-.1.18.18,0,0,1,0-.27.19.19,0,0,1,.26,0l.09.06c2.63,1.88,3.47,4,2.36,5.89-.74,1.42-1.33,1.68-1.4,1.71Z"/><path d="M310,41.21a.18.18,0,0,1-.19-.19,2.86,2.86,0,0,1,.06-.48,2,2,0,0,0-.45-1.92l-.5-.61c-1.22-1.45-1.4-1.69-1.4-1.85a.2.2,0,0,1,.19-.19.19.19,0,0,1,.19.16,18.55,18.55,0,0,0,1.31,1.64l.51.6a2.36,2.36,0,0,1,.53,2.24,2.53,2.53,0,0,0-.06.41A.18.18,0,0,1,310,41.21Z"/><path d="M311.89,58.42a.21.21,0,0,1-.12-.05c-1.18-.93-6.09-5.28-6.14-5.33a.19.19,0,1,1,.25-.28c.05,0,4.95,4.39,6.13,5.32a.19.19,0,0,1-.12.34Z"/><path d="M301.43,38.11h-.3a4.29,4.29,0,0,1-1.65-.23,7.94,7.94,0,0,1-.93-.3.94.94,0,0,0-.81-.08,2.88,2.88,0,0,0-.74.38.19.19,0,0,1-.27,0,.2.2,0,0,1,0-.27,3.74,3.74,0,0,1,.85-.44,1.36,1.36,0,0,1,1.07.09,8.52,8.52,0,0,0,.89.29,3.83,3.83,0,0,0,1.49.22h.21a3.83,3.83,0,0,0,1.49-.22,8.52,8.52,0,0,0,.89-.29,1.34,1.34,0,0,1,1.06-.09,3.29,3.29,0,0,1,.85.44.19.19,0,0,1,0,.27.18.18,0,0,1-.26,0,3.09,3.09,0,0,0-.74-.38.94.94,0,0,0-.81.08,7.94,7.94,0,0,1-.93.3A5.75,5.75,0,0,1,301.43,38.11Z"/><path d="M301.58,36.8h-.81a10.63,10.63,0,0,1-1.37-.13,5.4,5.4,0,0,0-1.73-.05.2.2,0,0,1-.25-.09.18.18,0,0,1,.08-.25,4.88,4.88,0,0,1,2,0,10.06,10.06,0,0,0,1.31.13h.81a10.06,10.06,0,0,0,1.31-.13,4.88,4.88,0,0,1,2,0,.18.18,0,0,1,.08.25.2.2,0,0,1-.25.09,5.4,5.4,0,0,0-1.73.05A10.63,10.63,0,0,1,301.58,36.8Z"/><path d="M307.27,54.31l-.09,0a.19.19,0,0,1-.07-.26c1.42-2.6.31-3.76-.29-4.39-.09-.1-.18-.19-.24-.27A21.27,21.27,0,0,1,305.23,47a.19.19,0,0,1,.08-.26.2.2,0,0,1,.26.09,21.73,21.73,0,0,0,1.31,2.32l.22.24c.62.64,1.9,2,.34,4.83A.19.19,0,0,1,307.27,54.31Z"/><path d="M306.2,52h0a.19.19,0,0,1-.15-.23,1.37,1.37,0,0,0-.62-1.75c-1.64-1-1.69-1.19-1.7-1.26a.18.18,0,0,1,.14-.23.2.2,0,0,1,.22.11,11.79,11.79,0,0,0,1.54,1.06,1.74,1.74,0,0,1,.8,2.16A.2.2,0,0,1,306.2,52Z"/><path d="M303.87,54.44a.16.16,0,0,1-.09,0,.18.18,0,0,1-.08-.25,1.3,1.3,0,0,0-.29-1.86c-.51-.37-1-1.68-1.57-3.89a.5.5,0,0,0,0-.12.19.19,0,0,1,.37-.11,1.2,1.2,0,0,0,0,.14c.69,2.89,1.23,3.53,1.42,3.67a1.67,1.67,0,0,1,.41,2.34A.18.18,0,0,1,303.87,54.44Z"/><path d="M301.2,55.39a.18.18,0,0,1-.12,0,.19.19,0,0,1-.07-.14v-7a.2.2,0,0,1,.18-.19c.13,0,.47-.18.72-1.49l0-.1a.19.19,0,0,1,.24-.12.19.19,0,0,1,.13.23v.06c-.2,1-.49,1.61-.9,1.76V55c.81-.16,3.61-.83,4.44-2.74a22,22,0,0,0,1.07-6.43,2.88,2.88,0,0,1,0-.39.19.19,0,0,1,.24-.12.18.18,0,0,1,.12.24,1.61,1.61,0,0,1,0,.29c-.08,1.17-.31,4.73-1.1,6.56-1.05,2.42-4.79,3-4.95,3Z"/><path d="M301.08,46.34A1.33,1.33,0,0,1,300,45c0-1.05-.05-3.67-.05-3.67v0l0,0a1.09,1.09,0,0,1,.87-.6c0-.74,0-1.8,0-1.91a.19.19,0,0,1,.13-.23.14.14,0,0,1,.14,0,.17.17,0,0,1,.12,0,.19.19,0,0,1,.13.22c0,.14,0,1.19.08,1.92a1.18,1.18,0,0,1,.89.58l0,0v0s0,2.62-.05,3.67a1.34,1.34,0,0,1-1,1.38Zm-.74-5c0,.36,0,2.66.05,3.62a1,1,0,0,0,.72,1h.16a1,1,0,0,0,.69-1c0-1,0-3.25,0-3.62a1,1,0,0,0-.72-.34l-.16,0h-.07A.89.89,0,0,0,300.34,41.33Z"/><path d="M302,45.86a.17.17,0,0,1-.16-.1.19.19,0,0,1,.07-.26,1.45,1.45,0,0,0,.79-.93c0-.26-.54-.33-.54-.33A.19.19,0,0,1,302,44a.19.19,0,0,1,.21-.17c.32,0,.88.22.88.72a1.75,1.75,0,0,1-1,1.26A.16.16,0,0,1,302,45.86Z"/><path d="M305,44.15s-2.38,0-2.64-1.08S302,41,302,41l-.07-.83a8.93,8.93,0,0,1,1.22.95C302.56,43,304.8,44.11,305,44.15Z"/><path d="M297.4,44.12s2.24.11,2.5-1a19.41,19.41,0,0,0,.38-2.07l.08-.84a8.93,8.93,0,0,0-1.22.95C299.69,43,297.59,44.07,297.4,44.12Z"/><path d="M303.67,57.76a.19.19,0,0,1-.1,0l-4.43-2.85a.18.18,0,0,1-.06-.26.19.19,0,0,1,.26-.06l4.44,2.85a.19.19,0,0,1,.05.26A.17.17,0,0,1,303.67,57.76Z"/><path d="M302.32,61.17a.19.19,0,0,1-.13-.05l-7.13-6.71a.19.19,0,0,1,.27-.28l7.12,6.71a.2.2,0,0,1,0,.27A.2.2,0,0,1,302.32,61.17Z"/><path d="M300.44,61.51a.3.3,0,0,1-.11,0c-.23-.16-5.7-3.94-6.94-5.78a.19.19,0,0,1,.05-.27.19.19,0,0,1,.26,0c1.21,1.79,6.79,5.65,6.85,5.69a.18.18,0,0,1,.05.26A.19.19,0,0,1,300.44,61.51Z"/><path d="M298.57,62.26l-.07,0c-.2-.07-4.84-1.85-7-4.71a.19.19,0,0,1,0-.27.2.2,0,0,1,.27,0c2.11,2.77,6.8,4.57,6.85,4.59a.19.19,0,0,1-.07.37Z"/><path d="M301.08,59.94a.21.21,0,0,1-.15-.08.19.19,0,0,1,0-.26c2-1.62,5.9-4.82,6.3-5.34a.2.2,0,0,1,.31.24c-.54.68-6.13,5.2-6.37,5.39A.17.17,0,0,1,301.08,59.94Z"/><path d="M303.29,60.91a.19.19,0,0,1-.15-.08.19.19,0,0,1,0-.27,30,30,0,0,0,5.25-5.24.19.19,0,0,1,.31.23,31.39,31.39,0,0,1-5.33,5.32A.28.28,0,0,1,303.29,60.91Z"/><path d="M306,61a.16.16,0,0,1-.13-.06.19.19,0,0,1,0-.27l4.22-4a.19.19,0,0,1,.26.28l-4.22,4A.19.19,0,0,1,306,61Z"/><path d="M301.74,56.42a.19.19,0,0,1-.13-.33s1.65-1.37,2.17-1.84a.19.19,0,1,1,.26.28c-.53.47-2.17,1.83-2.18,1.85A.19.19,0,0,1,301.74,56.42Z"/><path d="M303.67,54.53a4.68,4.68,0,0,1-4,.29c-1.95-.91,2,1.48,2,1.48l1-.78Z"/><path d="M376.43,47.48H373.9a.39.39,0,0,0-.39.38h0v2.57h-1.76V47.86a.39.39,0,0,0-.39-.38h-3.9a.38.38,0,0,0-.39.38h0v2.57H365.3V47.86a.38.38,0,0,0-.38-.38h-2.55a.39.39,0,0,0-.39.38h0v6.7a.39.39,0,0,0,.39.38h.92v1.65H339.8V54.94h.93a.39.39,0,0,0,.39-.38h0v-6.7a.39.39,0,0,0-.39-.38h-2.55a.38.38,0,0,0-.38.38h0v2.57H336V47.86a.38.38,0,0,0-.39-.38h-3.9a.39.39,0,0,0-.39.38h0v2.57h-1.76V47.86a.39.39,0,0,0-.39-.38h-2.53a.38.38,0,0,0-.39.38h0v6.7a.38.38,0,0,0,.39.38h.91V74a.4.4,0,0,0,.39.39h47.16a.4.4,0,0,0,.39-.39h0v-19h.91a.38.38,0,0,0,.39-.38h0v-6.7a.38.38,0,0,0-.39-.38ZM328.36,71.16V69.49H335v1.67ZM339,57.37V59H332.4V57.37Zm7.69,2.4h4.66v1.61h-6.52V59.77Zm9.3,0v1.61h-3.89V59.77Zm15.08,8.94h-3V67.06h6.62v1.65Zm-7,0V67.06h3.26v1.65Zm-28.71,0h-3V67.06H339v1.65Zm-7-8.94H335v1.64h-6.62Zm10.66,0v1.64h-3.26V59.77Zm5.44,2.35h1.85v1.63H339.8v-1.6Zm7.3,0h6.9v1.63H347.1v-1.6Zm11.53,0v1.63h-3.85v-1.6Zm7.41,4.15h-6.62V64.64h6.62Zm-11.26,2.27V66.93h3.86v1.61Zm-7.32,2.39V69.32H356v1.61Zm-5.44,0h-1.83V69.32h6.52v1.61Zm-6.91,0V69.32h4.28v1.61Zm-7.4-8.71H339v1.64H332.4Zm14.34,2.32h4.66v1.61h-6.52V64.54Zm9.3,0v1.61h-3.89V64.54Zm7.29,0v1.61h-6.52V64.54Zm-17,4H339.8v-1.6h6.52Zm-2.24-2.39H339.8v-1.6h4.28ZM339,64.64v1.65h-3.26V64.64Zm12.74,3.9H347.1V66.93h11.56v1.61Zm12.32-4.68V62.22h3.26v1.64Zm-32.46-1.64v1.64h-3.26V62.22Zm-3.26,2.42H335v1.65h-6.62Zm11.44,7.09h6.52v1.59H339.8Zm7.3,0h11.56v1.59H347.1Zm12-.78h-2.28V69.32h6.52v1.61Zm12.42-4.66V64.64h3.27v1.65Zm3.27-2.43h-6.63V62.22h6.62Zm-4-2.42h-6.63V59.77h6.62ZM364.08,59V57.37h3.26V59Zm-.77,0h-3.87V57.37h3.86Zm0,.78v1.61h-6.53v-1.6h6.53Zm-19.23,1.61H339.8v-1.6h4.28ZM331.62,59h-3.26V57.37h3.26Zm-3.26,8.05h3.26v1.65h-3.26Zm7.4,2.43H339v1.67h-3.26Zm23.68,2.24h3.86v1.85h-3.86Zm4.64.2h3.26v1.65h-3.26Zm0-.77V69.49h6.62v1.67Zm7.4-1.65h3.27v1.65h-3.27Zm3.27-8.05h-3.27V59.77h3.27Zm0-2.42h-6.63V57.37h6.62Zm-5.39-2.43h-5.28V54.94h5.27ZM358.68,59H347.1V57.37h11.56Zm-12.35,0H339.8V57.37h6.52ZM339,56.59h-4.61V54.94H339Zm-12-8.34h1.75v2.57a.4.4,0,0,0,.39.39h2.55a.39.39,0,0,0,.38-.39h0V48.25h3.13v2.57a.39.39,0,0,0,.38.39h2.55a.4.4,0,0,0,.39-.39h0V48.25h1.75v5.92H327.06Zm6.57,6.69v1.65h-5.27V54.94Zm-5.27,17h3.26v1.65h-3.26Zm4,0H339v1.65H332.4Zm42.34,1.65h-6.62V71.91h6.62Zm0-17h-4.62V54.94h4.62Zm1.3-2.42H362.77V48.25h1.76v2.57a.39.39,0,0,0,.39.39h2.54a.39.39,0,0,0,.39-.39h0V48.25H371v2.57a.4.4,0,0,0,.39.39h2.54a.39.39,0,0,0,.39-.39h0V48.25H376Z"/><path d="M221.27,784.86l-4.17-.7-4.17.7-1.15,5.75v1l.58,5.73L217.1,799l4.75-1.66.57-5.73v-1Zm-6.94,11.56H214v-.21h-.21v-.34H214v-.22h.34Zm1,.4H215v-.21h-.22v-.34H215v-.21h.34Zm0-1.51H215v-.21h-.22v-.34H215v-.21h.34Zm1.19,2.28h-.34v-.21H216V797h.22v-.22h.34Zm0-1.49h-.34v-.21H216v-.34h.22v-.22h.34Zm0-1.51h-.34v-.21H216V794h.22v-.22h.34Zm-.17-2.85-3.54-.43v-.83l3.32.62Zm5-.41-3.53.43.21-.62,3.32-.62Z"/><path d="M221.25,798c-.06,1-1.85,1.77-4,1.77s-4.05-.81-4.05-1.83c-2.85.68-4.78,1.91-4.78,2.34,0,1.57,4,2.83,8.83,2.83s8.83-1.28,8.83-2.83C226,800,224.08,798.72,221.25,798Z"/><path d="M358.11,868.94H357a.29.29,0,0,0-.28.29v1.42a.29.29,0,0,0,.28.29h1.15v4a.28.28,0,0,0,.28.29h2.86a.28.28,0,0,0,.28-.29v-4h1.15a.28.28,0,0,0,.28-.29v-1.42a.28.28,0,0,0-.28-.29h-1.07c.45-2,2.39-11.66-1.59-15.63a.28.28,0,0,0-.48.17s-.72,5.46-3.29,5.46a.28.28,0,0,0-.26.17.29.29,0,0,0,.06.32S358.06,861.58,358.11,868.94Zm1.43,5.71h-.85v-.85h.85Zm0-1.42h-.85v-.86h.85Zm0-1.43h-.85v-.86h.85Zm1.43,2.85h-.85v-.85H361Zm0-1.42h-.85v-.86H361Zm0-1.43h-.85v-.86H361Zm1.43-2.29v.86h-5.14v-.86h5.14ZM360,854.15c3.27,4.07,1.36,13.26,1,14.79h-2.34c0-5.9-1.29-8.55-1.9-9.49C358.91,859,359.76,855.56,360,854.15Z"/><path d="M397.53,604.88a.78.78,0,0,0-.31-.64.84.84,0,0,0-.31.64v.55h.62Z"/><path d="M390.7,606.67H391v-.55a1.43,1.43,0,0,1,.8-1.28.32.32,0,0,1,.27,0,1.43,1.43,0,0,1,.8,1.28v.55h.31v-2.48H390.7Z"/><path d="M390.7,615.37h2.49v-8.08H390.7Zm.31-5.83a1.44,1.44,0,0,1,.8-1.29.32.32,0,0,1,.27,0,1.44,1.44,0,0,1,.8,1.29v.86a.31.31,0,0,1-.31.31h-1.25a.31.31,0,0,1-.31-.31Zm0,3.73a1.43,1.43,0,0,1,.8-1.29.32.32,0,0,1,.27,0,1.43,1.43,0,0,1,.8,1.29v.85a.31.31,0,0,1-.31.31h-1.25a.31.31,0,0,1-.31-.31Z"/><path d="M392,605.48a.82.82,0,0,0-.32.64v.55h.63v-.55A.84.84,0,0,0,392,605.48Z"/><path d="M393.81,615.37h3.1v-9.32h-3.1Zm.62-6.58a2.43,2.43,0,0,1,.71-1.72.31.31,0,0,1,.44,0,2.43,2.43,0,0,1,.71,1.72v1a.31.31,0,0,1-.31.31h-1.24a.31.31,0,0,1-.31-.31Zm0,4.66a2.4,2.4,0,0,1,.71-1.72.31.31,0,0,1,.44,0,2.4,2.4,0,0,1,.71,1.72v1a.31.31,0,0,1-.31.31h-1.24a.31.31,0,0,1-.31-.31Z"/><path d="M395.67,608.79a.55.55,0,1,0-.62,0v.68h.62Z"/><path d="M395.67,613.45a.56.56,0,1,0-.62,0v.67h.62Z"/><path d="M391.23,603a.3.3,0,0,1,0,.43l-.09.1h1.61l-.09-.1a.3.3,0,0,1,0-.43l.08-.09a.47.47,0,0,0,0-.66.48.48,0,0,0-.22-.12,1.23,1.23,0,0,1-.57-.34,1.31,1.31,0,0,1-.58.34.46.46,0,0,0-.34.57.45.45,0,0,0,.12.21Z"/><path d="M398.12,602.32h2.56l-.3-.45a.32.32,0,0,1,0-.39.69.69,0,0,0,.22-.51.69.69,0,0,0-.56-.68.8.8,0,0,0-1.37,0,.7.7,0,0,0-.35,1.18.32.32,0,0,1,.05.4Z"/><path d="M396.51,601.79a.31.31,0,0,1,0,.44l-.09.09h.95l.4-.6a1.42,1.42,0,0,1-.24-.75c0-.05,0-.09,0-.14a1.59,1.59,0,0,1-.33-.25,1.17,1.17,0,0,1-.57.35.46.46,0,0,0-.34.57.45.45,0,0,0,.12.21Z"/><path d="M401.43,602.32h.94l-.09-.09a.31.31,0,0,1,0-.44l.09-.08a.47.47,0,0,0,0-.66.5.5,0,0,0-.22-.13,1.15,1.15,0,0,1-.58-.34,1.11,1.11,0,0,1-.32.25.76.76,0,0,1,0,.15,1.32,1.32,0,0,1-.23.74Z"/><path d="M406.14,603a.3.3,0,0,1,0,.43l-.09.1h1.6l-.09-.1a.3.3,0,0,1,0-.43l.08-.09a.45.45,0,0,0,0-.66.45.45,0,0,0-.21-.12,1.31,1.31,0,0,1-.58-.34,1.21,1.21,0,0,1-.58.34.47.47,0,0,0-.34.57.46.46,0,0,0,.13.21Z"/><path d="M399.4,604.24a.81.81,0,0,0-.31.64v.55h.62v-.55A.84.84,0,0,0,399.4,604.24Z"/><path d="M396.29,604.88a1.43,1.43,0,0,1,.8-1.28.26.26,0,0,1,.27,0,1.43,1.43,0,0,1,.8,1.28v.55h.31v-.55a1.4,1.4,0,0,1,.79-1.28.28.28,0,0,1,.28,0,1.44,1.44,0,0,1,.79,1.28v.55h.31v-.55a1.44,1.44,0,0,1,.79-1.28.28.28,0,0,1,.28,0,1.42,1.42,0,0,1,.79,1.28v.55h.31v-2.49H396v2.49h.31Z"/><path d="M399.4,612.34a1.76,1.76,0,0,0-.62,1.35v1.68H400v-1.68A1.79,1.79,0,0,0,399.4,612.34Z"/><path d="M392.26,609.54a.83.83,0,0,0-.31-.64.81.81,0,0,0-.32.64v.55h.63Z"/><path d="M392.26,613.27a.83.83,0,0,0-.31-.64.81.81,0,0,0-.32.64v.54h.63Z"/><path d="M407.16,609.54a.4.4,0,1,0-.62,0v.55h.62Z"/><path d="M407.16,613.27a.4.4,0,1,0-.62,0v.54h.62Z"/><path d="M401.88,615.37H405v-9.32h-3.11Zm.62-6.58a2.44,2.44,0,0,1,.72-1.72.3.3,0,0,1,.43,0,2.44,2.44,0,0,1,.72,1.72v1a.31.31,0,0,1-.31.31h-1.25a.31.31,0,0,1-.31-.31Zm0,4.66a2.4,2.4,0,0,1,.72-1.72.3.3,0,0,1,.43,0,2.4,2.4,0,0,1,.72,1.72v1a.31.31,0,0,1-.31.31h-1.25a.31.31,0,0,1-.31-.31Z"/><path d="M403.75,613.45a1.79,1.79,0,0,0-.32-1,1.85,1.85,0,0,0-.31,1v.67h.63Z"/><path d="M405.61,604.19v2.48h.31v-.55a1.42,1.42,0,0,1,.79-1.28.34.34,0,0,1,.28,0,1.42,1.42,0,0,1,.79,1.28v.55h.31v-2.48Z"/><path d="M405.61,615.37h2.48v-8.08h-2.48Zm.31-5.83a1.44,1.44,0,0,1,.79-1.29.34.34,0,0,1,.28,0,1.44,1.44,0,0,1,.79,1.29v.86a.31.31,0,0,1-.31.31h-1.24a.31.31,0,0,1-.31-.31Zm0,3.73a1.42,1.42,0,0,1,.79-1.29.34.34,0,0,1,.28,0,1.42,1.42,0,0,1,.79,1.29v.85a.31.31,0,0,1-.31.31h-1.24a.31.31,0,0,1-.31-.31Z"/><path d="M406.85,605.48a.81.81,0,0,0-.31.64v.55h.62v-.55A.81.81,0,0,0,406.85,605.48Z"/><rect x="397.53" y="609.78" width="3.73" height="0.62"/><path d="M397.53,609.15h.63v-.43a2.39,2.39,0,0,1,1.07-2,.3.3,0,0,1,.34,0,2.41,2.41,0,0,1,1.07,2v.43h.62v-3.1h-3.73Z"/><path d="M401.88,604.88a.4.4,0,1,0-.62,0v.55h.62Z"/><path d="M397.53,615.37h.63v-1.68a2.37,2.37,0,0,1,1.07-2,.3.3,0,0,1,.34,0,2.4,2.4,0,0,1,1.07,2v1.68h.62V611h-3.73Z"/><path d="M403.75,608.79a1.75,1.75,0,0,0-.32-1,1.82,1.82,0,0,0-.31,1v.68h.63Z"/><path d="M399.4,607.37a1.76,1.76,0,0,0-.62,1.35v.43H400v-.43A1.79,1.79,0,0,0,399.4,607.37Z"/><path d="M381.16,587.26a.31.31,0,0,0-.1.61c-.1.32-.27.72-.48.75s-.3-.11-.4-.27a.3.3,0,0,0,.13-.25.31.31,0,0,0-.62,0,.3.3,0,0,0,.2.29c-.1.32-.26.73-.47.75s-.31-.11-.41-.26a.32.32,0,1,0-.18,0V596h4.66v-7.05a.31.31,0,1,0-.31-.31.33.33,0,0,0,.13.26c-.1.15-.23.29-.4.26s-.38-.43-.48-.75a.3.3,0,0,0,.21-.29.32.32,0,0,0-.63,0,.31.31,0,0,0,.14.25c-.1.16-.24.29-.4.27s-.38-.43-.48-.75a.33.33,0,0,0,.21-.3.31.31,0,0,0-.32-.31ZM380,589.64a.32.32,0,1,1-.31.31A.31.31,0,0,1,380,589.64Zm1.16,0a.32.32,0,1,1-.31.31A.31.31,0,0,1,381.16,589.64Zm1.17,0a.32.32,0,0,1,0,.63.32.32,0,1,1,0-.63Zm-4.88,5.08a1,1,0,0,0-.7.3,1,1,0,0,0,.56,1.68v3.88h1.14v-4.86a1,1,0,0,0-.61-.92,1.09,1.09,0,0,0-.39-.08Zm7.43,0a1,1,0,0,0-1,1v4.86H385V596.7a1,1,0,0,0-.14-2Zm-5.5,1.64c-.42,0-.55.34-.55.76h4.66c0-.42-.18-.76-.6-.76Zm-.55,1.15v3.07h4.66v-3.07Z"/><rect class="cls-17" x="191.9" y="427.9" width="11.75" height="22.39"/><path d="M200.37,435.69h-5.19l-.55,11.91h1.64v-4.14c0-1.59.68-2.89,1.51-2.89h0c.84,0,1.52,1.3,1.52,2.89v4.12h1.63Z"/><path d="M200.93,435.09l.24-4.48h-.86v.56c0,.54-.22,1-.5,1s-.51-.42-.51-1v-.56h-1v.56c0,.54-.23,1-.51,1h0c-.28,0-.5-.42-.5-1v-.56h-1v.56c0,.54-.22,1-.5,1h0c-.28,0-.51-.42-.51-1v-.56h-.85l.23,4.48Z"/><rect class="cls-17" x="204.38" y="428.14" width="11.75" height="22.39"/><path d="M212.86,435.93h-5.2l-.54,11.91h1.64V443.7c0-1.59.68-2.89,1.51-2.89h0c.84,0,1.52,1.3,1.52,2.89v4.12h1.63Z"/><path d="M213.42,435.32l.24-4.48h-.86v.56c0,.54-.22,1-.51,1s-.5-.43-.5-1v-.56h-1v.56c0,.54-.23,1-.51,1h0c-.28,0-.51-.43-.51-1v-.56h-1v.56c0,.54-.22,1-.5,1h0c-.29,0-.51-.43-.51-1v-.56h-.86l.24,4.48Z"/><path d="M181.49,260.92a9.13,9.13,0,0,1,.78-1.75c.6-1.06,1.31-3,4.59-3.25,0,0,2.56.05,3.36-.44a1.56,1.56,0,0,0,.51-.4,1,1,0,0,1-.53,0,2.43,2.43,0,0,0,.83-.38,1.72,1.72,0,0,1-.54,0,4,4,0,0,0,.9-.4.79.79,0,0,0,.32-.32,1.39,1.39,0,0,1-1.27-.08,6,6,0,0,1,1.35-.77,3.77,3.77,0,0,1,.33-.9c.2-.36.53-.29.68-.42a4.42,4.42,0,0,0,1.09-1.16c.31-.56.65.06.7.39a3.52,3.52,0,0,1-.14,1.43s.17.11.41-.43.31.69-.11,1.16-.59,2.24-.56,3.71a5.26,5.26,0,0,0,.21,1.83,1.28,1.28,0,0,1-.54-.59,5.86,5.86,0,0,0,0,1.67,1.13,1.13,0,0,1-.39-.49,2.46,2.46,0,0,1-.54,1.29,1,1,0,0,0-.28.7.78.78,0,0,1-.2-.68,3,3,0,0,0-.54,1.65,7.77,7.77,0,0,0-.06,2.7,2.24,2.24,0,0,0,.43.85s.55-.13.55.5h-1.48a3.17,3.17,0,0,1-.47-2.22c.19-1.34-.52-1.68-.41-2.75,0,0-1.29.5-4-.61,0,0,.65,2.14-1.94,3.12,0,0-.42.21.46,1.62a1,1,0,0,0,.38.36c.22.08.82-.06.53.48h-1.26s-1.74-2.33-1.05-2.78a2.45,2.45,0,0,0,.21-1.67c-.25-.82-.32-.92-.63-.62a3.81,3.81,0,0,0-.88,1.39,12.21,12.21,0,0,0-.08,1.58s-.17,0-.29-.34a5.7,5.7,0,0,0-.19,1.74.51.51,0,0,1-.25-.41s-1,1.12-1.76,1.2a3.14,3.14,0,0,1,.1-2,.61.61,0,0,1-.43-.06,7.18,7.18,0,0,0,1.08-1.24,1.28,1.28,0,0,1-.56-.06,4.09,4.09,0,0,0,1.28-1.33A6.58,6.58,0,0,0,181.49,260.92Z"/><path d="M269.57,690c-.27-.22-.52-.38-.71-.52a2.68,2.68,0,0,0,.3-1.46,2.62,2.62,0,0,0-.6-1.48c.11-.41.22-.85.33-1.35a20.26,20.26,0,0,0,.33-2.58c-.25.27-.53.49-.8.74a8,8,0,0,1-1.32.8,9.39,9.39,0,0,1-1.46.52c-.27.05-.55.11-.82.14a4.9,4.9,0,0,0,.49,1,6,6,0,0,0,.74,1,1.69,1.69,0,0,0-.08,1.35c.11.22.25.3.52.77a2,2,0,0,1,.31.63c.08.53-.36.8-.22,1.16.05.16.22.25.44.36a3.08,3.08,0,0,0,2.55-.11c.33-.14.47-.25.5-.39S270.07,690.42,269.57,690Z"/><path d="M271.61,671.63a11.45,11.45,0,0,0-5.5-3.46,2.44,2.44,0,0,0-.28-2s0,0,0,0a2.07,2.07,0,0,0-3.47,0,0,0,0,0,1,0,0,2.55,2.55,0,0,0-.27,2,2,2,0,0,1,.11.55,3,3,0,0,1-.06.52l.22-.11h0v0h0a1.93,1.93,0,0,0-.08.52.2.2,0,0,0,.11-.11s0,0,.05,0l0,0h0V670h0l.08-.11s.06,0,.06,0,0,0,0,0h0a.75.75,0,0,0-.06.41h0s0-.05.06-.11,0-.05.05,0,0,0,0,0h0a.55.55,0,0,0,0,.38h0s0,0,.05-.08.06,0,.09,0,0,0,0,.06a.66.66,0,0,0,.14.38.21.21,0,0,0,0-.13.06.06,0,1,1,.11,0h0a1,1,0,0,0,.19.35v-.05h0s.06-.06.08-.06a.06.06,0,0,1,.06.06.29.29,0,0,0,0,.14l.06.05a0,0,0,0,1,0,0s0,0,0-.06l.06-.08h0s.05-.05.08,0,0,0,0,.06a.17.17,0,0,0,.08.14.22.22,0,0,0,.06-.14s0-.06.08-.06a.06.06,0,0,1,.05.06s0,.08.06.14.05-.09.08-.14a.06.06,0,0,1,.06-.06s.05,0,.05,0h0l.06.08s0,0,0,.06,0,0,0,0a.06.06,0,0,0,.06-.05.29.29,0,0,0,.05-.14.06.06,0,1,1,.11,0h0v.05a.54.54,0,0,0,.19-.33h0s0-.05.09-.05a.06.06,0,0,1,.05.05.22.22,0,0,0,0,.14.68.68,0,0,0,.14-.38.06.06,0,0,1,.05-.06.1.1,0,0,1,.06,0s0,0,.05.08h0a.8.8,0,0,0,0-.38h0s0-.06.05-.06.06,0,.06,0,0,.06.05.11h0a.54.54,0,0,0-.05-.41h0s0-.06,0-.06h0l.08.11h0v-.41h0a0,0,0,0,1,0,0s0,0,0,0a.2.2,0,0,0,.11.11,1.88,1.88,0,0,0-.08-.52h0s0,0,0,0h0l.22.11a1.74,1.74,0,0,1-.05-.52,1.79,1.79,0,0,1,.11-.55,1.63,1.63,0,0,0-.09.55,1.76,1.76,0,0,0,.09.55v0h0l-.22-.09a2,2,0,0,1,.08.53s0,0,0,0h0a.14.14,0,0,1-.11,0v.44a0,0,0,0,1-.05.05s0,0,0,0h0l0,0a1.83,1.83,0,0,1,0,.33h0s0,0-.06,0,0,0,0,0l0,0a.51.51,0,0,1-.09.3h0s-.05,0-.08,0a0,0,0,0,1,0,0s0,0,0,0a.62.62,0,0,1-.22.35.06.06,0,0,1-.09,0h0a.08.08,0,0,1,0-.05.6.6,0,0,1-.25.27h0s-.06,0-.08,0l0,0a.31.31,0,0,1-.11.08.15.15,0,0,1-.11,0h0s-.06,0-.06,0,0,0,0,0a.47.47,0,0,1-.14.14h-.08s-.06-.06-.06-.09a.14.14,0,0,0-.05.09.07.07,0,0,1-.09,0,.35.35,0,0,1-.13-.14s0,0,0,0,0,0-.06,0h0c-.05,0-.08,0-.11,0l-.11-.08,0,0s-.06,0-.06,0h0a1.29,1.29,0,0,1-.25-.27.08.08,0,0,1,0,.05.11.11,0,0,1-.09,0h0a.81.81,0,0,1-.22-.36s0,0,0,.06a.06.06,0,0,1-.09,0l0,0h0a.58.58,0,0,1-.09-.3l0,0s-.06,0-.06,0l0,0h0a.74.74,0,0,1,0-.33l0,0h0s0,0-.06,0l0,0v-.44a.24.24,0,0,1-.11.06h0s0,0,0,0h0a1.72,1.72,0,0,1,.08-.52l-.22.08h0v0a1.63,1.63,0,0,0,.09-.55,1.76,1.76,0,0,0-.09-.55,11,11,0,0,0-8.05,9.16,7.42,7.42,0,0,0,2.66,1.4,7.57,7.57,0,0,0,2,.3c.06.08.11.22.19.33a1.44,1.44,0,0,0,.22.25c-.08.33-.16.69-.22,1-.11.55-.16,1.08-.22,1.57a.15.15,0,0,0,0,.11h0a8.1,8.1,0,0,0,2.48,1.73,7.46,7.46,0,0,0,2.94.66,6.59,6.59,0,0,0,1.48-.19,7.8,7.8,0,0,0,3.91-2.2h0s0-.05,0-.11a12.54,12.54,0,0,0-.22-1.57c-.06-.35-.14-.71-.22-1l.22-.25a2.79,2.79,0,0,0,.19-.33,7.57,7.57,0,0,0,2-.3,7.69,7.69,0,0,0,2.66-1.4A10.16,10.16,0,0,0,271.61,671.63Zm-8.69-4c.19-.22.33-.25.38-.25s.11.19.31.36a.48.48,0,0,0,.24.13c-.08.2-.16.22-.22.22s-.16-.08-.3-.24-.16-.2-.25-.22Zm.14.55a1.28,1.28,0,0,0,.33,0h.24a.25.25,0,0,1-.24.17C263.28,668.5,263.14,668.39,263.06,668.23Zm1.81,1.1-.05,0h0s-.06,0-.06,0-.08,0-.11.06l-.08.08-.11.11a.7.7,0,0,1-.33.08.8.8,0,0,1-.33-.08.57.57,0,0,1-.11-.11l-.08-.08a.15.15,0,0,0-.11-.06s0,0-.06,0h0l-.06,0s0-.06,0-.06,0,0,0,0,0-.06.05-.06.09,0,.11-.08a.76.76,0,0,1-.08.11s0,0,0,0v0h.11a.39.39,0,0,1,.17.06c.05,0,.08.08.11.11l.08.08a.51.51,0,0,0,.22.05.48.48,0,0,0,.22-.05s.06,0,.08-.08l.11-.11a.39.39,0,0,1,.17-.06h.11v0s0,0,0,0-.05-.08-.08-.11l.11.08,0,.06a.07.07,0,0,1,0,0Zm-.08-.86c-.17,0-.22-.16-.25-.16a.7.7,0,0,0,.25,0,.93.93,0,0,0,.33-.06A.32.32,0,0,1,264.79,668.47Zm.36-.79c-.11,0-.14.11-.25.22s-.22.24-.3.24-.11,0-.22-.22a.64.64,0,0,0,.24-.13c.2-.17.2-.33.31-.36s.19,0,.38.25Zm-5.72,8.44c-.06.3-.09.63-.14.93a3.24,3.24,0,0,1-.8-.74,5.51,5.51,0,0,1-.41-.66l.77-.36a5.51,5.51,0,0,0,.71-.44A9.27,9.27,0,0,1,259.43,676.12Zm.35-2.75a5.47,5.47,0,0,1-.19,1.18c0-.39,0-.8,0-1.18a5.74,5.74,0,0,0-.14-1.16,3.16,3.16,0,0,0-.14-.55,4,4,0,0,0-.19-.55,10.16,10.16,0,0,0-.49-1.07,5.28,5.28,0,0,1,.63,1,5.48,5.48,0,0,1,.38,1.12,3.89,3.89,0,0,1,.09.61A5.24,5.24,0,0,1,259.78,673.37Zm8.64-.61c0-.19.05-.41.08-.6a5,5,0,0,1,.39-1.13,4.68,4.68,0,0,1,.63-1,11.33,11.33,0,0,0-.5,1.07c0,.2-.13.36-.19.55s-.11.39-.14.55a7.63,7.63,0,0,0-.13,1.16c0,.38,0,.77,0,1.18a5.7,5.7,0,0,1-.19-1.18A3.63,3.63,0,0,0,268.42,672.76Zm1.29,3.55a3.48,3.48,0,0,1-.8.74c-.05-.3-.08-.6-.13-.93s-.11-.88-.17-1.3a6,6,0,0,0,.72.44,5.25,5.25,0,0,0,.77.36A3,3,0,0,1,269.71,676.31Z"/><path d="M261.1,684.17a8.86,8.86,0,0,1-1.32-.79,6.17,6.17,0,0,1-.79-.75,14.13,14.13,0,0,0,.33,2.59c.11.47.22.93.33,1.35a2.64,2.64,0,0,0-.31,2.94,8.31,8.31,0,0,0-.71.52c-.5.41-.52.52-.52.61s.13.24.49.38a3.19,3.19,0,0,0,2.56.11c.22-.11.38-.19.44-.36.14-.35-.3-.63-.22-1.15a2.43,2.43,0,0,1,.3-.63c.28-.47.41-.55.52-.77a1.53,1.53,0,0,0-.08-1.35,6.35,6.35,0,0,0,.74-1,7.3,7.3,0,0,0,.5-1,8,8,0,0,1-.83-.14A14.94,14.94,0,0,1,261.1,684.17Z"/></g></g></svg>