<svg xmlns="http://www.w3.org/2000/svg" viewBox="0 0 68.25 70.17"><title>male</title><g id="Layer_2" data-name="Layer 2"><g id="Layer_1-2" data-name="Layer 1"><g id="a"><path d="M68.25,4.92a4.8,4.8,0,0,0-1.5-3.5A5,5,0,0,0,64.9.22L63.75.07c-.23-.09-.4-.09-.5,0H39a4.44,4.44,0,0,0-3.55,1.35,4.18,4.18,0,0,0-1.3,3.5,4.17,4.17,0,0,0,1.3,3.5A4.86,4.86,0,0,0,39,9.92H51.55L35.8,25.67a23,23,0,0,0-12-3.19,22.6,22.6,0,0,0-16.9,6.84A22.67,22.67,0,0,0,0,46.23a22.56,22.56,0,0,0,6.85,16.9,23.09,23.09,0,0,0,16.9,7,23,23,0,0,0,16.9-7,23,23,0,0,0,7.05-16.9,22.72,22.72,0,0,0-4.55-14.06L58.4,17v12.2a4.12,4.12,0,0,0,1.35,3.5,5,5,0,0,0,8.5-3.5V4.92M13.9,56.13a13.37,13.37,0,0,1-4.05-9.9,13.31,13.31,0,0,1,4.05-9.86,13.42,13.42,0,0,1,9.85-4A13.06,13.06,0,0,1,33,35.53a.14.14,0,0,0,0,.09l-.2-.09.85.84a13.84,13.84,0,0,1,0,19.76,14.29,14.29,0,0,1-9.9,4.19A14.12,14.12,0,0,1,13.9,56.13Z"/></g></g></g></svg>