<svg xmlns="http://www.w3.org/2000/svg" viewBox="0 0 466.41 525.5"><defs><style>.cls-1,.cls-5{fill:#586597;}.cls-2{fill:#e6f4f6;}.cls-3{fill:#a0a0a0;}.cls-4{fill:#c6c6c6;}.cls-5{stroke:#807984;stroke-miterlimit:10;}.cls-6{fill:#807984;opacity:0.5;}</style></defs><title>Throne</title><g id="Layer_2" data-name="Layer 2"><g id="Layer_2-2" data-name="Layer 2"><path class="cls-1" d="M147.46,352.83l-4.92-10.55L91.43,304.71l2.12-2.6a1.06,1.06,0,0,0,.23-.82,1,1,0,0,0-.43-.71l-3.15-2.32a1.18,1.18,0,0,0-1.61.2l-2.81,3.45-12.57-9.24a3.59,3.59,0,0,0-4.83.61L67,295a3.18,3.18,0,0,0,.58,4.6l12.57,9.25-2.83,3.47a1.05,1.05,0,0,0,.2,1.53l3.15,2.32a1.2,1.2,0,0,0,1.62-.21l2.11-2.59L135.48,351Z"/><path class="cls-2" d="M143.62,350l-7.18-1.12L85.78,311.65l4.24-5.2,50.65,37.24Z"/><path class="cls-3" d="M91,301.66l-9.87,12.13-1.35-1,9.88-12.13Z"/><path class="cls-4" d="M84.37,303.65l-2.83,3.47-2.22-1.63L82.15,302Zm-4-3-2.83,3.47-1.8-1.32,2.83-3.48ZM76.73,298l-2.82,3.48-1.79-1.31L75,296.72Zm-3.59-2.63-2.82,3.47-1.35-1a1,1,0,0,1-.2-1.53l1.42-1.74a1.16,1.16,0,0,1,1.61-.2Z"/><path class="cls-1" d="M139.34,345.47l-51.64-38-1.41,1.74,51.64,38Z"/><path class="cls-1" d="M370.48,496.16l12.51.7,60.92-28.43,1.46,3.24a1.17,1.17,0,0,0,1.56.58l3.76-1.75a1.21,1.21,0,0,0,.59-1.59l-1.93-4.29,15-7a3.64,3.64,0,0,0,1.77-4.75l-1-2.17a3.51,3.51,0,0,0-4.68-1.74l-15,7-1.95-4.33a1.17,1.17,0,0,0-1.57-.58l-3.75,1.76a1.19,1.19,0,0,0-.59,1.58l1.45,3.24-60.91,28.43Z"/><path class="cls-2" d="M375.07,494l4.57-6L440,459.79l2.91,6.48-60.38,28.18Z"/><path class="cls-3" d="M447,469.58l-6.8-15.12,1.6-.75,6.8,15.12Z"/><path class="cls-4" d="M448.37,462.45l-1.94-4.33,2.64-1.24,1.95,4.33Zm4.81-2.24-1.95-4.33,2.14-1,1.95,4.33Zm4.29-2-2-4.33,2.13-1,2,4.33Zm4.29-2-2-4.32,1.61-.75a1.15,1.15,0,0,1,1.56.57l1,2.17a1.2,1.2,0,0,1-.58,1.59Z"/><path class="cls-1" d="M381.49,492.33l61.56-28.72-1-2.17-61.55,28.73Z"/><path class="cls-1" d="M307.85,480l17.77-4.37L397.78,412l3.49,3.68a1.77,1.77,0,0,0,1.23.54,1.79,1.79,0,0,0,1.22-.43l4.45-3.93a1.61,1.61,0,0,0,.11-2.35l-4.64-4.89L421.39,389a4.9,4.9,0,0,0,.31-7.07l-2.34-2.46a5.35,5.35,0,0,0-7.33-.33l-17.76,15.65-4.67-4.93a1.77,1.77,0,0,0-2.44-.11l-4.45,3.93a1.62,1.62,0,0,0-.11,2.36l3.5,3.68L314,463.29Z"/><path class="cls-2" d="M313.28,475.18l3.65-10,71.51-63.06,7,7.38-71.51,63.05Z"/><path class="cls-3" d="M402.64,412.18,386.32,395l1.89-1.68,16.34,17.21Z"/><path class="cls-4" d="M401.3,402.14l-4.68-4.93,3.14-2.76,4.67,4.93Zm5.69-5-4.68-4.93,2.54-2.24,4.67,4.93Zm5.09-4.49-4.68-4.93,2.52-2.22,4.67,4.93Zm5.07-4.47-4.68-4.93,1.9-1.67a1.73,1.73,0,0,1,2.44.11l2.34,2.46a1.59,1.59,0,0,1-.11,2.35Z"/><path class="cls-1" d="M321.49,470.21l72.9-64.27-2.34-2.47-72.9,64.28Z"/><path class="cls-1" d="M311.44,447.12l16.76-7.35,60.17-75,4.08,3a1.75,1.75,0,0,0,1.3.32,1.79,1.79,0,0,0,1.13-.63l3.71-4.63a1.63,1.63,0,0,0-.3-2.34l-5.41-4L407.68,338a4.91,4.91,0,0,0-.9-7l-2.73-2a5.36,5.36,0,0,0-7.28.94L382,348.34l-5.44-4a1.78,1.78,0,0,0-2.43.31l-3.71,4.63a1.62,1.62,0,0,0,.3,2.34l4.07,3-60.16,75Z"/><path class="cls-2" d="M316,441.48,317.85,431l59.63-74.39,8.16,6.06L326,437.08Z"/><path class="cls-3" d="M393.2,364.08l-19-14.15,1.58-2,19,14.15Z"/><path class="cls-4" d="M390.15,354.42l-5.45-4.05,2.61-3.26,5.46,4.05Zm4.75-5.92-5.45-4.05,2.11-2.64,5.45,4.05Zm4.24-5.29-5.45-4,2.1-2.62,5.45,4Zm4.23-5.28-5.45-4,1.58-2a1.74,1.74,0,0,1,2.42-.31l2.73,2A1.59,1.59,0,0,1,405,336Z"/><path class="cls-1" d="M323.2,435.17,384,359.35l-2.73-2-60.8,75.82Z"/><path class="cls-1" d="M127.82,415.49l-1.24-12.2-34-53.17,2.62-2.05a1.25,1.25,0,0,0,.28-1.63l-2.09-3.28a1,1,0,0,0-1.49-.25l-3.49,2.71L80,332.54a3,3,0,0,0-4.44-.76l-1.76,1.37A3.75,3.75,0,0,0,73,338l8.37,13.08-3.52,2.74a1.25,1.25,0,0,0-.28,1.62l2.1,3.28a1,1,0,0,0,1.49.26L83.77,357l34,53.17Z"/><path class="cls-2" d="M125.26,411.49l-6-3.21-33.73-52.7,5.26-4.09,33.73,52.7Z"/><path class="cls-3" d="M93.1,346.88l-12.29,9.56-.89-1.4,12.29-9.56Z"/><path class="cls-4" d="M86.63,347l-3.52,2.74-1.48-2.31,3.52-2.74ZM84,342.8l-3.52,2.73-1.2-1.86,3.52-2.74Zm-2.4-3.75L78,341.79l-1.19-1.86,3.52-2.74Zm-2.39-3.74-3.52,2.74-.9-1.4A1.23,1.23,0,0,1,75,335l1.76-1.37a1,1,0,0,1,1.48.25Z"/><path class="cls-1" d="M122.82,405.62,88.44,351.9l-1.76,1.37L121.06,407Z"/><path class="cls-1" d="M114.82,491.49l-1.29-13.82-37.15-60,2.9-2.33a1.36,1.36,0,0,0,.5-.89,1.44,1.44,0,0,0-.18-1l-2.29-3.7a1.07,1.07,0,0,0-1.63-.28l-3.86,3.09-9.14-14.77A3.24,3.24,0,0,0,57.8,397l-1.95,1.57a4.35,4.35,0,0,0-1,5.52L64,418.81l-3.89,3.12a1.45,1.45,0,0,0-.32,1.84l2.3,3.71a1.08,1.08,0,0,0,1.63.28l2.91-2.33,37.15,60Z"/><path class="cls-2" d="M112,487l-6.59-3.61L68.61,423.86l5.82-4.67,36.82,59.51Z"/><path class="cls-3" d="M77,414l-13.57,10.9-1-1.58L76,412.38Z"/><path class="cls-4" d="M69.87,414.13,66,417.24l-1.62-2.6,3.89-3.12ZM67,409.39l-3.89,3.12-1.31-2.11,3.89-3.12Zm-2.62-4.23-3.89,3.12-1.3-2.1L63,403.06Zm-2.62-4.22-3.88,3.12-1-1.58a1.42,1.42,0,0,1,.31-1.84l2-1.56a1.06,1.06,0,0,1,1.63.28Z"/><path class="cls-1" d="M109.37,480.34,71.84,419.68l-2,1.56,37.54,60.67Z"/><path class="cls-5" d="M180,38l-2.66-24,30,79c-4.62-37.75-7.64-71.6-4-89,5.44,14.3,12.14,46.08,19,80,3.68-8.91,1.1-67.58,8-80,4.82,8.76,7.29,45.75,10,80,1.32-.38,5,9.09,6,8s-.32-13.07.5-15.1c2.61-6.43,3.62-16.77,3.48-30q2.5-28.74,11-40.93c-.81,36.29-2.29,77.15,1,86,8.19-35.62,16.36-70.63,24-83l-7,89c9.3-36.1,18.7-70.09,29-85l-14,82c10.67-28.28,21.6-51.82,33-67l-14,73c10-25.28,20-47.59,30-62,1.65,17.53-7.74,44.4-18,72,13.9-20.49,27.56-40,38-46-4,15.26-10.52,31-18,47,9.71-12.71,19.2-23.65,28-29l-13,36,21-21-13,30,17-12-4,12,8,4v19l8-1v16l7,2-9,19,6,1-4,24,8.76,5.7L403.32,235l-2.23,26.72L369.32,333l12,1,5,7-6,9,7,10-5,23,21,4,2.93,6.93L402.32,401l8.68,4.17,3.32,7.83-12,8,36,48-7,14,15,41-445,1,46-41-6-7,5-6,17-16-7-14,20-3L67.11,415.2,82.32,397l-8,1,19-35-5.22-4.91L93.32,343l-14,8,10-51-15-5,8-10-9-20-13-6,6-12-7-22c7.58,2.07,14.6,3.28,18-1-4.22-13.18-7.54-25.47-7-34l15-1-15-26,9-7-1-13,11-5-1-11,10,2-5-16,14,10-8-28,25,25-17-41,31,38c-8.52-19.06-15.45-38.33-19-58l30,48c-6.35-28.9-12.33-57.21-10-72l31,74c-7.25-32.83-14.35-65.41-12-81l28,67L180,38"/><path class="cls-1" d="M210.82,320.49l.29-15.26-36.54-72.32,3.79-2a1.43,1.43,0,0,0,.72-.86A1.44,1.44,0,0,0,179,229l-2.25-4.47a1.42,1.42,0,0,0-1.92-.61l-5,2.62-9-17.78a4.24,4.24,0,0,0-5.74-1.85l-2.54,1.33a4.37,4.37,0,0,0-1.87,5.81l9,17.8-5.08,2.64a1.45,1.45,0,0,0-.62,1.94l2.26,4.46a1.4,1.4,0,0,0,1.91.62l3.8-2,36.53,72.32Z"/><path class="cls-2" d="M208.07,315.05l-7.41-5.17L164.44,238.2l7.59-4,36.22,71.68Z"/><path class="cls-3" d="M175.8,229l-17.71,9.24-1-1.9,17.72-9.25Z"/><path class="cls-4" d="M167.25,227.86l-5.07,2.65-1.59-3.14,5.07-2.65Zm-2.88-5.7-5.07,2.64L158,222.26l5.08-2.65Zm-2.58-5.1-5.07,2.65-1.27-2.53,5.07-2.65ZM159.22,212l-5.07,2.65-1-1.9a1.44,1.44,0,0,1,.62-1.94l2.54-1.32a1.37,1.37,0,0,1,1.91.61Z"/><path class="cls-1" d="M205.77,307.34l-36.91-73.07-2.54,1.32,36.92,73.08Z"/><path class="cls-1" d="M249.82,347.49,262.3,337l32.6-79.93,4.24,1.65a1.56,1.56,0,0,0,1.2,0,1.51,1.51,0,0,0,.8-.83l2-4.93a1.5,1.5,0,0,0-.85-2l-5.63-2.19,8-19.67a4.51,4.51,0,0,0-2.54-5.9l-2.84-1.11a4.69,4.69,0,0,0-6,2.57l-8,19.67-5.68-2.22a1.56,1.56,0,0,0-2,.86l-2,4.93a1.5,1.5,0,0,0,.84,2l4.25,1.66-32.6,79.94Z"/><path class="cls-2" d="M252.27,341.49l-1-9.57,32.31-79.24,8.5,3.32-32.32,79.23Z"/><path class="cls-3" d="M298.87,255.38,279,247.64l.86-2.11,19.83,7.75Z"/><path class="cls-4" d="M293.84,247.7l-5.68-2.22,1.41-3.48,5.68,2.22Zm2.57-6.31-5.68-2.22,1.14-2.81,5.68,2.22Zm2.3-5.64L293,233.54l1.13-2.79,5.69,2.21Zm2.29-5.62-5.68-2.21.86-2.11a1.53,1.53,0,0,1,2-.85l2.84,1.11a1.46,1.46,0,0,1,.84,2Z"/><path class="cls-1" d="M256.87,334.24l32.94-80.77L287,252.36,254,333.14Z"/><path class="cls-1" d="M245.08,284.3l2.84-16-26.45-82.18,4.32-1.47a1.51,1.51,0,0,0,.89-.79,1.48,1.48,0,0,0,.08-1.15l-1.62-5.07a1.51,1.51,0,0,0-1.92-1l-5.72,1.94L211,158.37a4.52,4.52,0,0,0-5.74-2.89l-2.89,1a4.68,4.68,0,0,0-2.93,5.82l6.5,20.22-5.77,1.95a1.56,1.56,0,0,0-1,2l1.64,5.07a1.5,1.5,0,0,0,1.91,1l4.32-1.46,26.45,82.18Z"/><path class="cls-2" d="M243.1,278.12l-6.94-6.67L209.94,190l8.64-2.92,26.22,81.45Z"/><path class="cls-3" d="M223.4,182.21,203.24,189l-.7-2.16,20.17-6.83Z"/><path class="cls-4" d="M214.6,179.57l-5.77,2L207.68,178l5.77-2Zm-2.08-6.49-5.78,2-.93-2.89,5.78-2Zm-1.87-5.79-5.77,2-.93-2.86,5.78-2Zm-1.86-5.78-5.77,2-.7-2.17a1.52,1.52,0,0,1,1-1.93l2.89-1a1.47,1.47,0,0,1,1.91,1Z"/><path class="cls-1" d="M242,269.61l-26.72-83-2.89,1,26.72,83Z"/><path class="cls-1" d="M237.19,328.11l.8-16.26-36.58-78.2,4.1-2a1.59,1.59,0,0,0,.79-.9,1.58,1.58,0,0,0-.07-1.15L204,224.78a1.5,1.5,0,0,0-2-.71l-5.44,2.64-9-19.23a4.5,4.5,0,0,0-6.05-2.15l-2.74,1.34a4.68,4.68,0,0,0-2.18,6.14l9,19.24-5.49,2.66a1.56,1.56,0,0,0-.72,2l2.26,4.83a1.5,1.5,0,0,0,2,.71l4.1-2,36.58,78.2Z"/><path class="cls-2" d="M234.45,322.23l-7.73-5.75L190.46,239l8.21-4,36.25,77.51Z"/><path class="cls-3" d="M202.84,229.57l-19.14,9.3-1-2.05,19.15-9.31Z"/><path class="cls-4" d="M193.78,228.05l-5.49,2.66-1.59-3.4,5.49-2.66Zm-2.89-6.17-5.48,2.66-1.29-2.74,5.49-2.67Zm-2.58-5.52L182.83,219l-1.28-2.73,5.49-2.66Zm-2.57-5.49-5.48,2.67-1-2.07a1.52,1.52,0,0,1,.72-2l2.74-1.33a1.47,1.47,0,0,1,2,.71Z"/><path class="cls-1" d="M232.25,313.94l-37-79-2.75,1.34,37,79Z"/><path class="cls-1" d="M258.42,328.62l10.82-12.16,20.61-83.84,4.44,1a1.58,1.58,0,0,0,1.18-.2,1.53,1.53,0,0,0,.67-.94l1.28-5.17a1.5,1.5,0,0,0-1.12-1.83l-5.9-1.35,5.07-20.62a4.51,4.51,0,0,0-3.37-5.47l-3-.68a4.67,4.67,0,0,0-5.55,3.41l-5.08,20.63-5.93-1.37a1.56,1.56,0,0,0-1.86,1.14l-1.27,5.17a1.51,1.51,0,0,0,1.13,1.83l4.44,1-20.6,83.84Z"/><path class="cls-2" d="M260,322.31l-2.4-9.32L278,229.89l8.89,2.05L266.45,315Z"/><path class="cls-3" d="M293.53,230.34l-20.75-4.77.54-2.21,20.75,4.77Z"/><path class="cls-4" d="M287.42,223.47l-5.93-1.37.89-3.64,5.94,1.36Zm1.63-6.61-5.94-1.37.72-3,5.95,1.37Zm1.46-5.92-5.95-1.36.72-2.93,5.94,1.37Zm1.44-5.89L286,203.69l.54-2.21a1.53,1.53,0,0,1,1.85-1.14l3,.69a1.46,1.46,0,0,1,1.12,1.81Z"/><path class="cls-1" d="M263.47,314.48l20.82-84.71-3-.68L260.49,313.8Z"/><path class="cls-1" d="M236.42,327.62,248.67,314l24-93.15,5,1.08a1.76,1.76,0,0,0,1.32-.24,1.74,1.74,0,0,0,.76-1l1.49-5.75a1.63,1.63,0,0,0-1.24-2l-6.58-1.44,5.89-22.91a4.9,4.9,0,0,0-3.71-6l-3.32-.72a5.35,5.35,0,0,0-6.25,3.85l-5.9,22.91-6.63-1.45a1.78,1.78,0,0,0-2.09,1.29l-1.48,5.74a1.63,1.63,0,0,0,1.24,2l5,1.09-24,93.15Z"/><path class="cls-2" d="M238.23,320.61l-2.6-10.3L259.38,218l9.93,2.17-23.75,92.34Z"/><path class="cls-3" d="M276.78,218.3l-23.17-5.06.62-2.46,23.18,5.07Z"/><path class="cls-4" d="M270,210.75l-6.63-1.45,1-4.05,6.63,1.45Zm1.89-7.35L265.28,202l.84-3.27,6.64,1.45Zm1.69-6.57L267,195.38l.83-3.25,6.64,1.45Zm1.69-6.55-6.64-1.44.63-2.46a1.75,1.75,0,0,1,2.08-1.28l3.32.73a1.6,1.6,0,0,1,1.24,2Z"/><path class="cls-1" d="M242.22,311.89l24.22-94.12-3.32-.73L238.9,311.17Z"/><path class="cls-1" d="M226.82,49.62,220.3,64.39l7.94,88.47-4.68.09a1.48,1.48,0,0,0-1.09.5,1.42,1.42,0,0,0-.34,1.09l.48,5.46a1.71,1.71,0,0,0,1.71,1.54l6.22-.12,2,21.77a5.15,5.15,0,0,0,5.12,4.6l3.15-.06a4.33,4.33,0,0,0,4.28-4.77l-2-21.77,6.27-.11a1.43,1.43,0,0,0,1.43-1.59l-.49-5.46a1.73,1.73,0,0,0-1.72-1.54l-4.69.09L236,64.11Z"/><path class="cls-2" d="M227.41,56.28,232.89,65l7.88,87.69-9.39.17-7.87-87.69Z"/><path class="cls-3" d="M225.41,156.05l21.9-.4.21,2.33-21.91.4Z"/><path class="cls-4" d="M233.68,161.37l6.27-.11.35,3.84-6.27.11Zm.63,7,6.27-.11.28,3.11-6.27.11Zm.56,6.24,6.27-.11.28,3.08-6.28.12Zm.56,6.22,6.27-.12.21,2.34a1.4,1.4,0,0,1-1.42,1.58l-3.15.06a1.67,1.67,0,0,1-1.7-1.53Z"/><path class="cls-1" d="M226.62,64.94l8,89.38,3.14-.06-8-89.39Z"/><path class="cls-1" d="M231.18,4.13l-7.56,14.4,1,87.7-4.62-.06a1.52,1.52,0,0,0-1.54,1.54l.06,5.41a1.6,1.6,0,0,0,1.57,1.57l6.14.07.26,21.57a4.8,4.8,0,0,0,4.7,4.7l3.1,0a4.54,4.54,0,0,0,4.59-4.59l-.25-21.58,6.19.08a1.52,1.52,0,0,0,1.54-1.54l-.07-5.41a1.6,1.6,0,0,0-1.57-1.57l-4.63,0-1-87.69Z"/><path class="cls-2" d="M231.26,10.72,236,19.45l1,86.92-9.26-.11-1-86.91Z"/><path class="cls-3" d="M221.61,109.29l21.62.25,0,2.31-21.63-.25Z"/><path class="cls-4" d="M229.36,114.79l6.19.08,0,3.81-6.2-.07Zm.08,6.92,6.19.07,0,3.08-6.2-.07Zm.07,6.18,6.19.08,0,3.05-6.2-.07Zm.07,6.17,6.19.07,0,2.31a1.47,1.47,0,0,1-1.53,1.52l-3.1,0a1.56,1.56,0,0,1-1.56-1.57Z"/><path class="cls-1" d="M229.81,19.26l1,88.6,3.1,0-1-88.6Z"/><path class="cls-1" d="M202.32,33l-6.41,12.44,1.87,76.22-4-.1a1.28,1.28,0,0,0-1,.39,1.26,1.26,0,0,0-.35.93l.11,4.7a1.42,1.42,0,0,0,1.38,1.38l5.34.13.46,18.75a4.31,4.31,0,0,0,4.14,4.14l2.69.06a3.81,3.81,0,0,0,3.94-3.93l-.46-18.76,5.38.14a1.27,1.27,0,0,0,1.32-1.32l-.12-4.7a1.44,1.44,0,0,0-1.38-1.38l-4-.1-1.87-76.22Z"/><path class="cls-2" d="M202.45,38.72l4.22,7.65,1.86,75.55-8.05-.2-1.86-75.55Z"/><path class="cls-3" d="M195.18,124.28l18.79.46.05,2-18.8-.47Z"/><path class="cls-4" d="M202,129.15l5.38.13.09,3.31-5.39-.13Zm.15,6,5.38.13.07,2.68-5.38-.13Zm.13,5.37,5.39.14.06,2.65-5.38-.13Zm.14,5.36,5.38.13,0,2a1.25,1.25,0,0,1-1.31,1.31l-2.7-.07a1.39,1.39,0,0,1-1.37-1.37Z"/><path class="cls-1" d="M201.29,46.13l1.9,77,2.69.06-1.9-77Z"/><path class="cls-1" d="M246.27,285.29l-.66-15.71-43-72.62,3.87-2.22a1.48,1.48,0,0,0,.53-2l-2.65-4.48a1.52,1.52,0,0,0-2.06-.54l-5.13,2.94-10.58-17.86a4.57,4.57,0,0,0-6.16-1.62l-2.59,1.49a4.41,4.41,0,0,0-1.6,6.07l10.59,17.87-5.17,3a1.47,1.47,0,0,0-.54,2l2.66,4.48a1.52,1.52,0,0,0,2.06.54l3.86-2.22,43,72.62Z"/><path class="cls-2" d="M243,279.83l-8.13-5-42.66-72,7.73-4.43,42.66,72Z"/><path class="cls-3" d="M203.62,192.92l-18.05,10.36-1.14-1.91L202.49,191Z"/><path class="cls-4" d="M194.55,192.12l-5.17,3-1.88-3.15,5.18-3Zm-3.4-5.73-5.17,3-1.51-2.55,5.17-3Zm-3-5.12-5.17,3-1.5-2.53,5.17-3Zm-3-5.1-5.16,3-1.14-1.92a1.42,1.42,0,0,1,.53-2l2.59-1.49a1.49,1.49,0,0,1,2.05.54Z"/><path class="cls-1" d="M240.13,272l-43.48-73.37-2.59,1.49,43.48,73.37Z"/><path class="cls-1" d="M229.74,342.81l10.15-7.33L269.25,275l3.17,1.59a1.14,1.14,0,0,0,.92.06,1.18,1.18,0,0,0,.67-.59l1.81-3.73a1.22,1.22,0,0,0-.54-1.61l-4.21-2.11,7.22-14.88a3.63,3.63,0,0,0-1.62-4.8l-2.13-1.07a3.53,3.53,0,0,0-4.74,1.6l-7.22,14.88-4.24-2.13a1.16,1.16,0,0,0-1.58.53L255,266.48a1.2,1.2,0,0,0,.54,1.6l3.17,1.6L229.3,330.15Z"/><path class="cls-2" d="M232,338.27l-.27-7.58,29.1-59.95,6.35,3.19L238,333.87Z"/><path class="cls-3" d="M272.4,273.92l-14.81-7.44.77-1.6,14.81,7.45Z"/><path class="cls-4" d="M269,267.54l-4.24-2.13,1.27-2.63,4.24,2.13Zm2.31-4.77L267,260.64l1-2.13,4.24,2.14Zm2.07-4.26-4.24-2.13,1-2.11,4.24,2.13Zm2.07-4.25-4.25-2.13.78-1.6a1.14,1.14,0,0,1,1.57-.53l2.13,1.07a1.19,1.19,0,0,1,.54,1.6Z"/><path class="cls-1" d="M235.87,332.9l29.67-61.1-2.12-1.07-29.67,61.11Z"/><path class="cls-1" d="M234.77,324.69l7.86-13.62,2.56-84.37,4.45.19a1.48,1.48,0,0,0,1.08-.4,1.53,1.53,0,0,0,.46-1l.16-5.21a1.53,1.53,0,0,0-1.45-1.56l-5.91-.26.63-20.75a4.57,4.57,0,0,0-4.33-4.67l-3-.13a4.43,4.43,0,0,0-4.61,4.27l-.63,20.76-5.95-.27a1.48,1.48,0,0,0-1.54,1.43l-.15,5.21a1.5,1.5,0,0,0,1.44,1.55l4.46.2-2.56,84.37Z"/><path class="cls-2" d="M235,318.35l-4.2-8.55,2.53-83.63,8.91.4-2.54,83.62Z"/><path class="cls-3" d="M248.23,223.85l-20.79-.92.06-2.22,20.81.91Z"/><path class="cls-4" d="M241,218.31l-5.95-.26.11-3.67,6,.26Zm.2-6.65-5.95-.27.09-3,6,.26Zm.19-5.95-6-.26.09-2.95,6,.26Zm.17-5.93-5.95-.26.07-2.23a1.44,1.44,0,0,1,1.53-1.42l3,.13a1.49,1.49,0,0,1,1.44,1.56Z"/><path class="cls-1" d="M236.71,310.18l2.58-85.24-3-.13-2.58,85.25Z"/><path class="cls-1" d="M67.85,161.82l3.37,10.78,37.46,41L107,216a1.23,1.23,0,0,0-.2.79,1.26,1.26,0,0,0,.3.74l2.31,2.53a.76.76,0,0,0,1.23-.08l2.24-3.18,9.22,10.09a2.27,2.27,0,0,0,3.68-.23l1.13-1.61a3.85,3.85,0,0,0-.29-4.58L117.4,210.4l2.26-3.2a1.28,1.28,0,0,0-.1-1.53l-2.31-2.53a.76.76,0,0,0-1.23.08l-1.69,2.39-37.47-41Z"/><path class="cls-2" d="M70.66,164.91l5.4,1.66,37.14,40.65-3.38,4.8L72.68,171.36Z"/><path class="cls-3" d="M108.88,216.66l7.9-11.19,1,1.08-7.9,11.19Z"/><path class="cls-4" d="M114,215.21l2.27-3.2,1.62,1.78L115.63,217Zm3,3.24,2.26-3.2,1.32,1.44-2.26,3.2Zm2.64,2.89,2.26-3.2,1.31,1.43-2.26,3.2Zm2.64,2.89,2.25-3.21,1,1.08a1.25,1.25,0,0,1,.1,1.52l-1.13,1.61a.75.75,0,0,1-1.23.07Z"/><path class="cls-1" d="M73.75,169.71l37.86,41.44,1.13-1.61L74.88,168.1Z"/><path class="cls-1" d="M57.62,221l2.77,15.24,54.33,66.22L111,305a1.43,1.43,0,0,0-.6,1,1.36,1.36,0,0,0,.32,1.05l3.35,4.09a1.66,1.66,0,0,0,2.2.31l4.94-3.41,13.36,16.29a5,5,0,0,0,6.62.93l2.49-1.72a4.13,4.13,0,0,0,.86-6.09l-13.37-16.29,5-3.43a1.38,1.38,0,0,0,.29-2l-3.36-4.08a1.67,1.67,0,0,0-2.21-.31l-3.72,2.57L72.82,227.65Z"/><path class="cls-2" d="M61.71,226l9.1,4,53.85,65.64-7.45,5.14L63.36,235.1Z"/><path class="cls-3" d="M114.17,306.5l17.38-12,1.43,1.74-17.38,12Z"/><path class="cls-4" d="M123.7,306.32l5-3.43,2.36,2.87-5,3.44Zm4.29,5.22,5-3.43,1.91,2.32-5,3.44Zm3.83,4.68,5-3.44,1.89,2.31-5,3.44Zm3.82,4.65,5-3.44,1.43,1.75a1.34,1.34,0,0,1-.28,2l-2.49,1.72a1.65,1.65,0,0,1-2.2-.31Z"/><path class="cls-1" d="M65.76,233.29l54.89,66.91,2.5-1.72-54.9-66.91Z"/><path class="cls-1" d="M412.45,234.72l-15.2,3-65.39,55.33-2.62-3.68a1.45,1.45,0,0,0-1-.59,1.38,1.38,0,0,0-1.05.34l-4,3.41a1.66,1.66,0,0,0-.27,2.21l3.48,4.88-16.08,13.61a5,5,0,0,0-.83,6.63l1.76,2.47a4.11,4.11,0,0,0,6.09.76l16.09-13.61,3.51,4.93a1.38,1.38,0,0,0,2,.25l4-3.41a1.68,1.68,0,0,0,.28-2.22l-2.62-3.68L406,250Z"/><path class="cls-2" d="M407.53,238.88,403.69,248l-64.81,54.85-5.26-7.37,64.81-54.84Z"/><path class="cls-3" d="M327.81,292.56l12.26,17.2-1.72,1.46L326.08,294Z"/><path class="cls-4" d="M328.13,302.09l3.51,4.93-2.84,2.4-3.51-4.92ZM323,306.45l3.51,4.93-2.29,1.94-3.52-4.92Zm-4.61,3.9,3.51,4.93-2.28,1.93-3.51-4.93Zm-4.59,3.9,3.51,4.92-1.72,1.46a1.34,1.34,0,0,1-2-.26l-1.76-2.46a1.65,1.65,0,0,1,.28-2.21Z"/><path class="cls-1" d="M400.27,243.05,334.21,299l1.76,2.47L402,245.51Z"/><path class="cls-1" d="M401.39,150.51,390.2,161.22,364.86,243l-4.19-1.68a1.36,1.36,0,0,0-1.15,0,1.39,1.39,0,0,0-.7.85l-1.57,5a1.68,1.68,0,0,0,1,2l5.56,2.24-6.23,20.13a5.05,5.05,0,0,0,2.87,6l2.81,1.13a4.12,4.12,0,0,0,5.55-2.64L375,256.06l5.61,2.26a1.37,1.37,0,0,0,1.85-.88l1.56-5.05a1.66,1.66,0,0,0-1-2l-4.19-1.7,25.32-81.82Z"/><path class="cls-2" d="M399.48,156.66l1.69,9.79-25.1,81.11-8.4-3.39,25.11-81.1Z"/><path class="cls-3" d="M361.18,244.81l19.6,7.89-.67,2.16L360.51,247Z"/><path class="cls-4" d="M366.58,252.67l5.61,2.26-1.1,3.56-5.61-2.26Zm-2,6.45,5.6,2.26-.88,2.88L363.69,262Zm-1.79,5.77,5.61,2.26-.88,2.86-5.62-2.26ZM361,270.65l5.61,2.25-.67,2.16a1.35,1.35,0,0,1-1.84.88l-2.81-1.14a1.64,1.64,0,0,1-1-2Z"/><path class="cls-1" d="M395.61,164.08,370,246.75l2.81,1.13,25.6-82.67Z"/><path class="cls-1" d="M401.39,182.51l-8.49,8-19.77,60.28-3.13-1.2a1.07,1.07,0,0,0-.86,0,1.1,1.1,0,0,0-.53.63l-1.23,3.72a1.19,1.19,0,0,0,.7,1.47l4.15,1.59-4.86,14.82a3.58,3.58,0,0,0,2.09,4.4l2.09.8a3.18,3.18,0,0,0,4.19-2l4.86-14.83,4.18,1.6a1.06,1.06,0,0,0,1.4-.66l1.22-3.72a1.19,1.19,0,0,0-.7-1.47l-3.13-1.2,19.77-60.27Z"/><path class="cls-2" d="M399.9,187l1.17,7.17L381.48,254l-6.26-2.4,19.6-59.74Z"/><path class="cls-3" d="M370.36,252.08l14.6,5.6-.52,1.59-14.61-5.6Z"/><path class="cls-4" d="M374.33,257.79l4.18,1.61-.86,2.61-4.18-1.6Zm-1.56,4.75,4.18,1.61-.7,2.12-4.18-1.61Zm-1.4,4.25,4.18,1.61-.69,2.1-4.18-1.6ZM370,271l4.18,1.6-.52,1.59a1,1,0,0,1-1.39.66l-2.09-.8a1.17,1.17,0,0,1-.7-1.46Z"/><path class="cls-1" d="M396.93,192.52l-20,60.9,2.1.8,20-60.9Z"/><path class="cls-1" d="M394.3,180.9l-10.38,5.26L348,238.45l-2.66-2a1,1,0,0,0-.83-.2,1.09,1.09,0,0,0-.7.45l-2.22,3.22a1.2,1.2,0,0,0,.26,1.61l3.54,2.69-8.83,12.86a3.58,3.58,0,0,0,.77,4.81l1.78,1.36a3.18,3.18,0,0,0,4.58-.73l8.83-12.87,3.56,2.72a1.06,1.06,0,0,0,1.53-.25l2.22-3.23a1.19,1.19,0,0,0-.26-1.6l-2.67-2,35.9-52.3Z"/><path class="cls-2" d="M391.6,184.83l-.89,7.2-35.58,51.84-5.33-4.06L385.38,188Z"/><path class="cls-3" d="M345,239l12.44,9.48-.94,1.38L344,240.33Z"/><path class="cls-4" d="M347.18,245.55l3.56,2.71-1.55,2.28-3.57-2.72Zm-2.83,4.12,3.56,2.72-1.26,1.83-3.56-2.71Zm-2.53,3.69,3.56,2.71-1.25,1.83-3.56-2.72ZM339.3,257l3.56,2.71-.95,1.38a1,1,0,0,1-1.52.24L338.61,260a1.18,1.18,0,0,1-.26-1.6Z"/><path class="cls-1" d="M387.21,189.25l-36.28,52.84,1.79,1.36L389,190.61Z"/><path class="cls-1" d="M411.49,215l-11,3.87L358.12,266l-2.37-2.35a1.08,1.08,0,0,0-.8-.32,1.05,1.05,0,0,0-.75.36l-2.62,2.91a1.19,1.19,0,0,0,.05,1.62l3.16,3.13L344.36,283a3.59,3.59,0,0,0,.14,4.87l1.6,1.58a3.19,3.19,0,0,0,4.63-.14l10.43-11.61,3.18,3.16a1.06,1.06,0,0,0,1.54-.05l2.62-2.91a1.19,1.19,0,0,0-.05-1.62l-2.38-2.36,42.38-47.2Z"/><path class="cls-2" d="M408.3,218.53l-1.82,7-42,46.78-4.76-4.72,42-46.78Z"/><path class="cls-3" d="M355.05,266.14l11.11,11L365,278.4l-11.11-11Z"/><path class="cls-4" d="M356.38,273l3.18,3.15-1.84,2.06L354.54,275ZM353,276.69l3.18,3.16-1.49,1.66-3.18-3.16Zm-3,3.33,3.18,3.15-1.48,1.65-3.18-3.15Zm-3,3.32,3.18,3.15-1.12,1.24a1,1,0,0,1-1.53,0L346,286.2a1.17,1.17,0,0,1-.05-1.62Z"/><path class="cls-1" d="M403.37,222.34,360.55,270l1.59,1.58L405,223.92Z"/><path class="cls-1" d="M216.46,310.83l-4.92-10.55-51.11-37.57,2.12-2.6a1.06,1.06,0,0,0,.23-.82,1,1,0,0,0-.43-.71l-3.15-2.32a1.18,1.18,0,0,0-1.61.2l-2.81,3.45-12.57-9.24a3.59,3.59,0,0,0-4.83.61L136,253a3.18,3.18,0,0,0,.58,4.6l12.57,9.25-2.83,3.47a1.05,1.05,0,0,0,.2,1.53l3.15,2.32a1.2,1.2,0,0,0,1.62-.21l2.11-2.59L204.48,309Z"/><path class="cls-2" d="M212.62,308l-7.18-1.12-50.66-37.24,4.24-5.2,50.65,37.24Z"/><path class="cls-3" d="M160,259.66l-9.87,12.13-1.35-1,9.88-12.13Z"/><path class="cls-4" d="M153.37,261.65l-2.83,3.47-2.22-1.63,2.83-3.47Zm-4-3-2.83,3.47-1.8-1.32,2.83-3.48ZM145.73,256l-2.82,3.48-1.79-1.31,2.83-3.48Zm-3.59-2.63-2.82,3.47-1.35-1a1,1,0,0,1-.2-1.53l1.42-1.74a1.16,1.16,0,0,1,1.61-.2Z"/><path class="cls-1" d="M208.34,303.47l-51.64-38-1.41,1.74,51.64,38Z"/><path class="cls-1" d="M245.76,261.07l11.61-.79,53.47-34.13,1.66,2.9a1.11,1.11,0,0,0,.68.52,1.09,1.09,0,0,0,.82-.15l3.3-2.1a1.19,1.19,0,0,0,.39-1.58l-2.21-3.86,13.16-8.39a3.59,3.59,0,0,0,1.16-4.73l-1.11-1.95a3.19,3.19,0,0,0-4.5-1.11L311,214.1l-2.21-3.89a1.06,1.06,0,0,0-1.51-.37l-3.29,2.1a1.18,1.18,0,0,0-.39,1.58l1.66,2.91-53.46,34.14Z"/><path class="cls-2" d="M249.78,258.5l3.63-6.29,53-33.83,3.32,5.82-53,33.83Z"/><path class="cls-3" d="M313.83,226.87l-7.76-13.58,1.41-.9L315.24,226Z"/><path class="cls-4" d="M314.37,219.93l-2.22-3.88,2.32-1.49,2.23,3.89Zm4.22-2.69-2.22-3.89,1.87-1.2,2.23,3.89Zm3.77-2.4L320.14,211l1.86-1.19,2.22,3.89Zm3.76-2.41-2.23-3.88,1.41-.9a1,1,0,0,1,1.5.37l1.11,1.94a1.18,1.18,0,0,1-.39,1.58Z"/><path class="cls-1" d="M255.55,256.14l54-34.48-1.11-1.95-54,34.49Z"/><path class="cls-1" d="M261.82,357.49l12-7.46,39.83-79,3.25,3.35a1.15,1.15,0,0,0,1,.38,1.18,1.18,0,0,0,.8-.66l2.46-4.87a2.33,2.33,0,0,0-.39-2.52l-4.32-4.44,9.8-19.42a7.07,7.07,0,0,0-1.15-7.55l-2.18-2.24a3.15,3.15,0,0,0-5.38.82l-9.8,19.43-4.35-4.48a1,1,0,0,0-1.8.27L299.16,254a2.35,2.35,0,0,0,.38,2.52l3.26,3.35-39.83,79Z"/><path class="cls-2" d="M264.81,351.56l.69-11.16L305,262.12l6.51,6.71L272,347.09Z"/><path class="cls-3" d="M317.24,270.5,302,254.87l1-2.09,15.21,15.65Z"/><path class="cls-4" d="M314.29,260.07l-4.35-4.48,1.73-3.43,4.36,4.48Zm3.15-6.22-4.35-4.48,1.39-2.78,4.36,4.48Zm2.81-5.57-4.36-4.48,1.39-2.76,4.36,4.48Zm2.79-5.56-4.35-4.47,1.05-2.08a1,1,0,0,1,1.79-.28l2.18,2.25a2.29,2.29,0,0,1,.38,2.51Z"/><path class="cls-1" d="M269.79,345,310,265.2,307.85,263l-40.24,79.78Z"/><path class="cls-1" d="M243.11,78.29,240,89.5l14.31,61.79-3.29.6a1,1,0,0,0-.85,1.29L251,157a1.18,1.18,0,0,0,1.35.9l4.38-.79,3.52,15.2a3.59,3.59,0,0,0,4.06,2.68l2.21-.4a3.18,3.18,0,0,0,2.55-3.87l-3.52-15.21,4.41-.79a1.06,1.06,0,0,0,.85-1.29l-.88-3.81a1.19,1.19,0,0,0-1.36-.9l-3.3.6L251,87.51Z"/><path class="cls-2" d="M244.18,82.93l4.72,5.52,14.19,61.26-6.6,1.18L242.31,89.64Z"/><path class="cls-3" d="M252.6,153.87,268,151.1l.38,1.62L253,155.5Z"/><path class="cls-4" d="M259,156.7l4.41-.79.63,2.68-4.41.8Zm1.13,4.87,4.41-.79L265,163l-4.4.8Zm1,4.36,4.41-.79.5,2.15-4.41.8Zm1,4.35,4.41-.8.37,1.63a1,1,0,0,1-.84,1.28l-2.21.4a1.19,1.19,0,0,1-1.36-.89Z"/><path class="cls-1" d="M244.48,89.16l14.46,62.44,2.2-.4L246.68,88.76Z"/><path class="cls-1" d="M79.16,162.7l-2,11.47,20.5,60-3.22.92a1.07,1.07,0,0,0-.66.55,1,1,0,0,0-.05.83L95,240.2a1.18,1.18,0,0,0,1.44.75l4.27-1.23,5,14.77a3.59,3.59,0,0,0,4.32,2.25l2.15-.62a3.18,3.18,0,0,0,2.15-4.1l-5-14.77,4.3-1.24a1.05,1.05,0,0,0,.72-1.37l-1.27-3.7a1.19,1.19,0,0,0-1.44-.76l-3.22.93-20.5-60Z"/><path class="cls-2" d="M80.7,167.21l5.25,5,20.32,59.5-6.45,1.85-20.31-59.5Z"/><path class="cls-3" d="M96.26,236.93l15-4.32.54,1.58-15,4.32Z"/><path class="cls-4" d="M102.86,239.1l4.31-1.23.89,2.61-4.3,1.23Zm1.62,4.74,4.3-1.24.73,2.11L105.2,246Zm1.45,4.23,4.3-1.24.72,2.1-4.31,1.24Zm1.44,4.22,4.3-1.24.54,1.59a1,1,0,0,1-.71,1.36l-2.16.62a1.16,1.16,0,0,1-1.43-.75Z"/><path class="cls-1" d="M81.62,173.38,102.33,234l2.16-.62L83.77,172.76Z"/><path class="cls-1" d="M248.55,49.46l-4.12,10.89,8.76,62.82-3.33.3a1.11,1.11,0,0,0-.76.41,1.06,1.06,0,0,0-.2.81l.53,3.87a1.19,1.19,0,0,0,1.27,1l4.43-.39,2.16,15.45a3.59,3.59,0,0,0,3.81,3l2.23-.2a3.19,3.19,0,0,0,2.89-3.63l-2.16-15.46,4.46-.39a1.07,1.07,0,0,0,1-1.21l-.55-3.88a1.18,1.18,0,0,0-1.27-1l-3.34.29-8.76-62.82Z"/><path class="cls-2" d="M249.21,54.19l4.2,5.92,8.69,62.27-6.67.59-8.69-62.26Z"/><path class="cls-3" d="M251.29,125.59l15.58-1.39.23,1.65-15.59,1.4Z"/><path class="cls-4" d="M257.36,129l4.47-.39.38,2.73-4.46.4Zm.69,5,4.47-.4.31,2.21-4.47.4Zm.62,4.43,4.47-.4.3,2.19-4.46.4Zm.62,4.42,4.46-.41L264,144a1,1,0,0,1-1,1.21l-2.23.2a1.18,1.18,0,0,1-1.27-1Z"/><path class="cls-1" d="M249,60.42l8.85,63.47,2.23-.2-8.85-63.48Z"/><path class="cls-1" d="M165.25,71.2l-6.5,9.65L152.89,144l-3.31-.47a1.06,1.06,0,0,0-1.22,1l-.36,3.89a1.19,1.19,0,0,0,1,1.28l4.4.63L152,165.83a3.57,3.57,0,0,0,3,3.82l2.23.32a3.17,3.17,0,0,0,3.63-2.87l1.44-15.54,4.44.64a1.07,1.07,0,0,0,1.21-1l.36-3.9a1.19,1.19,0,0,0-1-1.28l-3.31-.47,5.85-63.16Z"/><path class="cls-2" d="M164.81,75.94l2.74,6.73-5.8,62.61-6.64-.95,5.8-62.61Z"/><path class="cls-3" d="M150.49,145.93,166,148.14l-.15,1.66-15.49-2.21Z"/><path class="cls-4" d="M155.63,150.61l4.43.64-.25,2.74-4.44-.63Zm-.47,5,4.44.64-.21,2.22-4.43-.64Zm-.41,4.46,4.44.63-.21,2.2-4.43-.63Zm-.41,4.44,4.44.63-.16,1.66a1,1,0,0,1-1.21,1l-2.22-.32a1.17,1.17,0,0,1-1-1.27Z"/><path class="cls-1" d="M163.13,82l-5.92,63.81,2.22.32,5.92-63.82Z"/><path class="cls-1" d="M87.08,164.09l-2.44,11.38,18.1,60.79-3.26.8a1.07,1.07,0,0,0-.77,1.34l1.12,3.75a1.18,1.18,0,0,0,1.41.81l4.31-1.05,4.46,15a3.57,3.57,0,0,0,4.22,2.42l2.18-.53a3.18,3.18,0,0,0,2.3-4l-4.45-15,4.35-1.06a1.05,1.05,0,0,0,.77-1.34l-1.11-3.75a1.19,1.19,0,0,0-1.41-.81l-3.26.79L95.5,172.81Z"/><path class="cls-2" d="M88.44,168.66l5,5.22,18,60.26-6.52,1.59L87,175.47Z"/><path class="cls-3" d="M101.22,238.94l15.19-3.72.48,1.6-15.2,3.72Z"/><path class="cls-4" d="M107.73,241.37l4.35-1.06.79,2.64L108.52,244Zm1.43,4.8,4.35-1.07.64,2.14-4.36,1.06Zm1.27,4.29,4.36-1.07.63,2.12-4.35,1.07Zm1.28,4.27,4.35-1.07.47,1.6a1,1,0,0,1-.76,1.34l-2.18.53a1.18,1.18,0,0,1-1.41-.8Z"/><path class="cls-1" d="M89.12,174.86l18.28,61.42,2.18-.53L91.29,174.32Z"/><path class="cls-1" d="M340.25,62.2l-6.5,9.65L327.89,135l-3.31-.47a1.06,1.06,0,0,0-1.22,1l-.36,3.89a1.19,1.19,0,0,0,1,1.28l4.4.63L327,156.83a3.57,3.57,0,0,0,3,3.82l2.23.32a3.17,3.17,0,0,0,3.63-2.87l1.44-15.54,4.44.64a1.07,1.07,0,0,0,1.21-1l.36-3.9a1.19,1.19,0,0,0-1-1.28l-3.31-.47,5.85-63.16Z"/><path class="cls-2" d="M339.81,66.94l2.74,6.73-5.8,62.61-6.64-.95,5.8-62.61Z"/><path class="cls-3" d="M325.49,136.93,341,139.14l-.15,1.66-15.49-2.21Z"/><path class="cls-4" d="M330.63,141.61l4.43.64-.25,2.74-4.44-.63Zm-.47,5,4.44.64-.21,2.22-4.43-.64Zm-.41,4.46,4.44.63-.21,2.2-4.43-.63Zm-.41,4.44,4.44.63-.16,1.66a1,1,0,0,1-1.21,1l-2.22-.32a1.17,1.17,0,0,1-1-1.27Z"/><path class="cls-1" d="M338.13,73l-5.92,63.81,2.22.32,5.92-63.82Z"/><path class="cls-1" d="M201.92,0l-5.37,15.36L210.4,102l-4.59.62a1.51,1.51,0,0,0-1.29,1.75l.85,5.34a1.59,1.59,0,0,0,1.78,1.32l6.09-.83,3.41,21.3a4.8,4.8,0,0,0,5.33,4l3.08-.42a4.55,4.55,0,0,0,3.87-5.22l-3.41-21.3,6.14-.83a1.52,1.52,0,0,0,1.29-1.75l-.86-5.34a1.59,1.59,0,0,0-1.78-1.32l-4.59.62L211.87,13.28Z"/><path class="cls-2" d="M203,6.51l6,8,13.73,85.83-9.18,1.25L199.74,15.71Z"/><path class="cls-3" d="M207.84,105.43l21.43-2.91.37,2.28-21.44,2.91Z"/><path class="cls-4" d="M216.31,109.74l6.14-.83.6,3.76-6.14.84Zm1.09,6.83,6.14-.83.49,3-6.14.84Zm1,6.11,6.14-.84.48,3-6.14.84Zm1,6.09,6.14-.84.36,2.28a1.47,1.47,0,0,1-1.28,1.73l-3.07.42a1.56,1.56,0,0,1-1.78-1.32Z"/><path class="cls-1" d="M202.77,15.17l14,87.49,3.07-.42-14-87.49Z"/><path class="cls-1" d="M179,9.75l-4.49,15.64,18.77,85.66-4.54.89a1.5,1.5,0,0,0-1,.67,1.53,1.53,0,0,0-.2,1.14l1.15,5.29a1.61,1.61,0,0,0,1.86,1.22l6-1.18,4.62,21.07a4.79,4.79,0,0,0,5.55,3.65l3-.59a4.53,4.53,0,0,0,3.56-5.42l-4.61-21.08,6.08-1.18a1.52,1.52,0,0,0,1.19-1.81l-1.17-5.29a1.59,1.59,0,0,0-1.85-1.22l-4.55.88L189.67,22.43Z"/><path class="cls-2" d="M180.38,16.19l6.41,7.59,18.61,84.91-9.09,1.77L177.7,25.55Z"/><path class="cls-3" d="M190.91,114.67l21.23-4.14.49,2.26-21.23,4.13Z"/><path class="cls-4" d="M199.61,118.49l6.08-1.18.82,3.72-6.08,1.18Zm1.48,6.75,6.08-1.18.66,3-6.08,1.19Zm1.32,6,6.09-1.19.65,3-6.08,1.18Zm1.33,6,6.07-1.19.5,2.26a1.48,1.48,0,0,1-1.19,1.8l-3,.59a1.56,1.56,0,0,1-1.85-1.21Z"/><path class="cls-1" d="M180.7,24.84l19,86.55,3.05-.59-19-86.56Z"/><path class="cls-1" d="M153.94,18.05,150.62,34l25.07,84-4.46,1.22a1.5,1.5,0,0,0-.94.74,1.53,1.53,0,0,0-.12,1.15l1.55,5.19a1.6,1.6,0,0,0,1.94,1.08l5.92-1.62,6.17,20.67a4.81,4.81,0,0,0,5.81,3.23l3-.82a4.53,4.53,0,0,0,3.16-5.67l-6.17-20.68,6-1.63a1.51,1.51,0,0,0,1-1.89L197,113.8a1.6,1.6,0,0,0-1.94-1.08l-4.47,1.22-25.07-84Z"/><path class="cls-2" d="M155.82,24.37l7,7.09,24.85,83.3-8.94,2.44L153.83,33.9Z"/><path class="cls-3" d="M173.61,121.8l20.86-5.7.67,2.21L174.27,124Z"/><path class="cls-4" d="M182.57,125l6-1.63,1.09,3.65-6,1.63Zm2,6.63,6-1.63.89,2.95-6,1.63Zm1.77,5.93,6-1.64.88,2.93-6,1.64Zm1.76,5.9,6-1.63.67,2.21a1.49,1.49,0,0,1-1.05,1.89l-3,.82a1.57,1.57,0,0,1-1.94-1.08Z"/><path class="cls-1" d="M156.77,33l25.33,84.91,3-.81L159.76,32.15Z"/><path class="cls-1" d="M135.14,29.29l-3.13,16L158.08,129l-4.45,1.27a1.52,1.52,0,0,0-.93.75,1.56,1.56,0,0,0-.1,1.16l1.6,5.16a1.61,1.61,0,0,0,2,1.06l5.9-1.69,6.42,20.6a4.81,4.81,0,0,0,5.85,3.16l3-.86a4.53,4.53,0,0,0,3.08-5.71L174,133.3l6-1.7a1.52,1.52,0,0,0,1-1.91l-1.61-5.16a1.61,1.61,0,0,0-2-1.06L173,124.74,146.88,41Z"/><path class="cls-2" d="M137.09,35.59l7,7,25.84,83-8.91,2.54-25.84-83Z"/><path class="cls-3" d="M156.05,132.8l20.79-5.94.69,2.2L156.73,135Z"/><path class="cls-4" d="M165.05,135.86l5.95-1.7,1.13,3.63-5.95,1.71Zm2,6.6,6-1.7.92,2.94L168,145.4Zm1.84,5.91,5.95-1.71.91,2.92-6,1.71Zm1.83,5.88,5.95-1.7.69,2.2a1.47,1.47,0,0,1-1,1.9l-3,.85a1.56,1.56,0,0,1-1.94-1.05Z"/><path class="cls-1" d="M138.15,44.18l26.34,84.6,3-.85L141.13,43.32Z"/><path class="cls-1" d="M115.39,50.78,113.92,67l34.49,80.63-4.29,1.72a1.51,1.51,0,0,0-.85.85,1.48,1.48,0,0,0,0,1.15l2.12,5a1.6,1.6,0,0,0,2.05.85l5.7-2.28,8.49,19.83a4.8,4.8,0,0,0,6.14,2.54l2.88-1.15a4.54,4.54,0,0,0,2.49-6l-8.49-19.84,5.75-2.3a1.5,1.5,0,0,0,.83-2l-2.13-5a1.59,1.59,0,0,0-2.05-.85l-4.3,1.72-34.5-80.63Z"/><path class="cls-2" d="M118,56.84l7.71,6.26L159.9,143l-8.61,3.45L117.1,66.54Z"/><path class="cls-3" d="M146.78,151.6l20.07-8,.92,2.12-20.09,8Z"/><path class="cls-4" d="M156,153.72l5.75-2.3,1.5,3.5-5.75,2.31Zm2.72,6.36,5.75-2.3,1.22,2.83L160,162.92Zm2.44,5.69,5.75-2.31,1.2,2.82-5.75,2.3Zm2.42,5.67,5.75-2.31.91,2.13a1.48,1.48,0,0,1-.83,2l-2.88,1.15a1.55,1.55,0,0,1-2-.85Z"/><path class="cls-1" d="M119.91,65.28l34.85,81.46,2.88-1.15L122.78,64.12Z"/><path class="cls-1" d="M105,74.85l-.35,16.27,40,78-4.16,2a1.51,1.51,0,0,0-.69,2.06l2.46,4.81a1.59,1.59,0,0,0,2.1.71l5.54-2.68,9.84,19.2a4.8,4.8,0,0,0,6.3,2.11l2.8-1.35a4.54,4.54,0,0,0,2.06-6.15l-9.84-19.21,5.57-2.69a1.5,1.5,0,0,0,.69-2l-2.47-4.82a1.59,1.59,0,0,0-2.1-.7l-4.18,2-40-78Z"/><path class="cls-2" d="M108,80.72l8.13,5.7,39.67,77.35-8.35,4L107.77,90.46Z"/><path class="cls-3" d="M143.29,173.25l19.47-9.41,1.05,2-19.47,9.42Z"/><path class="cls-4" d="M152.68,174.72l5.57-2.69,1.74,3.39-5.57,2.7Zm3.15,6.16,5.58-2.7,1.41,2.74-5.58,2.7Zm2.82,5.5,5.58-2.69,1.4,2.72-5.58,2.7Zm2.82,5.49,5.57-2.7,1.06,2.06a1.48,1.48,0,0,1-.69,2l-2.79,1.35a1.56,1.56,0,0,1-2.1-.7Z"/><path class="cls-1" d="M110.49,89l40.43,78.85,2.79-1.35L113.28,87.65Z"/><path class="cls-1" d="M90.78,90.18l.77,16.26,45.25,75.12-4,2.29a1.55,1.55,0,0,0-.72,1,1.47,1.47,0,0,0,.18,1.14l2.78,4.64a1.61,1.61,0,0,0,2.15.56l5.33-3.05,11.14,18.48a4.81,4.81,0,0,0,6.43,1.68l2.7-1.54a4.53,4.53,0,0,0,1.63-6.28L153.27,182l5.38-3.07a1.5,1.5,0,0,0,.55-2.09l-2.8-4.64a1.6,1.6,0,0,0-2.15-.56l-4,2.3L105,98.77Z"/><path class="cls-2" d="M94.18,95.83l8.5,5.14,44.86,74.46-8,4.59L94.64,105.56Z"/><path class="cls-3" d="M135.73,185.74,154.51,175l1.19,2-18.78,10.73Z"/><path class="cls-4" d="M145.2,186.56l5.38-3.06,2,3.26-5.37,3.07Zm3.57,5.93,5.37-3.07,1.6,2.64-5.38,3.07Zm3.19,5.3,5.38-3.08,1.57,2.62-5.37,3.08Zm3.18,5.28,5.38-3.08,1.19,2a1.48,1.48,0,0,1-.55,2.09l-2.69,1.54a1.57,1.57,0,0,1-2.14-.56Z"/><path class="cls-1" d="M97.25,103.93,143,179.83l2.69-1.54-45.72-75.9Z"/><path class="cls-1" d="M88.38,121.15l-.71,16.26,38.26,78.91-4.21,1.92a1.57,1.57,0,0,0-.81.89,1.53,1.53,0,0,0,.07,1.15l2.36,4.87a1.59,1.59,0,0,0,2.09.75l5.59-2.55,9.41,19.41a4.81,4.81,0,0,0,6.26,2.26l2.82-1.29a4.54,4.54,0,0,0,2.2-6.11L142.3,218.2l5.63-2.56a1.5,1.5,0,0,0,.73-2l-2.36-4.87a1.59,1.59,0,0,0-2.09-.75L140,209.9,101.74,131Z"/><path class="cls-2" d="M91.25,127.08l8,5.89,37.93,78.22L128.75,215,90.83,136.82Z"/><path class="cls-3" d="M124.49,220.38l19.67-9,1,2.07-19.68,9Z"/><path class="cls-4" d="M133.84,222.06l5.63-2.56,1.67,3.42-5.64,2.58Zm3,6.23,5.64-2.57,1.35,2.77-5.64,2.57Zm2.7,5.56,5.64-2.57,1.33,2.75-5.63,2.58Zm2.7,5.55,5.63-2.57,1,2.08a1.47,1.47,0,0,1-.73,2l-2.82,1.28a1.56,1.56,0,0,1-2.08-.75Z"/><path class="cls-1" d="M93.58,135.42l38.65,79.73,2.82-1.28L96.39,134.13Z"/><path class="cls-1" d="M77,133.52l-1.63,16.19,33.74,80.95-4.31,1.68a1.54,1.54,0,0,0-.86.84,1.51,1.51,0,0,0,0,1.16l2.08,5a1.59,1.59,0,0,0,2,.87l5.72-2.23,8.3,19.91a4.81,4.81,0,0,0,6.12,2.6l2.89-1.12a4.55,4.55,0,0,0,2.54-6l-8.3-19.91,5.77-2.25a1.5,1.5,0,0,0,.85-2l-2.08-5a1.6,1.6,0,0,0-2-.87L123.52,225,89.78,144.1Z"/><path class="cls-2" d="M79.53,139.61l7.66,6.33,33.44,80.23L112,229.53,78.56,149.3Z"/><path class="cls-3" d="M107.44,234.64l20.15-7.85.89,2.13-20.16,7.85Z"/><path class="cls-4" d="M116.68,236.84l5.77-2.24,1.47,3.51-5.77,2.25Zm2.66,6.39,5.77-2.25,1.19,2.84-5.77,2.25Zm2.38,5.71,5.77-2.25,1.18,2.82-5.77,2.25Zm2.38,5.69,5.76-2.26.89,2.14a1.47,1.47,0,0,1-.84,2L127,257.62a1.57,1.57,0,0,1-2-.87Z"/><path class="cls-1" d="M81.38,148.07l34.09,81.78,2.89-1.12L84.27,146.94Z"/><path class="cls-1" d="M70,173.52l-1.63,16.19,33.74,81-4.31,1.68a1.54,1.54,0,0,0-.86.84,1.51,1.51,0,0,0,0,1.16l2.08,5a1.59,1.59,0,0,0,2,.87l5.72-2.23,8.3,19.91a4.81,4.81,0,0,0,6.12,2.6l2.89-1.12a4.55,4.55,0,0,0,2.54-6l-8.3-19.91,5.77-2.25a1.5,1.5,0,0,0,.85-2l-2.08-5a1.6,1.6,0,0,0-2-.87L116.52,265,82.78,184.1Z"/><path class="cls-2" d="M72.53,179.61l7.66,6.33,33.44,80.23L105,269.53,71.56,189.3Z"/><path class="cls-3" d="M100.44,274.64l20.15-7.85.89,2.13-20.16,7.85Z"/><path class="cls-4" d="M109.68,276.84l5.77-2.24,1.47,3.51-5.77,2.25Zm2.66,6.39,5.77-2.25,1.19,2.84-5.77,2.25Zm2.38,5.71,5.77-2.25,1.18,2.82-5.77,2.25Zm2.38,5.69,5.76-2.26.89,2.14a1.47,1.47,0,0,1-.84,2L120,297.62a1.57,1.57,0,0,1-2-.87Z"/><path class="cls-1" d="M74.38,188.07l34.09,81.78,2.89-1.12L77.27,186.94Z"/><path class="cls-1" d="M259.77,4.22l-8.48,13.89-4.71,87.57-4.62-.36a1.53,1.53,0,0,0-1.63,1.43l-.29,5.41a1.58,1.58,0,0,0,1.46,1.66l6.12.48-1.15,21.54a4.81,4.81,0,0,0,4.38,5l3.09.23a4.54,4.54,0,0,0,4.89-4.28L260,115.25l6.17.48a1.52,1.52,0,0,0,1.63-1.43l.29-5.4a1.6,1.6,0,0,0-1.47-1.67l-4.61-.36,4.7-87.57Z"/><path class="cls-2" d="M259.41,10.81l4.16,9-4.66,86.8-9.24-.71,4.66-86.8Z"/><path class="cls-3" d="M243.35,108.54l21.56,1.66-.12,2.31-21.57-1.67Z"/><path class="cls-4" d="M250.72,114.53l6.17.48-.2,3.81-6.18-.48Zm-.37,6.91,6.17.48-.16,3.08-6.18-.48Zm-.34,6.18,6.18.47-.17,3.06-6.17-.48Zm-.33,6.15,6.18.48-.13,2.31a1.47,1.47,0,0,1-1.62,1.42l-3.09-.24a1.56,1.56,0,0,1-1.46-1.66Z"/><path class="cls-1" d="M257.41,19.23l-4.76,88.48,3.1.24,4.75-88.49Z"/><path class="cls-1" d="M289.16,5.57,278.7,18,261,103.93l-4.51-1a1.5,1.5,0,0,0-1.82,1.17l-1.1,5.3a1.61,1.61,0,0,0,1.2,1.87l6,1.38-4.35,21.12a4.8,4.8,0,0,0,3.59,5.6l3,.7a4.55,4.55,0,0,0,5.47-3.51l4.35-21.13,6,1.39a1.51,1.51,0,0,0,1.83-1.17l1.09-5.3a1.6,1.6,0,0,0-1.2-1.87l-4.51-1,17.68-85.89Z"/><path class="cls-2" d="M287.83,12l2.76,9.54-17.52,85.15-9-2.09,17.53-85.13Z"/><path class="cls-3" d="M257.39,106.27l21.08,4.86-.47,2.26-21.08-4.86Z"/><path class="cls-4" d="M263.79,113.3l6,1.39-.76,3.74L263,117Zm-1.4,6.77,6,1.4-.62,3-6-1.39Zm-1.24,6.06,6,1.39-.61,3-6-1.39Zm-1.24,6,6,1.39-.47,2.26a1.47,1.47,0,0,1-1.81,1.17l-3-.7a1.55,1.55,0,0,1-1.19-1.86Z"/><path class="cls-1" d="M284.6,20.06l-17.88,86.78,3,.7,17.88-86.79Z"/><path class="cls-1" d="M309.32,12.56l-11.2,11.8L275.24,109l-4.44-1.31a1.5,1.5,0,0,0-1.19.14,1.48,1.48,0,0,0-.7.92L267.49,114a1.59,1.59,0,0,0,1.08,1.94l5.89,1.74-5.63,20.82a4.81,4.81,0,0,0,3.25,5.81l3,.88a4.54,4.54,0,0,0,5.67-3.17l5.63-20.83,5.94,1.76a1.51,1.51,0,0,0,1.89-1.06l1.41-5.22a1.59,1.59,0,0,0-1.08-1.94l-4.44-1.32L313,28.75Z"/><path class="cls-2" d="M307.6,18.92l2.18,9.69L287.1,112.53l-8.89-2.63L300.89,26Z"/><path class="cls-3" d="M271.48,111.14l20.74,6.13-.6,2.23-20.75-6.13Z"/><path class="cls-4" d="M277.44,118.55l5.93,1.75-1,3.68-5.94-1.75Zm-1.81,6.67,5.94,1.76-.8,3-5.94-1.76Zm-1.61,6L280,133l-.8,3-5.94-1.75Zm-1.61,6,5.94,1.75-.61,2.23a1.47,1.47,0,0,1-1.88,1.05l-3-.88a1.56,1.56,0,0,1-1.08-1.93Z"/><path class="cls-1" d="M303.88,26.74l-23.12,85.54,3,.88,23.12-85.55Z"/><path class="cls-1" d="M332.16,20.79l-12.35,10.6-31.43,81.87-4.28-1.76a1.52,1.52,0,0,0-1.2,0,1.48,1.48,0,0,0-.79.84l-1.94,5a1.59,1.59,0,0,0,.87,2l5.69,2.33L279,141.92a4.8,4.8,0,0,0,2.63,6.11l2.87,1.17a4.53,4.53,0,0,0,6-2.57l7.74-20.14,5.72,2.36a1.51,1.51,0,0,0,2-.86l1.94-5a1.6,1.6,0,0,0-.88-2l-4.28-1.76,31.42-81.88Z"/><path class="cls-2" d="M329.79,26.94,331,36.81,299.82,118l-8.57-3.52L322.4,33.29Z"/><path class="cls-3" d="M284.43,115l20,8.22-.83,2.16-20-8.22Z"/><path class="cls-4" d="M289.6,123l5.72,2.36L294,128.87l-5.73-2.35Zm-2.48,6.45,5.72,2.36-1.1,2.88L286,132.29Zm-2.22,5.78,5.73,2.35-1.1,2.86-5.73-2.35ZM282.69,141l5.73,2.35-.83,2.16a1.48,1.48,0,0,1-2,.85l-2.87-1.18a1.55,1.55,0,0,1-.87-2Z"/><path class="cls-1" d="M325.3,34.34l-31.76,82.72,2.87,1.18,31.75-82.73Z"/><path class="cls-1" d="M346.5,34.1l-13.18,9.54-38.11,79-4.12-2.11a1.51,1.51,0,0,0-2,.69l-2.36,4.87a1.61,1.61,0,0,0,.71,2.11l5.47,2.79-9.37,19.43a4.81,4.81,0,0,0,2.12,6.31l2.76,1.41a4.54,4.54,0,0,0,6.15-2.07l9.38-19.43,5.51,2.82a1.51,1.51,0,0,0,2.06-.69l2.35-4.88a1.6,1.6,0,0,0-.71-2.1L309,129.67l38.09-79Z"/><path class="cls-2" d="M343.63,40,344,50l-37.75,78.3L298,124l37.76-78.3Z"/><path class="cls-3" d="M291.13,124l19.25,9.84-1,2.09-19.26-9.85Z"/><path class="cls-4" d="M295.62,132.39l5.51,2.83-1.65,3.43L294,135.83Zm-3,6.23,5.51,2.82-1.34,2.78-5.51-2.82Zm-2.69,5.57,5.52,2.82-1.33,2.76L288.6,147Zm-2.68,5.56,5.52,2.81-1,2.09a1.47,1.47,0,0,1-2,.68L287,153.92a1.57,1.57,0,0,1-.71-2.1Z"/><path class="cls-1" d="M338.54,47,300,126.84l2.76,1.42,38.5-79.82Z"/><path class="cls-1" d="M365.83,62.52l-14.49,7.4-49.76,72.22-3.75-2.71a1.51,1.51,0,0,0-2.13.37l-3.08,4.45a1.61,1.61,0,0,0,.38,2.19l5,3.6L285.74,167.8a4.81,4.81,0,0,0,1.13,6.56l2.51,1.82a4.54,4.54,0,0,0,6.4-1.11L308,157.31l5,3.63a1.51,1.51,0,0,0,2.14-.37l3.07-4.45a1.6,1.6,0,0,0-.38-2.19l-3.75-2.72L363.86,79Z"/><path class="cls-2" d="M362.08,67.94l-1.17,9.87L311.6,149.4,304.09,144l49.32-71.58Z"/><path class="cls-3" d="M297.34,142.89l17.51,12.68-1.31,1.91L296,144.79Z"/><path class="cls-4" d="M300.49,151.86l5,3.63-2.16,3.14-5-3.63Zm-3.93,5.69,5,3.64-1.75,2.53-5-3.63Zm-3.51,5.1,5,3.63-1.73,2.52-5-3.63Zm-3.49,5.08,5,3.62-1.32,1.91a1.48,1.48,0,0,1-2.12.36l-2.51-1.82a1.57,1.57,0,0,1-.38-2.18Z"/><path class="cls-1" d="M356,74.08l-50.28,73,2.52,1.82,50.27-73Z"/><path class="cls-1" d="M374.83,81.52l-14.49,7.4-49.76,72.22-3.75-2.71a1.51,1.51,0,0,0-2.13.37l-3.08,4.45a1.61,1.61,0,0,0,.38,2.19l5,3.6L294.74,186.8a4.81,4.81,0,0,0,1.13,6.56l2.51,1.82a4.54,4.54,0,0,0,6.4-1.11L317,176.31l5,3.63a1.51,1.51,0,0,0,2.14-.37l3.07-4.45a1.6,1.6,0,0,0-.38-2.19l-3.75-2.72L372.86,98Z"/><path class="cls-2" d="M371.08,86.94l-1.17,9.87L320.6,168.4,313.09,163l49.32-71.58Z"/><path class="cls-3" d="M306.34,161.89l17.51,12.68-1.31,1.91L305,163.79Z"/><path class="cls-4" d="M309.49,170.86l5,3.63-2.16,3.14-5-3.63Zm-3.93,5.69,5,3.64-1.75,2.53-5-3.63Zm-3.51,5.1,5,3.63-1.73,2.52-5-3.63Zm-3.49,5.08,5,3.62-1.32,1.91a1.48,1.48,0,0,1-2.12.36l-2.51-1.82a1.57,1.57,0,0,1-.38-2.18Z"/><path class="cls-1" d="M365,93.08l-50.28,73,2.52,1.82,50.27-73Z"/><path class="cls-1" d="M384.83,94.52l-14.49,7.4-49.76,72.22-3.75-2.71a1.51,1.51,0,0,0-2.13.37l-3.08,4.45a1.61,1.61,0,0,0,.38,2.19l5,3.6L304.74,199.8a4.81,4.81,0,0,0,1.13,6.56l2.51,1.82a4.54,4.54,0,0,0,6.4-1.11L327,189.31l5,3.63a1.51,1.51,0,0,0,2.14-.37l3.07-4.45a1.6,1.6,0,0,0-.38-2.19l-3.75-2.72L382.86,111Z"/><path class="cls-2" d="M381.08,99.94l-1.17,9.87L330.6,181.4,323.09,176l49.32-71.58Z"/><path class="cls-3" d="M316.34,174.89l17.51,12.68-1.31,1.91L315,176.79Z"/><path class="cls-4" d="M319.49,183.86l5,3.63-2.16,3.14-5-3.63Zm-3.93,5.69,5,3.64-1.75,2.53-5-3.63Zm-3.51,5.1,5,3.63-1.73,2.52-5-3.63Zm-3.49,5.08,5,3.62-1.32,1.91a1.48,1.48,0,0,1-2.12.36l-2.51-1.82a1.57,1.57,0,0,1-.38-2.18Z"/><path class="cls-1" d="M375,106.08l-50.28,73,2.52,1.82,50.27-73Z"/><path class="cls-1" d="M390.92,112.9l-14.37,7.63-48.62,73-3.79-2.65a1.55,1.55,0,0,0-1.18-.25,1.48,1.48,0,0,0-.95.65l-3,4.5a1.6,1.6,0,0,0,.41,2.18l5,3.52-11.95,18a4.79,4.79,0,0,0,1.23,6.53l2.54,1.78a4.54,4.54,0,0,0,6.38-1.2l12-17.95,5.07,3.55a1.51,1.51,0,0,0,2.13-.4l3-4.51a1.6,1.6,0,0,0-.41-2.18l-3.79-2.66,48.61-73Z"/><path class="cls-2" d="M387.26,118.39l-1,9.88-48.18,72.35-7.59-5.32L378.65,123Z"/><path class="cls-3" d="M323.69,194.34l17.71,12.4-1.27,1.93-17.72-12.41Z"/><path class="cls-4" d="M327,203.25l5.07,3.56L330,210l-5.08-3.55ZM323.15,209l5.07,3.55-1.7,2.57-5.08-3.55Zm-3.43,5.15,5.08,3.55-1.7,2.55L318,216.7Zm-3.41,5.13,5.07,3.55-1.28,1.92a1.48,1.48,0,0,1-2.12.4l-2.54-1.78a1.55,1.55,0,0,1-.41-2.17Z"/><path class="cls-1" d="M381.25,124.62l-49.12,73.74,2.54,1.78,49.12-73.75Z"/><path class="cls-1" d="M394.83,141l-14,8.37-44.76,75.41-3.92-2.45a1.56,1.56,0,0,0-1.19-.19,1.53,1.53,0,0,0-.92.7l-2.76,4.65a1.59,1.59,0,0,0,.52,2.16l5.21,3.25-11,18.56a4.81,4.81,0,0,0,1.57,6.46l2.63,1.64a4.54,4.54,0,0,0,6.31-1.53l11-18.55,5.25,3.28a1.5,1.5,0,0,0,2.11-.51l2.75-4.65a1.59,1.59,0,0,0-.52-2.16l-3.92-2.46L394,157.53Z"/><path class="cls-2" d="M391.46,146.63l-.5,9.92L346.6,231.3l-7.86-4.91,44.37-74.75Z"/><path class="cls-3" d="M331.93,225.78l18.33,11.47-1.18,2-18.34-11.47Z"/><path class="cls-4" d="M335.68,234.51l5.25,3.29L339,241.07l-5.25-3.28Zm-3.53,6,5.25,3.28-1.57,2.65-5.26-3.28ZM329,245.78l5.25,3.28-1.56,2.63-5.25-3.28Zm-3.14,5.3,5.25,3.28-1.18,2a1.48,1.48,0,0,1-2.1.51l-2.63-1.65a1.56,1.56,0,0,1-.52-2.15Z"/><path class="cls-1" d="M385.78,153.16l-45.22,76.2,2.63,1.64,45.22-76.2Z"/><path class="cls-6" d="M179.48,38.5l-2.66-24,30,79c-4.62-37.75-7.64-71.6-4-89,5.44,14.3,12.14,46.08,19,80,3.68-8.91,1.1-67.58,8-80,4.82,8.76,7.29,45.75,10,80,1.32-.38,5,9.09,6,8s-.32-13.07.5-15.1c2.61-6.43,3.62-16.77,3.48-30q2.5-28.74,11-40.93c-.81,36.29-2.29,77.15,1,86,8.19-35.62,16.36-70.63,24-83l-7,89c9.3-36.1,18.7-70.09,29-85l-14,82c10.67-28.28,21.6-51.82,33-67l-14,73c10-25.28,20-47.59,30-62,1.65,17.53-7.74,44.4-18,72,13.9-20.49,27.56-40,38-46-4,15.26-10.52,31-18,47,9.71-12.71,19.2-23.65,28-29l-13,36,21-21-13,30,17-12-4,12,8,4v19l8-1v16l7,2-9,19,6,1-4,24,8.76,5.7-2.76,17.3-2.23,26.72-31.77,71.28,12,1,5,7-6,9,7,10-5,23,21,4,2.93,6.93-3.93,7.07,8.68,4.17,3.32,7.83-12,8,36,48-7,14,15,41-445,1,46-41-6-7,5-6,17-16-7-14,20-3L66.61,415.7l15.21-18.21-8,1,19-35-5.22-4.91,5.22-15.09-14,8,10-51-15-5,8-10-9-20-13-6,6-12-7-22c7.58,2.07,14.6,3.28,18-1-4.22-13.18-7.54-25.47-7-34l15-1-15-26,9-7-1-13,11-5-1-11,10,2-5-16,14,10-8-28,25,25-17-41,31,38c-8.52-19.06-15.45-38.33-19-58l30,48c-6.35-28.9-12.33-57.21-10-72l31,74c-7.25-32.83-14.35-65.41-12-81l28,67-6.34-57"/></g></g></svg>