<svg xmlns="http://www.w3.org/2000/svg" height="250" width="250" viewBox="0 0 393.29 393.29">
  <defs/>
  <defs>
    <linearGradient id="a" x1="100.78" x2="387.08" y1="226.99" y2="226.99" gradientUnits="userSpaceOnUse">
      <stop offset="0"/>
      <stop offset="1" stop-color="#fff"/>
    </linearGradient>
  </defs>
  <g data-name="Layer 2">
    <g data-name="Layer 1">
      <path fill="#b40304" d="M-.011 195.27L195.263-.005 390.538 195.27 195.263 390.545z"/>
      <path fill="url(#a)" d="M387.07 199.37L236.05 354.71l-107.01-88.45 26.75-14.67-6.47-6.48 3.02-3.88-12.94-13.38 4.31-8.2-42.93-43.36 2.58-8.2 43.59 2.16 76.59-70.98 21.14 15.53 11.22-4.75 20.71 4.32 3.24-14.46 11.68 11.49 4.5-1.78 91.04 89.75z" opacity=".1"/>
      <path fill="#ffc914" d="M295.68 109.48l-3.64 1.4-2.04 7.17-6.57-2.39-.3-10.46-.9-3.88-2.39-1.2-2.09.6.6 3-1.49 1.49L272 107l-4.78 2.09-7.77-3.88-5.26-1.07-11.47 4.36-9 7.76-2.72 7.21-2.29 5.93-.3 3.58.3 4.78.59 5.08.6 3.29 1.5 6.32c.55 2.32 1.1 4.65 1.66 7 .34 1.45 3.37 5.58 3.71 7-1.11.69-3.66-.79-4.48-.29-1.37.82-2.8.36-3.46.78-1.56 1-1.73 2.52-3.11 3.4-.95.6-2.71 4.82-2.6 6.49a22.36 22.36 0 00.81 3.67c-.14.07 2.19 2.68 1.49 4.18a10.63 10.63 0 001.49-3.59c.25-2 1.7-3.24 2.1-3 .14.09 2.24 1.43 2.39 2.39.21 1.41-1.1 4.74-.9 5.07.48.81 1.82 3.85 2.39 4.19s1-.23 1.32-.74 3.13.35 3.16.74a4.21 4.21 0 002.64 2.84c1.12.31 2.17-1.77 2.15-3.07 0-1.75 0-3.88.59-4 1-.13 4.35 1.4 5.38 1.2 1.33-.26 3.64 7.34 3.58 7.47s-2.66-.41-3.44.63c-.6.79-1.35 1.76-2.12 2.74s-1.47 7.5-1.61 7.68c-.9 1.2-6.37 1.25-7.17.3-.2-.24-1.51-.89-1.49-1.79s1.44-5.4 1.19-5.68c-.91-1.05-1-1.55-1.49-1.49a3.25 3.25 0 00-2.69 2.39c-.3.67-2.48 5.7-2.09 9.26.35 3.23 1.55 1.67 2.09 5.38.11.76 6.22 1.84 7.17 2.39 1.26.72 10 1.28 11.35 1.79 2.12.78-1 6-.89 6.57.3 2-13.12 4.47-13.15 4.48s-7.89-2.25-9-4.18c-.41-.74-1-3.87-1.5-4.78-1.4-2.54-.27-4.41-1.86-7.36-2.75-5.08-5.19-9.77-5.31-10.56-.35-2.44-5.2-11.7-5.67-14.94-.19-1.29-1-6.05-1.2-7.17s-1.08-3.4-1.19-4.18c-.16-1.11 1.79-2.39 1.79-2.39s1.79-3.56 1.79-3.59A46.61 46.61 0 01215 165a9.79 9.79 0 00-.88-2.45c-.32-.75-.62-1.39-.61-1.43.08-.38.63-.63 1.39-.8 1.9-.43 5.07-.41 5.18-1 .2-1 2.49-.72 2.71-1.85l.57-2.94c.31-1.62.46-2.43.5-2.64s-1.24-1.1-1.09-1.83-6.74-7.35-6.57-7.76 8.55 6.21 8.66 5.91a4.18 4.18 0 00.3-1.43l2.15-5.31-1.31-1.61-3 3.28-.3-2.69v-5.67l2.69-.9 1.49-3.58 1.2-9.56-4.15-4.74v-4.78l6-2.39-8.66-6 5.38-1.19-6.28-5.38-1.07-3.7-.72-4.07-3.29 3.59-1.79-6.28-3.21 4.2-2.2-6.3-4.18 4.78-13.74-.6-4.78 4.78-9 .9-3.29 1.79 2.69 11.35 2.09-1.49 2.09 1.2 2.09-3 1.79.6.9 2.09-2.09 4.78-2.39-1.8-2.09 1.5-.9-1.79-3 3-1.49 2.69.53 2.89 2.46 1.89 7.17-1.19-1.5 3.28-11.95-.59-5.67 2.68-2.09.9L143 101.91v-6.57l.89-12-2.69-6.27.3-3.89-4.48-3-2.09 4.48-2.69-3.59-4.78.9 1.49 5.08-5.1-2.05-3.85 4.21 4.48 1.49v5.68l4.19 4.78-7.17 3.29.89 7.17 5.38 6.87-4.78-.3-2.69 4.18 5.68-.3 3.28 3.89v7.17l8.07-1.5 4.48 10.76-4.18 7.76 8.66 2.1-4.13 6.75 5.59 4.26-14.34 4.78-.6 3.29-14-2.39-5.44-3.91-7.57-.54-4.62-.33-6.27 3 5.67.9-4.78 3.58 1.2 5.08h4.18L97 170.93l3.58 5.37 1.5-4.18 4.48-.9 5.08 6.88 9.26-1.8 3.58 2.09 14.34.3 18.82-1.49 9-4.48 8.36 11.05 11.35 11.35 11.66 17.93-9.27-5.38-11.35-3-11-.89L146 216l-6.27 11.65 10.16 4.48-.74 13.09 5.82-.54-.9 5.37-11.07 1.84-10.16 6-3.89 8.37 7.47 3.88 5.68 5.38 9.86-9.86-.9 7.77 8.07-3.59 8.36-11.05 8.67-.3 3-5.68-4.18-6.27 1.79-10.46 13.15-5.67-5.66 21.15.88 18.88 8.07-3.88 9 9.56 3.28 7.46-5.07 8.07-7.77 4.78-8.49 7.39.42 7.55 8.37 5.67 4.05 3.26 3.58-3.88 6-6.87 5.38 2.09 5.67-.9 2.09-6.87 5.08-3 11.06-13.74 5.37-7.77-8.06-9-8.37-9.86 2.39-6.87-8.66-3.59 6.57-17.62 14 5.38 13.81-3.8 7.46-9.56 11.06-2.69 3.28-12.25-6-9.85-7.71-5.72-5.08-14.34 1.5-6.87 7.76-5.68-.59-7.47-3-3.58-5.08-2.09-7.77-.3-6.57 6-1.79-5.37-2.09-20.92 5.67-14.64 11.65-4.78-3.61 9.24-2.09-4.49-2.69 6.58 4.18 3.58 5.08-.3-1.78 4.5 6.27 9.27 1.2 9.26 12.83 5.06-5.67-5.68v-3.59l4.48.9 4.18-.6 4.78-3 3-4.49 3.58-1.19 4-.58.48-3.6.3-6-2.39-5.08 3.89-4.78zm-106.41-15l.6-2.1 1.49-.29 2.69 2.39z"/>
    </g>
  </g>
</svg>