<svg xmlns="http://www.w3.org/2000/svg" height="250" width="250" viewBox="0 0 390.38 390.38">
  <defs/>
  <defs>
    <linearGradient id="a" x1="83.14" x2="373.22" y1="246.85" y2="246.85" gradientUnits="userSpaceOnUse">
      <stop offset="0"/>
      <stop offset=".1" stop-color="#121212"/>
      <stop offset=".31" stop-color="#414141"/>
      <stop offset=".6" stop-color="#8d8d8d"/>
      <stop offset=".96" stop-color="#f4f4f4"/>
      <stop offset="1" stop-color="#fff"/>
    </linearGradient>
  </defs>
  <g data-name="Layer 2">
    <g data-name="Layer 1">
      <path fill="url(#a)" d="M307.25 144.26l-66 15.52-33.45 28.14-19.4 28.62-105.26-36.39c9.36 10.64 10 17.2 17.46 27.65 2.67 3.74 10.72 11.24 14.07 15 4.24 4.82 9.34 9.25 13.58 14.07 5.33 6.06 9.83 7.28 16.49 13.58 7.71 7.29 17.6 19.67 23.77 26.68l68.4 72.28 136.31-137.24z" opacity=".05"/>
      <path fill="#393939" d="M0 195.19L195.19 0l195.19 195.19-195.19 195.19z"/>
      <path fill="#cdcdcd" d="M295.84 142.92l-12.1-4.32-14.17-2-6.72-9-36.57-9-10.19 3.73-12.44-.49-11.44-3.24-7.21-5.37 7.47 11.94-13.69 1.74-8.7-2.49-5.22-2 .49 3.24 7.46 6.71-17.66 2-5.72-.74-5.22-.5 8.71 7.46-17.17 5.23-10.69-1 12.68 6.47-8.21 3.48-18.65.75 9.2 7.21-11.19 4.48-14.18.25 10.7 7-15.18 6.22-7-.5 6.08 5.64 12.08 5.31-1.75 4.23 6-2.24-5.22 14.67 17.91-2.48-4 17.66 16.42-3L128 237.1l18.91-3.23-2.24 16.92 15.92-2.24v11.94l8.2 16.66 2.24-9.2 6.72-12.69 5.47 7.71 7.78-21.64 6.72 9 1-15.42 5.48-10.2 5.47 10.69v-7.5l2-10.2 3.73-4.72 5.22 7.46 1.74-9 1.5-5.54 6.71-8.63 9.7-5 6.72 1 4.48 5.47-2.8 7.26 9.45-2v4.23l1 5.47 7.46-8.21 6.22-10.69 6-6.22 1.24-7-1.74-1.25-4 2.49-3.23 3.23-1.49-2.48-3-2.24-3 3-.25-3.48-1.25-2.24-1.24-.75-3.73 3h-2.24l-.5-4.73-2.48-3-1.25-.25-1.49 2.49-1.74.25.25-4-.5-1.25-1.49-.25-1.67 1.32-3.24-.25-2-2.49-.5-2.24 1.5-2 1.74-1.49.74 2.74 2.49 3 2.24.5 2.35-3.3 1.38-.43 1.49 3.23 3.73 3.23 4.73-5 1.24.5.5 2 1.49 4 3-1.74 1.74-2.49h2l1.24 5.72 4-.25 5-3.73.18 1.82-3.66 5.39 1.74.75 6.71-1 5-8.7 7.21-6.47 4.23-5 .25-2.74 3.73-5.72 1-5.47zm-70.21-2.32c-.29.27-1.67-.19-1.94-.49l-7.1-7.69-3.69-2.95a.73.73 0 01-.27-.45l-.3-1.83-.57.4-.44 2a.73.73 0 01-.79.56l-2.24-.25a.47.47 0 01-.16 0l-2.55-.92-3.75.7-6.42 2h-.08l-3.73.74a.47.47 0 01-.17 0l.71.73a.71.71 0 01.19.65.73.73 0 01-.42.53l-2.91 1.21a.77.77 0 01-.3.06h-8.27l-2.6 1.4.58 2.86 7.65 4.07a.62.62 0 01.18.14l6.93 7.17 9.16 7 8.89-1.44 6.2-1.24a.72.72 0 01.43 0l6.22 2.73a.73.73 0 01.37 1 .71.71 0 01-.66.44.8.8 0 01-.3-.06l-6-2.65-6 1.2-9.23 1.5a.72.72 0 01-.55-.14l-9.46-7.22-.08-.07-6.88-7.13-7.84-4.16a.75.75 0 01-.37-.5l-.75-3.73a.74.74 0 01.37-.79l3.23-1.74a.73.73 0 01.35-.09h8.3l1.79-.78-1.66-1.71a.73.73 0 01.68-1.22l2.09.46 3.54-.7 6.43-2h.08l4-.75a.85.85 0 01.39 0l2.65 1 1.5.16.36-1.6a.71.71 0 01.29-.43l1.74-1.25a.76.76 0 01.7-.08.74.74 0 01.44.56l.45 2.71 3.52 2.81.07.07 8 8.24a.66.66 0 010 .96zm30.75 3l-7.71-3.48.25-.75 8.46.25.25 2.24z"/>
    </g>
  </g>
</svg>