<svg xmlns="http://www.w3.org/2000/svg" xmlns:xlink="http://www.w3.org/1999/xlink" version="1.1" x="0px" y="0px" viewBox="-149 101 100 125" style="enable-background:new -149 101 100 100;" xml:space="preserve"><g><path d="M-79.4,111.9l-19.6-3.3l-19.6,3.3l-5.4,27v4.9l2.7,26.9l22.3,7.8l22.3-7.8l2.7-26.9v-4.9L-79.4,111.9z M-112,166.2h-1.6v-1   h-1v-1.6h1v-1h1.6V166.2z M-107.2,168.1h-1.6v-1h-1v-1.6h1v-1h1.6V168.1z M-107.2,161h-1.6v-1h-1v-1.6h1v-1h1.6V161z M-101.6,171.7   h-1.6v-1h-1v-1.6h1v-1h1.6V171.7z M-101.6,164.7h-1.6v-1h-1v-1.6h1v-1h1.6V164.7z M-101.6,157.6h-1.6v-1h-1V155h1v-1h1.6V157.6z    M-102.4,144.2l-16.6-2v-3.9l15.6,2.9L-102.4,144.2z M-78.7,142.3l-16.6,2l1-2.9l15.6-2.9V142.3z"/><path d="M-79.5,173.4c-0.3,4.6-8.7,8.3-19,8.3c-10.5,0-19-3.8-19-8.6c-13.4,3.2-22.5,9-22.5,11c0,7.4,18.6,13.3,41.5,13.3   s41.5-6,41.5-13.3C-57,183.1-66.2,177-79.5,173.4z"/></g><text x="-149" y="216" fill="#000000" font-size="5px" font-weight="bold" font-family="'Helvetica Neue', Helvetica, Arial-Unicode, Arial, Sans-serif">Created by Robert Bjurshagen</text><text x="-149" y="221" fill="#000000" font-size="5px" font-weight="bold" font-family="'Helvetica Neue', Helvetica, Arial-Unicode, Arial, Sans-serif">from the Noun Project</text></svg>