<svg xmlns="http://www.w3.org/2000/svg" data-name="Layer 1" viewBox="0 0 96 120" x="0px" y="0px"><title>sabtu</title><path d="M91.69,24.42H87.24a.68.68,0,0,0-.68.68v4.51H83.46V25.1a.68.68,0,0,0-.68-.68H75.93a.68.68,0,0,0-.68.68v4.51H72.15V25.1a.68.68,0,0,0-.68-.68H67a.68.68,0,0,0-.68.68V36.85a.68.68,0,0,0,.68.68h1.61v2.9H27.37v-2.9H29a.68.68,0,0,0,.68-.68V25.1a.68.68,0,0,0-.68-.68H24.53a.68.68,0,0,0-.68.68v4.51H20.75V25.1a.68.68,0,0,0-.68-.68H13.22a.68.68,0,0,0-.68.68v4.51H9.44V25.1a.68.68,0,0,0-.68-.68H4.31a.68.68,0,0,0-.68.68V36.85a.68.68,0,0,0,.68.68H5.92V70.9a.68.68,0,0,0,.68.68H89.4a.68.68,0,0,0,.68-.68V37.53h1.61a.68.68,0,0,0,.68-.68V25.1A.68.68,0,0,0,91.69,24.42ZM7.28,66V63.07H18.91V66H7.28ZM26,41.79v2.89H14.38V41.79H26ZM39.5,46h8.19v2.83H36.24V46Zm16.33,0v2.83H49V46ZM82.3,61.71H77.09V58.81H88.72v2.89ZM70,61.71V58.81h5.73v2.89Zm-50.4,0H14.38V58.81H26v2.89ZM7.28,46H18.91v2.89H7.28ZM26,46v2.89H20.27V46Zm9.55,4.14h3.25V53H27.37V50.18Zm12.81,0H60.49V53H40.18V50.18Zm20.26,0V53H61.86V50.18Zm13,7.27H70V54.56H81.62Zm-19.76,4V58.57h6.77v2.83ZM49,65.6V62.77h6.78V65.6Zm-9.55,0H36.24V62.77H47.69V65.6Zm-12.13,0V62.77h7.51V65.6Zm-13-15.3H26v2.89H14.38ZM39.5,54.38h8.19v2.83H36.24V54.38Zm16.33,0v2.83H49V54.38Zm12.8,0v2.83H57.19V54.38H68.63Zm-29.81,7H27.37V58.57H38.82Zm-3.94-4.19H27.37V54.38h7.51ZM26,54.56v2.89H20.27V54.56Zm22.36,6.85H40.18V58.57H60.49v2.83H48.37ZM70,53.19V50.3h5.73v2.89ZM13,50.3v2.89H7.28V50.3ZM7.28,54.56H18.91v2.89H7.28ZM27.37,67H38.82V69.8H27.37Zm12.81,0H60.49V69.8H40.18Zm21-1.36h-4V62.77H68.63V65.6ZM83,57.45V54.56h5.74v2.89Zm5.74-4.26H77.09V50.3H88.72Zm-7.1-4.26H70V46H81.62ZM70,44.68V41.79h5.73v2.89Zm-1.36-.06H61.86V41.79h6.77Zm0,1.36v2.83H57.19V46H68.63ZM34.88,48.82H27.37V46h7.51ZM13,44.68H7.28V41.79H13ZM7.28,58.81H13v2.89H7.28Zm13,4.26H26V66H20.27ZM61.86,67h6.77v3.26H61.86Zm8.14.36h5.73v2.89H70ZM70,66V63.07H81.62V66H70Zm13-2.89h5.74V66H83Zm5.74-14.13H83V46h5.74Zm0-4.26H77.09V41.79H88.72Zm-9.47-4.26H70V37.53h9.26Zm-18.75,4.2H40.18V41.79H60.49Zm-21.68,0H27.37V41.79H38.82ZM26,40.43H17.9V37.53H26ZM5,25.78H8.08v4.51a.68.68,0,0,0,.68.68h4.47a.68.68,0,0,0,.68-.68V25.78h5.48v4.51a.68.68,0,0,0,.68.68h4.47a.68.68,0,0,0,.68-.68V25.78H28.3V36.17H5ZM16.54,37.53v2.89H7.28V37.53ZM7.28,67.32H13v2.89H7.28Zm7.1,0H26v2.89H14.38Zm74.34,2.89H77.09V67.32H88.72Zm0-29.79H80.61V37.53h8.11ZM91,36.17H67.7V25.78h3.09v4.51a.68.68,0,0,0,.68.68h4.47a.68.68,0,0,0,.68-.68V25.78h5.48v4.51a.68.68,0,0,0,.68.68h4.47a.68.68,0,0,0,.68-.68V25.78H91Z"/><text x="0" y="111" fill="#000000" font-size="5px" font-weight="bold" font-family="'Helvetica Neue', Helvetica, Arial-Unicode, Arial, Sans-serif">Created by Edwin PM</text><text x="0" y="116" fill="#000000" font-size="5px" font-weight="bold" font-family="'Helvetica Neue', Helvetica, Arial-Unicode, Arial, Sans-serif">from the Noun Project</text></svg>