<svg xmlns="http://www.w3.org/2000/svg" xmlns:xlink="http://www.w3.org/1999/xlink" version="1.1" x="0px" y="0px" viewBox="0 0 100 125" enable-background="new 0 0 100 100" xml:space="preserve"><g><polygon points="69.371,57.121 65.861,55.221 67.761,51.712 64.253,49.813 62.353,53.324 53.958,48.781 62.047,43.713    64.168,47.093 67.548,44.978 65.429,41.596 68.812,39.478 66.693,36.097 63.312,38.213 61.193,34.833 57.811,36.951 59.93,40.333    51.994,45.303 51.994,35.938 55.984,35.938 55.984,31.947 51.994,31.947 51.994,27.958 48.004,27.958 48.004,31.947 44.014,31.947    44.014,35.938 48.004,35.938 48.004,45.558 39.545,40.979 41.443,37.469 37.934,35.571 36.034,39.081 32.525,37.181 30.627,40.692    34.137,42.589 32.238,46.1 35.748,47.998 37.646,44.486 46.042,49.032 37.953,54.097 35.832,50.717 32.451,52.833 34.57,56.214    31.187,58.333 33.305,61.716 36.687,59.597 38.806,62.979 42.187,60.861 40.068,57.477 48.004,52.509 48.004,61.873 44.014,61.873    44.014,65.863 48.004,65.863 48.004,69.852 51.994,69.852 51.994,65.863 55.984,65.863 55.984,61.873 51.994,61.873 51.994,52.252    60.453,56.833 58.555,60.341 62.065,62.241 63.964,58.732 67.474,60.629  "/><g><g><path d="M67.955,23.968c-0.403,0-0.799,0.032-1.197,0.061c-2.859-8.162-10.612-14.026-19.75-14.026     c-11.569,0-20.947,9.378-20.947,20.948c0,0.395,0.037,0.779,0.057,1.169c-5.686,0.927-10.032,5.848-10.032,11.798     c0,6.437,5.083,11.67,11.451,11.945c0.786-0.622,1.02-1.732,0.476-2.601h-0.001c-0.584-0.935-0.303-2.167,0.633-2.75l1.559-0.977     l-1.619-0.878c-0.97-0.522-1.33-1.734-0.806-2.701l0.001-0.003c0.525-0.969,0.164-2.178-0.804-2.703     c-0.968-0.524-1.328-1.736-0.804-2.702l0.947-1.758l1.897-3.507l0.949-1.753c0.525-0.97,1.734-1.332,2.704-0.806l1.756,0.949     l0.951-1.756c0.524-0.968,1.733-1.329,2.701-0.805l1.756,0.949l0.192,0.104v-0.218v-1.994c0-1.103,0.891-1.995,1.995-1.995     c1.102,0,1.994-0.893,1.994-1.995c0-1.103,0.892-1.995,1.995-1.995h1.995h3.99h1.995c1.102,0,1.995,0.892,1.995,1.995     c0,1.103,0.891,1.995,1.994,1.995c1.103,0,1.995,0.892,1.995,1.995v0.935l0.794-0.495c0.933-0.584,2.163-0.304,2.748,0.629     l1.061,1.692l1.69-1.06c0.935-0.584,2.164-0.302,2.749,0.631l1.06,1.691l2.119,3.382l1.058,1.691     c0.584,0.933,0.301,2.162-0.632,2.749c-0.934,0.584-1.217,1.818-0.634,2.749l0.002,0.002c0.584,0.933,0.303,2.163-0.633,2.749     l-1.56,0.979l1.62,0.876c0.969,0.521,1.328,1.733,0.806,2.7l-0.002,0.004c-0.523,0.97-0.163,2.178,0.804,2.704     c0.163,0.085,0.281,0.218,0.409,0.339c6.113-2.237,10.482-8.087,10.482-14.974C83.915,31.114,76.768,23.968,67.955,23.968"/></g></g><polygon points="22.801,74.037 24.796,70.583 28.251,72.578 30.246,69.124 26.791,67.129 28.786,63.673 25.33,61.678    23.335,65.134 19.879,63.139 17.884,66.593 21.34,68.588 19.345,72.042  "/><polygon points="20.806,89.997 22.801,86.543 26.256,88.538 28.251,85.083 24.796,83.088 26.791,79.633 23.335,77.638    21.34,81.094 17.884,79.099 15.889,82.553 19.345,84.548 17.35,88.002  "/><polygon points="38.76,88.002 40.755,84.548 44.211,86.543 46.206,83.088 42.75,81.094 44.746,77.638 41.29,75.643 39.294,79.099    35.839,77.104 33.844,80.558 37.299,82.553 35.305,86.007  "/><polygon points="56.715,84.012 58.71,80.558 62.166,82.553 64.161,79.099 60.706,77.104 62.701,73.647 59.245,71.652 57.25,75.108    53.794,73.113 51.799,76.567 55.254,78.562 53.259,82.017  "/><polygon points="74.67,88.002 76.665,84.548 80.121,86.543 82.116,83.088 78.66,81.094 80.655,77.638 77.199,75.643 75.204,79.099    71.749,77.104 69.754,80.558 73.209,82.553 71.214,86.007  "/><polygon points="76.665,72.042 78.66,68.588 82.116,70.583 84.111,67.129 80.655,65.134 82.65,61.678 79.194,59.683 77.199,63.139    73.744,61.144 71.749,64.598 75.204,66.593 73.209,70.047  "/></g><text x="0" y="115" fill="#000000" font-size="5px" font-weight="bold" font-family="'Helvetica Neue', Helvetica, Arial-Unicode, Arial, Sans-serif">Created by Vicons Design</text><text x="0" y="120" fill="#000000" font-size="5px" font-weight="bold" font-family="'Helvetica Neue', Helvetica, Arial-Unicode, Arial, Sans-serif">from the Noun Project</text></svg>