<svg xmlns="http://www.w3.org/2000/svg" xmlns:xlink="http://www.w3.org/1999/xlink" version="1.1" x="0px" y="0px" viewBox="0 0 100 125" enable-background="new 0 0 100 100" xml:space="preserve"><circle cx="40.136" cy="37.709" r="0.875"/><path d="M45.767,36.544l-0.362-0.179c-0.055-0.027-5.589-2.742-8.872-2.742c-0.48,0-0.884,0.059-1.199,0.176  c-0.932,0.346-1.345,0.018-1.459-0.18c-0.149-0.258-0.119-0.572,0.089-0.933c0.635-1.1,3.343-3.15,6.255-3.15  c0.722,0,1.418,0.125,2.071,0.37c1.857,0.699,3.409,1.312,4.613,1.822c1.155,0.49,1.108,1.642,0.922,2.182l-0.081,0.148  L45.767,36.544z M36.533,32.624c3.045,0,7.624,2.046,8.951,2.67l1.415-1.781c0.052-0.211,0.095-0.659-0.387-0.863  c-1.191-0.505-2.73-1.113-4.575-1.808c-0.539-0.203-1.117-0.306-1.718-0.306c-2.25,0-4.35,1.44-5.126,2.289  C35.499,32.691,35.982,32.624,36.533,32.624z"/><path d="M44.754,35.25l-0.986-0.164c0.182-1.092-0.804-3.271-1.199-4.018l0.884-0.468C43.614,30.905,45.024,33.63,44.754,35.25z"/><path d="M41.412,33.872l-0.97-0.242c0.233-0.934-0.548-2.641-0.869-3.22l0.875-0.485C40.585,30.173,41.782,32.391,41.412,33.872z"/><path d="M39.009,33.379l-0.996-0.09c0.036-0.398-0.749-1.399-1.504-2.084l0.671-0.741C37.502,30.755,39.109,32.27,39.009,33.379z"/><path d="M43.473,35.235c0.562,0.697,0.913,1.572,0.913,2.537c0,2.244-1.819,4.062-4.062,4.062c-2.244,0-4.062-1.819-4.062-4.062  c0-1.858,1.254-3.407,2.957-3.891l-2.665-0.848c-1.395,1.112-2.292,2.821-2.292,4.739c0,3.343,2.72,6.062,6.062,6.062  s6.062-2.72,6.062-6.062c0-0.586-0.088-1.151-0.244-1.687L43.473,35.235z"/><path d="M47.698,35.459c-0.108,0-0.216-0.035-0.308-0.106c-0.217-0.17-0.255-0.485-0.085-0.702c1.487-1.897-2.041-5.357-2.077-5.392  c-0.2-0.19-0.207-0.507-0.017-0.707c0.191-0.2,0.507-0.207,0.707-0.018c0.174,0.166,4.243,4.094,2.174,6.733  C47.993,35.393,47.846,35.459,47.698,35.459z"/><path d="M47.428,55.167c-0.012,0-0.024,0-0.036-0.001c-0.727-0.052-1.262-0.037-1.691-0.025c-0.963,0.027-1.546,0.043-2.377-0.787  c-0.662-0.662-1.268-2.229-1.91-3.888c-0.417-1.078-0.811-2.095-1.169-2.715c-0.542-0.936-0.963-1.007-2.213-1.217  c-0.501-0.084-1.125-0.189-1.892-0.381c-2.914-0.728-3.822-3.801-3.86-3.931c-0.076-0.265,0.078-0.541,0.343-0.617  c0.266-0.074,0.542,0.078,0.619,0.342c0.008,0.026,0.794,2.65,3.141,3.237c0.729,0.182,1.307,0.279,1.816,0.365  c1.332,0.224,2.135,0.359,2.913,1.702c0.398,0.688,0.805,1.741,1.237,2.855c0.549,1.42,1.172,3.029,1.684,3.542  c0.525,0.525,0.76,0.521,1.642,0.495c0.451-0.013,1.014-0.029,1.79,0.027c0.275,0.02,0.483,0.259,0.463,0.534  C47.908,54.966,47.688,55.167,47.428,55.167z"/><path d="M49.011,55c-0.019,0-0.037-0.001-0.056-0.003c-1.568-0.175-3.026-0.858-3.899-1.829c-0.598-0.664-0.769-2.085-0.985-3.883  c-0.106-0.88-0.215-1.791-0.384-2.692c-0.458-2.44-2.279-3.754-2.298-3.767c-0.225-0.16-0.279-0.472-0.119-0.697  c0.159-0.225,0.471-0.279,0.697-0.119c0.088,0.062,2.171,1.566,2.702,4.399c0.175,0.934,0.292,1.903,0.395,2.757  c0.172,1.428,0.35,2.905,0.736,3.334c0.704,0.782,1.955,1.358,3.267,1.504c0.274,0.031,0.472,0.278,0.442,0.552  C49.479,54.812,49.263,55,49.011,55z"/><path d="M49.103,66.22c-1.62,0-6.672-0.305-8.697-3.978c-2.253-4.088-4.692-13.063-4.795-13.444  c-0.072-0.267,0.086-0.541,0.353-0.613c0.264-0.069,0.541,0.085,0.613,0.353c0.024,0.092,2.51,9.239,4.705,13.222  c2.07,3.755,8.203,3.457,8.263,3.451c0.269-0.019,0.512,0.195,0.527,0.471s-0.195,0.512-0.47,0.527  C49.561,66.21,49.383,66.22,49.103,66.22z"/><path d="M24.677,47.334c-0.208,0-0.402-0.13-0.473-0.338c-2.521-7.364,3.466-13.269,6.157-15.466  c0.359-0.293,0.705-0.57,1.036-0.836c3.411-2.735,5.123-4.107,4.617-9.312c-0.6-6.159,1.786-8.707,1.888-8.812  c0.192-0.198,0.509-0.204,0.707-0.013c0.198,0.191,0.204,0.506,0.015,0.705l0,0c-0.022,0.023-2.165,2.367-1.614,8.023  c0.558,5.743-1.529,7.417-4.986,10.188c-0.329,0.264-0.672,0.54-1.029,0.831c-2.529,2.065-8.161,7.598-5.843,14.367  c0.089,0.261-0.05,0.546-0.311,0.635C24.785,47.325,24.73,47.334,24.677,47.334z"/><path d="M33.577,50.37c-0.801,0-1.66-0.305-1.913-0.402l-0.22-0.085l-0.075-0.224c-0.061-0.184-0.6-1.81-0.688-2.42  c-0.041-0.286-0.445-2.067-0.803-3.639c-0.357-1.574-0.695-3.061-0.777-3.509c-0.136-0.748-0.411-4.106,0.31-5.342  c0.164-0.279,0.419-0.454,0.74-0.504c1.05-0.168,2.635,1.192,2.942,1.466c0.206,0.184,0.224,0.5,0.04,0.706  c-0.184,0.206-0.5,0.223-0.706,0.04c-0.897-0.8-1.929-1.337-2.142-1.219c-0.485,0.829-0.373,3.721-0.2,4.674  c0.078,0.426,0.429,1.972,0.768,3.466c0.466,2.05,0.775,3.417,0.818,3.719c0.055,0.383,0.382,1.434,0.571,2.016  c0.836,0.279,1.708,0.348,1.839,0.131c0.142-0.236,0.449-0.313,0.686-0.171s0.313,0.449,0.171,0.686  C34.661,50.223,34.132,50.37,33.577,50.37z"/><path d="M23.761,58.917c-0.209,0-0.404-0.132-0.474-0.342c-0.083-0.248-0.188-0.455-0.3-0.678c-0.464-0.93-1.043-2.088-0.976-6.321  c0.087-5.505,7.48-8.89,7.795-9.031c0.25-0.114,0.548,0,0.661,0.251c0.113,0.252,0.001,0.548-0.251,0.661  c-0.071,0.032-7.128,3.267-7.205,8.135c-0.063,3.989,0.455,5.026,0.871,5.859c0.133,0.266,0.255,0.514,0.354,0.809  c0.087,0.262-0.054,0.545-0.316,0.632C23.867,58.909,23.813,58.917,23.761,58.917z"/><path d="M27.011,66.084c-0.128,0-0.256-0.049-0.354-0.146c-0.391-0.391-1.707-1.944-2.601-3.895c-1-2.181-0.447-4.504,0.147-6.283  c0.429-1.289,3.087-3.721,5.774-6.102c0.49-0.435,0.996-0.883,1.112-1.009c0.12-0.189,0.357-0.279,0.579-0.205  c0.262,0.087,0.404,0.37,0.317,0.632c-0.062,0.187-0.125,0.249-1.345,1.33c-1.658,1.47-5.108,4.528-5.488,5.67  c-0.536,1.605-1.042,3.687-0.187,5.55c0.848,1.849,2.108,3.314,2.399,3.605c0.195,0.195,0.195,0.512,0,0.707  C27.267,66.035,27.139,66.084,27.011,66.084z"/><path d="M31.676,72.751c-0.06,0-0.12-0.011-0.179-0.034c-0.171-0.066-1.731-0.759-3.679-4.484c-2.895-5.012-0.696-10.497,6.2-15.427  c0.12-0.085,0.202-0.143,0.239-0.174c0.204-0.171,0.517-0.159,0.698,0.039c0.181,0.197,0.182,0.495-0.007,0.684  c-0.034,0.034-0.154,0.126-0.348,0.265c-3.718,2.658-9.43,8.028-5.906,14.131c1.781,3.405,3.16,4.032,3.174,4.038  c0.25,0.108,0.372,0.398,0.269,0.65C32.057,72.632,31.872,72.751,31.676,72.751z"/><path d="M26.886,36.084c-0.276,0-0.5-0.224-0.5-0.5c0-0.306-0.07-0.662-0.151-1.074c-0.283-1.434-0.67-3.396,1.392-5.871l1.331-1.59  c1.52-1.812,3.238-3.863,3.436-4.3c0.041-0.235,0.246-0.415,0.493-0.415c0.276,0,0.5,0.224,0.5,0.5c0,0.425-0.479,1.061-3.663,4.857  l-1.328,1.588c-1.757,2.108-1.45,3.664-1.18,5.037c0.087,0.444,0.17,0.864,0.17,1.268C27.386,35.86,27.162,36.084,26.886,36.084z"/><path d="M21.907,81.183c-0.148,0-0.295-0.065-0.394-0.191c-0.171-0.217-0.133-0.532,0.084-0.702  c3.081-2.42,15.934-13.829,16.063-13.944c0.206-0.184,0.522-0.166,0.706,0.042c0.183,0.207,0.165,0.522-0.042,0.706  c-0.13,0.115-13.005,11.544-16.109,13.982C22.124,81.148,22.015,81.183,21.907,81.183z"/><path d="M34.011,70.417c-0.176,0-0.347-0.093-0.438-0.259c-4.101-7.442-0.726-10.977,0.896-12.675  c0.226-0.237,0.423-0.442,0.564-0.624c1.123-1.444,3.424-6.037,3.447-6.083c0.123-0.248,0.423-0.347,0.671-0.224  c0.247,0.124,0.347,0.424,0.224,0.671c-0.096,0.192-2.369,4.729-3.553,6.25c-0.158,0.203-0.377,0.434-0.63,0.7  c-1.569,1.644-4.49,4.702-0.743,11.502c0.133,0.242,0.045,0.546-0.197,0.679C34.176,70.397,34.093,70.417,34.011,70.417z"/><path d="M36.823,64.459c-0.226,0-0.43-0.154-0.485-0.383c-0.642-2.655,0-4.403,2.081-5.669c2.216-1.349,3.807-2.476,4.052-2.775  c0.097-0.219,0.339-0.343,0.58-0.283c0.268,0.067,0.43,0.339,0.363,0.607c-0.043,0.17-0.173,0.688-4.475,3.305  c-1.693,1.03-2.166,2.357-1.628,4.581c0.065,0.268-0.1,0.539-0.368,0.603C36.901,64.455,36.862,64.459,36.823,64.459z"/><path d="M42.928,70.75c-0.181,0-0.354-0.098-0.444-0.269c-1.312-2.517-0.934-4.696,1.067-6.137c0.516-0.372,1.912-2.054,3.725-9.632  c0.051-0.211,0.083-0.34,0.093-0.37c0.087-0.262,0.37-0.402,0.632-0.317c0.259,0.086,0.401,0.364,0.319,0.624  c-0.011,0.038-0.035,0.14-0.072,0.295c-1.39,5.812-2.774,9.248-4.113,10.211c-1.592,1.147-1.85,2.783-0.765,4.863  c0.127,0.245,0.033,0.547-0.212,0.675C43.085,70.732,43.006,70.75,42.928,70.75z"/><path d="M49.928,73.251c-0.023,0-0.047-0.001-0.071-0.005c-0.416-0.06-10.224-1.53-12.972-7.88  c-2.081-4.81-2.689-14.14-2.889-17.205c-0.029-0.444-0.046-0.73-0.059-0.815c-0.087-0.262,0.063-0.514,0.325-0.601  c0.265-0.086,0.553,0.086,0.64,0.348c0.031,0.095,0.036,0.142,0.092,1.003c0.528,8.11,1.473,13.787,2.809,16.873  c2.163,4.998,9.499,6.771,11.619,7.185L49.234,54.88c-1.56-0.623-2.018-3.582-2.177-4.611c-0.014-0.089-0.023-0.153-0.03-0.186  c-0.087-0.262,0.059-0.528,0.321-0.615c0.263-0.088,0.55,0.071,0.637,0.333c0.011,0.031,0.033,0.142,0.06,0.315  c0.526,3.4,1.387,3.844,1.732,3.877c0.254,0.024,0.45,0.236,0.453,0.492l0.198,18.261c0.001,0.146-0.061,0.285-0.17,0.381  C50.166,73.208,50.048,73.251,49.928,73.251z"/><path fill="none" stroke="#000000" stroke-linecap="round" stroke-miterlimit="10" d="M35.198,69.459"/><path fill="none" stroke="#000000" stroke-linecap="round" stroke-miterlimit="10" d="M30.323,73.646"/><path fill="none" stroke="#000000" stroke-linecap="round" stroke-miterlimit="10" d="M25.698,77.646"/><path fill="none" stroke="#000000" stroke-linecap="round" stroke-miterlimit="10" d="M45.073,71.396"/><path d="M47.823,48.271c-0.081,0-0.162-0.02-0.238-0.061c-1.611-0.873-2.574-2.371-2.574-3.314c0-1.294,1.452-1.786,2.309-1.873  c0.273-0.022,0.519,0.172,0.547,0.446s-0.171,0.52-0.445,0.549c-0.014,0.001-1.411,0.18-1.411,0.877  c0,0.476,0.685,1.696,2.051,2.436c0.243,0.131,0.333,0.435,0.201,0.678C48.172,48.177,48,48.271,47.823,48.271z"/><circle cx="59.864" cy="37.709" r="0.875"/><path d="M54.233,36.544l-2.057-2.634c-0.187-0.54-0.233-1.691,0.922-2.182c1.204-0.51,2.756-1.124,4.613-1.822  c0.652-0.246,1.349-0.37,2.071-0.37c3.205,0,6.437,2.557,6.437,3.729c0,0.221-0.092,0.415-0.259,0.546  c-0.275,0.215-0.672,0.219-1.293-0.012c-0.315-0.117-0.719-0.176-1.199-0.176c-3.286,0-8.817,2.715-8.872,2.742L54.233,36.544z   M53.101,33.514l1.415,1.78c1.327-0.625,5.906-2.67,8.951-2.67c0.551,0,1.035,0.068,1.441,0.202  c-0.777-0.849-2.876-2.289-5.126-2.289c-0.601,0-1.179,0.103-1.718,0.306c-1.844,0.694-3.383,1.302-4.575,1.808  C53.008,32.854,53.049,33.299,53.101,33.514z"/><path d="M55.246,35.25c-0.27-1.62,1.14-4.344,1.301-4.649l0.884,0.468c-0.395,0.747-1.38,2.926-1.199,4.018L55.246,35.25z"/><path d="M58.588,33.872c-0.37-1.481,0.826-3.699,0.964-3.947l0.875,0.485c-0.321,0.579-1.102,2.287-0.869,3.22L58.588,33.872z"/><path d="M60.991,33.379c-0.1-1.109,1.506-2.624,1.83-2.916l0.671,0.741c-0.756,0.685-1.541,1.686-1.504,2.084L60.991,33.379z"/><path d="M56.527,35.235c-0.562,0.697-0.913,1.572-0.913,2.537c0,2.244,1.819,4.062,4.062,4.062c2.244,0,4.062-1.819,4.062-4.062  c0-1.858-1.254-3.407-2.957-3.891l2.665-0.848c1.395,1.112,2.292,2.821,2.292,4.739c0,3.343-2.72,6.062-6.062,6.062  s-6.062-2.72-6.062-6.062c0-0.586,0.088-1.151,0.244-1.687L56.527,35.235z"/><path d="M52.302,35.459c-0.148,0-0.295-0.066-0.394-0.191c-2.069-2.64,2-6.567,2.174-6.733c0.2-0.189,0.516-0.183,0.707,0.018  c0.19,0.2,0.183,0.516-0.017,0.707c-0.036,0.035-3.564,3.495-2.077,5.392c0.17,0.217,0.132,0.532-0.085,0.702  C52.519,35.424,52.41,35.459,52.302,35.459z"/><path d="M52.572,55.167c-0.26,0-0.479-0.201-0.498-0.464c-0.02-0.275,0.188-0.515,0.463-0.534c0.775-0.056,1.338-0.041,1.79-0.027  c0.884,0.027,1.117,0.031,1.642-0.495c0.512-0.512,1.135-2.122,1.684-3.542c0.432-1.115,0.839-2.168,1.237-2.855  c0.777-1.343,1.581-1.478,2.913-1.702c0.509-0.086,1.086-0.183,1.816-0.365c2.359-0.59,3.133-3.209,3.14-3.236  c0.076-0.266,0.35-0.419,0.618-0.344c0.266,0.076,0.419,0.353,0.344,0.618c-0.038,0.13-0.946,3.203-3.86,3.931  c-0.767,0.192-1.391,0.297-1.892,0.381c-1.25,0.21-1.671,0.282-2.213,1.217c-0.358,0.62-0.752,1.638-1.169,2.715  c-0.642,1.659-1.248,3.226-1.91,3.888c-0.831,0.83-1.416,0.814-2.377,0.787c-0.43-0.012-0.965-0.027-1.691,0.025  C52.596,55.167,52.583,55.167,52.572,55.167z"/><path d="M50.989,55c-0.251,0-0.468-0.189-0.497-0.445c-0.03-0.274,0.167-0.521,0.442-0.552c1.312-0.146,2.563-0.722,3.267-1.504  c0.386-0.429,0.563-1.906,0.736-3.334c0.103-0.854,0.219-1.823,0.395-2.757c0.531-2.833,2.614-4.336,2.702-4.399  c0.226-0.159,0.536-0.106,0.696,0.119c0.16,0.225,0.107,0.537-0.117,0.697c-0.019,0.013-1.844,1.345-2.299,3.768  c-0.169,0.902-0.278,1.812-0.384,2.692c-0.217,1.798-0.388,3.219-0.985,3.883c-0.874,0.971-2.331,1.654-3.899,1.829  C51.026,55,51.007,55,50.989,55z"/><path d="M39.261,68.417c-0.209,0-0.404-0.132-0.474-0.342c-0.017-0.043-0.054-0.109-0.099-0.194  c-0.481-0.913-1.946-3.692,1.875-6.294c3.832-2.609,4.288-4.892,4.248-5.952c-1.116,0.596-2.103,0.738-2.936,0.419  c-1.185-0.452-1.666-1.661-1.847-2.342c-0.315-1.18-2.364-4.035-3.824-4.765c-1.685-0.842-5.058-3.62-5.602-6.521  c-0.482-2.568,1.27-5.803,1.659-6.479c0.002-0.664,0.021-3.934,0.167-13.788C32.6,10.516,48.798,8.769,48.961,8.753l2.028-0.002  c0.213,0.019,16.411,1.765,16.583,13.41c0.145,9.854,0.164,13.124,0.167,13.788c0.389,0.676,2.141,3.911,1.659,6.479  c-0.544,2.901-3.917,5.679-5.602,6.521c-1.46,0.73-3.508,3.585-3.824,4.765c-0.181,0.681-0.662,1.89-1.847,2.342  c-0.833,0.317-1.819,0.176-2.937-0.42c-0.04,1.058,0.415,3.341,4.249,5.953c3.82,2.602,2.356,5.381,1.875,6.294  c-0.045,0.085-0.082,0.151-0.1,0.197c-0.096,0.255-0.382,0.392-0.638,0.302c-0.257-0.091-0.396-0.363-0.31-0.622  c0.025-0.076,0.083-0.193,0.162-0.344c0.458-0.868,1.53-2.902-1.552-5.001c-5.883-4.006-4.578-7.608-4.519-7.76l0.223-0.578  l0.518,0.341c1.101,0.724,1.999,0.96,2.672,0.704c0.797-0.304,1.131-1.266,1.237-1.665c0.375-1.404,2.56-4.51,4.342-5.402  c1.482-0.741,4.593-3.286,5.066-5.812c0.459-2.451-1.583-5.865-1.604-5.899l-0.072-0.119v-0.14c0-0.026-0.002-2.715-0.167-13.909  C66.414,11.422,51.094,9.764,50.939,9.748L49.011,9.75c-0.105,0.013-15.425,1.672-15.583,12.424  c-0.165,11.194-0.167,13.883-0.167,13.909v0.139l-0.072,0.119c-0.021,0.035-2.062,3.455-1.604,5.899  c0.474,2.525,3.584,5.07,5.066,5.812c1.782,0.892,3.967,3.998,4.342,5.402c0.106,0.399,0.44,1.361,1.237,1.665  c0.673,0.256,1.571,0.02,2.672-0.704l0.518-0.341l0.223,0.578c0.059,0.151,1.364,3.753-4.519,7.76  c-3.082,2.099-2.01,4.133-1.552,5.001c0.08,0.151,0.137,0.269,0.162,0.344c0.087,0.262-0.054,0.545-0.316,0.632  C39.367,68.409,39.313,68.417,39.261,68.417z"/><path d="M50.897,66.22c-0.281,0-0.458-0.009-0.5-0.012c-0.275-0.016-0.486-0.252-0.47-0.527s0.256-0.493,0.527-0.471  c0.061,0.002,6.194,0.303,8.263-3.451c2.196-3.984,4.681-13.13,4.705-13.222c0.072-0.268,0.348-0.424,0.613-0.353  c0.267,0.072,0.424,0.347,0.353,0.613c-0.103,0.38-2.542,9.355-4.795,13.444C57.57,65.915,52.518,66.22,50.897,66.22z"/><path d="M75.323,47.334c-0.054,0-0.108-0.009-0.162-0.027c-0.261-0.089-0.4-0.374-0.311-0.635  c2.318-6.769-3.314-12.302-5.843-14.367c-0.356-0.291-0.7-0.566-1.029-0.831c-3.458-2.772-5.544-4.445-4.986-10.188  c0.55-5.656-1.592-8-1.614-8.023c-0.188-0.2-0.181-0.516,0.018-0.706c0.199-0.189,0.512-0.185,0.704,0.014  c0.102,0.105,2.487,2.653,1.888,8.812c-0.506,5.205,1.206,6.577,4.617,9.312c0.331,0.266,0.677,0.542,1.036,0.836  c2.691,2.197,8.678,8.102,6.157,15.466C75.725,47.204,75.531,47.334,75.323,47.334z"/><path d="M66.423,50.37c-0.556,0-1.084-0.146-1.363-0.612c-0.142-0.237-0.065-0.544,0.171-0.686c0.237-0.142,0.544-0.065,0.686,0.171  c0.132,0.221,1.005,0.149,1.839-0.13c0.189-0.582,0.516-1.634,0.571-2.017c0.043-0.302,0.352-1.668,0.818-3.718  c0.339-1.495,0.69-3.04,0.769-3.467c0.172-0.953,0.284-3.845-0.19-4.658c-0.225-0.138-1.255,0.403-2.152,1.204  c-0.206,0.183-0.521,0.167-0.706-0.04c-0.184-0.206-0.166-0.522,0.04-0.706c0.307-0.274,1.898-1.635,2.942-1.466  c0.321,0.051,0.577,0.225,0.74,0.504c0.721,1.235,0.446,4.594,0.311,5.341c-0.082,0.448-0.42,1.935-0.777,3.509  c-0.357,1.572-0.762,3.354-0.803,3.638c-0.088,0.611-0.626,2.238-0.688,2.421l-0.075,0.224l-0.22,0.085  C68.083,50.065,67.225,50.37,66.423,50.37z"/><path d="M76.239,58.917c-0.052,0-0.106-0.008-0.158-0.026c-0.262-0.087-0.403-0.371-0.316-0.632  c0.098-0.295,0.221-0.543,0.354-0.809c0.416-0.833,0.934-1.87,0.871-5.859c-0.077-4.875-7.134-8.103-7.205-8.135  c-0.252-0.113-0.364-0.409-0.251-0.661c0.114-0.251,0.407-0.363,0.661-0.251c0.314,0.142,7.708,3.526,7.795,9.031  c0.067,4.233-0.512,5.391-0.976,6.321c-0.112,0.223-0.217,0.431-0.3,0.678C76.644,58.785,76.449,58.917,76.239,58.917z"/><path d="M72.989,66.084c-0.128,0-0.256-0.049-0.354-0.146c-0.195-0.195-0.195-0.512,0-0.707c0.291-0.291,1.551-1.756,2.399-3.605  c0.854-1.863,0.349-3.944-0.187-5.55c-0.381-1.143-3.831-4.201-5.489-5.67c-1.22-1.081-1.283-1.143-1.345-1.33  c-0.087-0.262,0.055-0.545,0.317-0.632c0.223-0.072,0.458,0.017,0.579,0.205c0.116,0.126,0.622,0.575,1.112,1.009  c2.687,2.381,5.345,4.813,5.774,6.102c0.594,1.779,1.147,4.102,0.147,6.283c-0.895,1.951-2.21,3.504-2.601,3.895  C73.245,66.035,73.117,66.084,72.989,66.084z"/><path d="M68.322,72.751c-0.2,0-0.389-0.121-0.466-0.319c-0.1-0.257,0.027-0.547,0.285-0.647c0.005-0.002,1.384-0.629,3.155-4.016  c3.534-6.122-2.178-11.492-5.896-14.15c-0.193-0.139-0.313-0.231-0.348-0.265c-0.195-0.195-0.195-0.512,0-0.707  c0.191-0.191,0.498-0.195,0.694-0.013c0.038,0.032,0.119,0.088,0.235,0.171c6.896,4.93,9.095,10.415,6.19,15.445  c-1.938,3.707-3.498,4.399-3.669,4.466C68.444,72.74,68.383,72.751,68.322,72.751z"/><path d="M73.114,36.084c-0.276,0-0.5-0.224-0.5-0.5c0-0.403,0.083-0.823,0.17-1.268c0.271-1.373,0.578-2.929-1.18-5.037  l-1.328-1.588c-3.184-3.797-3.663-4.432-3.663-4.857c0-0.276,0.224-0.5,0.5-0.5c0.247,0,0.452,0.179,0.493,0.415  c0.198,0.438,1.917,2.488,3.436,4.3l1.331,1.59c2.062,2.475,1.675,4.438,1.392,5.871c-0.081,0.413-0.151,0.769-0.151,1.074  C73.614,35.86,73.391,36.084,73.114,36.084z"/><path d="M78.093,81.183c-0.108,0-0.217-0.035-0.309-0.107c-3.104-2.438-15.979-13.867-16.109-13.982  c-0.207-0.184-0.225-0.5-0.042-0.706c0.184-0.208,0.5-0.226,0.706-0.042c0.129,0.115,12.982,11.524,16.063,13.944  c0.217,0.17,0.255,0.485,0.084,0.702C78.388,81.118,78.242,81.183,78.093,81.183z"/><path d="M50.664,27.953c-0.282,0-0.461-0.021-0.553-0.036h-0.222c-0.303,0.051-1.533,0.159-4.342-0.6  c-1.117-0.302-1.87-0.587-2.42-0.794c-0.98-0.371-1.274-0.482-2.133-0.211c-0.975,0.308-1.928,1.002-1.938,1.009  c-0.224,0.163-0.536,0.115-0.699-0.107c-0.163-0.223-0.115-0.536,0.107-0.699c0.044-0.032,1.097-0.799,2.229-1.156  c1.188-0.374,1.756-0.159,2.788,0.229c0.56,0.212,1.257,0.475,2.327,0.764c2.86,0.773,3.921,0.578,3.931,0.577l0.104-0.011  l0.425,0.013c0.002,0.002,1.063,0.195,3.923-0.579c1.07-0.289,1.767-0.552,2.327-0.764c1.032-0.39,1.601-0.604,2.788-0.229  c1.131,0.357,2.184,1.124,2.229,1.156c0.223,0.164,0.271,0.476,0.107,0.699c-0.164,0.223-0.477,0.27-0.699,0.108  c-0.01-0.007-0.967-0.703-1.938-1.01c-0.857-0.269-1.153-0.158-2.133,0.212c-0.55,0.208-1.303,0.492-2.42,0.794  C52.499,27.845,51.31,27.953,50.664,27.953z"/><path d="M51.073,24.501h-2.146c-0.063,0-1.564-0.004-3.582-0.34c-2.05-0.342-4.192-0.287-4.528-0.129  c-0.247,0.119-0.548,0.016-0.668-0.231s-0.024-0.541,0.221-0.664c0.704-0.351,3.293-0.27,5.139,0.038  c1.931,0.322,3.403,0.327,3.418,0.327h2.146c0.015,0,1.487-0.005,3.418-0.327c1.846-0.308,4.436-0.389,5.139-0.038  c0.245,0.123,0.341,0.417,0.221,0.664c-0.119,0.247-0.42,0.35-0.668,0.231c-0.336-0.158-2.479-0.213-4.528,0.129  C52.638,24.497,51.136,24.501,51.073,24.501z"/><path d="M65.989,70.417c-0.082,0-0.164-0.02-0.241-0.062c-0.242-0.133-0.33-0.438-0.197-0.679c3.747-6.8,0.826-9.858-0.743-11.502  c-0.253-0.266-0.473-0.497-0.63-0.7c-1.184-1.522-3.457-6.058-3.553-6.25c-0.124-0.247-0.023-0.547,0.224-0.671  c0.247-0.123,0.548-0.024,0.671,0.224c0.023,0.046,2.324,4.64,3.447,6.083c0.141,0.181,0.338,0.386,0.564,0.624  c1.622,1.698,4.997,5.233,0.896,12.675C66.336,70.324,66.165,70.417,65.989,70.417z"/><path d="M63.177,64.459c-0.039,0-0.079-0.004-0.118-0.014c-0.268-0.064-0.433-0.335-0.368-0.603c0.537-2.223,0.065-3.55-1.628-4.581  c-4.302-2.618-4.432-3.135-4.475-3.305c-0.067-0.268,0.095-0.54,0.363-0.607c0.239-0.061,0.483,0.063,0.58,0.283  c0.245,0.299,1.836,1.426,4.052,2.775c2.081,1.266,2.722,3.015,2.081,5.669C63.607,64.305,63.403,64.459,63.177,64.459z"/><path d="M57.072,70.75c-0.078,0-0.157-0.018-0.231-0.057c-0.245-0.128-0.339-0.43-0.212-0.675c1.085-2.08,0.828-3.716-0.765-4.863  c-1.339-0.964-2.723-4.399-4.113-10.211c-0.038-0.158-0.062-0.261-0.073-0.297c-0.074-0.262,0.072-0.54,0.332-0.62  c0.259-0.082,0.534,0.056,0.621,0.315c0.01,0.029,0.042,0.159,0.093,0.37c1.812,7.579,3.208,9.261,3.725,9.632  c2.001,1.441,2.38,3.621,1.067,6.137C57.426,70.653,57.252,70.75,57.072,70.75z"/><path d="M50.072,73.251c-0.12,0-0.236-0.043-0.328-0.123c-0.109-0.095-0.172-0.233-0.172-0.378l0.032-18.261  c0-0.257,0.196-0.472,0.453-0.497c0.355-0.034,1.25-0.484,1.9-3.926c0.027-0.145,0.049-0.238,0.058-0.266  c0.087-0.262,0.369-0.404,0.632-0.316c0.254,0.084,0.396,0.354,0.323,0.61l-0.031,0.157c-0.508,2.694-1.275,4.217-2.335,4.629  l-0.031,17.273c2.113-0.412,9.459-2.183,11.624-7.186c1.335-3.086,2.28-8.763,2.809-16.873c0.056-0.861,0.061-0.908,0.092-1.003  c0.087-0.261,0.37-0.402,0.632-0.317c0.262,0.087,0.404,0.37,0.317,0.632c0.003,0.022-0.014,0.308-0.043,0.752  c-0.2,3.065-0.808,12.395-2.889,17.205c-2.749,6.35-12.556,7.82-12.972,7.88C50.12,73.25,50.096,73.251,50.072,73.251z"/><path fill="none" stroke="#000000" stroke-linecap="round" stroke-miterlimit="10" d="M64.802,69.459"/><path fill="none" stroke="#000000" stroke-linecap="round" stroke-miterlimit="10" d="M69.677,73.646"/><path fill="none" stroke="#000000" stroke-linecap="round" stroke-miterlimit="10" d="M74.302,77.646"/><path fill="none" stroke="#000000" stroke-linecap="round" stroke-miterlimit="10" d="M54.927,71.396"/><path d="M49.761,49.521c-1.001-0.16-2.755-1.111-2.812-3.614c-0.062-2.752-0.125-9.632-0.125-9.632l-0.001-0.096l0.035-0.089  c0.021-0.054,0.497-1.226,2.291-1.566c0.055-1.942,0.12-4.72,0.089-5.016c-0.087-0.262,0.063-0.506,0.325-0.594  c0.127-0.042,0.262-0.022,0.376,0.041c0.101-0.035,0.214-0.039,0.324-0.002c0.238,0.079,0.377,0.321,0.334,0.561  c-0.021,0.361,0.105,3.114,0.204,5.039c1.794,0.331,2.311,1.466,2.333,1.518l0.043,0.098l-0.001,0.107c0,0-0.062,6.88-0.125,9.632  c-0.057,2.502-1.811,3.454-2.73,3.607L49.761,49.521z M47.824,36.389c0.009,0.933,0.066,6.964,0.124,9.496  c0.052,2.31,1.819,2.63,1.895,2.643l0.396-0.007c-0.01-0.006,1.761-0.353,1.812-2.636c0.058-2.522,0.115-8.519,0.124-9.486  c-0.138-0.206-0.632-0.785-1.902-0.912l-0.427-0.047l-0.161,0.016C48.417,35.583,47.951,36.179,47.824,36.389z"/><path d="M52.177,48.271c-0.178,0-0.35-0.095-0.44-0.262c-0.132-0.243-0.042-0.546,0.201-0.678c1.366-0.74,2.051-1.96,2.051-2.436  c0-0.704-1.396-0.876-1.41-0.877c-0.274-0.028-0.475-0.273-0.447-0.548c0.028-0.274,0.269-0.47,0.548-0.447  c0.857,0.086,2.309,0.578,2.309,1.873c0,0.944-0.963,2.442-2.574,3.314C52.339,48.252,52.258,48.271,52.177,48.271z"/><path d="M60.011,43.792c0,0-6.25,0.104-6.938-2.833s-1-5.438-1-5.438l-0.188-2.188c0,0,3.258,2.26,3.188,2.5  C53.636,40.709,59.511,43.667,60.011,43.792z"/><path d="M40.094,43.709c0,0,5.886,0.281,6.573-2.656s1-5.438,1-5.438l0.188-2.188c0,0-3.259,2.26-3.188,2.5  C46.104,40.803,40.594,43.584,40.094,43.709z"/><path d="M56.552,79.459c-0.092,0-0.186-0.025-0.27-0.079l-11.626-7.458c-0.232-0.149-0.3-0.458-0.151-0.691  c0.149-0.233,0.458-0.301,0.691-0.151l11.626,7.458c0.232,0.149,0.3,0.458,0.151,0.691C56.878,79.378,56.717,79.459,56.552,79.459z"/><path d="M52.996,88.399c-0.123,0-0.246-0.045-0.343-0.136L33.98,70.671c-0.201-0.189-0.21-0.506-0.021-0.707  c0.189-0.201,0.505-0.211,0.707-0.021l18.673,17.592c0.201,0.189,0.21,0.506,0.021,0.707C53.262,88.347,53.129,88.399,52.996,88.399  z"/><path d="M48.082,89.284c-0.098,0-0.196-0.029-0.283-0.088c-0.609-0.419-14.956-10.331-18.214-15.169  c-0.154-0.229-0.094-0.54,0.135-0.694c0.228-0.155,0.54-0.094,0.694,0.135c3.154,4.683,17.805,14.803,17.952,14.905  c0.228,0.156,0.285,0.468,0.128,0.695C48.397,89.208,48.241,89.284,48.082,89.284z"/><path d="M43.168,91.25c-0.059,0-0.119-0.01-0.177-0.032c-0.515-0.195-12.681-4.854-18.402-12.352  c-0.167-0.219-0.125-0.533,0.094-0.701c0.22-0.169,0.534-0.124,0.701,0.094c5.549,7.271,17.837,11.976,17.961,12.022  c0.258,0.098,0.389,0.386,0.291,0.645C43.56,91.126,43.37,91.25,43.168,91.25z"/><path d="M49.761,85.167c-0.146,0-0.291-0.063-0.39-0.186c-0.173-0.215-0.14-0.529,0.075-0.703c5.25-4.24,15.46-12.62,16.521-13.983  c0.169-0.217,0.483-0.258,0.702-0.087c0.218,0.169,0.257,0.483,0.087,0.702c-1.396,1.794-16.059,13.644-16.682,14.147  C49.982,85.131,49.872,85.167,49.761,85.167z"/><path d="M55.552,87.711c-0.152,0-0.302-0.069-0.4-0.2c-0.166-0.221-0.122-0.534,0.099-0.7c0.08-0.06,8.089-6.121,13.776-13.735  c0.165-0.221,0.479-0.267,0.7-0.101c0.221,0.165,0.267,0.479,0.101,0.7c-5.775,7.732-13.895,13.875-13.976,13.936  C55.762,87.679,55.657,87.711,55.552,87.711z"/><path d="M62.529,88.006c-0.131,0-0.263-0.052-0.361-0.154c-0.191-0.2-0.184-0.516,0.016-0.707l11.064-10.589  c0.199-0.191,0.516-0.184,0.707,0.016s0.184,0.516-0.016,0.707L62.875,87.868C62.778,87.96,62.654,88.006,62.529,88.006z"/><path d="M51.475,75.957c-0.144,0-0.286-0.061-0.385-0.18c-0.177-0.212-0.148-0.527,0.064-0.704c0.043-0.036,4.31-3.591,5.689-4.82  c0.206-0.184,0.521-0.167,0.706,0.041c0.184,0.206,0.166,0.522-0.041,0.706c-1.392,1.24-5.671,4.806-5.715,4.842  C51.701,75.918,51.588,75.957,51.475,75.957z"/><path d="M56.553,71c0,0-5.292,3.125-10.417,0.75s5.208,3.875,5.208,3.875l2.625-2.042L56.553,71z"/><text x="0" y="115" fill="#000000" font-size="5px" font-weight="bold" font-family="'Helvetica Neue', Helvetica, Arial-Unicode, Arial, Sans-serif">Created by Evgen Chekrygin</text><text x="0" y="120" fill="#000000" font-size="5px" font-weight="bold" font-family="'Helvetica Neue', Helvetica, Arial-Unicode, Arial, Sans-serif">from the Noun Project</text></svg>