<svg xmlns="http://www.w3.org/2000/svg" height="250" width="250" viewBox="0 0 393 393">
  <defs/>
  <g data-name="Layer 2">
    <g data-name="Layer 1">
      <path fill="#171717" d="M196.5-.002l196.498 196.498L196.5 392.994.002 196.496z"/>
      <path fill="#f5cd2c" d="M100.61 275.12l15.92 4.88 1.33 1.77c17-4.93 23.9-5.94 28.09-5.53-1.18-2.32-4.09-4.14-10-5.09l-15-.88c-10.4 7.83-16.83 4.25-20.57-7.08.48-11.23 5-16.33 16.58-10.39 8.67 7 17.32 12.94 25.88 15.26 9.65.43 15.52-3.37 19.68-9.07 4-5.12 6.07-12.36 6.64-21.23 4.54-1.84 9.12-5 13.71-8.63-2.7 5.38-5 12.31-6.85 21.68-2 10-6.69 16.76-13.05 21.45 4 1.46 8.49-1 13.27-6.41 2.87-5.16 4.85-11.62 6.19-19a35.4 35.4 0 015.09-14.16 57.36 57.36 0 00.22 26.54c2.07 8.14 1.95 15.1-1.78 20.16l1.33.41c5-1.07 6.47-7 5.31-16.37-1.42-13.49-1.7-26 1.55-35.38l4-1.77c2.3 8.55 2.9 19.34 2 32.07-2.44 14.62.49 19.45 6.19 20.34-3.13-6.38-3.49-13.35-.77-23a88.1 88.1 0 00-.55-24.29 274.09 274.09 0 0010.17 31.19c5.76 10.16 10.62 11.73 15 9.29a32.11 32.11 0 01-11.28-13.05l-8.62-29.2a27.67 27.67 0 0013.27 8c-.14 6.84 1.09 12.62 3.76 17.25 3.63 6.85 8.53 11.53 15.92 11.94 6.47.54 12.89-1.22 19.24-5.53 9.94-8.75 18.55-13.77 24.55-11.5 6.63 4.05 6.9 9.63 4.2 15.92-4.8 6.8-10 9.85-15.7 7.75-1.05-2.35-2.48-4.17-4.82-4.76a114.53 114.53 0 00-17.52 2.54l-6.61 4.76 27.2 4.64 2.21-1.54c7.87-1 14.79-4.94 20.79-11.73 2.36-12.1-1-19.95-10.17-23.44-6.89-.21-13.44 2.5-19.69 7.74-8.95 7.86-17.67 13.33-25.43 9.51-9.68-3.72-12.68-11.08-12.61-20.13 6.17 2 9.93 9.31 13.49 17 .72.63 1.21.36 1.55-.44-1.32-11.5-7.06-21.18-15-23.44l2-8.85c1.67-3.56 10.58-3.54 22.12-2.21-1.61-4.24-6.78-6.79-19.46-5.75 6.6-13.13 11.72-25.11 8.62-44.23-1.37-5.78-6.51-11.63-16.58-11.72-9.55 1.86-13.13 7.2-13.94 14.15.45 10.16 2.92 18.66 7.74 25.21 1.12 5.74.39 9.86-2.65 11.95-9.81 4-13.48-.62-14.38-9.07 7.75 3.77 13.1 4.73 13-.67-3.73 2.28-6.71 1.78-8.4-3.53 1.16-17.31 1.84-33-.22-39.15l4.42-7.08c-10.41-4.24-5.91-8 1.55-11.72-2.33-3.72-.84-7.4 2.65-11.06-7.31-1.52-8.72-4.23-4-8.18q-10.8 3.54-15-11.06c-1.24 7.58-4.62 13-15 11.06 3.93 4.35 1.85 6.78-4.86 7.74 6 3.12 7.27 7.07 3.32 11.94 8.62 3.87 10.72 7.89.88 12.17l5.31 5.08c-2.95 6.45-1.73 17.47 0 23.23 5.56 18.51-6.23 25.3-9.51 21.23 2 2.68 4.14 5.11 8.18 3.54l6.86-2.66c1.36 9-13.91 12.54-17.25 5.75-2.11-5.59-1.16-11.55 2.19-17.81 5.79-14.63 4.62-23.44-2.19-27.53-8.23-3.64-15.51-3.53-20.79 4.43-7.21 14.35-3 31.09 5.53 48.65q-15.6-.33-17.92 5.53c5.32 2 10.57-3.15 20.13 1.33l2.43 9.29c-8.8 4.41-14 11.74-14.15 23.22 5.42-9.53 10.1-14.78 14.15-16.37-.44 12.31-3.84 20.73-13.49 21-3 4.92-15.94-4.16-26.54-10.4-5.59-3.29-6.75-4.83-9.29-6-19.24-7.06-23.7 25.67-13.77 29.5zm122.52-60.6c3-3.58 2.25-10 2.22-10.17-.89-2.87-3.86-15.46-5.31-17s-2-7.29-2-9.73a9.29 9.29 0 019.29-9.29c5.13 0 9.73 5.09 9.73 10.18 0 2.06.17 5.38 0 7.29-.16 1.72-3 14.79-4.87 19.69-3.83 10.15-4.27 15.48-6.19 15.48-.13 0-12 1.9-12.17-.22s6.44-2.75 9.3-6.23zm-67.45-24.32c-1.2-1.92-.41-9.12.44-11.72 1.62-5 3.53-9.65 9.29-9.29 5.12.31 9.29 4.15 9.29 9.29 0 3.08-3.61 10.69-4.87 13.26-1.52 3.12-2.19 10.44-2.81 16.85-.86 8.76 12.77 11.2 12.54 11.46-1.72 2-12.61 1.25-13.93-.22-1.96-2.17-8.34-27.08-9.95-29.63z"/>
    </g>
  </g>
</svg>