<svg xmlns="http://www.w3.org/2000/svg" viewBox="0 0 471 471"><defs><style>.cls-1{fill:#b40304;}.cls-2{fill:#ffc914;}</style></defs><title>Lannister small</title><g id="Layer_2" data-name="Layer 2"><g id="Lannister_mobile" data-name="Lannister mobile"><circle class="cls-1" cx="235.5" cy="235.5" r="235.5"/><polygon class="cls-2" points="337.5 347.5 318.5 370.5 286.5 370.5 121.67 370.5 172.5 302.5 226.5 315.5 188.5 277.5 82.5 292.5 74.5 226.5 143.5 235.5 142.5 207.5 110.5 170.5 122.5 156.5 113.89 141.44 106.5 128.5 116.5 107.5 151.5 100.5 164.5 141.5 183.5 191.5 194.5 177.5 200.5 128.5 245.5 130.5 259.5 121.5 280.5 143.5 291.69 161.44 288.4 172.27 281.5 175.5 287.5 184.5 278.5 219.5 278.5 249.5 268.5 252.5 265.5 271.5 290.5 347.5 294.5 299.5 278.12 264.99 296.5 255.5 287.5 216.5 293.5 182.5 295.57 172.22 315.5 158.5 346.5 157.5 392.5 152.5 396.5 211.5 364.5 228.5 367.16 255.23 343.5 246.5 337.5 278.5 361.5 313.5 356.71 343.84 337.5 347.5"/></g></g></svg>